%TF.GenerationSoftware,KiCad,Pcbnew,(5.99.0-12218-g749d2d5987)*%
%TF.CreationDate,2021-09-15T17:58:56+03:00*%
%TF.ProjectId,stend_main_stencil,7374656e-645f-46d6-9169-6e5f7374656e,rev*%
%TF.SameCoordinates,PX258bd10PYee998b0*%
%TF.FileFunction,Paste,Top*%
%TF.FilePolarity,Positive*%
%FSLAX46Y46*%
G04 Gerber Fmt 4.6, Leading zero omitted, Abs format (unit mm)*
G04 Created by KiCad (PCBNEW (5.99.0-12218-g749d2d5987)) date 2021-09-15 17:58:56*
%MOMM*%
%LPD*%
G01*
G04 APERTURE LIST*
G04 Aperture macros list*
%AMRoundRect*
0 Rectangle with rounded corners*
0 $1 Rounding radius*
0 $2 $3 $4 $5 $6 $7 $8 $9 X,Y pos of 4 corners*
0 Add a 4 corners polygon primitive as box body*
4,1,4,$2,$3,$4,$5,$6,$7,$8,$9,$2,$3,0*
0 Add four circle primitives for the rounded corners*
1,1,$1+$1,$2,$3*
1,1,$1+$1,$4,$5*
1,1,$1+$1,$6,$7*
1,1,$1+$1,$8,$9*
0 Add four rect primitives between the rounded corners*
20,1,$1+$1,$2,$3,$4,$5,0*
20,1,$1+$1,$4,$5,$6,$7,0*
20,1,$1+$1,$6,$7,$8,$9,0*
20,1,$1+$1,$8,$9,$2,$3,0*%
G04 Aperture macros list end*
%ADD10RoundRect,0.243750X0.243750X0.456250X-0.243750X0.456250X-0.243750X-0.456250X0.243750X-0.456250X0*%
%ADD11RoundRect,0.250000X-0.262500X-0.450000X0.262500X-0.450000X0.262500X0.450000X-0.262500X0.450000X0*%
%ADD12RoundRect,0.250000X0.262500X0.450000X-0.262500X0.450000X-0.262500X-0.450000X0.262500X-0.450000X0*%
%ADD13R,0.900000X1.200000*%
%ADD14R,0.800000X0.900000*%
%ADD15R,1.300000X1.550000*%
%ADD16R,1.800000X0.800000*%
%ADD17RoundRect,0.250000X-0.450000X0.262500X-0.450000X-0.262500X0.450000X-0.262500X0.450000X0.262500X0*%
%ADD18RoundRect,0.243750X-0.243750X-0.456250X0.243750X-0.456250X0.243750X0.456250X-0.243750X0.456250X0*%
%ADD19RoundRect,0.250000X0.450000X-0.262500X0.450000X0.262500X-0.450000X0.262500X-0.450000X-0.262500X0*%
G04 APERTURE END LIST*
D10*
%TO.C,VD1*%
X123365500Y60960000D03*
X121490500Y60960000D03*
%TD*%
D11*
%TO.C,R35*%
X121261500Y129783992D03*
X123086500Y129783992D03*
%TD*%
D12*
%TO.C,R66*%
X248943500Y149860000D03*
X247118500Y149860000D03*
%TD*%
D13*
%TO.C,VD49*%
X260859000Y172212000D03*
X264159000Y172212000D03*
%TD*%
D14*
%TO.C,VT9*%
X120208000Y155210000D03*
X122108000Y155210000D03*
X121158000Y157210000D03*
%TD*%
%TO.C,VT17*%
X211648000Y155210000D03*
X213548000Y155210000D03*
X212598000Y157210000D03*
%TD*%
D11*
%TO.C,R62*%
X230481500Y175514000D03*
X232306500Y175514000D03*
%TD*%
D13*
%TO.C,VD23*%
X116206000Y126482000D03*
X119506000Y126482000D03*
%TD*%
D12*
%TO.C,R80*%
X9548500Y92202000D03*
X7723500Y92202000D03*
%TD*%
D13*
%TO.C,VD19*%
X78106000Y126482000D03*
X81406000Y126482000D03*
%TD*%
D15*
%TO.C,S2*%
X108422000Y12535000D03*
X108422000Y20485000D03*
X103922000Y20485000D03*
X103922000Y12535000D03*
%TD*%
D16*
%TO.C,K22*%
X242981800Y122380000D03*
X242981800Y119180000D03*
X242981800Y116980000D03*
X242981800Y114780000D03*
X249981800Y114780000D03*
X249981800Y116980000D03*
X249981800Y119180000D03*
X249981800Y122380000D03*
%TD*%
D12*
%TO.C,R36*%
X139800500Y149860000D03*
X137975500Y149860000D03*
%TD*%
D11*
%TO.C,R1*%
X116689500Y60960000D03*
X118514500Y60960000D03*
%TD*%
D10*
%TO.C,VD46*%
X244985300Y129784000D03*
X243110300Y129784000D03*
%TD*%
D11*
%TO.C,R55*%
X211685500Y152410000D03*
X213510500Y152410000D03*
%TD*%
%TO.C,R77*%
X266041500Y129784000D03*
X267866500Y129784000D03*
%TD*%
%TO.C,R78*%
X7977500Y119126000D03*
X9802500Y119126000D03*
%TD*%
D12*
%TO.C,R60*%
X231290500Y149860000D03*
X229465500Y149860000D03*
%TD*%
D13*
%TO.C,VD15*%
X60292000Y126482000D03*
X63592000Y126482000D03*
%TD*%
D16*
%TO.C,K8*%
X77928000Y122380000D03*
X77928000Y119180000D03*
X77928000Y116980000D03*
X77928000Y114780000D03*
X84928000Y114780000D03*
X84928000Y116980000D03*
X84928000Y119180000D03*
X84928000Y122380000D03*
%TD*%
D13*
%TO.C,VD45*%
X243079000Y172212000D03*
X246379000Y172212000D03*
%TD*%
%TO.C,VD35*%
X172035200Y126492000D03*
X175335200Y126492000D03*
%TD*%
D12*
%TO.C,R15*%
X48491500Y104130000D03*
X46666500Y104130000D03*
%TD*%
D14*
%TO.C,VT6*%
X64294000Y109480000D03*
X66194000Y109480000D03*
X65244000Y111480000D03*
%TD*%
D11*
%TO.C,R37*%
X137975500Y152410000D03*
X139800500Y152410000D03*
%TD*%
D14*
%TO.C,VT15*%
X176037200Y155200000D03*
X177937200Y155200000D03*
X176987200Y157200000D03*
%TD*%
D11*
%TO.C,R38*%
X138991500Y175514000D03*
X140816500Y175514000D03*
%TD*%
D10*
%TO.C,VD26*%
X135761500Y129784000D03*
X133886500Y129784000D03*
%TD*%
D11*
%TO.C,R8*%
X29821500Y175514000D03*
X31646500Y175514000D03*
%TD*%
D10*
%TO.C,VD10*%
X44452500Y129784000D03*
X42577500Y129784000D03*
%TD*%
%TO.C,VD32*%
X173860700Y175504000D03*
X171985700Y175504000D03*
%TD*%
D16*
%TO.C,K18*%
X207444000Y122380000D03*
X207444000Y119180000D03*
X207444000Y116980000D03*
X207444000Y114780000D03*
X214444000Y114780000D03*
X214444000Y116980000D03*
X214444000Y119180000D03*
X214444000Y122380000D03*
%TD*%
%TO.C,K11*%
X133758000Y168110000D03*
X133758000Y164910000D03*
X133758000Y162710000D03*
X133758000Y160510000D03*
X140758000Y160510000D03*
X140758000Y162710000D03*
X140758000Y164910000D03*
X140758000Y168110000D03*
%TD*%
%TO.C,K12*%
X133758000Y122380000D03*
X133758000Y119180000D03*
X133758000Y116980000D03*
X133758000Y114780000D03*
X140758000Y114780000D03*
X140758000Y116980000D03*
X140758000Y119180000D03*
X140758000Y122380000D03*
%TD*%
%TO.C,K7*%
X77928000Y168110000D03*
X77928000Y164910000D03*
X77928000Y162710000D03*
X77928000Y160510000D03*
X84928000Y160510000D03*
X84928000Y162710000D03*
X84928000Y164910000D03*
X84928000Y168110000D03*
%TD*%
D14*
%TO.C,VT13*%
X155717000Y155210000D03*
X157617000Y155210000D03*
X156667000Y157210000D03*
%TD*%
D11*
%TO.C,R17*%
X47682500Y129784000D03*
X49507500Y129784000D03*
%TD*%
D16*
%TO.C,K10*%
X116028000Y122380000D03*
X116028000Y119180000D03*
X116028000Y116980000D03*
X116028000Y114780000D03*
X123028000Y114780000D03*
X123028000Y116980000D03*
X123028000Y119180000D03*
X123028000Y122380000D03*
%TD*%
D10*
%TO.C,VD22*%
X118031500Y129784000D03*
X116156500Y129784000D03*
%TD*%
D12*
%TO.C,R48*%
X177899700Y149850000D03*
X176074700Y149850000D03*
%TD*%
D11*
%TO.C,R29*%
X83161500Y129784000D03*
X84986500Y129784000D03*
%TD*%
D12*
%TO.C,R79*%
X9802500Y116078000D03*
X7977500Y116078000D03*
%TD*%
%TO.C,R75*%
X266850500Y104130000D03*
X265025500Y104130000D03*
%TD*%
D14*
%TO.C,VT18*%
X211624000Y109480000D03*
X213524000Y109480000D03*
X212574000Y111480000D03*
%TD*%
%TO.C,VT3*%
X46629000Y155210000D03*
X48529000Y155210000D03*
X47579000Y157210000D03*
%TD*%
D11*
%TO.C,R2*%
X116689500Y55880000D03*
X118514500Y55880000D03*
%TD*%
D14*
%TO.C,VT25*%
X9840000Y113268000D03*
X7940000Y113268000D03*
X8890000Y111268000D03*
%TD*%
D11*
%TO.C,R52*%
X176074700Y106690000D03*
X177899700Y106690000D03*
%TD*%
D10*
%TO.C,VD40*%
X227251500Y175514000D03*
X225376500Y175514000D03*
%TD*%
%TO.C,VD20*%
X118031500Y175514000D03*
X116156500Y175514000D03*
%TD*%
D14*
%TO.C,VT12*%
X137938000Y109480000D03*
X139838000Y109480000D03*
X138888000Y111480000D03*
%TD*%
%TO.C,VT8*%
X82108000Y109480000D03*
X84008000Y109480000D03*
X83058000Y111480000D03*
%TD*%
D16*
%TO.C,K17*%
X207468000Y168110000D03*
X207468000Y164910000D03*
X207468000Y162710000D03*
X207468000Y160510000D03*
X214468000Y160510000D03*
X214468000Y162710000D03*
X214468000Y164910000D03*
X214468000Y168110000D03*
%TD*%
D11*
%TO.C,R20*%
X65347500Y175514000D03*
X67172500Y175514000D03*
%TD*%
%TO.C,R56*%
X212701500Y175514000D03*
X214526500Y175514000D03*
%TD*%
D10*
%TO.C,VD44*%
X244904500Y175514000D03*
X243029500Y175514000D03*
%TD*%
D16*
%TO.C,K25*%
X14940000Y100352000D03*
X14940000Y103552000D03*
X14940000Y105752000D03*
X14940000Y107952000D03*
X7940000Y107952000D03*
X7940000Y105752000D03*
X7940000Y103552000D03*
X7940000Y100352000D03*
%TD*%
D14*
%TO.C,VT7*%
X82108000Y155210000D03*
X84008000Y155210000D03*
X83058000Y157210000D03*
%TD*%
D10*
%TO.C,VD14*%
X62117500Y129784000D03*
X60242500Y129784000D03*
%TD*%
%TO.C,VD2*%
X123365500Y55880000D03*
X121490500Y55880000D03*
%TD*%
D14*
%TO.C,VT11*%
X137938000Y155210000D03*
X139838000Y155210000D03*
X138888000Y157210000D03*
%TD*%
D12*
%TO.C,R21*%
X66156500Y104130000D03*
X64331500Y104130000D03*
%TD*%
D13*
%TO.C,VD41*%
X225426000Y172212000D03*
X228726000Y172212000D03*
%TD*%
D12*
%TO.C,R63*%
X231288500Y104130000D03*
X229463500Y104130000D03*
%TD*%
%TO.C,R45*%
X157579500Y104130000D03*
X155754500Y104130000D03*
%TD*%
D13*
%TO.C,VD47*%
X243159800Y126482000D03*
X246459800Y126482000D03*
%TD*%
D10*
%TO.C,VD4*%
X26591500Y175514000D03*
X24716500Y175514000D03*
%TD*%
D11*
%TO.C,R16*%
X46666500Y106680000D03*
X48491500Y106680000D03*
%TD*%
D14*
%TO.C,VT19*%
X229428000Y155210000D03*
X231328000Y155210000D03*
X230378000Y157210000D03*
%TD*%
%TO.C,VT4*%
X46629000Y109480000D03*
X48529000Y109480000D03*
X47579000Y111480000D03*
%TD*%
D11*
%TO.C,R3*%
X116689500Y50800000D03*
X118514500Y50800000D03*
%TD*%
D12*
%TO.C,R12*%
X48491500Y149860000D03*
X46666500Y149860000D03*
%TD*%
D17*
%TO.C,R4*%
X118872000Y10056500D03*
X118872000Y8231500D03*
%TD*%
D16*
%TO.C,K6*%
X60114000Y122380000D03*
X60114000Y119180000D03*
X60114000Y116980000D03*
X60114000Y114780000D03*
X67114000Y114780000D03*
X67114000Y116980000D03*
X67114000Y119180000D03*
X67114000Y122380000D03*
%TD*%
D13*
%TO.C,VD17*%
X78106000Y172212000D03*
X81406000Y172212000D03*
%TD*%
D11*
%TO.C,R61*%
X229465500Y152410000D03*
X231290500Y152410000D03*
%TD*%
D14*
%TO.C,VT5*%
X64294000Y155210000D03*
X66194000Y155210000D03*
X65244000Y157210000D03*
%TD*%
D11*
%TO.C,R22*%
X64331500Y106680000D03*
X66156500Y106680000D03*
%TD*%
D16*
%TO.C,K1*%
X24588000Y168110000D03*
X24588000Y164910000D03*
X24588000Y162710000D03*
X24588000Y160510000D03*
X31588000Y160510000D03*
X31588000Y162710000D03*
X31588000Y164910000D03*
X31588000Y168110000D03*
%TD*%
D11*
%TO.C,R32*%
X121261500Y175514000D03*
X123086500Y175514000D03*
%TD*%
%TO.C,R64*%
X229463500Y106680000D03*
X231288500Y106680000D03*
%TD*%
%TO.C,R31*%
X120245500Y152410000D03*
X122070500Y152410000D03*
%TD*%
%TO.C,R70*%
X247199300Y106680000D03*
X249024300Y106680000D03*
%TD*%
%TO.C,R26*%
X83161500Y175514000D03*
X84986500Y175514000D03*
%TD*%
D10*
%TO.C,VD18*%
X79931500Y129784000D03*
X78056500Y129784000D03*
%TD*%
D16*
%TO.C,K14*%
X151537000Y122380000D03*
X151537000Y119180000D03*
X151537000Y116980000D03*
X151537000Y114780000D03*
X158537000Y114780000D03*
X158537000Y116980000D03*
X158537000Y119180000D03*
X158537000Y122380000D03*
%TD*%
D11*
%TO.C,R68*%
X248134500Y175514000D03*
X249959500Y175514000D03*
%TD*%
%TO.C,R28*%
X82145500Y106680000D03*
X83970500Y106680000D03*
%TD*%
%TO.C,R59*%
X212677500Y129784000D03*
X214502500Y129784000D03*
%TD*%
D12*
%TO.C,R57*%
X213486500Y104130000D03*
X211661500Y104130000D03*
%TD*%
D11*
%TO.C,R14*%
X47682500Y175514000D03*
X49507500Y175514000D03*
%TD*%
D12*
%TO.C,R42*%
X157579500Y149860000D03*
X155754500Y149860000D03*
%TD*%
D14*
%TO.C,VT1*%
X28768000Y155210000D03*
X30668000Y155210000D03*
X29718000Y157210000D03*
%TD*%
D12*
%TO.C,R33*%
X122070500Y104130000D03*
X120245500Y104130000D03*
%TD*%
D15*
%TO.C,S1*%
X118908000Y20739000D03*
X118908000Y12789000D03*
X123408000Y20739000D03*
X123408000Y12789000D03*
%TD*%
D11*
%TO.C,R67*%
X247118500Y152410000D03*
X248943500Y152410000D03*
%TD*%
D16*
%TO.C,K5*%
X60114000Y168110000D03*
X60114000Y164910000D03*
X60114000Y162710000D03*
X60114000Y160510000D03*
X67114000Y160510000D03*
X67114000Y162710000D03*
X67114000Y164910000D03*
X67114000Y168110000D03*
%TD*%
D13*
%TO.C,VD51*%
X260986000Y126482000D03*
X264286000Y126482000D03*
%TD*%
D11*
%TO.C,R49*%
X176074700Y152400000D03*
X177899700Y152400000D03*
%TD*%
D14*
%TO.C,VT20*%
X229426000Y109480000D03*
X231326000Y109480000D03*
X230376000Y111480000D03*
%TD*%
D18*
%TO.C,VD52*%
X13032500Y92202000D03*
X14907500Y92202000D03*
%TD*%
D10*
%TO.C,VD34*%
X173860700Y129794000D03*
X171985700Y129794000D03*
%TD*%
D16*
%TO.C,K13*%
X151537000Y168110000D03*
X151537000Y164910000D03*
X151537000Y162710000D03*
X151537000Y160510000D03*
X158537000Y160510000D03*
X158537000Y162710000D03*
X158537000Y164910000D03*
X158537000Y168110000D03*
%TD*%
D11*
%TO.C,R34*%
X120245500Y106680000D03*
X122070500Y106680000D03*
%TD*%
%TO.C,R74*%
X265914500Y175514000D03*
X267739500Y175514000D03*
%TD*%
%TO.C,R19*%
X64331500Y152410000D03*
X66156500Y152410000D03*
%TD*%
D16*
%TO.C,K20*%
X225246000Y122380000D03*
X225246000Y119180000D03*
X225246000Y116980000D03*
X225246000Y114780000D03*
X232246000Y114780000D03*
X232246000Y116980000D03*
X232246000Y119180000D03*
X232246000Y122380000D03*
%TD*%
D12*
%TO.C,R24*%
X83970500Y149860000D03*
X82145500Y149860000D03*
%TD*%
D14*
%TO.C,VT21*%
X247081000Y155210000D03*
X248981000Y155210000D03*
X248031000Y157210000D03*
%TD*%
D11*
%TO.C,R41*%
X138991500Y129784000D03*
X140816500Y129784000D03*
%TD*%
D13*
%TO.C,VD21*%
X116206000Y172212000D03*
X119506000Y172212000D03*
%TD*%
D12*
%TO.C,R69*%
X249024300Y104130000D03*
X247199300Y104130000D03*
%TD*%
D13*
%TO.C,VD43*%
X225424000Y126482000D03*
X228724000Y126482000D03*
%TD*%
D12*
%TO.C,R30*%
X122070500Y149860000D03*
X120245500Y149860000D03*
%TD*%
D13*
%TO.C,VD29*%
X151715000Y172212000D03*
X155015000Y172212000D03*
%TD*%
D11*
%TO.C,R43*%
X155754500Y152410000D03*
X157579500Y152410000D03*
%TD*%
D16*
%TO.C,K24*%
X260808000Y122380000D03*
X260808000Y119180000D03*
X260808000Y116980000D03*
X260808000Y114780000D03*
X267808000Y114780000D03*
X267808000Y116980000D03*
X267808000Y119180000D03*
X267808000Y122380000D03*
%TD*%
D13*
%TO.C,VD33*%
X172035200Y172202000D03*
X175335200Y172202000D03*
%TD*%
%TO.C,VD37*%
X207646000Y172212000D03*
X210946000Y172212000D03*
%TD*%
D16*
%TO.C,K4*%
X42449000Y122380000D03*
X42449000Y119180000D03*
X42449000Y116980000D03*
X42449000Y114780000D03*
X49449000Y114780000D03*
X49449000Y116980000D03*
X49449000Y119180000D03*
X49449000Y122380000D03*
%TD*%
D11*
%TO.C,R46*%
X155754500Y106680000D03*
X157579500Y106680000D03*
%TD*%
D10*
%TO.C,VD48*%
X262684500Y175514000D03*
X260809500Y175514000D03*
%TD*%
D11*
%TO.C,R7*%
X28805500Y152410000D03*
X30630500Y152410000D03*
%TD*%
%TO.C,R76*%
X265025500Y106680000D03*
X266850500Y106680000D03*
%TD*%
%TO.C,R71*%
X248215300Y129784000D03*
X250040300Y129784000D03*
%TD*%
D13*
%TO.C,VD9*%
X42627000Y172212000D03*
X45927000Y172212000D03*
%TD*%
D12*
%TO.C,R51*%
X177899700Y104140000D03*
X176074700Y104140000D03*
%TD*%
D13*
%TO.C,VD53*%
X14858000Y96266000D03*
X11558000Y96266000D03*
%TD*%
D10*
%TO.C,VD3*%
X123365500Y50800000D03*
X121490500Y50800000D03*
%TD*%
D11*
%TO.C,R23*%
X65347500Y129784000D03*
X67172500Y129784000D03*
%TD*%
D13*
%TO.C,VD13*%
X60292000Y172212000D03*
X63592000Y172212000D03*
%TD*%
%TO.C,VD11*%
X42627000Y126482000D03*
X45927000Y126482000D03*
%TD*%
D12*
%TO.C,R54*%
X213510500Y149860000D03*
X211685500Y149860000D03*
%TD*%
D16*
%TO.C,K16*%
X171857200Y122390000D03*
X171857200Y119190000D03*
X171857200Y116990000D03*
X171857200Y114790000D03*
X178857200Y114790000D03*
X178857200Y116990000D03*
X178857200Y119190000D03*
X178857200Y122390000D03*
%TD*%
D12*
%TO.C,R72*%
X266723500Y149860000D03*
X264898500Y149860000D03*
%TD*%
D10*
%TO.C,VD30*%
X153540500Y129784000D03*
X151665500Y129784000D03*
%TD*%
%TO.C,VD16*%
X79931500Y175514000D03*
X78056500Y175514000D03*
%TD*%
%TO.C,VD42*%
X227249500Y129784000D03*
X225374500Y129784000D03*
%TD*%
D14*
%TO.C,VT23*%
X264861000Y155210000D03*
X266761000Y155210000D03*
X265811000Y157210000D03*
%TD*%
D11*
%TO.C,R65*%
X230479500Y129784000D03*
X232304500Y129784000D03*
%TD*%
D13*
%TO.C,VD27*%
X133936000Y126482000D03*
X137236000Y126482000D03*
%TD*%
D16*
%TO.C,K19*%
X225248000Y168110000D03*
X225248000Y164910000D03*
X225248000Y162710000D03*
X225248000Y160510000D03*
X232248000Y160510000D03*
X232248000Y162710000D03*
X232248000Y164910000D03*
X232248000Y168110000D03*
%TD*%
D12*
%TO.C,R18*%
X66156500Y149860000D03*
X64331500Y149860000D03*
%TD*%
D19*
%TO.C,R5*%
X108458000Y8231500D03*
X108458000Y10056500D03*
%TD*%
D13*
%TO.C,VD5*%
X24766000Y172212000D03*
X28066000Y172212000D03*
%TD*%
D14*
%TO.C,VT22*%
X247161800Y109480000D03*
X249061800Y109480000D03*
X248111800Y111480000D03*
%TD*%
%TO.C,VT16*%
X176037200Y109490000D03*
X177937200Y109490000D03*
X176987200Y111490000D03*
%TD*%
D13*
%TO.C,VD31*%
X151715000Y126482000D03*
X155015000Y126482000D03*
%TD*%
D11*
%TO.C,R58*%
X211661500Y106680000D03*
X213486500Y106680000D03*
%TD*%
D10*
%TO.C,VD28*%
X153540500Y175514000D03*
X151665500Y175514000D03*
%TD*%
D12*
%TO.C,R39*%
X139800500Y104130000D03*
X137975500Y104130000D03*
%TD*%
D13*
%TO.C,VD39*%
X207622000Y126482000D03*
X210922000Y126482000D03*
%TD*%
D11*
%TO.C,R25*%
X82145500Y152410000D03*
X83970500Y152410000D03*
%TD*%
%TO.C,R13*%
X46666500Y152410000D03*
X48491500Y152410000D03*
%TD*%
D10*
%TO.C,VD36*%
X209471500Y175514000D03*
X207596500Y175514000D03*
%TD*%
D16*
%TO.C,K21*%
X242901000Y168110000D03*
X242901000Y164910000D03*
X242901000Y162710000D03*
X242901000Y160510000D03*
X249901000Y160510000D03*
X249901000Y162710000D03*
X249901000Y164910000D03*
X249901000Y168110000D03*
%TD*%
D14*
%TO.C,VT14*%
X155717000Y109480000D03*
X157617000Y109480000D03*
X156667000Y111480000D03*
%TD*%
D11*
%TO.C,R50*%
X177090700Y175504000D03*
X178915700Y175504000D03*
%TD*%
D12*
%TO.C,R6*%
X30630500Y149860000D03*
X28805500Y149860000D03*
%TD*%
D10*
%TO.C,VD12*%
X62117500Y175514000D03*
X60242500Y175514000D03*
%TD*%
D16*
%TO.C,K3*%
X42449000Y168110000D03*
X42449000Y164910000D03*
X42449000Y162710000D03*
X42449000Y160510000D03*
X49449000Y160510000D03*
X49449000Y162710000D03*
X49449000Y164910000D03*
X49449000Y168110000D03*
%TD*%
%TO.C,K15*%
X171857200Y168100000D03*
X171857200Y164900000D03*
X171857200Y162700000D03*
X171857200Y160500000D03*
X178857200Y160500000D03*
X178857200Y162700000D03*
X178857200Y164900000D03*
X178857200Y168100000D03*
%TD*%
D14*
%TO.C,VT10*%
X120208000Y109480000D03*
X122108000Y109480000D03*
X121158000Y111480000D03*
%TD*%
D10*
%TO.C,VD38*%
X209447500Y129784000D03*
X207572500Y129784000D03*
%TD*%
%TO.C,VD50*%
X262811500Y129784000D03*
X260936500Y129784000D03*
%TD*%
%TO.C,VD24*%
X135761500Y175514000D03*
X133886500Y175514000D03*
%TD*%
D11*
%TO.C,R47*%
X156770500Y129784000D03*
X158595500Y129784000D03*
%TD*%
D12*
%TO.C,R27*%
X83970500Y104130000D03*
X82145500Y104130000D03*
%TD*%
D16*
%TO.C,K23*%
X260681000Y168110000D03*
X260681000Y164910000D03*
X260681000Y162710000D03*
X260681000Y160510000D03*
X267681000Y160510000D03*
X267681000Y162710000D03*
X267681000Y164910000D03*
X267681000Y168110000D03*
%TD*%
D14*
%TO.C,VT24*%
X264988000Y109480000D03*
X266888000Y109480000D03*
X265938000Y111480000D03*
%TD*%
D11*
%TO.C,R53*%
X177090700Y129794000D03*
X178915700Y129794000D03*
%TD*%
%TO.C,R44*%
X156770500Y175514000D03*
X158595500Y175514000D03*
%TD*%
D16*
%TO.C,K9*%
X116028000Y168110000D03*
X116028000Y164910000D03*
X116028000Y162710000D03*
X116028000Y160510000D03*
X123028000Y160510000D03*
X123028000Y162710000D03*
X123028000Y164910000D03*
X123028000Y168110000D03*
%TD*%
D11*
%TO.C,R73*%
X264898500Y152410000D03*
X266723500Y152410000D03*
%TD*%
D13*
%TO.C,VD25*%
X133936000Y172212000D03*
X137236000Y172212000D03*
%TD*%
D11*
%TO.C,R40*%
X137975500Y106680000D03*
X139800500Y106680000D03*
%TD*%
D10*
%TO.C,VD8*%
X44452500Y175514000D03*
X42577500Y175514000D03*
%TD*%
M02*
