M48
; DRILL file {KiCad (5.99.0-12218-g749d2d5987)} date Tue Sep 14 22:46:06 2021
; FORMAT={-:-/ absolute / inch / decimal}
; #@! TF.CreationDate,2021-09-14T22:46:06+03:00
; #@! TF.GenerationSoftware,Kicad,Pcbnew,(5.99.0-12218-g749d2d5987)
; #@! TF.FileFunction,Plated,1,2,PTH
FMAT,2
INCH
; #@! TA.AperFunction,Plated,PTH,ViaDrill
T1C0.0157
; #@! TA.AperFunction,Plated,PTH,ComponentDrill
T2C0.0315
; #@! TA.AperFunction,Plated,PTH,ComponentDrill
T3C0.0374
; #@! TA.AperFunction,Plated,PTH,ComponentDrill
T4C0.0394
; #@! TA.AperFunction,Plated,PTH,ComponentDrill
T5C0.0433
; #@! TA.AperFunction,Plated,PTH,ComponentDrill
T6C0.0669
%
G90
G05
T1
X0.23Y4.34
X0.9Y4.82
X1.05Y6.62
X1.28Y6.13
X1.3058Y4.3358
X1.59Y4.82
X1.74Y6.62
X1.98Y4.34
X1.99Y6.14
X2.08Y5.75
X2.24Y5.75
X2.3Y4.82
X2.43Y6.62
X2.68Y4.34
X2.77Y6.14
X3.0Y4.82
X3.15Y6.62
X3.3858Y4.3358
X3.4Y6.14
X3.84Y0.51
X3.84Y0.28
X3.93Y0.81
X4.32Y4.82
X4.63Y2.96
X4.65Y6.62
X4.65Y4.82
X4.79Y0.81
X4.8683Y6.1417
X4.8762Y4.3362
X5.34Y6.62
X5.34Y4.82
X5.5783Y6.1417
X5.5862Y4.3362
X5.705Y5.735
X5.88Y5.74
X6.04Y6.62
X6.04Y4.82
X6.2762Y4.3362
X6.2783Y6.1417
X6.698Y4.19
X6.83Y6.62
X6.85Y4.82
X7.0738Y4.3362
X7.0783Y6.1417
X7.65Y5.99
X7.65Y4.19
X7.74Y4.34
X7.7417Y6.1417
X7.8Y6.62
X7.8Y4.82
X8.24Y4.82
X8.25Y6.62
X8.4662Y4.3362
X8.47Y6.14
X8.95Y6.62
X8.95Y4.82
X9.1617Y6.1417
X9.1862Y4.34
X9.36Y5.7
X9.49Y5.7
X9.64Y6.62
X9.64Y4.82
X9.8683Y6.1417
X9.87Y4.34
X10.34Y4.82
X10.37Y6.62
X10.58Y4.33
X10.6Y6.14
T2
X0.2296Y2.42
X0.2296Y2.32
X0.2296Y2.22
X0.2296Y2.12
X0.2296Y2.02
X0.2296Y1.82
X0.2296Y1.52
X0.2296Y1.32
X0.2296Y1.22
X0.2296Y1.12
X0.2296Y1.02
X0.2296Y0.92
X0.3296Y2.42
X0.3296Y2.42
X0.3296Y2.32
X0.3296Y2.32
X0.3296Y2.22
X0.3296Y2.22
X0.3296Y2.12
X0.3296Y2.12
X0.3296Y2.02
X0.3296Y2.02
X0.3296Y1.82
X0.3296Y1.52
X0.3296Y1.32
X0.3296Y1.22
X0.3296Y1.12
X0.3296Y1.02
X0.3296Y0.92
X0.4296Y2.42
X0.4296Y2.32
X0.4296Y2.22
X0.4296Y2.12
X0.4296Y2.02
X0.4296Y2.02
X0.4296Y1.82
X0.4296Y1.52
X0.4296Y1.32
X0.4296Y1.22
X0.4296Y1.12
X0.4296Y1.02
X0.4296Y0.92
X0.5296Y2.42
X0.5296Y2.32
X0.5296Y2.22
X0.5296Y2.12
X0.5296Y2.02
X0.5296Y1.82
X0.5296Y1.52
X0.5296Y1.32
X0.5296Y1.22
X0.5296Y1.12
X0.5296Y1.02
X0.5296Y0.92
X0.6296Y2.42
X0.6296Y2.32
X0.6296Y2.22
X0.6296Y2.12
X0.6296Y2.02
X0.6296Y1.82
X0.6296Y1.52
X0.6296Y1.32
X0.6296Y1.22
X0.6296Y1.12
X0.6296Y1.02
X0.6296Y0.92
X0.7296Y2.42
X0.7296Y2.32
X0.7296Y2.22
X0.7296Y2.12
X0.7296Y2.02
X0.7296Y1.82
X0.7296Y1.52
X0.7296Y1.32
X0.7296Y1.22
X0.7296Y1.12
X0.7296Y1.02
X0.7296Y0.92
X0.8296Y2.42
X0.8296Y2.32
X0.8296Y2.22
X0.8296Y2.12
X0.8296Y2.02
X0.8296Y1.82
X0.8296Y1.52
X0.8296Y1.32
X0.8296Y1.22
X0.8296Y1.12
X0.8296Y1.02
X0.8296Y0.92
X0.9296Y2.42
X0.9296Y2.32
X0.9296Y2.22
X0.9296Y2.12
X0.9296Y2.02
X0.9296Y1.82
X0.9296Y1.52
X0.9296Y1.32
X0.9296Y1.22
X0.9296Y1.12
X0.9296Y1.02
X0.9296Y0.92
X1.7696Y3.4996
X1.7696Y3.1996
X1.8696Y3.4996
X1.8696Y3.1996
X1.9696Y3.4996
X1.9696Y3.1996
X2.0696Y3.4996
X2.0696Y3.1996
X2.1696Y3.4996
X2.1696Y3.1996
X2.2696Y3.4996
X2.2696Y3.1996
X2.3696Y3.4996
X2.3696Y3.1996
X2.4696Y3.4996
X2.4696Y3.1996
X5.3996Y3.4996
X5.3996Y3.1996
X5.4996Y3.4996
X5.4996Y3.1996
X5.57Y2.5562
X5.57Y2.4562
X5.57Y2.3562
X5.57Y2.2562
X5.57Y2.1562
X5.57Y2.0562
X5.57Y1.9562
X5.57Y1.8562
X5.57Y1.0881
X5.57Y0.9881
X5.57Y0.8881
X5.57Y0.7881
X5.57Y0.6881
X5.57Y0.5881
X5.57Y0.4881
X5.57Y0.3881
X5.5996Y3.4996
X5.5996Y3.1996
X5.67Y2.5562
X5.67Y2.4562
X5.67Y2.3562
X5.67Y2.2562
X5.67Y2.1562
X5.67Y2.0562
X5.67Y1.9562
X5.67Y1.8562
X5.67Y1.0881
X5.67Y0.9881
X5.67Y0.8881
X5.67Y0.7881
X5.67Y0.6881
X5.67Y0.5881
X5.67Y0.4881
X5.67Y0.3881
X5.6996Y3.4996
X5.6996Y3.1996
X5.77Y2.5562
X5.77Y2.4562
X5.77Y2.3562
X5.77Y2.2562
X5.77Y2.1562
X5.77Y2.0562
X5.77Y1.9562
X5.77Y1.8562
X5.77Y1.0881
X5.77Y0.9881
X5.77Y0.8881
X5.77Y0.7881
X5.77Y0.6881
X5.77Y0.5881
X5.77Y0.4881
X5.77Y0.3881
X5.7996Y3.4996
X5.7996Y3.1996
X5.87Y2.5562
X5.87Y2.4562
X5.87Y2.3562
X5.87Y2.2562
X5.87Y2.1562
X5.87Y2.0562
X5.87Y1.9562
X5.87Y1.8562
X5.87Y1.0881
X5.87Y0.9881
X5.87Y0.8881
X5.87Y0.7881
X5.87Y0.6881
X5.87Y0.5881
X5.87Y0.4881
X5.87Y0.3881
X5.8996Y3.4996
X5.8996Y3.1996
X5.97Y2.5562
X5.97Y2.4562
X5.97Y2.3562
X5.97Y2.2562
X5.97Y2.1562
X5.97Y2.0562
X5.97Y1.9562
X5.97Y1.8562
X5.97Y1.0881
X5.97Y0.9881
X5.97Y0.8881
X5.97Y0.7881
X5.97Y0.6881
X5.97Y0.5881
X5.97Y0.4881
X5.97Y0.3881
X5.9996Y3.4996
X5.9996Y3.1996
X6.0996Y3.4996
X6.0996Y3.1996
X6.17Y2.5562
X6.17Y2.4562
X6.17Y2.3562
X6.17Y2.2562
X6.17Y2.1562
X6.17Y2.0562
X6.17Y1.9562
X6.17Y1.8562
X6.17Y1.0881
X6.17Y0.9881
X6.17Y0.8881
X6.17Y0.7881
X6.17Y0.6881
X6.17Y0.5881
X6.17Y0.4881
X6.17Y0.3881
X6.47Y2.5562
X6.47Y2.4562
X6.47Y2.3562
X6.47Y2.2562
X6.47Y2.1562
X6.47Y2.0562
X6.47Y1.9562
X6.47Y1.8562
X6.47Y1.0881
X6.47Y0.9881
X6.47Y0.8881
X6.47Y0.7881
X6.47Y0.6881
X6.47Y0.5881
X6.47Y0.4881
X6.47Y0.3881
X6.67Y2.5562
X6.67Y2.4562
X6.67Y2.4562
X6.67Y2.3562
X6.67Y2.3562
X6.67Y2.2562
X6.67Y2.1562
X6.67Y2.0562
X6.67Y1.9562
X6.67Y1.8562
X6.67Y1.0881
X6.67Y0.9881
X6.67Y0.9881
X6.67Y0.8881
X6.67Y0.8881
X6.67Y0.7881
X6.67Y0.6881
X6.67Y0.5881
X6.67Y0.4881
X6.67Y0.3881
X6.77Y2.5562
X6.77Y2.4562
X6.77Y2.4562
X6.77Y2.3562
X6.77Y2.2562
X6.77Y2.1562
X6.77Y2.0562
X6.77Y1.9562
X6.77Y1.8562
X6.77Y1.0881
X6.77Y0.9881
X6.77Y0.9881
X6.77Y0.8881
X6.77Y0.7881
X6.77Y0.6881
X6.77Y0.5881
X6.77Y0.4881
X6.77Y0.3881
X6.87Y2.5562
X6.87Y2.4562
X6.87Y2.4562
X6.87Y2.3562
X6.87Y2.2562
X6.87Y2.1562
X6.87Y2.0562
X6.87Y1.9562
X6.87Y1.8562
X6.87Y1.0881
X6.87Y0.9881
X6.87Y0.9881
X6.87Y0.8881
X6.87Y0.7881
X6.87Y0.6881
X6.87Y0.5881
X6.87Y0.4881
X6.87Y0.3881
X6.97Y2.5562
X6.97Y2.4562
X6.97Y2.4562
X6.97Y2.3562
X6.97Y2.2562
X6.97Y2.1562
X6.97Y2.0562
X6.97Y1.9562
X6.97Y1.8562
X6.97Y1.0881
X6.97Y0.9881
X6.97Y0.9881
X6.97Y0.8881
X6.97Y0.7881
X6.97Y0.6881
X6.97Y0.5881
X6.97Y0.4881
X6.97Y0.3881
X7.07Y2.5562
X7.07Y2.4562
X7.07Y2.4562
X7.07Y2.3562
X7.07Y2.2562
X7.07Y2.1562
X7.07Y2.0562
X7.07Y1.9562
X7.07Y1.8562
X7.07Y1.0881
X7.07Y0.9881
X7.07Y0.9881
X7.07Y0.8881
X7.07Y0.7881
X7.07Y0.6881
X7.07Y0.5881
X7.07Y0.4881
X7.07Y0.3881
X7.6039Y2.5562
X7.6039Y2.4562
X7.6039Y2.3562
X7.6039Y2.2562
X7.6039Y2.1562
X7.6039Y2.0562
X7.6039Y1.9562
X7.6039Y1.8562
X7.6039Y1.0881
X7.6039Y0.9881
X7.6039Y0.8881
X7.6039Y0.7881
X7.6039Y0.6881
X7.6039Y0.5881
X7.6039Y0.4881
X7.6039Y0.3881
X7.7039Y2.5562
X7.7039Y2.4562
X7.7039Y2.3562
X7.7039Y2.2562
X7.7039Y2.1562
X7.7039Y2.0562
X7.7039Y1.9562
X7.7039Y1.8562
X7.7039Y1.0881
X7.7039Y0.9881
X7.7039Y0.8881
X7.7039Y0.7881
X7.7039Y0.6881
X7.7039Y0.5881
X7.7039Y0.4881
X7.7039Y0.3881
X7.8039Y2.5562
X7.8039Y2.4562
X7.8039Y2.3562
X7.8039Y2.2562
X7.8039Y2.1562
X7.8039Y2.0562
X7.8039Y1.9562
X7.8039Y1.8562
X7.8039Y1.0881
X7.8039Y0.9881
X7.8039Y0.8881
X7.8039Y0.7881
X7.8039Y0.6881
X7.8039Y0.5881
X7.8039Y0.4881
X7.8039Y0.3881
X7.9039Y2.5562
X7.9039Y2.4562
X7.9039Y2.3562
X7.9039Y2.2562
X7.9039Y2.1562
X7.9039Y2.0562
X7.9039Y1.9562
X7.9039Y1.8562
X7.9039Y1.0881
X7.9039Y0.9881
X7.9039Y0.8881
X7.9039Y0.7881
X7.9039Y0.6881
X7.9039Y0.5881
X7.9039Y0.4881
X7.9039Y0.3881
X8.0039Y2.5562
X8.0039Y2.4562
X8.0039Y2.3562
X8.0039Y2.2562
X8.0039Y2.1562
X8.0039Y2.0562
X8.0039Y1.9562
X8.0039Y1.8562
X8.0039Y1.0881
X8.0039Y0.9881
X8.0039Y0.8881
X8.0039Y0.7881
X8.0039Y0.6881
X8.0039Y0.5881
X8.0039Y0.4881
X8.0039Y0.3881
X8.2039Y2.5562
X8.2039Y2.4562
X8.2039Y2.3562
X8.2039Y2.2562
X8.2039Y2.1562
X8.2039Y2.0562
X8.2039Y1.9562
X8.2039Y1.8562
X8.2039Y1.0881
X8.2039Y0.9881
X8.2039Y0.8881
X8.2039Y0.7881
X8.2039Y0.6881
X8.2039Y0.5881
X8.2039Y0.4881
X8.2039Y0.3881
X8.5039Y2.5562
X8.5039Y2.4562
X8.5039Y2.3562
X8.5039Y2.2562
X8.5039Y2.1562
X8.5039Y2.0562
X8.5039Y1.9562
X8.5039Y1.8562
X8.5039Y1.0881
X8.5039Y0.9881
X8.5039Y0.8881
X8.5039Y0.7881
X8.5039Y0.6881
X8.5039Y0.5881
X8.5039Y0.4881
X8.5039Y0.3881
X8.7039Y2.5562
X8.7039Y2.4562
X8.7039Y2.4562
X8.7039Y2.3562
X8.7039Y2.3562
X8.7039Y2.2562
X8.7039Y2.1562
X8.7039Y2.0562
X8.7039Y1.9562
X8.7039Y1.8562
X8.7039Y1.0881
X8.7039Y0.9881
X8.7039Y0.9881
X8.7039Y0.8881
X8.7039Y0.8881
X8.7039Y0.7881
X8.7039Y0.6881
X8.7039Y0.5881
X8.7039Y0.4881
X8.7039Y0.3881
X8.8039Y2.5562
X8.8039Y2.4562
X8.8039Y2.4562
X8.8039Y2.3562
X8.8039Y2.2562
X8.8039Y2.1562
X8.8039Y2.0562
X8.8039Y1.9562
X8.8039Y1.8562
X8.8039Y1.0881
X8.8039Y0.9881
X8.8039Y0.9881
X8.8039Y0.8881
X8.8039Y0.7881
X8.8039Y0.6881
X8.8039Y0.5881
X8.8039Y0.4881
X8.8039Y0.3881
X8.9039Y2.5562
X8.9039Y2.4562
X8.9039Y2.4562
X8.9039Y2.3562
X8.9039Y2.2562
X8.9039Y2.1562
X8.9039Y2.0562
X8.9039Y1.9562
X8.9039Y1.8562
X8.9039Y1.0881
X8.9039Y0.9881
X8.9039Y0.9881
X8.9039Y0.8881
X8.9039Y0.7881
X8.9039Y0.6881
X8.9039Y0.5881
X8.9039Y0.4881
X8.9039Y0.3881
X9.0039Y2.5562
X9.0039Y2.4562
X9.0039Y2.4562
X9.0039Y2.3562
X9.0039Y2.2562
X9.0039Y2.1562
X9.0039Y2.0562
X9.0039Y1.9562
X9.0039Y1.8562
X9.0039Y1.0881
X9.0039Y0.9881
X9.0039Y0.9881
X9.0039Y0.8881
X9.0039Y0.7881
X9.0039Y0.6881
X9.0039Y0.5881
X9.0039Y0.4881
X9.0039Y0.3881
X9.06Y3.4996
X9.06Y3.1996
X9.1039Y2.5562
X9.1039Y2.4562
X9.1039Y2.4562
X9.1039Y2.3562
X9.1039Y2.2562
X9.1039Y2.1562
X9.1039Y2.0562
X9.1039Y1.9562
X9.1039Y1.8562
X9.1039Y1.0881
X9.1039Y0.9881
X9.1039Y0.9881
X9.1039Y0.8881
X9.1039Y0.7881
X9.1039Y0.6881
X9.1039Y0.5881
X9.1039Y0.4881
X9.1039Y0.3881
X9.16Y3.4996
X9.16Y3.1996
X9.26Y3.4996
X9.26Y3.1996
X9.36Y3.4996
X9.36Y3.1996
X9.46Y3.4996
X9.46Y3.1996
X9.56Y3.4996
X9.56Y3.1996
X9.66Y3.4996
X9.66Y3.1996
X9.76Y3.4996
X9.76Y3.1996
X11.19Y5.97
X11.19Y5.87
X11.19Y5.77
X11.19Y5.67
X11.19Y5.57
X11.19Y5.37
X11.19Y5.07
X11.19Y4.87
X11.19Y4.77
X11.19Y4.67
X11.19Y4.57
X11.19Y4.47
X11.19Y3.76
X11.19Y3.66
X11.19Y3.56
X11.19Y3.46
X11.19Y3.36
X11.19Y3.16
X11.19Y2.86
X11.19Y2.66
X11.19Y2.56
X11.19Y2.46
X11.19Y2.36
X11.19Y2.26
X11.29Y5.97
X11.29Y5.97
X11.29Y5.87
X11.29Y5.87
X11.29Y5.77
X11.29Y5.77
X11.29Y5.67
X11.29Y5.67
X11.29Y5.57
X11.29Y5.57
X11.29Y5.37
X11.29Y5.07
X11.29Y4.87
X11.29Y4.77
X11.29Y4.67
X11.29Y4.57
X11.29Y4.47
X11.29Y3.76
X11.29Y3.76
X11.29Y3.66
X11.29Y3.66
X11.29Y3.56
X11.29Y3.56
X11.29Y3.46
X11.29Y3.46
X11.29Y3.36
X11.29Y3.36
X11.29Y3.16
X11.29Y2.86
X11.29Y2.66
X11.29Y2.56
X11.29Y2.46
X11.29Y2.36
X11.29Y2.26
X11.39Y5.97
X11.39Y5.87
X11.39Y5.77
X11.39Y5.67
X11.39Y5.57
X11.39Y5.57
X11.39Y5.37
X11.39Y5.07
X11.39Y4.87
X11.39Y4.77
X11.39Y4.67
X11.39Y4.57
X11.39Y4.47
X11.39Y3.76
X11.39Y3.66
X11.39Y3.56
X11.39Y3.46
X11.39Y3.36
X11.39Y3.36
X11.39Y3.16
X11.39Y2.86
X11.39Y2.66
X11.39Y2.56
X11.39Y2.46
X11.39Y2.36
X11.39Y2.26
X11.49Y5.97
X11.49Y5.87
X11.49Y5.77
X11.49Y5.67
X11.49Y5.57
X11.49Y5.37
X11.49Y5.07
X11.49Y4.87
X11.49Y4.77
X11.49Y4.67
X11.49Y4.57
X11.49Y4.47
X11.49Y3.76
X11.49Y3.66
X11.49Y3.56
X11.49Y3.46
X11.49Y3.36
X11.49Y3.16
X11.49Y2.86
X11.49Y2.66
X11.49Y2.56
X11.49Y2.46
X11.49Y2.36
X11.49Y2.26
X11.59Y5.97
X11.59Y5.87
X11.59Y5.77
X11.59Y5.67
X11.59Y5.57
X11.59Y5.37
X11.59Y5.07
X11.59Y4.87
X11.59Y4.77
X11.59Y4.67
X11.59Y4.57
X11.59Y4.47
X11.59Y3.76
X11.59Y3.66
X11.59Y3.56
X11.59Y3.46
X11.59Y3.36
X11.59Y3.16
X11.59Y2.86
X11.59Y2.66
X11.59Y2.56
X11.59Y2.46
X11.59Y2.36
X11.59Y2.26
X11.69Y5.97
X11.69Y5.87
X11.69Y5.77
X11.69Y5.67
X11.69Y5.57
X11.69Y5.37
X11.69Y5.07
X11.69Y4.87
X11.69Y4.77
X11.69Y4.67
X11.69Y4.57
X11.69Y4.47
X11.69Y3.76
X11.69Y3.66
X11.69Y3.56
X11.69Y3.46
X11.69Y3.36
X11.69Y3.16
X11.69Y2.86
X11.69Y2.66
X11.69Y2.56
X11.69Y2.46
X11.69Y2.36
X11.69Y2.26
X11.79Y5.97
X11.79Y5.87
X11.79Y5.77
X11.79Y5.67
X11.79Y5.57
X11.79Y5.37
X11.79Y5.07
X11.79Y4.87
X11.79Y4.77
X11.79Y4.67
X11.79Y4.57
X11.79Y4.47
X11.79Y3.76
X11.79Y3.66
X11.79Y3.56
X11.79Y3.46
X11.79Y3.36
X11.79Y3.16
X11.79Y2.86
X11.79Y2.66
X11.79Y2.56
X11.79Y2.46
X11.79Y2.36
X11.79Y2.26
X11.89Y5.97
X11.89Y5.87
X11.89Y5.77
X11.89Y5.67
X11.89Y5.57
X11.89Y5.37
X11.89Y5.07
X11.89Y4.87
X11.89Y4.77
X11.89Y4.67
X11.89Y4.57
X11.89Y4.47
X11.89Y3.76
X11.89Y3.66
X11.89Y3.56
X11.89Y3.46
X11.89Y3.36
X11.89Y3.16
X11.89Y2.86
X11.89Y2.66
X11.89Y2.56
X11.89Y2.46
X11.89Y2.36
X11.89Y2.26
T3
X1.8063Y7.29
X1.9047Y7.29
X2.0031Y7.29
X2.1016Y7.29
X2.1431Y0.2418
X2.2Y7.29
X2.2416Y0.2418
X2.2984Y7.29
X2.34Y0.2418
X2.3969Y7.29
X2.4384Y0.2418
X2.4953Y7.29
X2.5369Y0.2418
X2.5937Y7.29
X2.6921Y7.29
X3.4918Y1.3669
X3.4918Y1.2684
X3.4918Y1.17
X3.4918Y1.0716
X3.4918Y0.9731
X5.4071Y7.29
X5.5055Y7.29
X5.6039Y7.29
X5.7024Y7.29
X5.8008Y7.29
X5.8992Y7.29
X5.9976Y7.29
X6.0961Y7.29
X6.1945Y7.29
X6.2929Y7.29
X9.0071Y7.29
X9.1055Y7.29
X9.2039Y7.29
X9.3024Y7.29
X9.4008Y7.29
X9.4992Y7.29
X9.5976Y7.29
X9.6961Y7.29
X9.7945Y7.29
X9.8929Y7.29
X10.8131Y7.2918
X10.9116Y7.2918
X11.01Y7.2918
X11.1084Y7.2918
X11.2069Y7.2918
T4
X0.1551Y4.16
X0.2Y4.2487
X0.31Y4.82
X0.31Y3.79
X0.51Y4.57
X0.68Y4.25
X0.99Y6.19
X0.99Y6.09
X0.99Y5.99
X0.99Y4.3896
X0.99Y4.2896
X0.99Y4.1896
X1.25Y6.78
X1.25Y4.9796
X1.6932Y6.19
X1.6932Y6.09
X1.6932Y5.99
X1.6932Y4.3896
X1.6932Y4.2896
X1.6932Y4.1896
X1.9532Y6.78
X1.9532Y4.9796
X2.3887Y6.19
X2.3887Y6.09
X2.3887Y5.99
X2.3887Y4.3896
X2.3887Y4.2896
X2.3887Y4.1896
X2.64Y1.27
X2.6487Y6.78
X2.6487Y4.9796
X2.74Y1.27
X2.8Y0.6
X2.8Y0.09
X2.84Y1.27
X2.94Y1.27
X3.09Y6.19
X3.09Y6.09
X3.09Y5.99
X3.09Y4.3896
X3.09Y4.2896
X3.09Y4.1896
X3.35Y6.78
X3.35Y4.9796
X3.76Y2.5
X3.76Y2.4
X3.76Y2.3
X3.76Y2.2
X3.76Y2.1
X3.76Y2.0
X3.76Y1.9
X3.76Y1.8
X3.76Y1.7
X3.76Y1.6
X3.76Y1.5
X3.76Y1.4
X3.76Y1.3
X3.76Y1.2
X3.76Y1.1
X4.36Y2.5
X4.36Y2.4
X4.36Y2.3
X4.36Y2.2
X4.36Y2.1
X4.36Y2.0
X4.36Y1.9
X4.36Y1.8
X4.36Y1.7
X4.36Y1.6
X4.36Y1.5
X4.36Y1.4
X4.36Y1.3
X4.36Y1.2
X4.36Y1.1
X4.59Y6.19
X4.59Y6.09
X4.59Y5.99
X4.59Y4.3896
X4.59Y4.2896
X4.59Y4.1896
X4.85Y6.78
X4.85Y4.9796
X5.288Y6.19
X5.288Y6.09
X5.288Y5.99
X5.288Y4.3896
X5.288Y4.2896
X5.288Y4.1896
X5.548Y6.78
X5.548Y4.9796
X5.988Y6.19
X5.988Y6.09
X5.988Y5.99
X5.988Y4.3896
X5.988Y4.2896
X5.988Y4.1896
X6.248Y6.78
X6.248Y4.9796
X6.788Y6.1896
X6.788Y6.0896
X6.788Y5.9896
X6.788Y4.39
X6.788Y4.29
X6.788Y4.19
X7.048Y6.7796
X7.048Y4.98
X8.1891Y4.3896
X8.1891Y4.2896
X8.1891Y4.1896
X8.19Y6.19
X8.19Y6.09
X8.19Y5.99
X8.4491Y4.9796
X8.45Y6.78
X8.8899Y4.3896
X8.8899Y4.2896
X8.8899Y4.1896
X8.89Y6.19
X8.89Y6.09
X8.89Y5.99
X9.1499Y4.9796
X9.15Y6.78
X9.585Y6.19
X9.585Y6.09
X9.585Y5.99
X9.5882Y4.3896
X9.5882Y4.2896
X9.5882Y4.1896
X9.845Y6.78
X9.8482Y4.9796
X10.285Y6.19
X10.285Y6.09
X10.285Y5.99
X10.29Y4.3896
X10.29Y4.2896
X10.29Y4.1896
X10.545Y6.78
X10.55Y4.9796
T5
X2.8728Y1.96
X2.8728Y1.7041
X3.05Y1.96
X3.05Y1.7041
X3.2414Y2.578
X3.2414Y2.322
X3.4186Y2.578
X3.4186Y2.322
T6
X3.76Y2.6
X3.76Y1.0
X4.36Y2.6
X4.36Y1.0
T0
M30
