%TF.GenerationSoftware,KiCad,Pcbnew,(5.99.0-12218-g749d2d5987)*%
%TF.CreationDate,2021-09-14T22:45:12+03:00*%
%TF.ProjectId,stend_main,7374656e-645f-46d6-9169-6e2e6b696361,rev*%
%TF.SameCoordinates,PX258bd10PYee998b0*%
%TF.FileFunction,Legend,Bot*%
%TF.FilePolarity,Positive*%
%FSLAX46Y46*%
G04 Gerber Fmt 4.6, Leading zero omitted, Abs format (unit mm)*
G04 Created by KiCad (PCBNEW (5.99.0-12218-g749d2d5987)) date 2021-09-14 22:45:12*
%MOMM*%
%LPD*%
G01*
G04 APERTURE LIST*
%ADD10C,0.127000*%
%ADD11C,0.076200*%
%ADD12C,0.300000*%
G04 APERTURE END LIST*
D10*
X22835809Y151547286D02*
X22835809Y152055286D01*
X22835809Y152309286D02*
X22860000Y152273000D01*
X22835809Y152236715D01*
X22811619Y152273000D01*
X22835809Y152309286D01*
X22835809Y152236715D01*
X22593904Y152055286D02*
X22593904Y151547286D01*
X22593904Y151982715D02*
X22569714Y152019000D01*
X22521333Y152055286D01*
X22448761Y152055286D01*
X22400380Y152019000D01*
X22376190Y151946429D01*
X22376190Y151547286D01*
X22158476Y151583572D02*
X22110095Y151547286D01*
X22013333Y151547286D01*
X21964952Y151583572D01*
X21940761Y151656143D01*
X21940761Y151692429D01*
X21964952Y151765000D01*
X22013333Y151801286D01*
X22085904Y151801286D01*
X22134285Y151837572D01*
X22158476Y151910143D01*
X22158476Y151946429D01*
X22134285Y152019000D01*
X22085904Y152055286D01*
X22013333Y152055286D01*
X21964952Y152019000D01*
X21795619Y152055286D02*
X21602095Y152055286D01*
X21723047Y152309286D02*
X21723047Y151656143D01*
X21698857Y151583572D01*
X21650476Y151547286D01*
X21602095Y151547286D01*
X21432761Y151547286D02*
X21432761Y152055286D01*
X21432761Y151910143D02*
X21408571Y151982715D01*
X21384380Y152019000D01*
X21336000Y152055286D01*
X21287619Y152055286D01*
X28593142Y168093572D02*
X28206095Y168093572D01*
X28399619Y167803286D02*
X28399619Y168383858D01*
X27722285Y168565286D02*
X27964190Y168565286D01*
X27988380Y168202429D01*
X27964190Y168238715D01*
X27915809Y168275000D01*
X27794857Y168275000D01*
X27746476Y168238715D01*
X27722285Y168202429D01*
X27698095Y168129858D01*
X27698095Y167948429D01*
X27722285Y167875858D01*
X27746476Y167839572D01*
X27794857Y167803286D01*
X27915809Y167803286D01*
X27964190Y167839572D01*
X27988380Y167875858D01*
X27552952Y168565286D02*
X27383619Y167803286D01*
X27214285Y168565286D01*
D11*
X199628880Y181222106D02*
X199840547Y181584963D01*
X199991738Y181222106D02*
X199991738Y181984106D01*
X199749833Y181984106D01*
X199689357Y181947820D01*
X199659119Y181911535D01*
X199628880Y181838963D01*
X199628880Y181730106D01*
X199659119Y181657535D01*
X199689357Y181621249D01*
X199749833Y181584963D01*
X199991738Y181584963D01*
X199356738Y181984106D02*
X199356738Y181367249D01*
X199326500Y181294678D01*
X199296261Y181258392D01*
X199235785Y181222106D01*
X199114833Y181222106D01*
X199054357Y181258392D01*
X199024119Y181294678D01*
X198993880Y181367249D01*
X198993880Y181984106D01*
X198721738Y181258392D02*
X198631023Y181222106D01*
X198479833Y181222106D01*
X198419357Y181258392D01*
X198389119Y181294678D01*
X198358880Y181367249D01*
X198358880Y181439820D01*
X198389119Y181512392D01*
X198419357Y181548678D01*
X198479833Y181584963D01*
X198600785Y181621249D01*
X198661261Y181657535D01*
X198691500Y181693820D01*
X198721738Y181766392D01*
X198721738Y181838963D01*
X198691500Y181911535D01*
X198661261Y181947820D01*
X198600785Y181984106D01*
X198449595Y181984106D01*
X198358880Y181947820D01*
X198177452Y181984106D02*
X197814595Y181984106D01*
X197996023Y181222106D02*
X197996023Y181984106D01*
X197602928Y181294678D02*
X197572690Y181258392D01*
X197602928Y181222106D01*
X197633166Y181258392D01*
X197602928Y181294678D01*
X197602928Y181222106D01*
X197361023Y181984106D02*
X196937690Y181984106D01*
X197361023Y181222106D01*
X196937690Y181222106D01*
X196695785Y181222106D02*
X196695785Y181984106D01*
X196484119Y181439820D01*
X196272452Y181984106D01*
X196272452Y181222106D01*
X195970071Y181512392D02*
X195486261Y181512392D01*
X194851261Y181222106D02*
X195214119Y181222106D01*
X195032690Y181222106D02*
X195032690Y181984106D01*
X195093166Y181875249D01*
X195153642Y181802678D01*
X195214119Y181766392D01*
X194609357Y181911535D02*
X194579119Y181947820D01*
X194518642Y181984106D01*
X194367452Y181984106D01*
X194306976Y181947820D01*
X194276738Y181911535D01*
X194246500Y181838963D01*
X194246500Y181766392D01*
X194276738Y181657535D01*
X194639595Y181222106D01*
X194246500Y181222106D01*
X193974357Y181294678D02*
X193944119Y181258392D01*
X193974357Y181222106D01*
X194004595Y181258392D01*
X193974357Y181294678D01*
X193974357Y181222106D01*
X193399833Y181730106D02*
X193399833Y181222106D01*
X193551023Y182020392D02*
X193702214Y181476106D01*
X193309119Y181476106D01*
X192946261Y181984106D02*
X192885785Y181984106D01*
X192825309Y181947820D01*
X192795071Y181911535D01*
X192764833Y181838963D01*
X192734595Y181693820D01*
X192734595Y181512392D01*
X192764833Y181367249D01*
X192795071Y181294678D01*
X192825309Y181258392D01*
X192885785Y181222106D01*
X192946261Y181222106D01*
X193006738Y181258392D01*
X193036976Y181294678D01*
X193067214Y181367249D01*
X193097452Y181512392D01*
X193097452Y181693820D01*
X193067214Y181838963D01*
X193036976Y181911535D01*
X193006738Y181947820D01*
X192946261Y181984106D01*
X192492690Y181911535D02*
X192462452Y181947820D01*
X192401976Y181984106D01*
X192250785Y181984106D01*
X192190309Y181947820D01*
X192160071Y181911535D01*
X192129833Y181838963D01*
X192129833Y181766392D01*
X192160071Y181657535D01*
X192522928Y181222106D01*
X192129833Y181222106D01*
X191857690Y181294678D02*
X191827452Y181258392D01*
X191857690Y181222106D01*
X191887928Y181258392D01*
X191857690Y181294678D01*
X191857690Y181222106D01*
X191222690Y181222106D02*
X191585547Y181222106D01*
X191404119Y181222106D02*
X191404119Y181984106D01*
X191464595Y181875249D01*
X191525071Y181802678D01*
X191585547Y181766392D01*
X190617928Y181222106D02*
X190980785Y181222106D01*
X190799357Y181222106D02*
X190799357Y181984106D01*
X190859833Y181875249D01*
X190920309Y181802678D01*
X190980785Y181766392D01*
X190345785Y181294678D02*
X190315547Y181258392D01*
X190345785Y181222106D01*
X190376023Y181258392D01*
X190345785Y181294678D01*
X190345785Y181222106D01*
X189922452Y181984106D02*
X189861976Y181984106D01*
X189801500Y181947820D01*
X189771261Y181911535D01*
X189741023Y181838963D01*
X189710785Y181693820D01*
X189710785Y181512392D01*
X189741023Y181367249D01*
X189771261Y181294678D01*
X189801500Y181258392D01*
X189861976Y181222106D01*
X189922452Y181222106D01*
X189982928Y181258392D01*
X190013166Y181294678D01*
X190043404Y181367249D01*
X190073642Y181512392D01*
X190073642Y181693820D01*
X190043404Y181838963D01*
X190013166Y181911535D01*
X189982928Y181947820D01*
X189922452Y181984106D01*
X189317690Y181984106D02*
X189257214Y181984106D01*
X189196738Y181947820D01*
X189166500Y181911535D01*
X189136261Y181838963D01*
X189106023Y181693820D01*
X189106023Y181512392D01*
X189136261Y181367249D01*
X189166500Y181294678D01*
X189196738Y181258392D01*
X189257214Y181222106D01*
X189317690Y181222106D01*
X189378166Y181258392D01*
X189408404Y181294678D01*
X189438642Y181367249D01*
X189468880Y181512392D01*
X189468880Y181693820D01*
X189438642Y181838963D01*
X189408404Y181911535D01*
X189378166Y181947820D01*
X189317690Y181984106D01*
X197406380Y180757286D02*
X197345904Y180757286D01*
X197285428Y180721000D01*
X197255190Y180684715D01*
X197224952Y180612143D01*
X197194714Y180467000D01*
X197194714Y180285572D01*
X197224952Y180140429D01*
X197255190Y180067858D01*
X197285428Y180031572D01*
X197345904Y179995286D01*
X197406380Y179995286D01*
X197466857Y180031572D01*
X197497095Y180067858D01*
X197527333Y180140429D01*
X197557571Y180285572D01*
X197557571Y180467000D01*
X197527333Y180612143D01*
X197497095Y180684715D01*
X197466857Y180721000D01*
X197406380Y180757286D01*
X196589952Y179995286D02*
X196952809Y179995286D01*
X196771380Y179995286D02*
X196771380Y180757286D01*
X196831857Y180648429D01*
X196892333Y180575858D01*
X196952809Y180539572D01*
X195864238Y180031572D02*
X195803761Y179995286D01*
X195682809Y179995286D01*
X195622333Y180031572D01*
X195592095Y180104143D01*
X195592095Y180140429D01*
X195622333Y180213000D01*
X195682809Y180249286D01*
X195773523Y180249286D01*
X195834000Y180285572D01*
X195864238Y180358143D01*
X195864238Y180394429D01*
X195834000Y180467000D01*
X195773523Y180503286D01*
X195682809Y180503286D01*
X195622333Y180467000D01*
X195078047Y180031572D02*
X195138523Y179995286D01*
X195259476Y179995286D01*
X195319952Y180031572D01*
X195350190Y180104143D01*
X195350190Y180394429D01*
X195319952Y180467000D01*
X195259476Y180503286D01*
X195138523Y180503286D01*
X195078047Y180467000D01*
X195047809Y180394429D01*
X195047809Y180321858D01*
X195350190Y180249286D01*
X194775666Y180503286D02*
X194775666Y179741286D01*
X194775666Y180467000D02*
X194715190Y180503286D01*
X194594238Y180503286D01*
X194533761Y180467000D01*
X194503523Y180430715D01*
X194473285Y180358143D01*
X194473285Y180140429D01*
X194503523Y180067858D01*
X194533761Y180031572D01*
X194594238Y179995286D01*
X194715190Y179995286D01*
X194775666Y180031572D01*
X193747571Y180684715D02*
X193717333Y180721000D01*
X193656857Y180757286D01*
X193505666Y180757286D01*
X193445190Y180721000D01*
X193414952Y180684715D01*
X193384714Y180612143D01*
X193384714Y180539572D01*
X193414952Y180430715D01*
X193777809Y179995286D01*
X193384714Y179995286D01*
X192991619Y180757286D02*
X192931142Y180757286D01*
X192870666Y180721000D01*
X192840428Y180684715D01*
X192810190Y180612143D01*
X192779952Y180467000D01*
X192779952Y180285572D01*
X192810190Y180140429D01*
X192840428Y180067858D01*
X192870666Y180031572D01*
X192931142Y179995286D01*
X192991619Y179995286D01*
X193052095Y180031572D01*
X193082333Y180067858D01*
X193112571Y180140429D01*
X193142809Y180285572D01*
X193142809Y180467000D01*
X193112571Y180612143D01*
X193082333Y180684715D01*
X193052095Y180721000D01*
X192991619Y180757286D01*
X192538047Y180684715D02*
X192507809Y180721000D01*
X192447333Y180757286D01*
X192296142Y180757286D01*
X192235666Y180721000D01*
X192205428Y180684715D01*
X192175190Y180612143D01*
X192175190Y180539572D01*
X192205428Y180430715D01*
X192568285Y179995286D01*
X192175190Y179995286D01*
X191570428Y179995286D02*
X191933285Y179995286D01*
X191751857Y179995286D02*
X191751857Y180757286D01*
X191812333Y180648429D01*
X191872809Y180575858D01*
X191933285Y180539572D01*
X195864238Y178768466D02*
X195864238Y179276466D01*
X195864238Y179203895D02*
X195834000Y179240180D01*
X195773523Y179276466D01*
X195682809Y179276466D01*
X195622333Y179240180D01*
X195592095Y179167609D01*
X195592095Y178768466D01*
X195592095Y179167609D02*
X195561857Y179240180D01*
X195501380Y179276466D01*
X195410666Y179276466D01*
X195350190Y179240180D01*
X195319952Y179167609D01*
X195319952Y178768466D01*
X194745428Y178768466D02*
X194745428Y179167609D01*
X194775666Y179240180D01*
X194836142Y179276466D01*
X194957095Y179276466D01*
X195017571Y179240180D01*
X194745428Y178804752D02*
X194805904Y178768466D01*
X194957095Y178768466D01*
X195017571Y178804752D01*
X195047809Y178877323D01*
X195047809Y178949895D01*
X195017571Y179022466D01*
X194957095Y179058752D01*
X194805904Y179058752D01*
X194745428Y179095038D01*
X194443047Y178768466D02*
X194443047Y179276466D01*
X194443047Y179530466D02*
X194473285Y179494180D01*
X194443047Y179457895D01*
X194412809Y179494180D01*
X194443047Y179530466D01*
X194443047Y179457895D01*
X194140666Y179276466D02*
X194140666Y178768466D01*
X194140666Y179203895D02*
X194110428Y179240180D01*
X194049952Y179276466D01*
X193959238Y179276466D01*
X193898761Y179240180D01*
X193868523Y179167609D01*
X193868523Y178768466D01*
X193626619Y179530466D02*
X193233523Y179530466D01*
X193445190Y179240180D01*
X193354476Y179240180D01*
X193294000Y179203895D01*
X193263761Y179167609D01*
X193233523Y179095038D01*
X193233523Y178913609D01*
X193263761Y178841038D01*
X193294000Y178804752D01*
X193354476Y178768466D01*
X193535904Y178768466D01*
X193596380Y178804752D01*
X193626619Y178841038D01*
D10*
X28593142Y121865572D02*
X28206095Y121865572D01*
X28399619Y121575286D02*
X28399619Y122155858D01*
X27722285Y122337286D02*
X27964190Y122337286D01*
X27988380Y121974429D01*
X27964190Y122010715D01*
X27915809Y122047000D01*
X27794857Y122047000D01*
X27746476Y122010715D01*
X27722285Y121974429D01*
X27698095Y121901858D01*
X27698095Y121720429D01*
X27722285Y121647858D01*
X27746476Y121611572D01*
X27794857Y121575286D01*
X27915809Y121575286D01*
X27964190Y121611572D01*
X27988380Y121647858D01*
X27552952Y122337286D02*
X27383619Y121575286D01*
X27214285Y122337286D01*
X55093809Y2195286D02*
X55093809Y2703286D01*
X55093809Y2957286D02*
X55118000Y2921000D01*
X55093809Y2884715D01*
X55069619Y2921000D01*
X55093809Y2957286D01*
X55093809Y2884715D01*
X54851904Y2703286D02*
X54851904Y2195286D01*
X54851904Y2630715D02*
X54827714Y2667000D01*
X54779333Y2703286D01*
X54706761Y2703286D01*
X54658380Y2667000D01*
X54634190Y2594429D01*
X54634190Y2195286D01*
X54416476Y2231572D02*
X54368095Y2195286D01*
X54271333Y2195286D01*
X54222952Y2231572D01*
X54198761Y2304143D01*
X54198761Y2340429D01*
X54222952Y2413000D01*
X54271333Y2449286D01*
X54343904Y2449286D01*
X54392285Y2485572D01*
X54416476Y2558143D01*
X54416476Y2594429D01*
X54392285Y2667000D01*
X54343904Y2703286D01*
X54271333Y2703286D01*
X54222952Y2667000D01*
X54053619Y2703286D02*
X53860095Y2703286D01*
X53981047Y2957286D02*
X53981047Y2304143D01*
X53956857Y2231572D01*
X53908476Y2195286D01*
X53860095Y2195286D01*
X53690761Y2195286D02*
X53690761Y2703286D01*
X53690761Y2558143D02*
X53666571Y2630715D01*
X53642380Y2667000D01*
X53594000Y2703286D01*
X53545619Y2703286D01*
X34677047Y155575000D02*
X34725428Y155611286D01*
X34798000Y155611286D01*
X34870571Y155575000D01*
X34918952Y155502429D01*
X34943142Y155429858D01*
X34967333Y155284715D01*
X34967333Y155175858D01*
X34943142Y155030715D01*
X34918952Y154958143D01*
X34870571Y154885572D01*
X34798000Y154849286D01*
X34749619Y154849286D01*
X34677047Y154885572D01*
X34652857Y154921858D01*
X34652857Y155175858D01*
X34749619Y155175858D01*
X34435142Y154849286D02*
X34435142Y155611286D01*
X34144857Y154849286D01*
X34144857Y155611286D01*
X33902952Y154849286D02*
X33902952Y155611286D01*
X33782000Y155611286D01*
X33709428Y155575000D01*
X33661047Y155502429D01*
X33636857Y155429858D01*
X33612666Y155284715D01*
X33612666Y155175858D01*
X33636857Y155030715D01*
X33661047Y154958143D01*
X33709428Y154885572D01*
X33782000Y154849286D01*
X33902952Y154849286D01*
X33394952Y154849286D02*
X33394952Y155611286D01*
X33274000Y155611286D01*
X33201428Y155575000D01*
X33153047Y155502429D01*
X33128857Y155429858D01*
X33104666Y155284715D01*
X33104666Y155175858D01*
X33128857Y155030715D01*
X33153047Y154958143D01*
X33201428Y154885572D01*
X33274000Y154849286D01*
X33394952Y154849286D01*
X258547809Y151547286D02*
X258547809Y152055286D01*
X258547809Y152309286D02*
X258572000Y152273000D01*
X258547809Y152236715D01*
X258523619Y152273000D01*
X258547809Y152309286D01*
X258547809Y152236715D01*
X258305904Y152055286D02*
X258305904Y151547286D01*
X258305904Y151982715D02*
X258281714Y152019000D01*
X258233333Y152055286D01*
X258160761Y152055286D01*
X258112380Y152019000D01*
X258088190Y151946429D01*
X258088190Y151547286D01*
X257870476Y151583572D02*
X257822095Y151547286D01*
X257725333Y151547286D01*
X257676952Y151583572D01*
X257652761Y151656143D01*
X257652761Y151692429D01*
X257676952Y151765000D01*
X257725333Y151801286D01*
X257797904Y151801286D01*
X257846285Y151837572D01*
X257870476Y151910143D01*
X257870476Y151946429D01*
X257846285Y152019000D01*
X257797904Y152055286D01*
X257725333Y152055286D01*
X257676952Y152019000D01*
X257507619Y152055286D02*
X257314095Y152055286D01*
X257435047Y152309286D02*
X257435047Y151656143D01*
X257410857Y151583572D01*
X257362476Y151547286D01*
X257314095Y151547286D01*
X257144761Y151547286D02*
X257144761Y152055286D01*
X257144761Y151910143D02*
X257120571Y151982715D01*
X257096380Y152019000D01*
X257048000Y152055286D01*
X256999619Y152055286D01*
X259225142Y122373572D02*
X258838095Y122373572D01*
X259031619Y122083286D02*
X259031619Y122663858D01*
X258354285Y122845286D02*
X258596190Y122845286D01*
X258620380Y122482429D01*
X258596190Y122518715D01*
X258547809Y122555000D01*
X258426857Y122555000D01*
X258378476Y122518715D01*
X258354285Y122482429D01*
X258330095Y122409858D01*
X258330095Y122228429D01*
X258354285Y122155858D01*
X258378476Y122119572D01*
X258426857Y122083286D01*
X258547809Y122083286D01*
X258596190Y122119572D01*
X258620380Y122155858D01*
X258184952Y122845286D02*
X258015619Y122083286D01*
X257846285Y122845286D01*
X62617047Y2921000D02*
X62665428Y2957286D01*
X62738000Y2957286D01*
X62810571Y2921000D01*
X62858952Y2848429D01*
X62883142Y2775858D01*
X62907333Y2630715D01*
X62907333Y2521858D01*
X62883142Y2376715D01*
X62858952Y2304143D01*
X62810571Y2231572D01*
X62738000Y2195286D01*
X62689619Y2195286D01*
X62617047Y2231572D01*
X62592857Y2267858D01*
X62592857Y2521858D01*
X62689619Y2521858D01*
X62375142Y2195286D02*
X62375142Y2957286D01*
X62084857Y2195286D01*
X62084857Y2957286D01*
X61842952Y2195286D02*
X61842952Y2957286D01*
X61722000Y2957286D01*
X61649428Y2921000D01*
X61601047Y2848429D01*
X61576857Y2775858D01*
X61552666Y2630715D01*
X61552666Y2521858D01*
X61576857Y2376715D01*
X61601047Y2304143D01*
X61649428Y2231572D01*
X61722000Y2195286D01*
X61842952Y2195286D01*
X61334952Y2195286D02*
X61334952Y2957286D01*
X61214000Y2957286D01*
X61141428Y2921000D01*
X61093047Y2848429D01*
X61068857Y2775858D01*
X61044666Y2630715D01*
X61044666Y2521858D01*
X61068857Y2376715D01*
X61093047Y2304143D01*
X61141428Y2231572D01*
X61214000Y2195286D01*
X61334952Y2195286D01*
X100813809Y151547286D02*
X100813809Y152055286D01*
X100813809Y152309286D02*
X100838000Y152273000D01*
X100813809Y152236715D01*
X100789619Y152273000D01*
X100813809Y152309286D01*
X100813809Y152236715D01*
X100571904Y152055286D02*
X100571904Y151547286D01*
X100571904Y151982715D02*
X100547714Y152019000D01*
X100499333Y152055286D01*
X100426761Y152055286D01*
X100378380Y152019000D01*
X100354190Y151946429D01*
X100354190Y151547286D01*
X100136476Y151583572D02*
X100088095Y151547286D01*
X99991333Y151547286D01*
X99942952Y151583572D01*
X99918761Y151656143D01*
X99918761Y151692429D01*
X99942952Y151765000D01*
X99991333Y151801286D01*
X100063904Y151801286D01*
X100112285Y151837572D01*
X100136476Y151910143D01*
X100136476Y151946429D01*
X100112285Y152019000D01*
X100063904Y152055286D01*
X99991333Y152055286D01*
X99942952Y152019000D01*
X99773619Y152055286D02*
X99580095Y152055286D01*
X99701047Y152309286D02*
X99701047Y151656143D01*
X99676857Y151583572D01*
X99628476Y151547286D01*
X99580095Y151547286D01*
X99410761Y151547286D02*
X99410761Y152055286D01*
X99410761Y151910143D02*
X99386571Y151982715D01*
X99362380Y152019000D01*
X99314000Y152055286D01*
X99265619Y152055286D01*
X19703142Y122373572D02*
X19316095Y122373572D01*
X19509619Y122083286D02*
X19509619Y122663858D01*
X18832285Y122845286D02*
X19074190Y122845286D01*
X19098380Y122482429D01*
X19074190Y122518715D01*
X19025809Y122555000D01*
X18904857Y122555000D01*
X18856476Y122518715D01*
X18832285Y122482429D01*
X18808095Y122409858D01*
X18808095Y122228429D01*
X18832285Y122155858D01*
X18856476Y122119572D01*
X18904857Y122083286D01*
X19025809Y122083286D01*
X19074190Y122119572D01*
X19098380Y122155858D01*
X18662952Y122845286D02*
X18493619Y122083286D01*
X18324285Y122845286D01*
D12*
X287288285Y186160572D02*
X287288285Y187660572D01*
X287288285Y186232000D02*
X287431142Y186160572D01*
X287716857Y186160572D01*
X287859714Y186232000D01*
X287931142Y186303429D01*
X288002571Y186446286D01*
X288002571Y186874858D01*
X287931142Y187017715D01*
X287859714Y187089143D01*
X287716857Y187160572D01*
X287431142Y187160572D01*
X287288285Y187089143D01*
X288859714Y187160572D02*
X288716857Y187089143D01*
X288645428Y187017715D01*
X288574000Y186874858D01*
X288574000Y186446286D01*
X288645428Y186303429D01*
X288716857Y186232000D01*
X288859714Y186160572D01*
X289074000Y186160572D01*
X289216857Y186232000D01*
X289288285Y186303429D01*
X289359714Y186446286D01*
X289359714Y186874858D01*
X289288285Y187017715D01*
X289216857Y187089143D01*
X289074000Y187160572D01*
X288859714Y187160572D01*
X289859714Y186160572D02*
X290145428Y187160572D01*
X290431142Y186446286D01*
X290716857Y187160572D01*
X291002571Y186160572D01*
X292145428Y187089143D02*
X292002571Y187160572D01*
X291716857Y187160572D01*
X291574000Y187089143D01*
X291502571Y186946286D01*
X291502571Y186374858D01*
X291574000Y186232000D01*
X291716857Y186160572D01*
X292002571Y186160572D01*
X292145428Y186232000D01*
X292216857Y186374858D01*
X292216857Y186517715D01*
X291502571Y186660572D01*
X292859714Y187160572D02*
X292859714Y186160572D01*
X292859714Y186446286D02*
X292931142Y186303429D01*
X293002571Y186232000D01*
X293145428Y186160572D01*
X293288285Y186160572D01*
X294931142Y187160572D02*
X294931142Y186160572D01*
X294931142Y185660572D02*
X294859714Y185732000D01*
X294931142Y185803429D01*
X295002571Y185732000D01*
X294931142Y185660572D01*
X294931142Y185803429D01*
X295645428Y186160572D02*
X295645428Y187160572D01*
X295645428Y186303429D02*
X295716857Y186232000D01*
X295859714Y186160572D01*
X296074000Y186160572D01*
X296216857Y186232000D01*
X296288285Y186374858D01*
X296288285Y187160572D01*
X297002571Y186160572D02*
X297002571Y187660572D01*
X297002571Y186232000D02*
X297145428Y186160572D01*
X297431142Y186160572D01*
X297574000Y186232000D01*
X297645428Y186303429D01*
X297716857Y186446286D01*
X297716857Y186874858D01*
X297645428Y187017715D01*
X297574000Y187089143D01*
X297431142Y187160572D01*
X297145428Y187160572D01*
X297002571Y187089143D01*
X299002571Y186160572D02*
X299002571Y187160572D01*
X298359714Y186160572D02*
X298359714Y186946286D01*
X298431142Y187089143D01*
X298574000Y187160572D01*
X298788285Y187160572D01*
X298931142Y187089143D01*
X299002571Y187017715D01*
X299502571Y186160572D02*
X300074000Y186160572D01*
X299716857Y185660572D02*
X299716857Y186946286D01*
X299788285Y187089143D01*
X299931142Y187160572D01*
X300074000Y187160572D01*
D10*
X100813809Y106081286D02*
X100813809Y106589286D01*
X100813809Y106843286D02*
X100838000Y106807000D01*
X100813809Y106770715D01*
X100789619Y106807000D01*
X100813809Y106843286D01*
X100813809Y106770715D01*
X100571904Y106589286D02*
X100571904Y106081286D01*
X100571904Y106516715D02*
X100547714Y106553000D01*
X100499333Y106589286D01*
X100426761Y106589286D01*
X100378380Y106553000D01*
X100354190Y106480429D01*
X100354190Y106081286D01*
X100136476Y106117572D02*
X100088095Y106081286D01*
X99991333Y106081286D01*
X99942952Y106117572D01*
X99918761Y106190143D01*
X99918761Y106226429D01*
X99942952Y106299000D01*
X99991333Y106335286D01*
X100063904Y106335286D01*
X100112285Y106371572D01*
X100136476Y106444143D01*
X100136476Y106480429D01*
X100112285Y106553000D01*
X100063904Y106589286D01*
X99991333Y106589286D01*
X99942952Y106553000D01*
X99773619Y106589286D02*
X99580095Y106589286D01*
X99701047Y106843286D02*
X99701047Y106190143D01*
X99676857Y106117572D01*
X99628476Y106081286D01*
X99580095Y106081286D01*
X99410761Y106081286D02*
X99410761Y106589286D01*
X99410761Y106444143D02*
X99386571Y106516715D01*
X99362380Y106553000D01*
X99314000Y106589286D01*
X99265619Y106589286D01*
X193523809Y151547286D02*
X193523809Y152055286D01*
X193523809Y152309286D02*
X193548000Y152273000D01*
X193523809Y152236715D01*
X193499619Y152273000D01*
X193523809Y152309286D01*
X193523809Y152236715D01*
X193281904Y152055286D02*
X193281904Y151547286D01*
X193281904Y151982715D02*
X193257714Y152019000D01*
X193209333Y152055286D01*
X193136761Y152055286D01*
X193088380Y152019000D01*
X193064190Y151946429D01*
X193064190Y151547286D01*
X192846476Y151583572D02*
X192798095Y151547286D01*
X192701333Y151547286D01*
X192652952Y151583572D01*
X192628761Y151656143D01*
X192628761Y151692429D01*
X192652952Y151765000D01*
X192701333Y151801286D01*
X192773904Y151801286D01*
X192822285Y151837572D01*
X192846476Y151910143D01*
X192846476Y151946429D01*
X192822285Y152019000D01*
X192773904Y152055286D01*
X192701333Y152055286D01*
X192652952Y152019000D01*
X192483619Y152055286D02*
X192290095Y152055286D01*
X192411047Y152309286D02*
X192411047Y151656143D01*
X192386857Y151583572D01*
X192338476Y151547286D01*
X192290095Y151547286D01*
X192120761Y151547286D02*
X192120761Y152055286D01*
X192120761Y151910143D02*
X192096571Y151982715D01*
X192072380Y152019000D01*
X192024000Y152055286D01*
X191975619Y152055286D01*
X277767142Y188159572D02*
X277380095Y188159572D01*
X277573619Y187869286D02*
X277573619Y188449858D01*
X276896285Y188631286D02*
X277138190Y188631286D01*
X277162380Y188268429D01*
X277138190Y188304715D01*
X277089809Y188341000D01*
X276968857Y188341000D01*
X276920476Y188304715D01*
X276896285Y188268429D01*
X276872095Y188195858D01*
X276872095Y188014429D01*
X276896285Y187941858D01*
X276920476Y187905572D01*
X276968857Y187869286D01*
X277089809Y187869286D01*
X277138190Y187905572D01*
X277162380Y187941858D01*
X276726952Y188631286D02*
X276557619Y187869286D01*
X276388285Y188631286D01*
X193269809Y106081286D02*
X193269809Y106589286D01*
X193269809Y106843286D02*
X193294000Y106807000D01*
X193269809Y106770715D01*
X193245619Y106807000D01*
X193269809Y106843286D01*
X193269809Y106770715D01*
X193027904Y106589286D02*
X193027904Y106081286D01*
X193027904Y106516715D02*
X193003714Y106553000D01*
X192955333Y106589286D01*
X192882761Y106589286D01*
X192834380Y106553000D01*
X192810190Y106480429D01*
X192810190Y106081286D01*
X192592476Y106117572D02*
X192544095Y106081286D01*
X192447333Y106081286D01*
X192398952Y106117572D01*
X192374761Y106190143D01*
X192374761Y106226429D01*
X192398952Y106299000D01*
X192447333Y106335286D01*
X192519904Y106335286D01*
X192568285Y106371572D01*
X192592476Y106444143D01*
X192592476Y106480429D01*
X192568285Y106553000D01*
X192519904Y106589286D01*
X192447333Y106589286D01*
X192398952Y106553000D01*
X192229619Y106589286D02*
X192036095Y106589286D01*
X192157047Y106843286D02*
X192157047Y106190143D01*
X192132857Y106117572D01*
X192084476Y106081286D01*
X192036095Y106081286D01*
X191866761Y106081286D02*
X191866761Y106589286D01*
X191866761Y106444143D02*
X191842571Y106516715D01*
X191818380Y106553000D01*
X191770000Y106589286D01*
X191721619Y106589286D01*
X57875714Y2231572D02*
X57827333Y2195286D01*
X57730571Y2195286D01*
X57682190Y2231572D01*
X57658000Y2304143D01*
X57658000Y2340429D01*
X57682190Y2413000D01*
X57730571Y2449286D01*
X57803142Y2449286D01*
X57851523Y2485572D01*
X57875714Y2558143D01*
X57875714Y2594429D01*
X57851523Y2667000D01*
X57803142Y2703286D01*
X57730571Y2703286D01*
X57682190Y2667000D01*
X57077428Y2993572D02*
X57512857Y2013858D01*
X56835523Y2195286D02*
X56883904Y2231572D01*
X56908095Y2267858D01*
X56932285Y2340429D01*
X56932285Y2558143D01*
X56908095Y2630715D01*
X56883904Y2667000D01*
X56835523Y2703286D01*
X56762952Y2703286D01*
X56714571Y2667000D01*
X56690380Y2630715D01*
X56666190Y2558143D01*
X56666190Y2340429D01*
X56690380Y2267858D01*
X56714571Y2231572D01*
X56762952Y2195286D01*
X56835523Y2195286D01*
X56230761Y2703286D02*
X56230761Y2195286D01*
X56448476Y2703286D02*
X56448476Y2304143D01*
X56424285Y2231572D01*
X56375904Y2195286D01*
X56303333Y2195286D01*
X56254952Y2231572D01*
X56230761Y2267858D01*
X56061428Y2703286D02*
X55867904Y2703286D01*
X55988857Y2957286D02*
X55988857Y2304143D01*
X55964666Y2231572D01*
X55916285Y2195286D01*
X55867904Y2195286D01*
X259225142Y168093572D02*
X258838095Y168093572D01*
X259031619Y167803286D02*
X259031619Y168383858D01*
X258354285Y168565286D02*
X258596190Y168565286D01*
X258620380Y168202429D01*
X258596190Y168238715D01*
X258547809Y168275000D01*
X258426857Y168275000D01*
X258378476Y168238715D01*
X258354285Y168202429D01*
X258330095Y168129858D01*
X258330095Y167948429D01*
X258354285Y167875858D01*
X258378476Y167839572D01*
X258426857Y167803286D01*
X258547809Y167803286D01*
X258596190Y167839572D01*
X258620380Y167875858D01*
X258184952Y168565286D02*
X258015619Y167803286D01*
X257846285Y168565286D01*
X23089809Y105827286D02*
X23089809Y106335286D01*
X23089809Y106589286D02*
X23114000Y106553000D01*
X23089809Y106516715D01*
X23065619Y106553000D01*
X23089809Y106589286D01*
X23089809Y106516715D01*
X22847904Y106335286D02*
X22847904Y105827286D01*
X22847904Y106262715D02*
X22823714Y106299000D01*
X22775333Y106335286D01*
X22702761Y106335286D01*
X22654380Y106299000D01*
X22630190Y106226429D01*
X22630190Y105827286D01*
X22412476Y105863572D02*
X22364095Y105827286D01*
X22267333Y105827286D01*
X22218952Y105863572D01*
X22194761Y105936143D01*
X22194761Y105972429D01*
X22218952Y106045000D01*
X22267333Y106081286D01*
X22339904Y106081286D01*
X22388285Y106117572D01*
X22412476Y106190143D01*
X22412476Y106226429D01*
X22388285Y106299000D01*
X22339904Y106335286D01*
X22267333Y106335286D01*
X22218952Y106299000D01*
X22049619Y106335286D02*
X21856095Y106335286D01*
X21977047Y106589286D02*
X21977047Y105936143D01*
X21952857Y105863572D01*
X21904476Y105827286D01*
X21856095Y105827286D01*
X21686761Y105827286D02*
X21686761Y106335286D01*
X21686761Y106190143D02*
X21662571Y106262715D01*
X21638380Y106299000D01*
X21590000Y106335286D01*
X21541619Y106335286D01*
X59907714Y2231572D02*
X59859333Y2195286D01*
X59762571Y2195286D01*
X59714190Y2231572D01*
X59690000Y2304143D01*
X59690000Y2340429D01*
X59714190Y2413000D01*
X59762571Y2449286D01*
X59835142Y2449286D01*
X59883523Y2485572D01*
X59907714Y2558143D01*
X59907714Y2594429D01*
X59883523Y2667000D01*
X59835142Y2703286D01*
X59762571Y2703286D01*
X59714190Y2667000D01*
X59109428Y2993572D02*
X59544857Y2013858D01*
X58940095Y2195286D02*
X58940095Y2703286D01*
X58940095Y2957286D02*
X58964285Y2921000D01*
X58940095Y2884715D01*
X58915904Y2921000D01*
X58940095Y2957286D01*
X58940095Y2884715D01*
X58698190Y2703286D02*
X58698190Y2195286D01*
X58698190Y2630715D02*
X58674000Y2667000D01*
X58625619Y2703286D01*
X58553047Y2703286D01*
X58504666Y2667000D01*
X58480476Y2594429D01*
X58480476Y2195286D01*
X4705047Y111125000D02*
X4753428Y111161286D01*
X4826000Y111161286D01*
X4898571Y111125000D01*
X4946952Y111052429D01*
X4971142Y110979858D01*
X4995333Y110834715D01*
X4995333Y110725858D01*
X4971142Y110580715D01*
X4946952Y110508143D01*
X4898571Y110435572D01*
X4826000Y110399286D01*
X4777619Y110399286D01*
X4705047Y110435572D01*
X4680857Y110471858D01*
X4680857Y110725858D01*
X4777619Y110725858D01*
X4463142Y110399286D02*
X4463142Y111161286D01*
X4172857Y110399286D01*
X4172857Y111161286D01*
X3930952Y110399286D02*
X3930952Y111161286D01*
X3810000Y111161286D01*
X3737428Y111125000D01*
X3689047Y111052429D01*
X3664857Y110979858D01*
X3640666Y110834715D01*
X3640666Y110725858D01*
X3664857Y110580715D01*
X3689047Y110508143D01*
X3737428Y110435572D01*
X3810000Y110399286D01*
X3930952Y110399286D01*
X3422952Y110399286D02*
X3422952Y111161286D01*
X3302000Y111161286D01*
X3229428Y111125000D01*
X3181047Y111052429D01*
X3156857Y110979858D01*
X3132666Y110834715D01*
X3132666Y110725858D01*
X3156857Y110580715D01*
X3181047Y110508143D01*
X3229428Y110435572D01*
X3302000Y110399286D01*
X3422952Y110399286D01*
X275215047Y188595000D02*
X275263428Y188631286D01*
X275336000Y188631286D01*
X275408571Y188595000D01*
X275456952Y188522429D01*
X275481142Y188449858D01*
X275505333Y188304715D01*
X275505333Y188195858D01*
X275481142Y188050715D01*
X275456952Y187978143D01*
X275408571Y187905572D01*
X275336000Y187869286D01*
X275287619Y187869286D01*
X275215047Y187905572D01*
X275190857Y187941858D01*
X275190857Y188195858D01*
X275287619Y188195858D01*
X274973142Y187869286D02*
X274973142Y188631286D01*
X274682857Y187869286D01*
X274682857Y188631286D01*
X274440952Y187869286D02*
X274440952Y188631286D01*
X274320000Y188631286D01*
X274247428Y188595000D01*
X274199047Y188522429D01*
X274174857Y188449858D01*
X274150666Y188304715D01*
X274150666Y188195858D01*
X274174857Y188050715D01*
X274199047Y187978143D01*
X274247428Y187905572D01*
X274320000Y187869286D01*
X274440952Y187869286D01*
X273932952Y187869286D02*
X273932952Y188631286D01*
X273812000Y188631286D01*
X273739428Y188595000D01*
X273691047Y188522429D01*
X273666857Y188449858D01*
X273642666Y188304715D01*
X273642666Y188195858D01*
X273666857Y188050715D01*
X273691047Y187978143D01*
X273739428Y187905572D01*
X273812000Y187869286D01*
X273932952Y187869286D01*
X270897047Y156337000D02*
X270945428Y156373286D01*
X271018000Y156373286D01*
X271090571Y156337000D01*
X271138952Y156264429D01*
X271163142Y156191858D01*
X271187333Y156046715D01*
X271187333Y155937858D01*
X271163142Y155792715D01*
X271138952Y155720143D01*
X271090571Y155647572D01*
X271018000Y155611286D01*
X270969619Y155611286D01*
X270897047Y155647572D01*
X270872857Y155683858D01*
X270872857Y155937858D01*
X270969619Y155937858D01*
X270655142Y155611286D02*
X270655142Y156373286D01*
X270364857Y155611286D01*
X270364857Y156373286D01*
X270122952Y155611286D02*
X270122952Y156373286D01*
X270002000Y156373286D01*
X269929428Y156337000D01*
X269881047Y156264429D01*
X269856857Y156191858D01*
X269832666Y156046715D01*
X269832666Y155937858D01*
X269856857Y155792715D01*
X269881047Y155720143D01*
X269929428Y155647572D01*
X270002000Y155611286D01*
X270122952Y155611286D01*
X269614952Y155611286D02*
X269614952Y156373286D01*
X269494000Y156373286D01*
X269421428Y156337000D01*
X269373047Y156264429D01*
X269348857Y156191858D01*
X269324666Y156046715D01*
X269324666Y155937858D01*
X269348857Y155792715D01*
X269373047Y155720143D01*
X269421428Y155647572D01*
X269494000Y155611286D01*
X269614952Y155611286D01*
X258547809Y105827286D02*
X258547809Y106335286D01*
X258547809Y106589286D02*
X258572000Y106553000D01*
X258547809Y106516715D01*
X258523619Y106553000D01*
X258547809Y106589286D01*
X258547809Y106516715D01*
X258305904Y106335286D02*
X258305904Y105827286D01*
X258305904Y106262715D02*
X258281714Y106299000D01*
X258233333Y106335286D01*
X258160761Y106335286D01*
X258112380Y106299000D01*
X258088190Y106226429D01*
X258088190Y105827286D01*
X257870476Y105863572D02*
X257822095Y105827286D01*
X257725333Y105827286D01*
X257676952Y105863572D01*
X257652761Y105936143D01*
X257652761Y105972429D01*
X257676952Y106045000D01*
X257725333Y106081286D01*
X257797904Y106081286D01*
X257846285Y106117572D01*
X257870476Y106190143D01*
X257870476Y106226429D01*
X257846285Y106299000D01*
X257797904Y106335286D01*
X257725333Y106335286D01*
X257676952Y106299000D01*
X257507619Y106335286D02*
X257314095Y106335286D01*
X257435047Y106589286D02*
X257435047Y105936143D01*
X257410857Y105863572D01*
X257362476Y105827286D01*
X257314095Y105827286D01*
X257144761Y105827286D02*
X257144761Y106335286D01*
X257144761Y106190143D02*
X257120571Y106262715D01*
X257096380Y106299000D01*
X257048000Y106335286D01*
X256999619Y106335286D01*
X270897047Y111125000D02*
X270945428Y111161286D01*
X271018000Y111161286D01*
X271090571Y111125000D01*
X271138952Y111052429D01*
X271163142Y110979858D01*
X271187333Y110834715D01*
X271187333Y110725858D01*
X271163142Y110580715D01*
X271138952Y110508143D01*
X271090571Y110435572D01*
X271018000Y110399286D01*
X270969619Y110399286D01*
X270897047Y110435572D01*
X270872857Y110471858D01*
X270872857Y110725858D01*
X270969619Y110725858D01*
X270655142Y110399286D02*
X270655142Y111161286D01*
X270364857Y110399286D01*
X270364857Y111161286D01*
X270122952Y110399286D02*
X270122952Y111161286D01*
X270002000Y111161286D01*
X269929428Y111125000D01*
X269881047Y111052429D01*
X269856857Y110979858D01*
X269832666Y110834715D01*
X269832666Y110725858D01*
X269856857Y110580715D01*
X269881047Y110508143D01*
X269929428Y110435572D01*
X270002000Y110399286D01*
X270122952Y110399286D01*
X269614952Y110399286D02*
X269614952Y111161286D01*
X269494000Y111161286D01*
X269421428Y111125000D01*
X269373047Y111052429D01*
X269348857Y110979858D01*
X269324666Y110834715D01*
X269324666Y110725858D01*
X269348857Y110580715D01*
X269373047Y110508143D01*
X269421428Y110435572D01*
X269494000Y110399286D01*
X269614952Y110399286D01*
D11*
%TO.C,DD5*%
X228081261Y85708953D02*
X227446261Y85708953D01*
X227446261Y85588000D01*
X227476500Y85515429D01*
X227536976Y85467048D01*
X227597452Y85442858D01*
X227718404Y85418667D01*
X227809119Y85418667D01*
X227930071Y85442858D01*
X227990547Y85467048D01*
X228051023Y85515429D01*
X228081261Y85588000D01*
X228081261Y85708953D01*
X228081261Y85200953D02*
X227446261Y85200953D01*
X227446261Y85080000D01*
X227476500Y85007429D01*
X227536976Y84959048D01*
X227597452Y84934858D01*
X227718404Y84910667D01*
X227809119Y84910667D01*
X227930071Y84934858D01*
X227990547Y84959048D01*
X228051023Y85007429D01*
X228081261Y85080000D01*
X228081261Y85200953D01*
X227446261Y84451048D02*
X227446261Y84692953D01*
X227748642Y84717143D01*
X227718404Y84692953D01*
X227688166Y84644572D01*
X227688166Y84523620D01*
X227718404Y84475239D01*
X227748642Y84451048D01*
X227809119Y84426858D01*
X227960309Y84426858D01*
X228020785Y84451048D01*
X228051023Y84475239D01*
X228081261Y84523620D01*
X228081261Y84644572D01*
X228051023Y84692953D01*
X228020785Y84717143D01*
%TO.C,DD3*%
X42905261Y85708953D02*
X42270261Y85708953D01*
X42270261Y85588000D01*
X42300500Y85515429D01*
X42360976Y85467048D01*
X42421452Y85442858D01*
X42542404Y85418667D01*
X42633119Y85418667D01*
X42754071Y85442858D01*
X42814547Y85467048D01*
X42875023Y85515429D01*
X42905261Y85588000D01*
X42905261Y85708953D01*
X42905261Y85200953D02*
X42270261Y85200953D01*
X42270261Y85080000D01*
X42300500Y85007429D01*
X42360976Y84959048D01*
X42421452Y84934858D01*
X42542404Y84910667D01*
X42633119Y84910667D01*
X42754071Y84934858D01*
X42814547Y84959048D01*
X42875023Y85007429D01*
X42905261Y85080000D01*
X42905261Y85200953D01*
X42270261Y84741334D02*
X42270261Y84426858D01*
X42512166Y84596191D01*
X42512166Y84523620D01*
X42542404Y84475239D01*
X42572642Y84451048D01*
X42633119Y84426858D01*
X42784309Y84426858D01*
X42844785Y84451048D01*
X42875023Y84475239D01*
X42905261Y84523620D01*
X42905261Y84668762D01*
X42875023Y84717143D01*
X42844785Y84741334D01*
%TO.C,DD4*%
X135107261Y85708953D02*
X134472261Y85708953D01*
X134472261Y85588000D01*
X134502500Y85515429D01*
X134562976Y85467048D01*
X134623452Y85442858D01*
X134744404Y85418667D01*
X134835119Y85418667D01*
X134956071Y85442858D01*
X135016547Y85467048D01*
X135077023Y85515429D01*
X135107261Y85588000D01*
X135107261Y85708953D01*
X135107261Y85200953D02*
X134472261Y85200953D01*
X134472261Y85080000D01*
X134502500Y85007429D01*
X134562976Y84959048D01*
X134623452Y84934858D01*
X134744404Y84910667D01*
X134835119Y84910667D01*
X134956071Y84934858D01*
X135016547Y84959048D01*
X135077023Y85007429D01*
X135107261Y85080000D01*
X135107261Y85200953D01*
X134683928Y84475239D02*
X135107261Y84475239D01*
X134442023Y84596191D02*
X134895595Y84717143D01*
X134895595Y84402667D01*
%TO.C,DD5*%
X249294000Y79830000D02*
X228734000Y79830000D01*
X249294000Y90330000D02*
X249294000Y79830000D01*
X249234000Y87330000D02*
X249234000Y82830000D01*
X228794000Y86080000D02*
X228794000Y87330000D01*
X228734000Y79830000D02*
X228734000Y90330000D01*
X228794000Y87330000D02*
X249234000Y87330000D01*
X249234000Y82830000D02*
X228794000Y82830000D01*
X228794000Y82830000D02*
X228794000Y84080000D01*
X228734000Y90330000D02*
X249294000Y90330000D01*
X228794000Y84080000D02*
G75*
G03*
X228794000Y86080000I0J1000000D01*
G01*
%TO.C,DD3*%
X43558000Y90330000D02*
X64118000Y90330000D01*
X43618000Y86080000D02*
X43618000Y87330000D01*
X43558000Y79830000D02*
X43558000Y90330000D01*
X64058000Y87330000D02*
X64058000Y82830000D01*
X64058000Y82830000D02*
X43618000Y82830000D01*
X43618000Y82830000D02*
X43618000Y84080000D01*
X64118000Y90330000D02*
X64118000Y79830000D01*
X43618000Y87330000D02*
X64058000Y87330000D01*
X64118000Y79830000D02*
X43558000Y79830000D01*
X43618000Y84080000D02*
G75*
G03*
X43618000Y86080000I0J1000000D01*
G01*
%TO.C,DD4*%
X156260000Y87330000D02*
X156260000Y82830000D01*
X135760000Y79830000D02*
X135760000Y90330000D01*
X156320000Y90330000D02*
X156320000Y79830000D01*
X135820000Y82830000D02*
X135820000Y84080000D01*
X135760000Y90330000D02*
X156320000Y90330000D01*
X135820000Y87330000D02*
X156260000Y87330000D01*
X156260000Y82830000D02*
X135820000Y82830000D01*
X156320000Y79830000D02*
X135760000Y79830000D01*
X135820000Y86080000D02*
X135820000Y87330000D01*
X135820000Y84080000D02*
G75*
G03*
X135820000Y86080000I0J1000000D01*
G01*
%TD*%
M02*
