%FSLAX45Y45*%
G04 Gerber Fmt 4.5, Leading zero omitted, Abs format (unit mm)*
G04 Created by KiCad (PCBNEW (5.99.0-12218-g749d2d5987)) date 2021-09-14 22:46:10*
%MOMM*%
%LPD*%
G01*
G04 APERTURE LIST*
%ADD10C,0.200000*%
%ADD11C,0.040000*%
%ADD12C,0.080000*%
%ADD13C,0.095000*%
%ADD14C,0.100000*%
%ADD15C,0.110000*%
%ADD16C,0.170000*%
G04 APERTURE END LIST*
D10*
D11*
X564200Y11043600D02*
X604200Y11003600D01*
X604200Y11043600D02*
X564200Y11003600D01*
X2266000Y12262800D02*
X2306000Y12222800D01*
X2306000Y12262800D02*
X2266000Y12222800D01*
X2647000Y16834800D02*
X2687000Y16794800D01*
X2687000Y16834800D02*
X2647000Y16794800D01*
X3231200Y15590200D02*
X3271200Y15550200D01*
X3271200Y15590200D02*
X3231200Y15550200D01*
X3296851Y11033051D02*
X3336851Y10993051D01*
X3336851Y11033051D02*
X3296851Y10993051D01*
X4018600Y12262800D02*
X4058600Y12222800D01*
X4058600Y12262800D02*
X4018600Y12222800D01*
X4399600Y16834800D02*
X4439600Y16794800D01*
X4439600Y16834800D02*
X4399600Y16794800D01*
X5009200Y11043600D02*
X5049200Y11003600D01*
X5049200Y11043600D02*
X5009200Y11003600D01*
X5034600Y15615600D02*
X5074600Y15575600D01*
X5074600Y15615600D02*
X5034600Y15575600D01*
X5263200Y14625000D02*
X5303200Y14585000D01*
X5303200Y14625000D02*
X5263200Y14585000D01*
X5669600Y14625000D02*
X5709600Y14585000D01*
X5709600Y14625000D02*
X5669600Y14585000D01*
X5822000Y12262800D02*
X5862000Y12222800D01*
X5862000Y12262800D02*
X5822000Y12222800D01*
X6152200Y16834800D02*
X6192200Y16794800D01*
X6192200Y16834800D02*
X6152200Y16794800D01*
X6787200Y11043600D02*
X6827200Y11003600D01*
X6827200Y11043600D02*
X6787200Y11003600D01*
X7015800Y15615600D02*
X7055800Y15575600D01*
X7055800Y15615600D02*
X7015800Y15575600D01*
X7600000Y12262800D02*
X7640000Y12222800D01*
X7640000Y12262800D02*
X7600000Y12222800D01*
X7981000Y16834800D02*
X8021000Y16794800D01*
X8021000Y16834800D02*
X7981000Y16794800D01*
X8580051Y11033051D02*
X8620051Y10993051D01*
X8620051Y11033051D02*
X8580051Y10993051D01*
X8616000Y15615600D02*
X8656000Y15575600D01*
X8656000Y15615600D02*
X8616000Y15575600D01*
X9733600Y1315400D02*
X9773600Y1275400D01*
X9773600Y1315400D02*
X9733600Y1275400D01*
X9733600Y731200D02*
X9773600Y691200D01*
X9773600Y731200D02*
X9733600Y691200D01*
X9962200Y2077400D02*
X10002200Y2037400D01*
X10002200Y2077400D02*
X9962200Y2037400D01*
X10952800Y12262800D02*
X10992800Y12222800D01*
X10992800Y12262800D02*
X10952800Y12222800D01*
X11740200Y7538400D02*
X11780200Y7498400D01*
X11780200Y7538400D02*
X11740200Y7498400D01*
X11791000Y16834800D02*
X11831000Y16794800D01*
X11831000Y16834800D02*
X11791000Y16794800D01*
X11791000Y12262800D02*
X11831000Y12222800D01*
X11831000Y12262800D02*
X11791000Y12222800D01*
X12146600Y2077400D02*
X12186600Y2037400D01*
X12186600Y2077400D02*
X12146600Y2037400D01*
X12345469Y15619931D02*
X12385469Y15579931D01*
X12385469Y15619931D02*
X12345469Y15579931D01*
X12365651Y11034051D02*
X12405651Y10994051D01*
X12405651Y11034051D02*
X12365651Y10994051D01*
X13543600Y16834800D02*
X13583600Y16794800D01*
X13583600Y16834800D02*
X13543600Y16794800D01*
X13543600Y12262800D02*
X13583600Y12222800D01*
X13583600Y12262800D02*
X13543600Y12222800D01*
X14148869Y15619931D02*
X14188869Y15579931D01*
X14188869Y15619931D02*
X14148869Y15579931D01*
X14169051Y11034051D02*
X14209051Y10994051D01*
X14209051Y11034051D02*
X14169051Y10994051D01*
X14470700Y14586900D02*
X14510700Y14546900D01*
X14510700Y14586900D02*
X14470700Y14546900D01*
X14915200Y14599600D02*
X14955200Y14559600D01*
X14955200Y14599600D02*
X14915200Y14559600D01*
X15321600Y16834800D02*
X15361600Y16794800D01*
X15361600Y16834800D02*
X15321600Y16794800D01*
X15321600Y12262800D02*
X15361600Y12222800D01*
X15361600Y12262800D02*
X15321600Y12222800D01*
X15921651Y11034051D02*
X15961651Y10994051D01*
X15961651Y11034051D02*
X15921651Y10994051D01*
X15926869Y15619931D02*
X15966869Y15579931D01*
X15966869Y15619931D02*
X15926869Y15579931D01*
X16992920Y10662600D02*
X17032920Y10622600D01*
X17032920Y10662600D02*
X16992920Y10622600D01*
X17328200Y16834800D02*
X17368200Y16794800D01*
X17368200Y16834800D02*
X17328200Y16794800D01*
X17379000Y12262800D02*
X17419000Y12222800D01*
X17419000Y12262800D02*
X17379000Y12222800D01*
X17947349Y11034051D02*
X17987349Y10994051D01*
X17987349Y11034051D02*
X17947349Y10994051D01*
X17958869Y15619931D02*
X17998869Y15579931D01*
X17998869Y15619931D02*
X17958869Y15579931D01*
X19411000Y15234600D02*
X19451000Y15194600D01*
X19451000Y15234600D02*
X19411000Y15194600D01*
X19411000Y10662600D02*
X19451000Y10622600D01*
X19451000Y10662600D02*
X19411000Y10622600D01*
X19639600Y11043600D02*
X19679600Y11003600D01*
X19679600Y11043600D02*
X19639600Y11003600D01*
X19643931Y15619931D02*
X19683931Y15579931D01*
X19683931Y15619931D02*
X19643931Y15579931D01*
X19792000Y16834800D02*
X19832000Y16794800D01*
X19832000Y16834800D02*
X19792000Y16794800D01*
X19792000Y12262800D02*
X19832000Y12222800D01*
X19832000Y12262800D02*
X19792000Y12222800D01*
X20909600Y12262800D02*
X20949600Y12222800D01*
X20949600Y12262800D02*
X20909600Y12222800D01*
X20935000Y16834800D02*
X20975000Y16794800D01*
X20975000Y16834800D02*
X20935000Y16794800D01*
X21484251Y11034051D02*
X21524251Y10994051D01*
X21524251Y11034051D02*
X21484251Y10994051D01*
X21493800Y15615600D02*
X21533800Y15575600D01*
X21533800Y15615600D02*
X21493800Y15575600D01*
X22713000Y16834800D02*
X22753000Y16794800D01*
X22753000Y16834800D02*
X22713000Y16794800D01*
X22713000Y12262800D02*
X22753000Y12222800D01*
X22753000Y12262800D02*
X22713000Y12222800D01*
X23250731Y15619931D02*
X23290731Y15579931D01*
X23290731Y15619931D02*
X23250731Y15579931D01*
X23313051Y11043600D02*
X23353051Y11003600D01*
X23353051Y11043600D02*
X23313051Y11003600D01*
X23754400Y14498000D02*
X23794400Y14458000D01*
X23794400Y14498000D02*
X23754400Y14458000D01*
X24084600Y14498000D02*
X24124600Y14458000D01*
X24124600Y14498000D02*
X24084600Y14458000D01*
X24465600Y16834800D02*
X24505600Y16794800D01*
X24505600Y16834800D02*
X24465600Y16794800D01*
X24465600Y12262800D02*
X24505600Y12222800D01*
X24505600Y12262800D02*
X24465600Y12222800D01*
X25045469Y15619931D02*
X25085469Y15579931D01*
X25085469Y15619931D02*
X25045469Y15579931D01*
X25049800Y11043600D02*
X25089800Y11003600D01*
X25089800Y11043600D02*
X25049800Y11003600D01*
X26243600Y12262800D02*
X26283600Y12222800D01*
X26283600Y12262800D02*
X26243600Y12222800D01*
X26319800Y16834800D02*
X26359800Y16794800D01*
X26359800Y16834800D02*
X26319800Y16794800D01*
X26853200Y11018200D02*
X26893200Y10978200D01*
X26893200Y11018200D02*
X26853200Y10978200D01*
X26904000Y15615600D02*
X26944000Y15575600D01*
X26944000Y15615600D02*
X26904000Y15575600D01*
D12*
X623200Y6146800D02*
G75*
G03*
X623200Y6146800I-40000J0D01*
G01*
X623200Y5892800D02*
G75*
G03*
X623200Y5892800I-40000J0D01*
G01*
X623200Y5638800D02*
G75*
G03*
X623200Y5638800I-40000J0D01*
G01*
X623200Y5384800D02*
G75*
G03*
X623200Y5384800I-40000J0D01*
G01*
X623200Y5130800D02*
G75*
G03*
X623200Y5130800I-40000J0D01*
G01*
X623200Y4622800D02*
G75*
G03*
X623200Y4622800I-40000J0D01*
G01*
X623200Y3860800D02*
G75*
G03*
X623200Y3860800I-40000J0D01*
G01*
X623200Y3352800D02*
G75*
G03*
X623200Y3352800I-40000J0D01*
G01*
X623200Y3098800D02*
G75*
G03*
X623200Y3098800I-40000J0D01*
G01*
X623200Y2844800D02*
G75*
G03*
X623200Y2844800I-40000J0D01*
G01*
X623200Y2590800D02*
G75*
G03*
X623200Y2590800I-40000J0D01*
G01*
X623200Y2336800D02*
G75*
G03*
X623200Y2336800I-40000J0D01*
G01*
X877200Y6146800D02*
G75*
G03*
X877200Y6146800I-40000J0D01*
G01*
X877200Y6146800D02*
G75*
G03*
X877200Y6146800I-40000J0D01*
G01*
X877200Y5892800D02*
G75*
G03*
X877200Y5892800I-40000J0D01*
G01*
X877200Y5892800D02*
G75*
G03*
X877200Y5892800I-40000J0D01*
G01*
X877200Y5638800D02*
G75*
G03*
X877200Y5638800I-40000J0D01*
G01*
X877200Y5638800D02*
G75*
G03*
X877200Y5638800I-40000J0D01*
G01*
X877200Y5384800D02*
G75*
G03*
X877200Y5384800I-40000J0D01*
G01*
X877200Y5384800D02*
G75*
G03*
X877200Y5384800I-40000J0D01*
G01*
X877200Y5130800D02*
G75*
G03*
X877200Y5130800I-40000J0D01*
G01*
X877200Y5130800D02*
G75*
G03*
X877200Y5130800I-40000J0D01*
G01*
X877200Y4622800D02*
G75*
G03*
X877200Y4622800I-40000J0D01*
G01*
X877200Y3860800D02*
G75*
G03*
X877200Y3860800I-40000J0D01*
G01*
X877200Y3352800D02*
G75*
G03*
X877200Y3352800I-40000J0D01*
G01*
X877200Y3098800D02*
G75*
G03*
X877200Y3098800I-40000J0D01*
G01*
X877200Y2844800D02*
G75*
G03*
X877200Y2844800I-40000J0D01*
G01*
X877200Y2590800D02*
G75*
G03*
X877200Y2590800I-40000J0D01*
G01*
X877200Y2336800D02*
G75*
G03*
X877200Y2336800I-40000J0D01*
G01*
X1131200Y6146800D02*
G75*
G03*
X1131200Y6146800I-40000J0D01*
G01*
X1131200Y5892800D02*
G75*
G03*
X1131200Y5892800I-40000J0D01*
G01*
X1131200Y5638800D02*
G75*
G03*
X1131200Y5638800I-40000J0D01*
G01*
X1131200Y5384800D02*
G75*
G03*
X1131200Y5384800I-40000J0D01*
G01*
X1131200Y5130800D02*
G75*
G03*
X1131200Y5130800I-40000J0D01*
G01*
X1131200Y5130800D02*
G75*
G03*
X1131200Y5130800I-40000J0D01*
G01*
X1131200Y4622800D02*
G75*
G03*
X1131200Y4622800I-40000J0D01*
G01*
X1131200Y3860800D02*
G75*
G03*
X1131200Y3860800I-40000J0D01*
G01*
X1131200Y3352800D02*
G75*
G03*
X1131200Y3352800I-40000J0D01*
G01*
X1131200Y3098800D02*
G75*
G03*
X1131200Y3098800I-40000J0D01*
G01*
X1131200Y2844800D02*
G75*
G03*
X1131200Y2844800I-40000J0D01*
G01*
X1131200Y2590800D02*
G75*
G03*
X1131200Y2590800I-40000J0D01*
G01*
X1131200Y2336800D02*
G75*
G03*
X1131200Y2336800I-40000J0D01*
G01*
X1385200Y6146800D02*
G75*
G03*
X1385200Y6146800I-40000J0D01*
G01*
X1385200Y5892800D02*
G75*
G03*
X1385200Y5892800I-40000J0D01*
G01*
X1385200Y5638800D02*
G75*
G03*
X1385200Y5638800I-40000J0D01*
G01*
X1385200Y5384800D02*
G75*
G03*
X1385200Y5384800I-40000J0D01*
G01*
X1385200Y5130800D02*
G75*
G03*
X1385200Y5130800I-40000J0D01*
G01*
X1385200Y4622800D02*
G75*
G03*
X1385200Y4622800I-40000J0D01*
G01*
X1385200Y3860800D02*
G75*
G03*
X1385200Y3860800I-40000J0D01*
G01*
X1385200Y3352800D02*
G75*
G03*
X1385200Y3352800I-40000J0D01*
G01*
X1385200Y3098800D02*
G75*
G03*
X1385200Y3098800I-40000J0D01*
G01*
X1385200Y2844800D02*
G75*
G03*
X1385200Y2844800I-40000J0D01*
G01*
X1385200Y2590800D02*
G75*
G03*
X1385200Y2590800I-40000J0D01*
G01*
X1385200Y2336800D02*
G75*
G03*
X1385200Y2336800I-40000J0D01*
G01*
X1639200Y6146800D02*
G75*
G03*
X1639200Y6146800I-40000J0D01*
G01*
X1639200Y5892800D02*
G75*
G03*
X1639200Y5892800I-40000J0D01*
G01*
X1639200Y5638800D02*
G75*
G03*
X1639200Y5638800I-40000J0D01*
G01*
X1639200Y5384800D02*
G75*
G03*
X1639200Y5384800I-40000J0D01*
G01*
X1639200Y5130800D02*
G75*
G03*
X1639200Y5130800I-40000J0D01*
G01*
X1639200Y4622800D02*
G75*
G03*
X1639200Y4622800I-40000J0D01*
G01*
X1639200Y3860800D02*
G75*
G03*
X1639200Y3860800I-40000J0D01*
G01*
X1639200Y3352800D02*
G75*
G03*
X1639200Y3352800I-40000J0D01*
G01*
X1639200Y3098800D02*
G75*
G03*
X1639200Y3098800I-40000J0D01*
G01*
X1639200Y2844800D02*
G75*
G03*
X1639200Y2844800I-40000J0D01*
G01*
X1639200Y2590800D02*
G75*
G03*
X1639200Y2590800I-40000J0D01*
G01*
X1639200Y2336800D02*
G75*
G03*
X1639200Y2336800I-40000J0D01*
G01*
X1893200Y6146800D02*
G75*
G03*
X1893200Y6146800I-40000J0D01*
G01*
X1893200Y5892800D02*
G75*
G03*
X1893200Y5892800I-40000J0D01*
G01*
X1893200Y5638800D02*
G75*
G03*
X1893200Y5638800I-40000J0D01*
G01*
X1893200Y5384800D02*
G75*
G03*
X1893200Y5384800I-40000J0D01*
G01*
X1893200Y5130800D02*
G75*
G03*
X1893200Y5130800I-40000J0D01*
G01*
X1893200Y4622800D02*
G75*
G03*
X1893200Y4622800I-40000J0D01*
G01*
X1893200Y3860800D02*
G75*
G03*
X1893200Y3860800I-40000J0D01*
G01*
X1893200Y3352800D02*
G75*
G03*
X1893200Y3352800I-40000J0D01*
G01*
X1893200Y3098800D02*
G75*
G03*
X1893200Y3098800I-40000J0D01*
G01*
X1893200Y2844800D02*
G75*
G03*
X1893200Y2844800I-40000J0D01*
G01*
X1893200Y2590800D02*
G75*
G03*
X1893200Y2590800I-40000J0D01*
G01*
X1893200Y2336800D02*
G75*
G03*
X1893200Y2336800I-40000J0D01*
G01*
X2147200Y6146800D02*
G75*
G03*
X2147200Y6146800I-40000J0D01*
G01*
X2147200Y5892800D02*
G75*
G03*
X2147200Y5892800I-40000J0D01*
G01*
X2147200Y5638800D02*
G75*
G03*
X2147200Y5638800I-40000J0D01*
G01*
X2147200Y5384800D02*
G75*
G03*
X2147200Y5384800I-40000J0D01*
G01*
X2147200Y5130800D02*
G75*
G03*
X2147200Y5130800I-40000J0D01*
G01*
X2147200Y4622800D02*
G75*
G03*
X2147200Y4622800I-40000J0D01*
G01*
X2147200Y3860800D02*
G75*
G03*
X2147200Y3860800I-40000J0D01*
G01*
X2147200Y3352800D02*
G75*
G03*
X2147200Y3352800I-40000J0D01*
G01*
X2147200Y3098800D02*
G75*
G03*
X2147200Y3098800I-40000J0D01*
G01*
X2147200Y2844800D02*
G75*
G03*
X2147200Y2844800I-40000J0D01*
G01*
X2147200Y2590800D02*
G75*
G03*
X2147200Y2590800I-40000J0D01*
G01*
X2147200Y2336800D02*
G75*
G03*
X2147200Y2336800I-40000J0D01*
G01*
X2401200Y6146800D02*
G75*
G03*
X2401200Y6146800I-40000J0D01*
G01*
X2401200Y5892800D02*
G75*
G03*
X2401200Y5892800I-40000J0D01*
G01*
X2401200Y5638800D02*
G75*
G03*
X2401200Y5638800I-40000J0D01*
G01*
X2401200Y5384800D02*
G75*
G03*
X2401200Y5384800I-40000J0D01*
G01*
X2401200Y5130800D02*
G75*
G03*
X2401200Y5130800I-40000J0D01*
G01*
X2401200Y4622800D02*
G75*
G03*
X2401200Y4622800I-40000J0D01*
G01*
X2401200Y3860800D02*
G75*
G03*
X2401200Y3860800I-40000J0D01*
G01*
X2401200Y3352800D02*
G75*
G03*
X2401200Y3352800I-40000J0D01*
G01*
X2401200Y3098800D02*
G75*
G03*
X2401200Y3098800I-40000J0D01*
G01*
X2401200Y2844800D02*
G75*
G03*
X2401200Y2844800I-40000J0D01*
G01*
X2401200Y2590800D02*
G75*
G03*
X2401200Y2590800I-40000J0D01*
G01*
X2401200Y2336800D02*
G75*
G03*
X2401200Y2336800I-40000J0D01*
G01*
X4534800Y8889000D02*
G75*
G03*
X4534800Y8889000I-40000J0D01*
G01*
X4534800Y8127000D02*
G75*
G03*
X4534800Y8127000I-40000J0D01*
G01*
X4788800Y8889000D02*
G75*
G03*
X4788800Y8889000I-40000J0D01*
G01*
X4788800Y8127000D02*
G75*
G03*
X4788800Y8127000I-40000J0D01*
G01*
X5042800Y8889000D02*
G75*
G03*
X5042800Y8889000I-40000J0D01*
G01*
X5042800Y8127000D02*
G75*
G03*
X5042800Y8127000I-40000J0D01*
G01*
X5296800Y8889000D02*
G75*
G03*
X5296800Y8889000I-40000J0D01*
G01*
X5296800Y8127000D02*
G75*
G03*
X5296800Y8127000I-40000J0D01*
G01*
X5550800Y8889000D02*
G75*
G03*
X5550800Y8889000I-40000J0D01*
G01*
X5550800Y8127000D02*
G75*
G03*
X5550800Y8127000I-40000J0D01*
G01*
X5804800Y8889000D02*
G75*
G03*
X5804800Y8889000I-40000J0D01*
G01*
X5804800Y8127000D02*
G75*
G03*
X5804800Y8127000I-40000J0D01*
G01*
X6058800Y8889000D02*
G75*
G03*
X6058800Y8889000I-40000J0D01*
G01*
X6058800Y8127000D02*
G75*
G03*
X6058800Y8127000I-40000J0D01*
G01*
X6312800Y8889000D02*
G75*
G03*
X6312800Y8889000I-40000J0D01*
G01*
X6312800Y8127000D02*
G75*
G03*
X6312800Y8127000I-40000J0D01*
G01*
X13755000Y8889000D02*
G75*
G03*
X13755000Y8889000I-40000J0D01*
G01*
X13755000Y8127000D02*
G75*
G03*
X13755000Y8127000I-40000J0D01*
G01*
X14009000Y8889000D02*
G75*
G03*
X14009000Y8889000I-40000J0D01*
G01*
X14009000Y8127000D02*
G75*
G03*
X14009000Y8127000I-40000J0D01*
G01*
X14187800Y6492800D02*
G75*
G03*
X14187800Y6492800I-40000J0D01*
G01*
X14187800Y6238800D02*
G75*
G03*
X14187800Y6238800I-40000J0D01*
G01*
X14187800Y5984800D02*
G75*
G03*
X14187800Y5984800I-40000J0D01*
G01*
X14187800Y5730800D02*
G75*
G03*
X14187800Y5730800I-40000J0D01*
G01*
X14187800Y5476800D02*
G75*
G03*
X14187800Y5476800I-40000J0D01*
G01*
X14187800Y5222800D02*
G75*
G03*
X14187800Y5222800I-40000J0D01*
G01*
X14187800Y4968800D02*
G75*
G03*
X14187800Y4968800I-40000J0D01*
G01*
X14187800Y4714800D02*
G75*
G03*
X14187800Y4714800I-40000J0D01*
G01*
X14187800Y2763800D02*
G75*
G03*
X14187800Y2763800I-40000J0D01*
G01*
X14187800Y2509800D02*
G75*
G03*
X14187800Y2509800I-40000J0D01*
G01*
X14187800Y2255800D02*
G75*
G03*
X14187800Y2255800I-40000J0D01*
G01*
X14187800Y2001800D02*
G75*
G03*
X14187800Y2001800I-40000J0D01*
G01*
X14187800Y1747800D02*
G75*
G03*
X14187800Y1747800I-40000J0D01*
G01*
X14187800Y1493800D02*
G75*
G03*
X14187800Y1493800I-40000J0D01*
G01*
X14187800Y1239800D02*
G75*
G03*
X14187800Y1239800I-40000J0D01*
G01*
X14187800Y985800D02*
G75*
G03*
X14187800Y985800I-40000J0D01*
G01*
X14263000Y8889000D02*
G75*
G03*
X14263000Y8889000I-40000J0D01*
G01*
X14263000Y8127000D02*
G75*
G03*
X14263000Y8127000I-40000J0D01*
G01*
X14441800Y6492800D02*
G75*
G03*
X14441800Y6492800I-40000J0D01*
G01*
X14441800Y6238800D02*
G75*
G03*
X14441800Y6238800I-40000J0D01*
G01*
X14441800Y5984800D02*
G75*
G03*
X14441800Y5984800I-40000J0D01*
G01*
X14441800Y5730800D02*
G75*
G03*
X14441800Y5730800I-40000J0D01*
G01*
X14441800Y5476800D02*
G75*
G03*
X14441800Y5476800I-40000J0D01*
G01*
X14441800Y5222800D02*
G75*
G03*
X14441800Y5222800I-40000J0D01*
G01*
X14441800Y4968800D02*
G75*
G03*
X14441800Y4968800I-40000J0D01*
G01*
X14441800Y4714800D02*
G75*
G03*
X14441800Y4714800I-40000J0D01*
G01*
X14441800Y2763800D02*
G75*
G03*
X14441800Y2763800I-40000J0D01*
G01*
X14441800Y2509800D02*
G75*
G03*
X14441800Y2509800I-40000J0D01*
G01*
X14441800Y2255800D02*
G75*
G03*
X14441800Y2255800I-40000J0D01*
G01*
X14441800Y2001800D02*
G75*
G03*
X14441800Y2001800I-40000J0D01*
G01*
X14441800Y1747800D02*
G75*
G03*
X14441800Y1747800I-40000J0D01*
G01*
X14441800Y1493800D02*
G75*
G03*
X14441800Y1493800I-40000J0D01*
G01*
X14441800Y1239800D02*
G75*
G03*
X14441800Y1239800I-40000J0D01*
G01*
X14441800Y985800D02*
G75*
G03*
X14441800Y985800I-40000J0D01*
G01*
X14517000Y8889000D02*
G75*
G03*
X14517000Y8889000I-40000J0D01*
G01*
X14517000Y8127000D02*
G75*
G03*
X14517000Y8127000I-40000J0D01*
G01*
X14695800Y6492800D02*
G75*
G03*
X14695800Y6492800I-40000J0D01*
G01*
X14695800Y6238800D02*
G75*
G03*
X14695800Y6238800I-40000J0D01*
G01*
X14695800Y5984800D02*
G75*
G03*
X14695800Y5984800I-40000J0D01*
G01*
X14695800Y5730800D02*
G75*
G03*
X14695800Y5730800I-40000J0D01*
G01*
X14695800Y5476800D02*
G75*
G03*
X14695800Y5476800I-40000J0D01*
G01*
X14695800Y5222800D02*
G75*
G03*
X14695800Y5222800I-40000J0D01*
G01*
X14695800Y4968800D02*
G75*
G03*
X14695800Y4968800I-40000J0D01*
G01*
X14695800Y4714800D02*
G75*
G03*
X14695800Y4714800I-40000J0D01*
G01*
X14695800Y2763800D02*
G75*
G03*
X14695800Y2763800I-40000J0D01*
G01*
X14695800Y2509800D02*
G75*
G03*
X14695800Y2509800I-40000J0D01*
G01*
X14695800Y2255800D02*
G75*
G03*
X14695800Y2255800I-40000J0D01*
G01*
X14695800Y2001800D02*
G75*
G03*
X14695800Y2001800I-40000J0D01*
G01*
X14695800Y1747800D02*
G75*
G03*
X14695800Y1747800I-40000J0D01*
G01*
X14695800Y1493800D02*
G75*
G03*
X14695800Y1493800I-40000J0D01*
G01*
X14695800Y1239800D02*
G75*
G03*
X14695800Y1239800I-40000J0D01*
G01*
X14695800Y985800D02*
G75*
G03*
X14695800Y985800I-40000J0D01*
G01*
X14771000Y8889000D02*
G75*
G03*
X14771000Y8889000I-40000J0D01*
G01*
X14771000Y8127000D02*
G75*
G03*
X14771000Y8127000I-40000J0D01*
G01*
X14949800Y6492800D02*
G75*
G03*
X14949800Y6492800I-40000J0D01*
G01*
X14949800Y6238800D02*
G75*
G03*
X14949800Y6238800I-40000J0D01*
G01*
X14949800Y5984800D02*
G75*
G03*
X14949800Y5984800I-40000J0D01*
G01*
X14949800Y5730800D02*
G75*
G03*
X14949800Y5730800I-40000J0D01*
G01*
X14949800Y5476800D02*
G75*
G03*
X14949800Y5476800I-40000J0D01*
G01*
X14949800Y5222800D02*
G75*
G03*
X14949800Y5222800I-40000J0D01*
G01*
X14949800Y4968800D02*
G75*
G03*
X14949800Y4968800I-40000J0D01*
G01*
X14949800Y4714800D02*
G75*
G03*
X14949800Y4714800I-40000J0D01*
G01*
X14949800Y2763800D02*
G75*
G03*
X14949800Y2763800I-40000J0D01*
G01*
X14949800Y2509800D02*
G75*
G03*
X14949800Y2509800I-40000J0D01*
G01*
X14949800Y2255800D02*
G75*
G03*
X14949800Y2255800I-40000J0D01*
G01*
X14949800Y2001800D02*
G75*
G03*
X14949800Y2001800I-40000J0D01*
G01*
X14949800Y1747800D02*
G75*
G03*
X14949800Y1747800I-40000J0D01*
G01*
X14949800Y1493800D02*
G75*
G03*
X14949800Y1493800I-40000J0D01*
G01*
X14949800Y1239800D02*
G75*
G03*
X14949800Y1239800I-40000J0D01*
G01*
X14949800Y985800D02*
G75*
G03*
X14949800Y985800I-40000J0D01*
G01*
X15025000Y8889000D02*
G75*
G03*
X15025000Y8889000I-40000J0D01*
G01*
X15025000Y8127000D02*
G75*
G03*
X15025000Y8127000I-40000J0D01*
G01*
X15203800Y6492800D02*
G75*
G03*
X15203800Y6492800I-40000J0D01*
G01*
X15203800Y6238800D02*
G75*
G03*
X15203800Y6238800I-40000J0D01*
G01*
X15203800Y5984800D02*
G75*
G03*
X15203800Y5984800I-40000J0D01*
G01*
X15203800Y5730800D02*
G75*
G03*
X15203800Y5730800I-40000J0D01*
G01*
X15203800Y5476800D02*
G75*
G03*
X15203800Y5476800I-40000J0D01*
G01*
X15203800Y5222800D02*
G75*
G03*
X15203800Y5222800I-40000J0D01*
G01*
X15203800Y4968800D02*
G75*
G03*
X15203800Y4968800I-40000J0D01*
G01*
X15203800Y4714800D02*
G75*
G03*
X15203800Y4714800I-40000J0D01*
G01*
X15203800Y2763800D02*
G75*
G03*
X15203800Y2763800I-40000J0D01*
G01*
X15203800Y2509800D02*
G75*
G03*
X15203800Y2509800I-40000J0D01*
G01*
X15203800Y2255800D02*
G75*
G03*
X15203800Y2255800I-40000J0D01*
G01*
X15203800Y2001800D02*
G75*
G03*
X15203800Y2001800I-40000J0D01*
G01*
X15203800Y1747800D02*
G75*
G03*
X15203800Y1747800I-40000J0D01*
G01*
X15203800Y1493800D02*
G75*
G03*
X15203800Y1493800I-40000J0D01*
G01*
X15203800Y1239800D02*
G75*
G03*
X15203800Y1239800I-40000J0D01*
G01*
X15203800Y985800D02*
G75*
G03*
X15203800Y985800I-40000J0D01*
G01*
X15279000Y8889000D02*
G75*
G03*
X15279000Y8889000I-40000J0D01*
G01*
X15279000Y8127000D02*
G75*
G03*
X15279000Y8127000I-40000J0D01*
G01*
X15533000Y8889000D02*
G75*
G03*
X15533000Y8889000I-40000J0D01*
G01*
X15533000Y8127000D02*
G75*
G03*
X15533000Y8127000I-40000J0D01*
G01*
X15711800Y6492800D02*
G75*
G03*
X15711800Y6492800I-40000J0D01*
G01*
X15711800Y6238800D02*
G75*
G03*
X15711800Y6238800I-40000J0D01*
G01*
X15711800Y5984800D02*
G75*
G03*
X15711800Y5984800I-40000J0D01*
G01*
X15711800Y5730800D02*
G75*
G03*
X15711800Y5730800I-40000J0D01*
G01*
X15711800Y5476800D02*
G75*
G03*
X15711800Y5476800I-40000J0D01*
G01*
X15711800Y5222800D02*
G75*
G03*
X15711800Y5222800I-40000J0D01*
G01*
X15711800Y4968800D02*
G75*
G03*
X15711800Y4968800I-40000J0D01*
G01*
X15711800Y4714800D02*
G75*
G03*
X15711800Y4714800I-40000J0D01*
G01*
X15711800Y2763800D02*
G75*
G03*
X15711800Y2763800I-40000J0D01*
G01*
X15711800Y2509800D02*
G75*
G03*
X15711800Y2509800I-40000J0D01*
G01*
X15711800Y2255800D02*
G75*
G03*
X15711800Y2255800I-40000J0D01*
G01*
X15711800Y2001800D02*
G75*
G03*
X15711800Y2001800I-40000J0D01*
G01*
X15711800Y1747800D02*
G75*
G03*
X15711800Y1747800I-40000J0D01*
G01*
X15711800Y1493800D02*
G75*
G03*
X15711800Y1493800I-40000J0D01*
G01*
X15711800Y1239800D02*
G75*
G03*
X15711800Y1239800I-40000J0D01*
G01*
X15711800Y985800D02*
G75*
G03*
X15711800Y985800I-40000J0D01*
G01*
X16473800Y6492800D02*
G75*
G03*
X16473800Y6492800I-40000J0D01*
G01*
X16473800Y6238800D02*
G75*
G03*
X16473800Y6238800I-40000J0D01*
G01*
X16473800Y5984800D02*
G75*
G03*
X16473800Y5984800I-40000J0D01*
G01*
X16473800Y5730800D02*
G75*
G03*
X16473800Y5730800I-40000J0D01*
G01*
X16473800Y5476800D02*
G75*
G03*
X16473800Y5476800I-40000J0D01*
G01*
X16473800Y5222800D02*
G75*
G03*
X16473800Y5222800I-40000J0D01*
G01*
X16473800Y4968800D02*
G75*
G03*
X16473800Y4968800I-40000J0D01*
G01*
X16473800Y4714800D02*
G75*
G03*
X16473800Y4714800I-40000J0D01*
G01*
X16473800Y2763800D02*
G75*
G03*
X16473800Y2763800I-40000J0D01*
G01*
X16473800Y2509800D02*
G75*
G03*
X16473800Y2509800I-40000J0D01*
G01*
X16473800Y2255800D02*
G75*
G03*
X16473800Y2255800I-40000J0D01*
G01*
X16473800Y2001800D02*
G75*
G03*
X16473800Y2001800I-40000J0D01*
G01*
X16473800Y1747800D02*
G75*
G03*
X16473800Y1747800I-40000J0D01*
G01*
X16473800Y1493800D02*
G75*
G03*
X16473800Y1493800I-40000J0D01*
G01*
X16473800Y1239800D02*
G75*
G03*
X16473800Y1239800I-40000J0D01*
G01*
X16473800Y985800D02*
G75*
G03*
X16473800Y985800I-40000J0D01*
G01*
X16981800Y6492800D02*
G75*
G03*
X16981800Y6492800I-40000J0D01*
G01*
X16981800Y6238800D02*
G75*
G03*
X16981800Y6238800I-40000J0D01*
G01*
X16981800Y6238800D02*
G75*
G03*
X16981800Y6238800I-40000J0D01*
G01*
X16981800Y5984800D02*
G75*
G03*
X16981800Y5984800I-40000J0D01*
G01*
X16981800Y5984800D02*
G75*
G03*
X16981800Y5984800I-40000J0D01*
G01*
X16981800Y5730800D02*
G75*
G03*
X16981800Y5730800I-40000J0D01*
G01*
X16981800Y5476800D02*
G75*
G03*
X16981800Y5476800I-40000J0D01*
G01*
X16981800Y5222800D02*
G75*
G03*
X16981800Y5222800I-40000J0D01*
G01*
X16981800Y4968800D02*
G75*
G03*
X16981800Y4968800I-40000J0D01*
G01*
X16981800Y4714800D02*
G75*
G03*
X16981800Y4714800I-40000J0D01*
G01*
X16981800Y2763800D02*
G75*
G03*
X16981800Y2763800I-40000J0D01*
G01*
X16981800Y2509800D02*
G75*
G03*
X16981800Y2509800I-40000J0D01*
G01*
X16981800Y2509800D02*
G75*
G03*
X16981800Y2509800I-40000J0D01*
G01*
X16981800Y2255800D02*
G75*
G03*
X16981800Y2255800I-40000J0D01*
G01*
X16981800Y2255800D02*
G75*
G03*
X16981800Y2255800I-40000J0D01*
G01*
X16981800Y2001800D02*
G75*
G03*
X16981800Y2001800I-40000J0D01*
G01*
X16981800Y1747800D02*
G75*
G03*
X16981800Y1747800I-40000J0D01*
G01*
X16981800Y1493800D02*
G75*
G03*
X16981800Y1493800I-40000J0D01*
G01*
X16981800Y1239800D02*
G75*
G03*
X16981800Y1239800I-40000J0D01*
G01*
X16981800Y985800D02*
G75*
G03*
X16981800Y985800I-40000J0D01*
G01*
X17235800Y6492800D02*
G75*
G03*
X17235800Y6492800I-40000J0D01*
G01*
X17235800Y6238800D02*
G75*
G03*
X17235800Y6238800I-40000J0D01*
G01*
X17235800Y6238800D02*
G75*
G03*
X17235800Y6238800I-40000J0D01*
G01*
X17235800Y5984800D02*
G75*
G03*
X17235800Y5984800I-40000J0D01*
G01*
X17235800Y5730800D02*
G75*
G03*
X17235800Y5730800I-40000J0D01*
G01*
X17235800Y5476800D02*
G75*
G03*
X17235800Y5476800I-40000J0D01*
G01*
X17235800Y5222800D02*
G75*
G03*
X17235800Y5222800I-40000J0D01*
G01*
X17235800Y4968800D02*
G75*
G03*
X17235800Y4968800I-40000J0D01*
G01*
X17235800Y4714800D02*
G75*
G03*
X17235800Y4714800I-40000J0D01*
G01*
X17235800Y2763800D02*
G75*
G03*
X17235800Y2763800I-40000J0D01*
G01*
X17235800Y2509800D02*
G75*
G03*
X17235800Y2509800I-40000J0D01*
G01*
X17235800Y2509800D02*
G75*
G03*
X17235800Y2509800I-40000J0D01*
G01*
X17235800Y2255800D02*
G75*
G03*
X17235800Y2255800I-40000J0D01*
G01*
X17235800Y2001800D02*
G75*
G03*
X17235800Y2001800I-40000J0D01*
G01*
X17235800Y1747800D02*
G75*
G03*
X17235800Y1747800I-40000J0D01*
G01*
X17235800Y1493800D02*
G75*
G03*
X17235800Y1493800I-40000J0D01*
G01*
X17235800Y1239800D02*
G75*
G03*
X17235800Y1239800I-40000J0D01*
G01*
X17235800Y985800D02*
G75*
G03*
X17235800Y985800I-40000J0D01*
G01*
X17489800Y6492800D02*
G75*
G03*
X17489800Y6492800I-40000J0D01*
G01*
X17489800Y6238800D02*
G75*
G03*
X17489800Y6238800I-40000J0D01*
G01*
X17489800Y6238800D02*
G75*
G03*
X17489800Y6238800I-40000J0D01*
G01*
X17489800Y5984800D02*
G75*
G03*
X17489800Y5984800I-40000J0D01*
G01*
X17489800Y5730800D02*
G75*
G03*
X17489800Y5730800I-40000J0D01*
G01*
X17489800Y5476800D02*
G75*
G03*
X17489800Y5476800I-40000J0D01*
G01*
X17489800Y5222800D02*
G75*
G03*
X17489800Y5222800I-40000J0D01*
G01*
X17489800Y4968800D02*
G75*
G03*
X17489800Y4968800I-40000J0D01*
G01*
X17489800Y4714800D02*
G75*
G03*
X17489800Y4714800I-40000J0D01*
G01*
X17489800Y2763800D02*
G75*
G03*
X17489800Y2763800I-40000J0D01*
G01*
X17489800Y2509800D02*
G75*
G03*
X17489800Y2509800I-40000J0D01*
G01*
X17489800Y2509800D02*
G75*
G03*
X17489800Y2509800I-40000J0D01*
G01*
X17489800Y2255800D02*
G75*
G03*
X17489800Y2255800I-40000J0D01*
G01*
X17489800Y2001800D02*
G75*
G03*
X17489800Y2001800I-40000J0D01*
G01*
X17489800Y1747800D02*
G75*
G03*
X17489800Y1747800I-40000J0D01*
G01*
X17489800Y1493800D02*
G75*
G03*
X17489800Y1493800I-40000J0D01*
G01*
X17489800Y1239800D02*
G75*
G03*
X17489800Y1239800I-40000J0D01*
G01*
X17489800Y985800D02*
G75*
G03*
X17489800Y985800I-40000J0D01*
G01*
X17743800Y6492800D02*
G75*
G03*
X17743800Y6492800I-40000J0D01*
G01*
X17743800Y6238800D02*
G75*
G03*
X17743800Y6238800I-40000J0D01*
G01*
X17743800Y6238800D02*
G75*
G03*
X17743800Y6238800I-40000J0D01*
G01*
X17743800Y5984800D02*
G75*
G03*
X17743800Y5984800I-40000J0D01*
G01*
X17743800Y5730800D02*
G75*
G03*
X17743800Y5730800I-40000J0D01*
G01*
X17743800Y5476800D02*
G75*
G03*
X17743800Y5476800I-40000J0D01*
G01*
X17743800Y5222800D02*
G75*
G03*
X17743800Y5222800I-40000J0D01*
G01*
X17743800Y4968800D02*
G75*
G03*
X17743800Y4968800I-40000J0D01*
G01*
X17743800Y4714800D02*
G75*
G03*
X17743800Y4714800I-40000J0D01*
G01*
X17743800Y2763800D02*
G75*
G03*
X17743800Y2763800I-40000J0D01*
G01*
X17743800Y2509800D02*
G75*
G03*
X17743800Y2509800I-40000J0D01*
G01*
X17743800Y2509800D02*
G75*
G03*
X17743800Y2509800I-40000J0D01*
G01*
X17743800Y2255800D02*
G75*
G03*
X17743800Y2255800I-40000J0D01*
G01*
X17743800Y2001800D02*
G75*
G03*
X17743800Y2001800I-40000J0D01*
G01*
X17743800Y1747800D02*
G75*
G03*
X17743800Y1747800I-40000J0D01*
G01*
X17743800Y1493800D02*
G75*
G03*
X17743800Y1493800I-40000J0D01*
G01*
X17743800Y1239800D02*
G75*
G03*
X17743800Y1239800I-40000J0D01*
G01*
X17743800Y985800D02*
G75*
G03*
X17743800Y985800I-40000J0D01*
G01*
X17997800Y6492800D02*
G75*
G03*
X17997800Y6492800I-40000J0D01*
G01*
X17997800Y6238800D02*
G75*
G03*
X17997800Y6238800I-40000J0D01*
G01*
X17997800Y6238800D02*
G75*
G03*
X17997800Y6238800I-40000J0D01*
G01*
X17997800Y5984800D02*
G75*
G03*
X17997800Y5984800I-40000J0D01*
G01*
X17997800Y5730800D02*
G75*
G03*
X17997800Y5730800I-40000J0D01*
G01*
X17997800Y5476800D02*
G75*
G03*
X17997800Y5476800I-40000J0D01*
G01*
X17997800Y5222800D02*
G75*
G03*
X17997800Y5222800I-40000J0D01*
G01*
X17997800Y4968800D02*
G75*
G03*
X17997800Y4968800I-40000J0D01*
G01*
X17997800Y4714800D02*
G75*
G03*
X17997800Y4714800I-40000J0D01*
G01*
X17997800Y2763800D02*
G75*
G03*
X17997800Y2763800I-40000J0D01*
G01*
X17997800Y2509800D02*
G75*
G03*
X17997800Y2509800I-40000J0D01*
G01*
X17997800Y2509800D02*
G75*
G03*
X17997800Y2509800I-40000J0D01*
G01*
X17997800Y2255800D02*
G75*
G03*
X17997800Y2255800I-40000J0D01*
G01*
X17997800Y2001800D02*
G75*
G03*
X17997800Y2001800I-40000J0D01*
G01*
X17997800Y1747800D02*
G75*
G03*
X17997800Y1747800I-40000J0D01*
G01*
X17997800Y1493800D02*
G75*
G03*
X17997800Y1493800I-40000J0D01*
G01*
X17997800Y1239800D02*
G75*
G03*
X17997800Y1239800I-40000J0D01*
G01*
X17997800Y985800D02*
G75*
G03*
X17997800Y985800I-40000J0D01*
G01*
X19353800Y6492800D02*
G75*
G03*
X19353800Y6492800I-40000J0D01*
G01*
X19353800Y6238800D02*
G75*
G03*
X19353800Y6238800I-40000J0D01*
G01*
X19353800Y5984800D02*
G75*
G03*
X19353800Y5984800I-40000J0D01*
G01*
X19353800Y5730800D02*
G75*
G03*
X19353800Y5730800I-40000J0D01*
G01*
X19353800Y5476800D02*
G75*
G03*
X19353800Y5476800I-40000J0D01*
G01*
X19353800Y5222800D02*
G75*
G03*
X19353800Y5222800I-40000J0D01*
G01*
X19353800Y4968800D02*
G75*
G03*
X19353800Y4968800I-40000J0D01*
G01*
X19353800Y4714800D02*
G75*
G03*
X19353800Y4714800I-40000J0D01*
G01*
X19353800Y2763800D02*
G75*
G03*
X19353800Y2763800I-40000J0D01*
G01*
X19353800Y2509800D02*
G75*
G03*
X19353800Y2509800I-40000J0D01*
G01*
X19353800Y2255800D02*
G75*
G03*
X19353800Y2255800I-40000J0D01*
G01*
X19353800Y2001800D02*
G75*
G03*
X19353800Y2001800I-40000J0D01*
G01*
X19353800Y1747800D02*
G75*
G03*
X19353800Y1747800I-40000J0D01*
G01*
X19353800Y1493800D02*
G75*
G03*
X19353800Y1493800I-40000J0D01*
G01*
X19353800Y1239800D02*
G75*
G03*
X19353800Y1239800I-40000J0D01*
G01*
X19353800Y985800D02*
G75*
G03*
X19353800Y985800I-40000J0D01*
G01*
X19607800Y6492800D02*
G75*
G03*
X19607800Y6492800I-40000J0D01*
G01*
X19607800Y6238800D02*
G75*
G03*
X19607800Y6238800I-40000J0D01*
G01*
X19607800Y5984800D02*
G75*
G03*
X19607800Y5984800I-40000J0D01*
G01*
X19607800Y5730800D02*
G75*
G03*
X19607800Y5730800I-40000J0D01*
G01*
X19607800Y5476800D02*
G75*
G03*
X19607800Y5476800I-40000J0D01*
G01*
X19607800Y5222800D02*
G75*
G03*
X19607800Y5222800I-40000J0D01*
G01*
X19607800Y4968800D02*
G75*
G03*
X19607800Y4968800I-40000J0D01*
G01*
X19607800Y4714800D02*
G75*
G03*
X19607800Y4714800I-40000J0D01*
G01*
X19607800Y2763800D02*
G75*
G03*
X19607800Y2763800I-40000J0D01*
G01*
X19607800Y2509800D02*
G75*
G03*
X19607800Y2509800I-40000J0D01*
G01*
X19607800Y2255800D02*
G75*
G03*
X19607800Y2255800I-40000J0D01*
G01*
X19607800Y2001800D02*
G75*
G03*
X19607800Y2001800I-40000J0D01*
G01*
X19607800Y1747800D02*
G75*
G03*
X19607800Y1747800I-40000J0D01*
G01*
X19607800Y1493800D02*
G75*
G03*
X19607800Y1493800I-40000J0D01*
G01*
X19607800Y1239800D02*
G75*
G03*
X19607800Y1239800I-40000J0D01*
G01*
X19607800Y985800D02*
G75*
G03*
X19607800Y985800I-40000J0D01*
G01*
X19861800Y6492800D02*
G75*
G03*
X19861800Y6492800I-40000J0D01*
G01*
X19861800Y6238800D02*
G75*
G03*
X19861800Y6238800I-40000J0D01*
G01*
X19861800Y5984800D02*
G75*
G03*
X19861800Y5984800I-40000J0D01*
G01*
X19861800Y5730800D02*
G75*
G03*
X19861800Y5730800I-40000J0D01*
G01*
X19861800Y5476800D02*
G75*
G03*
X19861800Y5476800I-40000J0D01*
G01*
X19861800Y5222800D02*
G75*
G03*
X19861800Y5222800I-40000J0D01*
G01*
X19861800Y4968800D02*
G75*
G03*
X19861800Y4968800I-40000J0D01*
G01*
X19861800Y4714800D02*
G75*
G03*
X19861800Y4714800I-40000J0D01*
G01*
X19861800Y2763800D02*
G75*
G03*
X19861800Y2763800I-40000J0D01*
G01*
X19861800Y2509800D02*
G75*
G03*
X19861800Y2509800I-40000J0D01*
G01*
X19861800Y2255800D02*
G75*
G03*
X19861800Y2255800I-40000J0D01*
G01*
X19861800Y2001800D02*
G75*
G03*
X19861800Y2001800I-40000J0D01*
G01*
X19861800Y1747800D02*
G75*
G03*
X19861800Y1747800I-40000J0D01*
G01*
X19861800Y1493800D02*
G75*
G03*
X19861800Y1493800I-40000J0D01*
G01*
X19861800Y1239800D02*
G75*
G03*
X19861800Y1239800I-40000J0D01*
G01*
X19861800Y985800D02*
G75*
G03*
X19861800Y985800I-40000J0D01*
G01*
X20115800Y6492800D02*
G75*
G03*
X20115800Y6492800I-40000J0D01*
G01*
X20115800Y6238800D02*
G75*
G03*
X20115800Y6238800I-40000J0D01*
G01*
X20115800Y5984800D02*
G75*
G03*
X20115800Y5984800I-40000J0D01*
G01*
X20115800Y5730800D02*
G75*
G03*
X20115800Y5730800I-40000J0D01*
G01*
X20115800Y5476800D02*
G75*
G03*
X20115800Y5476800I-40000J0D01*
G01*
X20115800Y5222800D02*
G75*
G03*
X20115800Y5222800I-40000J0D01*
G01*
X20115800Y4968800D02*
G75*
G03*
X20115800Y4968800I-40000J0D01*
G01*
X20115800Y4714800D02*
G75*
G03*
X20115800Y4714800I-40000J0D01*
G01*
X20115800Y2763800D02*
G75*
G03*
X20115800Y2763800I-40000J0D01*
G01*
X20115800Y2509800D02*
G75*
G03*
X20115800Y2509800I-40000J0D01*
G01*
X20115800Y2255800D02*
G75*
G03*
X20115800Y2255800I-40000J0D01*
G01*
X20115800Y2001800D02*
G75*
G03*
X20115800Y2001800I-40000J0D01*
G01*
X20115800Y1747800D02*
G75*
G03*
X20115800Y1747800I-40000J0D01*
G01*
X20115800Y1493800D02*
G75*
G03*
X20115800Y1493800I-40000J0D01*
G01*
X20115800Y1239800D02*
G75*
G03*
X20115800Y1239800I-40000J0D01*
G01*
X20115800Y985800D02*
G75*
G03*
X20115800Y985800I-40000J0D01*
G01*
X20369800Y6492800D02*
G75*
G03*
X20369800Y6492800I-40000J0D01*
G01*
X20369800Y6238800D02*
G75*
G03*
X20369800Y6238800I-40000J0D01*
G01*
X20369800Y5984800D02*
G75*
G03*
X20369800Y5984800I-40000J0D01*
G01*
X20369800Y5730800D02*
G75*
G03*
X20369800Y5730800I-40000J0D01*
G01*
X20369800Y5476800D02*
G75*
G03*
X20369800Y5476800I-40000J0D01*
G01*
X20369800Y5222800D02*
G75*
G03*
X20369800Y5222800I-40000J0D01*
G01*
X20369800Y4968800D02*
G75*
G03*
X20369800Y4968800I-40000J0D01*
G01*
X20369800Y4714800D02*
G75*
G03*
X20369800Y4714800I-40000J0D01*
G01*
X20369800Y2763800D02*
G75*
G03*
X20369800Y2763800I-40000J0D01*
G01*
X20369800Y2509800D02*
G75*
G03*
X20369800Y2509800I-40000J0D01*
G01*
X20369800Y2255800D02*
G75*
G03*
X20369800Y2255800I-40000J0D01*
G01*
X20369800Y2001800D02*
G75*
G03*
X20369800Y2001800I-40000J0D01*
G01*
X20369800Y1747800D02*
G75*
G03*
X20369800Y1747800I-40000J0D01*
G01*
X20369800Y1493800D02*
G75*
G03*
X20369800Y1493800I-40000J0D01*
G01*
X20369800Y1239800D02*
G75*
G03*
X20369800Y1239800I-40000J0D01*
G01*
X20369800Y985800D02*
G75*
G03*
X20369800Y985800I-40000J0D01*
G01*
X20877800Y6492800D02*
G75*
G03*
X20877800Y6492800I-40000J0D01*
G01*
X20877800Y6238800D02*
G75*
G03*
X20877800Y6238800I-40000J0D01*
G01*
X20877800Y5984800D02*
G75*
G03*
X20877800Y5984800I-40000J0D01*
G01*
X20877800Y5730800D02*
G75*
G03*
X20877800Y5730800I-40000J0D01*
G01*
X20877800Y5476800D02*
G75*
G03*
X20877800Y5476800I-40000J0D01*
G01*
X20877800Y5222800D02*
G75*
G03*
X20877800Y5222800I-40000J0D01*
G01*
X20877800Y4968800D02*
G75*
G03*
X20877800Y4968800I-40000J0D01*
G01*
X20877800Y4714800D02*
G75*
G03*
X20877800Y4714800I-40000J0D01*
G01*
X20877800Y2763800D02*
G75*
G03*
X20877800Y2763800I-40000J0D01*
G01*
X20877800Y2509800D02*
G75*
G03*
X20877800Y2509800I-40000J0D01*
G01*
X20877800Y2255800D02*
G75*
G03*
X20877800Y2255800I-40000J0D01*
G01*
X20877800Y2001800D02*
G75*
G03*
X20877800Y2001800I-40000J0D01*
G01*
X20877800Y1747800D02*
G75*
G03*
X20877800Y1747800I-40000J0D01*
G01*
X20877800Y1493800D02*
G75*
G03*
X20877800Y1493800I-40000J0D01*
G01*
X20877800Y1239800D02*
G75*
G03*
X20877800Y1239800I-40000J0D01*
G01*
X20877800Y985800D02*
G75*
G03*
X20877800Y985800I-40000J0D01*
G01*
X21639800Y6492800D02*
G75*
G03*
X21639800Y6492800I-40000J0D01*
G01*
X21639800Y6238800D02*
G75*
G03*
X21639800Y6238800I-40000J0D01*
G01*
X21639800Y5984800D02*
G75*
G03*
X21639800Y5984800I-40000J0D01*
G01*
X21639800Y5730800D02*
G75*
G03*
X21639800Y5730800I-40000J0D01*
G01*
X21639800Y5476800D02*
G75*
G03*
X21639800Y5476800I-40000J0D01*
G01*
X21639800Y5222800D02*
G75*
G03*
X21639800Y5222800I-40000J0D01*
G01*
X21639800Y4968800D02*
G75*
G03*
X21639800Y4968800I-40000J0D01*
G01*
X21639800Y4714800D02*
G75*
G03*
X21639800Y4714800I-40000J0D01*
G01*
X21639800Y2763800D02*
G75*
G03*
X21639800Y2763800I-40000J0D01*
G01*
X21639800Y2509800D02*
G75*
G03*
X21639800Y2509800I-40000J0D01*
G01*
X21639800Y2255800D02*
G75*
G03*
X21639800Y2255800I-40000J0D01*
G01*
X21639800Y2001800D02*
G75*
G03*
X21639800Y2001800I-40000J0D01*
G01*
X21639800Y1747800D02*
G75*
G03*
X21639800Y1747800I-40000J0D01*
G01*
X21639800Y1493800D02*
G75*
G03*
X21639800Y1493800I-40000J0D01*
G01*
X21639800Y1239800D02*
G75*
G03*
X21639800Y1239800I-40000J0D01*
G01*
X21639800Y985800D02*
G75*
G03*
X21639800Y985800I-40000J0D01*
G01*
X22147800Y6492800D02*
G75*
G03*
X22147800Y6492800I-40000J0D01*
G01*
X22147800Y6238800D02*
G75*
G03*
X22147800Y6238800I-40000J0D01*
G01*
X22147800Y6238800D02*
G75*
G03*
X22147800Y6238800I-40000J0D01*
G01*
X22147800Y5984800D02*
G75*
G03*
X22147800Y5984800I-40000J0D01*
G01*
X22147800Y5984800D02*
G75*
G03*
X22147800Y5984800I-40000J0D01*
G01*
X22147800Y5730800D02*
G75*
G03*
X22147800Y5730800I-40000J0D01*
G01*
X22147800Y5476800D02*
G75*
G03*
X22147800Y5476800I-40000J0D01*
G01*
X22147800Y5222800D02*
G75*
G03*
X22147800Y5222800I-40000J0D01*
G01*
X22147800Y4968800D02*
G75*
G03*
X22147800Y4968800I-40000J0D01*
G01*
X22147800Y4714800D02*
G75*
G03*
X22147800Y4714800I-40000J0D01*
G01*
X22147800Y2763800D02*
G75*
G03*
X22147800Y2763800I-40000J0D01*
G01*
X22147800Y2509800D02*
G75*
G03*
X22147800Y2509800I-40000J0D01*
G01*
X22147800Y2509800D02*
G75*
G03*
X22147800Y2509800I-40000J0D01*
G01*
X22147800Y2255800D02*
G75*
G03*
X22147800Y2255800I-40000J0D01*
G01*
X22147800Y2255800D02*
G75*
G03*
X22147800Y2255800I-40000J0D01*
G01*
X22147800Y2001800D02*
G75*
G03*
X22147800Y2001800I-40000J0D01*
G01*
X22147800Y1747800D02*
G75*
G03*
X22147800Y1747800I-40000J0D01*
G01*
X22147800Y1493800D02*
G75*
G03*
X22147800Y1493800I-40000J0D01*
G01*
X22147800Y1239800D02*
G75*
G03*
X22147800Y1239800I-40000J0D01*
G01*
X22147800Y985800D02*
G75*
G03*
X22147800Y985800I-40000J0D01*
G01*
X22401800Y6492800D02*
G75*
G03*
X22401800Y6492800I-40000J0D01*
G01*
X22401800Y6238800D02*
G75*
G03*
X22401800Y6238800I-40000J0D01*
G01*
X22401800Y6238800D02*
G75*
G03*
X22401800Y6238800I-40000J0D01*
G01*
X22401800Y5984800D02*
G75*
G03*
X22401800Y5984800I-40000J0D01*
G01*
X22401800Y5730800D02*
G75*
G03*
X22401800Y5730800I-40000J0D01*
G01*
X22401800Y5476800D02*
G75*
G03*
X22401800Y5476800I-40000J0D01*
G01*
X22401800Y5222800D02*
G75*
G03*
X22401800Y5222800I-40000J0D01*
G01*
X22401800Y4968800D02*
G75*
G03*
X22401800Y4968800I-40000J0D01*
G01*
X22401800Y4714800D02*
G75*
G03*
X22401800Y4714800I-40000J0D01*
G01*
X22401800Y2763800D02*
G75*
G03*
X22401800Y2763800I-40000J0D01*
G01*
X22401800Y2509800D02*
G75*
G03*
X22401800Y2509800I-40000J0D01*
G01*
X22401800Y2509800D02*
G75*
G03*
X22401800Y2509800I-40000J0D01*
G01*
X22401800Y2255800D02*
G75*
G03*
X22401800Y2255800I-40000J0D01*
G01*
X22401800Y2001800D02*
G75*
G03*
X22401800Y2001800I-40000J0D01*
G01*
X22401800Y1747800D02*
G75*
G03*
X22401800Y1747800I-40000J0D01*
G01*
X22401800Y1493800D02*
G75*
G03*
X22401800Y1493800I-40000J0D01*
G01*
X22401800Y1239800D02*
G75*
G03*
X22401800Y1239800I-40000J0D01*
G01*
X22401800Y985800D02*
G75*
G03*
X22401800Y985800I-40000J0D01*
G01*
X22655800Y6492800D02*
G75*
G03*
X22655800Y6492800I-40000J0D01*
G01*
X22655800Y6238800D02*
G75*
G03*
X22655800Y6238800I-40000J0D01*
G01*
X22655800Y6238800D02*
G75*
G03*
X22655800Y6238800I-40000J0D01*
G01*
X22655800Y5984800D02*
G75*
G03*
X22655800Y5984800I-40000J0D01*
G01*
X22655800Y5730800D02*
G75*
G03*
X22655800Y5730800I-40000J0D01*
G01*
X22655800Y5476800D02*
G75*
G03*
X22655800Y5476800I-40000J0D01*
G01*
X22655800Y5222800D02*
G75*
G03*
X22655800Y5222800I-40000J0D01*
G01*
X22655800Y4968800D02*
G75*
G03*
X22655800Y4968800I-40000J0D01*
G01*
X22655800Y4714800D02*
G75*
G03*
X22655800Y4714800I-40000J0D01*
G01*
X22655800Y2763800D02*
G75*
G03*
X22655800Y2763800I-40000J0D01*
G01*
X22655800Y2509800D02*
G75*
G03*
X22655800Y2509800I-40000J0D01*
G01*
X22655800Y2509800D02*
G75*
G03*
X22655800Y2509800I-40000J0D01*
G01*
X22655800Y2255800D02*
G75*
G03*
X22655800Y2255800I-40000J0D01*
G01*
X22655800Y2001800D02*
G75*
G03*
X22655800Y2001800I-40000J0D01*
G01*
X22655800Y1747800D02*
G75*
G03*
X22655800Y1747800I-40000J0D01*
G01*
X22655800Y1493800D02*
G75*
G03*
X22655800Y1493800I-40000J0D01*
G01*
X22655800Y1239800D02*
G75*
G03*
X22655800Y1239800I-40000J0D01*
G01*
X22655800Y985800D02*
G75*
G03*
X22655800Y985800I-40000J0D01*
G01*
X22909800Y6492800D02*
G75*
G03*
X22909800Y6492800I-40000J0D01*
G01*
X22909800Y6238800D02*
G75*
G03*
X22909800Y6238800I-40000J0D01*
G01*
X22909800Y6238800D02*
G75*
G03*
X22909800Y6238800I-40000J0D01*
G01*
X22909800Y5984800D02*
G75*
G03*
X22909800Y5984800I-40000J0D01*
G01*
X22909800Y5730800D02*
G75*
G03*
X22909800Y5730800I-40000J0D01*
G01*
X22909800Y5476800D02*
G75*
G03*
X22909800Y5476800I-40000J0D01*
G01*
X22909800Y5222800D02*
G75*
G03*
X22909800Y5222800I-40000J0D01*
G01*
X22909800Y4968800D02*
G75*
G03*
X22909800Y4968800I-40000J0D01*
G01*
X22909800Y4714800D02*
G75*
G03*
X22909800Y4714800I-40000J0D01*
G01*
X22909800Y2763800D02*
G75*
G03*
X22909800Y2763800I-40000J0D01*
G01*
X22909800Y2509800D02*
G75*
G03*
X22909800Y2509800I-40000J0D01*
G01*
X22909800Y2509800D02*
G75*
G03*
X22909800Y2509800I-40000J0D01*
G01*
X22909800Y2255800D02*
G75*
G03*
X22909800Y2255800I-40000J0D01*
G01*
X22909800Y2001800D02*
G75*
G03*
X22909800Y2001800I-40000J0D01*
G01*
X22909800Y1747800D02*
G75*
G03*
X22909800Y1747800I-40000J0D01*
G01*
X22909800Y1493800D02*
G75*
G03*
X22909800Y1493800I-40000J0D01*
G01*
X22909800Y1239800D02*
G75*
G03*
X22909800Y1239800I-40000J0D01*
G01*
X22909800Y985800D02*
G75*
G03*
X22909800Y985800I-40000J0D01*
G01*
X23052400Y8889000D02*
G75*
G03*
X23052400Y8889000I-40000J0D01*
G01*
X23052400Y8127000D02*
G75*
G03*
X23052400Y8127000I-40000J0D01*
G01*
X23163800Y6492800D02*
G75*
G03*
X23163800Y6492800I-40000J0D01*
G01*
X23163800Y6238800D02*
G75*
G03*
X23163800Y6238800I-40000J0D01*
G01*
X23163800Y6238800D02*
G75*
G03*
X23163800Y6238800I-40000J0D01*
G01*
X23163800Y5984800D02*
G75*
G03*
X23163800Y5984800I-40000J0D01*
G01*
X23163800Y5730800D02*
G75*
G03*
X23163800Y5730800I-40000J0D01*
G01*
X23163800Y5476800D02*
G75*
G03*
X23163800Y5476800I-40000J0D01*
G01*
X23163800Y5222800D02*
G75*
G03*
X23163800Y5222800I-40000J0D01*
G01*
X23163800Y4968800D02*
G75*
G03*
X23163800Y4968800I-40000J0D01*
G01*
X23163800Y4714800D02*
G75*
G03*
X23163800Y4714800I-40000J0D01*
G01*
X23163800Y2763800D02*
G75*
G03*
X23163800Y2763800I-40000J0D01*
G01*
X23163800Y2509800D02*
G75*
G03*
X23163800Y2509800I-40000J0D01*
G01*
X23163800Y2509800D02*
G75*
G03*
X23163800Y2509800I-40000J0D01*
G01*
X23163800Y2255800D02*
G75*
G03*
X23163800Y2255800I-40000J0D01*
G01*
X23163800Y2001800D02*
G75*
G03*
X23163800Y2001800I-40000J0D01*
G01*
X23163800Y1747800D02*
G75*
G03*
X23163800Y1747800I-40000J0D01*
G01*
X23163800Y1493800D02*
G75*
G03*
X23163800Y1493800I-40000J0D01*
G01*
X23163800Y1239800D02*
G75*
G03*
X23163800Y1239800I-40000J0D01*
G01*
X23163800Y985800D02*
G75*
G03*
X23163800Y985800I-40000J0D01*
G01*
X23306400Y8889000D02*
G75*
G03*
X23306400Y8889000I-40000J0D01*
G01*
X23306400Y8127000D02*
G75*
G03*
X23306400Y8127000I-40000J0D01*
G01*
X23560400Y8889000D02*
G75*
G03*
X23560400Y8889000I-40000J0D01*
G01*
X23560400Y8127000D02*
G75*
G03*
X23560400Y8127000I-40000J0D01*
G01*
X23814400Y8889000D02*
G75*
G03*
X23814400Y8889000I-40000J0D01*
G01*
X23814400Y8127000D02*
G75*
G03*
X23814400Y8127000I-40000J0D01*
G01*
X24068400Y8889000D02*
G75*
G03*
X24068400Y8889000I-40000J0D01*
G01*
X24068400Y8127000D02*
G75*
G03*
X24068400Y8127000I-40000J0D01*
G01*
X24322400Y8889000D02*
G75*
G03*
X24322400Y8889000I-40000J0D01*
G01*
X24322400Y8127000D02*
G75*
G03*
X24322400Y8127000I-40000J0D01*
G01*
X24576400Y8889000D02*
G75*
G03*
X24576400Y8889000I-40000J0D01*
G01*
X24576400Y8127000D02*
G75*
G03*
X24576400Y8127000I-40000J0D01*
G01*
X24830400Y8889000D02*
G75*
G03*
X24830400Y8889000I-40000J0D01*
G01*
X24830400Y8127000D02*
G75*
G03*
X24830400Y8127000I-40000J0D01*
G01*
X28462600Y15163800D02*
G75*
G03*
X28462600Y15163800I-40000J0D01*
G01*
X28462600Y14909800D02*
G75*
G03*
X28462600Y14909800I-40000J0D01*
G01*
X28462600Y14655800D02*
G75*
G03*
X28462600Y14655800I-40000J0D01*
G01*
X28462600Y14401800D02*
G75*
G03*
X28462600Y14401800I-40000J0D01*
G01*
X28462600Y14147800D02*
G75*
G03*
X28462600Y14147800I-40000J0D01*
G01*
X28462600Y13639800D02*
G75*
G03*
X28462600Y13639800I-40000J0D01*
G01*
X28462600Y12877800D02*
G75*
G03*
X28462600Y12877800I-40000J0D01*
G01*
X28462600Y12369800D02*
G75*
G03*
X28462600Y12369800I-40000J0D01*
G01*
X28462600Y12115800D02*
G75*
G03*
X28462600Y12115800I-40000J0D01*
G01*
X28462600Y11861800D02*
G75*
G03*
X28462600Y11861800I-40000J0D01*
G01*
X28462600Y11607800D02*
G75*
G03*
X28462600Y11607800I-40000J0D01*
G01*
X28462600Y11353800D02*
G75*
G03*
X28462600Y11353800I-40000J0D01*
G01*
X28462600Y9550400D02*
G75*
G03*
X28462600Y9550400I-40000J0D01*
G01*
X28462600Y9296400D02*
G75*
G03*
X28462600Y9296400I-40000J0D01*
G01*
X28462600Y9042400D02*
G75*
G03*
X28462600Y9042400I-40000J0D01*
G01*
X28462600Y8788400D02*
G75*
G03*
X28462600Y8788400I-40000J0D01*
G01*
X28462600Y8534400D02*
G75*
G03*
X28462600Y8534400I-40000J0D01*
G01*
X28462600Y8026400D02*
G75*
G03*
X28462600Y8026400I-40000J0D01*
G01*
X28462600Y7264400D02*
G75*
G03*
X28462600Y7264400I-40000J0D01*
G01*
X28462600Y6756400D02*
G75*
G03*
X28462600Y6756400I-40000J0D01*
G01*
X28462600Y6502400D02*
G75*
G03*
X28462600Y6502400I-40000J0D01*
G01*
X28462600Y6248400D02*
G75*
G03*
X28462600Y6248400I-40000J0D01*
G01*
X28462600Y5994400D02*
G75*
G03*
X28462600Y5994400I-40000J0D01*
G01*
X28462600Y5740400D02*
G75*
G03*
X28462600Y5740400I-40000J0D01*
G01*
X28716600Y15163800D02*
G75*
G03*
X28716600Y15163800I-40000J0D01*
G01*
X28716600Y15163800D02*
G75*
G03*
X28716600Y15163800I-40000J0D01*
G01*
X28716600Y14909800D02*
G75*
G03*
X28716600Y14909800I-40000J0D01*
G01*
X28716600Y14909800D02*
G75*
G03*
X28716600Y14909800I-40000J0D01*
G01*
X28716600Y14655800D02*
G75*
G03*
X28716600Y14655800I-40000J0D01*
G01*
X28716600Y14655800D02*
G75*
G03*
X28716600Y14655800I-40000J0D01*
G01*
X28716600Y14401800D02*
G75*
G03*
X28716600Y14401800I-40000J0D01*
G01*
X28716600Y14401800D02*
G75*
G03*
X28716600Y14401800I-40000J0D01*
G01*
X28716600Y14147800D02*
G75*
G03*
X28716600Y14147800I-40000J0D01*
G01*
X28716600Y14147800D02*
G75*
G03*
X28716600Y14147800I-40000J0D01*
G01*
X28716600Y13639800D02*
G75*
G03*
X28716600Y13639800I-40000J0D01*
G01*
X28716600Y12877800D02*
G75*
G03*
X28716600Y12877800I-40000J0D01*
G01*
X28716600Y12369800D02*
G75*
G03*
X28716600Y12369800I-40000J0D01*
G01*
X28716600Y12115800D02*
G75*
G03*
X28716600Y12115800I-40000J0D01*
G01*
X28716600Y11861800D02*
G75*
G03*
X28716600Y11861800I-40000J0D01*
G01*
X28716600Y11607800D02*
G75*
G03*
X28716600Y11607800I-40000J0D01*
G01*
X28716600Y11353800D02*
G75*
G03*
X28716600Y11353800I-40000J0D01*
G01*
X28716600Y9550400D02*
G75*
G03*
X28716600Y9550400I-40000J0D01*
G01*
X28716600Y9550400D02*
G75*
G03*
X28716600Y9550400I-40000J0D01*
G01*
X28716600Y9296400D02*
G75*
G03*
X28716600Y9296400I-40000J0D01*
G01*
X28716600Y9296400D02*
G75*
G03*
X28716600Y9296400I-40000J0D01*
G01*
X28716600Y9042400D02*
G75*
G03*
X28716600Y9042400I-40000J0D01*
G01*
X28716600Y9042400D02*
G75*
G03*
X28716600Y9042400I-40000J0D01*
G01*
X28716600Y8788400D02*
G75*
G03*
X28716600Y8788400I-40000J0D01*
G01*
X28716600Y8788400D02*
G75*
G03*
X28716600Y8788400I-40000J0D01*
G01*
X28716600Y8534400D02*
G75*
G03*
X28716600Y8534400I-40000J0D01*
G01*
X28716600Y8534400D02*
G75*
G03*
X28716600Y8534400I-40000J0D01*
G01*
X28716600Y8026400D02*
G75*
G03*
X28716600Y8026400I-40000J0D01*
G01*
X28716600Y7264400D02*
G75*
G03*
X28716600Y7264400I-40000J0D01*
G01*
X28716600Y6756400D02*
G75*
G03*
X28716600Y6756400I-40000J0D01*
G01*
X28716600Y6502400D02*
G75*
G03*
X28716600Y6502400I-40000J0D01*
G01*
X28716600Y6248400D02*
G75*
G03*
X28716600Y6248400I-40000J0D01*
G01*
X28716600Y5994400D02*
G75*
G03*
X28716600Y5994400I-40000J0D01*
G01*
X28716600Y5740400D02*
G75*
G03*
X28716600Y5740400I-40000J0D01*
G01*
X28970600Y15163800D02*
G75*
G03*
X28970600Y15163800I-40000J0D01*
G01*
X28970600Y14909800D02*
G75*
G03*
X28970600Y14909800I-40000J0D01*
G01*
X28970600Y14655800D02*
G75*
G03*
X28970600Y14655800I-40000J0D01*
G01*
X28970600Y14401800D02*
G75*
G03*
X28970600Y14401800I-40000J0D01*
G01*
X28970600Y14147800D02*
G75*
G03*
X28970600Y14147800I-40000J0D01*
G01*
X28970600Y14147800D02*
G75*
G03*
X28970600Y14147800I-40000J0D01*
G01*
X28970600Y13639800D02*
G75*
G03*
X28970600Y13639800I-40000J0D01*
G01*
X28970600Y12877800D02*
G75*
G03*
X28970600Y12877800I-40000J0D01*
G01*
X28970600Y12369800D02*
G75*
G03*
X28970600Y12369800I-40000J0D01*
G01*
X28970600Y12115800D02*
G75*
G03*
X28970600Y12115800I-40000J0D01*
G01*
X28970600Y11861800D02*
G75*
G03*
X28970600Y11861800I-40000J0D01*
G01*
X28970600Y11607800D02*
G75*
G03*
X28970600Y11607800I-40000J0D01*
G01*
X28970600Y11353800D02*
G75*
G03*
X28970600Y11353800I-40000J0D01*
G01*
X28970600Y9550400D02*
G75*
G03*
X28970600Y9550400I-40000J0D01*
G01*
X28970600Y9296400D02*
G75*
G03*
X28970600Y9296400I-40000J0D01*
G01*
X28970600Y9042400D02*
G75*
G03*
X28970600Y9042400I-40000J0D01*
G01*
X28970600Y8788400D02*
G75*
G03*
X28970600Y8788400I-40000J0D01*
G01*
X28970600Y8534400D02*
G75*
G03*
X28970600Y8534400I-40000J0D01*
G01*
X28970600Y8534400D02*
G75*
G03*
X28970600Y8534400I-40000J0D01*
G01*
X28970600Y8026400D02*
G75*
G03*
X28970600Y8026400I-40000J0D01*
G01*
X28970600Y7264400D02*
G75*
G03*
X28970600Y7264400I-40000J0D01*
G01*
X28970600Y6756400D02*
G75*
G03*
X28970600Y6756400I-40000J0D01*
G01*
X28970600Y6502400D02*
G75*
G03*
X28970600Y6502400I-40000J0D01*
G01*
X28970600Y6248400D02*
G75*
G03*
X28970600Y6248400I-40000J0D01*
G01*
X28970600Y5994400D02*
G75*
G03*
X28970600Y5994400I-40000J0D01*
G01*
X28970600Y5740400D02*
G75*
G03*
X28970600Y5740400I-40000J0D01*
G01*
X29224600Y15163800D02*
G75*
G03*
X29224600Y15163800I-40000J0D01*
G01*
X29224600Y14909800D02*
G75*
G03*
X29224600Y14909800I-40000J0D01*
G01*
X29224600Y14655800D02*
G75*
G03*
X29224600Y14655800I-40000J0D01*
G01*
X29224600Y14401800D02*
G75*
G03*
X29224600Y14401800I-40000J0D01*
G01*
X29224600Y14147800D02*
G75*
G03*
X29224600Y14147800I-40000J0D01*
G01*
X29224600Y13639800D02*
G75*
G03*
X29224600Y13639800I-40000J0D01*
G01*
X29224600Y12877800D02*
G75*
G03*
X29224600Y12877800I-40000J0D01*
G01*
X29224600Y12369800D02*
G75*
G03*
X29224600Y12369800I-40000J0D01*
G01*
X29224600Y12115800D02*
G75*
G03*
X29224600Y12115800I-40000J0D01*
G01*
X29224600Y11861800D02*
G75*
G03*
X29224600Y11861800I-40000J0D01*
G01*
X29224600Y11607800D02*
G75*
G03*
X29224600Y11607800I-40000J0D01*
G01*
X29224600Y11353800D02*
G75*
G03*
X29224600Y11353800I-40000J0D01*
G01*
X29224600Y9550400D02*
G75*
G03*
X29224600Y9550400I-40000J0D01*
G01*
X29224600Y9296400D02*
G75*
G03*
X29224600Y9296400I-40000J0D01*
G01*
X29224600Y9042400D02*
G75*
G03*
X29224600Y9042400I-40000J0D01*
G01*
X29224600Y8788400D02*
G75*
G03*
X29224600Y8788400I-40000J0D01*
G01*
X29224600Y8534400D02*
G75*
G03*
X29224600Y8534400I-40000J0D01*
G01*
X29224600Y8026400D02*
G75*
G03*
X29224600Y8026400I-40000J0D01*
G01*
X29224600Y7264400D02*
G75*
G03*
X29224600Y7264400I-40000J0D01*
G01*
X29224600Y6756400D02*
G75*
G03*
X29224600Y6756400I-40000J0D01*
G01*
X29224600Y6502400D02*
G75*
G03*
X29224600Y6502400I-40000J0D01*
G01*
X29224600Y6248400D02*
G75*
G03*
X29224600Y6248400I-40000J0D01*
G01*
X29224600Y5994400D02*
G75*
G03*
X29224600Y5994400I-40000J0D01*
G01*
X29224600Y5740400D02*
G75*
G03*
X29224600Y5740400I-40000J0D01*
G01*
X29478600Y15163800D02*
G75*
G03*
X29478600Y15163800I-40000J0D01*
G01*
X29478600Y14909800D02*
G75*
G03*
X29478600Y14909800I-40000J0D01*
G01*
X29478600Y14655800D02*
G75*
G03*
X29478600Y14655800I-40000J0D01*
G01*
X29478600Y14401800D02*
G75*
G03*
X29478600Y14401800I-40000J0D01*
G01*
X29478600Y14147800D02*
G75*
G03*
X29478600Y14147800I-40000J0D01*
G01*
X29478600Y13639800D02*
G75*
G03*
X29478600Y13639800I-40000J0D01*
G01*
X29478600Y12877800D02*
G75*
G03*
X29478600Y12877800I-40000J0D01*
G01*
X29478600Y12369800D02*
G75*
G03*
X29478600Y12369800I-40000J0D01*
G01*
X29478600Y12115800D02*
G75*
G03*
X29478600Y12115800I-40000J0D01*
G01*
X29478600Y11861800D02*
G75*
G03*
X29478600Y11861800I-40000J0D01*
G01*
X29478600Y11607800D02*
G75*
G03*
X29478600Y11607800I-40000J0D01*
G01*
X29478600Y11353800D02*
G75*
G03*
X29478600Y11353800I-40000J0D01*
G01*
X29478600Y9550400D02*
G75*
G03*
X29478600Y9550400I-40000J0D01*
G01*
X29478600Y9296400D02*
G75*
G03*
X29478600Y9296400I-40000J0D01*
G01*
X29478600Y9042400D02*
G75*
G03*
X29478600Y9042400I-40000J0D01*
G01*
X29478600Y8788400D02*
G75*
G03*
X29478600Y8788400I-40000J0D01*
G01*
X29478600Y8534400D02*
G75*
G03*
X29478600Y8534400I-40000J0D01*
G01*
X29478600Y8026400D02*
G75*
G03*
X29478600Y8026400I-40000J0D01*
G01*
X29478600Y7264400D02*
G75*
G03*
X29478600Y7264400I-40000J0D01*
G01*
X29478600Y6756400D02*
G75*
G03*
X29478600Y6756400I-40000J0D01*
G01*
X29478600Y6502400D02*
G75*
G03*
X29478600Y6502400I-40000J0D01*
G01*
X29478600Y6248400D02*
G75*
G03*
X29478600Y6248400I-40000J0D01*
G01*
X29478600Y5994400D02*
G75*
G03*
X29478600Y5994400I-40000J0D01*
G01*
X29478600Y5740400D02*
G75*
G03*
X29478600Y5740400I-40000J0D01*
G01*
X29732600Y15163800D02*
G75*
G03*
X29732600Y15163800I-40000J0D01*
G01*
X29732600Y14909800D02*
G75*
G03*
X29732600Y14909800I-40000J0D01*
G01*
X29732600Y14655800D02*
G75*
G03*
X29732600Y14655800I-40000J0D01*
G01*
X29732600Y14401800D02*
G75*
G03*
X29732600Y14401800I-40000J0D01*
G01*
X29732600Y14147800D02*
G75*
G03*
X29732600Y14147800I-40000J0D01*
G01*
X29732600Y13639800D02*
G75*
G03*
X29732600Y13639800I-40000J0D01*
G01*
X29732600Y12877800D02*
G75*
G03*
X29732600Y12877800I-40000J0D01*
G01*
X29732600Y12369800D02*
G75*
G03*
X29732600Y12369800I-40000J0D01*
G01*
X29732600Y12115800D02*
G75*
G03*
X29732600Y12115800I-40000J0D01*
G01*
X29732600Y11861800D02*
G75*
G03*
X29732600Y11861800I-40000J0D01*
G01*
X29732600Y11607800D02*
G75*
G03*
X29732600Y11607800I-40000J0D01*
G01*
X29732600Y11353800D02*
G75*
G03*
X29732600Y11353800I-40000J0D01*
G01*
X29732600Y9550400D02*
G75*
G03*
X29732600Y9550400I-40000J0D01*
G01*
X29732600Y9296400D02*
G75*
G03*
X29732600Y9296400I-40000J0D01*
G01*
X29732600Y9042400D02*
G75*
G03*
X29732600Y9042400I-40000J0D01*
G01*
X29732600Y8788400D02*
G75*
G03*
X29732600Y8788400I-40000J0D01*
G01*
X29732600Y8534400D02*
G75*
G03*
X29732600Y8534400I-40000J0D01*
G01*
X29732600Y8026400D02*
G75*
G03*
X29732600Y8026400I-40000J0D01*
G01*
X29732600Y7264400D02*
G75*
G03*
X29732600Y7264400I-40000J0D01*
G01*
X29732600Y6756400D02*
G75*
G03*
X29732600Y6756400I-40000J0D01*
G01*
X29732600Y6502400D02*
G75*
G03*
X29732600Y6502400I-40000J0D01*
G01*
X29732600Y6248400D02*
G75*
G03*
X29732600Y6248400I-40000J0D01*
G01*
X29732600Y5994400D02*
G75*
G03*
X29732600Y5994400I-40000J0D01*
G01*
X29732600Y5740400D02*
G75*
G03*
X29732600Y5740400I-40000J0D01*
G01*
X29986600Y15163800D02*
G75*
G03*
X29986600Y15163800I-40000J0D01*
G01*
X29986600Y14909800D02*
G75*
G03*
X29986600Y14909800I-40000J0D01*
G01*
X29986600Y14655800D02*
G75*
G03*
X29986600Y14655800I-40000J0D01*
G01*
X29986600Y14401800D02*
G75*
G03*
X29986600Y14401800I-40000J0D01*
G01*
X29986600Y14147800D02*
G75*
G03*
X29986600Y14147800I-40000J0D01*
G01*
X29986600Y13639800D02*
G75*
G03*
X29986600Y13639800I-40000J0D01*
G01*
X29986600Y12877800D02*
G75*
G03*
X29986600Y12877800I-40000J0D01*
G01*
X29986600Y12369800D02*
G75*
G03*
X29986600Y12369800I-40000J0D01*
G01*
X29986600Y12115800D02*
G75*
G03*
X29986600Y12115800I-40000J0D01*
G01*
X29986600Y11861800D02*
G75*
G03*
X29986600Y11861800I-40000J0D01*
G01*
X29986600Y11607800D02*
G75*
G03*
X29986600Y11607800I-40000J0D01*
G01*
X29986600Y11353800D02*
G75*
G03*
X29986600Y11353800I-40000J0D01*
G01*
X29986600Y9550400D02*
G75*
G03*
X29986600Y9550400I-40000J0D01*
G01*
X29986600Y9296400D02*
G75*
G03*
X29986600Y9296400I-40000J0D01*
G01*
X29986600Y9042400D02*
G75*
G03*
X29986600Y9042400I-40000J0D01*
G01*
X29986600Y8788400D02*
G75*
G03*
X29986600Y8788400I-40000J0D01*
G01*
X29986600Y8534400D02*
G75*
G03*
X29986600Y8534400I-40000J0D01*
G01*
X29986600Y8026400D02*
G75*
G03*
X29986600Y8026400I-40000J0D01*
G01*
X29986600Y7264400D02*
G75*
G03*
X29986600Y7264400I-40000J0D01*
G01*
X29986600Y6756400D02*
G75*
G03*
X29986600Y6756400I-40000J0D01*
G01*
X29986600Y6502400D02*
G75*
G03*
X29986600Y6502400I-40000J0D01*
G01*
X29986600Y6248400D02*
G75*
G03*
X29986600Y6248400I-40000J0D01*
G01*
X29986600Y5994400D02*
G75*
G03*
X29986600Y5994400I-40000J0D01*
G01*
X29986600Y5740400D02*
G75*
G03*
X29986600Y5740400I-40000J0D01*
G01*
X30240600Y15163800D02*
G75*
G03*
X30240600Y15163800I-40000J0D01*
G01*
X30240600Y14909800D02*
G75*
G03*
X30240600Y14909800I-40000J0D01*
G01*
X30240600Y14655800D02*
G75*
G03*
X30240600Y14655800I-40000J0D01*
G01*
X30240600Y14401800D02*
G75*
G03*
X30240600Y14401800I-40000J0D01*
G01*
X30240600Y14147800D02*
G75*
G03*
X30240600Y14147800I-40000J0D01*
G01*
X30240600Y13639800D02*
G75*
G03*
X30240600Y13639800I-40000J0D01*
G01*
X30240600Y12877800D02*
G75*
G03*
X30240600Y12877800I-40000J0D01*
G01*
X30240600Y12369800D02*
G75*
G03*
X30240600Y12369800I-40000J0D01*
G01*
X30240600Y12115800D02*
G75*
G03*
X30240600Y12115800I-40000J0D01*
G01*
X30240600Y11861800D02*
G75*
G03*
X30240600Y11861800I-40000J0D01*
G01*
X30240600Y11607800D02*
G75*
G03*
X30240600Y11607800I-40000J0D01*
G01*
X30240600Y11353800D02*
G75*
G03*
X30240600Y11353800I-40000J0D01*
G01*
X30240600Y9550400D02*
G75*
G03*
X30240600Y9550400I-40000J0D01*
G01*
X30240600Y9296400D02*
G75*
G03*
X30240600Y9296400I-40000J0D01*
G01*
X30240600Y9042400D02*
G75*
G03*
X30240600Y9042400I-40000J0D01*
G01*
X30240600Y8788400D02*
G75*
G03*
X30240600Y8788400I-40000J0D01*
G01*
X30240600Y8534400D02*
G75*
G03*
X30240600Y8534400I-40000J0D01*
G01*
X30240600Y8026400D02*
G75*
G03*
X30240600Y8026400I-40000J0D01*
G01*
X30240600Y7264400D02*
G75*
G03*
X30240600Y7264400I-40000J0D01*
G01*
X30240600Y6756400D02*
G75*
G03*
X30240600Y6756400I-40000J0D01*
G01*
X30240600Y6502400D02*
G75*
G03*
X30240600Y6502400I-40000J0D01*
G01*
X30240600Y6248400D02*
G75*
G03*
X30240600Y6248400I-40000J0D01*
G01*
X30240600Y5994400D02*
G75*
G03*
X30240600Y5994400I-40000J0D01*
G01*
X30240600Y5740400D02*
G75*
G03*
X30240600Y5740400I-40000J0D01*
G01*
D13*
X4588000Y18564100D02*
X4588000Y18469100D01*
X4540500Y18516600D02*
X4635500Y18516600D01*
X4838000Y18564100D02*
X4838000Y18469100D01*
X4790500Y18516600D02*
X4885500Y18516600D01*
X5088000Y18564100D02*
X5088000Y18469100D01*
X5040500Y18516600D02*
X5135500Y18516600D01*
X5338000Y18564100D02*
X5338000Y18469100D01*
X5290500Y18516600D02*
X5385500Y18516600D01*
X5443600Y661700D02*
X5443600Y566700D01*
X5396100Y614200D02*
X5491100Y614200D01*
X5588000Y18564100D02*
X5588000Y18469100D01*
X5540500Y18516600D02*
X5635500Y18516600D01*
X5693600Y661700D02*
X5693600Y566700D01*
X5646100Y614200D02*
X5741100Y614200D01*
X5838000Y18564100D02*
X5838000Y18469100D01*
X5790500Y18516600D02*
X5885500Y18516600D01*
X5943600Y661700D02*
X5943600Y566700D01*
X5896100Y614200D02*
X5991100Y614200D01*
X6088000Y18564100D02*
X6088000Y18469100D01*
X6040500Y18516600D02*
X6135500Y18516600D01*
X6193600Y661700D02*
X6193600Y566700D01*
X6146100Y614200D02*
X6241100Y614200D01*
X6338000Y18564100D02*
X6338000Y18469100D01*
X6290500Y18516600D02*
X6385500Y18516600D01*
X6443600Y661700D02*
X6443600Y566700D01*
X6396100Y614200D02*
X6491100Y614200D01*
X6588000Y18564100D02*
X6588000Y18469100D01*
X6540500Y18516600D02*
X6635500Y18516600D01*
X6838000Y18564100D02*
X6838000Y18469100D01*
X6790500Y18516600D02*
X6885500Y18516600D01*
X8869200Y3519300D02*
X8869200Y3424300D01*
X8821700Y3471800D02*
X8916700Y3471800D01*
X8869200Y3269300D02*
X8869200Y3174300D01*
X8821700Y3221800D02*
X8916700Y3221800D01*
X8869200Y3019300D02*
X8869200Y2924300D01*
X8821700Y2971800D02*
X8916700Y2971800D01*
X8869200Y2769300D02*
X8869200Y2674300D01*
X8821700Y2721800D02*
X8916700Y2721800D01*
X8869200Y2519300D02*
X8869200Y2424300D01*
X8821700Y2471800D02*
X8916700Y2471800D01*
X13734000Y18564100D02*
X13734000Y18469100D01*
X13686500Y18516600D02*
X13781500Y18516600D01*
X13984000Y18564100D02*
X13984000Y18469100D01*
X13936500Y18516600D02*
X14031500Y18516600D01*
X14234000Y18564100D02*
X14234000Y18469100D01*
X14186500Y18516600D02*
X14281500Y18516600D01*
X14484000Y18564100D02*
X14484000Y18469100D01*
X14436500Y18516600D02*
X14531500Y18516600D01*
X14734000Y18564100D02*
X14734000Y18469100D01*
X14686500Y18516600D02*
X14781500Y18516600D01*
X14984000Y18564100D02*
X14984000Y18469100D01*
X14936500Y18516600D02*
X15031500Y18516600D01*
X15234000Y18564100D02*
X15234000Y18469100D01*
X15186500Y18516600D02*
X15281500Y18516600D01*
X15484000Y18564100D02*
X15484000Y18469100D01*
X15436500Y18516600D02*
X15531500Y18516600D01*
X15734000Y18564100D02*
X15734000Y18469100D01*
X15686500Y18516600D02*
X15781500Y18516600D01*
X15984000Y18564100D02*
X15984000Y18469100D01*
X15936500Y18516600D02*
X16031500Y18516600D01*
X22878000Y18564100D02*
X22878000Y18469100D01*
X22830500Y18516600D02*
X22925500Y18516600D01*
X23128000Y18564100D02*
X23128000Y18469100D01*
X23080500Y18516600D02*
X23175500Y18516600D01*
X23378000Y18564100D02*
X23378000Y18469100D01*
X23330500Y18516600D02*
X23425500Y18516600D01*
X23628000Y18564100D02*
X23628000Y18469100D01*
X23580500Y18516600D02*
X23675500Y18516600D01*
X23878000Y18564100D02*
X23878000Y18469100D01*
X23830500Y18516600D02*
X23925500Y18516600D01*
X24128000Y18564100D02*
X24128000Y18469100D01*
X24080500Y18516600D02*
X24175500Y18516600D01*
X24378000Y18564100D02*
X24378000Y18469100D01*
X24330500Y18516600D02*
X24425500Y18516600D01*
X24628000Y18564100D02*
X24628000Y18469100D01*
X24580500Y18516600D02*
X24675500Y18516600D01*
X24878000Y18564100D02*
X24878000Y18469100D01*
X24830500Y18516600D02*
X24925500Y18516600D01*
X25128000Y18564100D02*
X25128000Y18469100D01*
X25080500Y18516600D02*
X25175500Y18516600D01*
X27465400Y18568700D02*
X27465400Y18473700D01*
X27417900Y18521200D02*
X27512900Y18521200D01*
X27715400Y18568700D02*
X27715400Y18473700D01*
X27667900Y18521200D02*
X27762900Y18521200D01*
X27965400Y18568700D02*
X27965400Y18473700D01*
X27917900Y18521200D02*
X28012900Y18521200D01*
X28215400Y18568700D02*
X28215400Y18473700D01*
X28167900Y18521200D02*
X28262900Y18521200D01*
X28465400Y18568700D02*
X28465400Y18473700D01*
X28417900Y18521200D02*
X28512900Y18521200D01*
D14*
X429356Y10531044D02*
X429356Y10601756D01*
X358644Y10601756D01*
X358644Y10531044D01*
X429356Y10531044D01*
X543356Y10756243D02*
X543356Y10826955D01*
X472644Y10826955D01*
X472644Y10756243D01*
X543356Y10756243D01*
X822756Y12207444D02*
X822756Y12278156D01*
X752044Y12278156D01*
X752044Y12207444D01*
X822756Y12207444D01*
X822756Y9591244D02*
X822756Y9661956D01*
X752044Y9661956D01*
X752044Y9591244D01*
X822756Y9591244D01*
X1330756Y11572444D02*
X1330756Y11643156D01*
X1260044Y11643156D01*
X1260044Y11572444D01*
X1330756Y11572444D01*
X1762556Y10759644D02*
X1762556Y10830356D01*
X1691844Y10830356D01*
X1691844Y10759644D01*
X1762556Y10759644D01*
X2549956Y15687244D02*
X2549956Y15757956D01*
X2479244Y15757956D01*
X2479244Y15687244D01*
X2549956Y15687244D01*
X2549956Y15433244D02*
X2549956Y15503956D01*
X2479244Y15503956D01*
X2479244Y15433244D01*
X2549956Y15433244D01*
X2549956Y15179244D02*
X2549956Y15249956D01*
X2479244Y15249956D01*
X2479244Y15179244D01*
X2549956Y15179244D01*
X2549956Y11114244D02*
X2549956Y11184956D01*
X2479244Y11184956D01*
X2479244Y11114244D01*
X2549956Y11114244D01*
X2549956Y10860244D02*
X2549956Y10930956D01*
X2479244Y10930956D01*
X2479244Y10860244D01*
X2549956Y10860244D01*
X2549956Y10606244D02*
X2549956Y10676956D01*
X2479244Y10676956D01*
X2479244Y10606244D01*
X2549956Y10606244D01*
X3210356Y17185844D02*
X3210356Y17256556D01*
X3139644Y17256556D01*
X3139644Y17185844D01*
X3210356Y17185844D01*
X3210356Y12612844D02*
X3210356Y12683556D01*
X3139644Y12683556D01*
X3139644Y12612844D01*
X3210356Y12612844D01*
X4336056Y15687244D02*
X4336056Y15757956D01*
X4265344Y15757956D01*
X4265344Y15687244D01*
X4336056Y15687244D01*
X4336056Y15433244D02*
X4336056Y15503956D01*
X4265344Y15503956D01*
X4265344Y15433244D01*
X4336056Y15433244D01*
X4336056Y15179244D02*
X4336056Y15249956D01*
X4265344Y15249956D01*
X4265344Y15179244D01*
X4336056Y15179244D01*
X4336056Y11114244D02*
X4336056Y11184956D01*
X4265344Y11184956D01*
X4265344Y11114244D01*
X4336056Y11114244D01*
X4336056Y10860244D02*
X4336056Y10930956D01*
X4265344Y10930956D01*
X4265344Y10860244D01*
X4336056Y10860244D01*
X4336056Y10606244D02*
X4336056Y10676956D01*
X4265344Y10676956D01*
X4265344Y10606244D01*
X4336056Y10606244D01*
X4996456Y17185844D02*
X4996456Y17256556D01*
X4925744Y17256556D01*
X4925744Y17185844D01*
X4996456Y17185844D01*
X4996456Y12612844D02*
X4996456Y12683556D01*
X4925744Y12683556D01*
X4925744Y12612844D01*
X4996456Y12612844D01*
X6102556Y15687244D02*
X6102556Y15757956D01*
X6031844Y15757956D01*
X6031844Y15687244D01*
X6102556Y15687244D01*
X6102556Y15433244D02*
X6102556Y15503956D01*
X6031844Y15503956D01*
X6031844Y15433244D01*
X6102556Y15433244D01*
X6102556Y15179244D02*
X6102556Y15249956D01*
X6031844Y15249956D01*
X6031844Y15179244D01*
X6102556Y15179244D01*
X6102556Y11114244D02*
X6102556Y11184956D01*
X6031844Y11184956D01*
X6031844Y11114244D01*
X6102556Y11114244D01*
X6102556Y10860244D02*
X6102556Y10930956D01*
X6031844Y10930956D01*
X6031844Y10860244D01*
X6102556Y10860244D01*
X6102556Y10606244D02*
X6102556Y10676956D01*
X6031844Y10676956D01*
X6031844Y10606244D01*
X6102556Y10606244D01*
X6740956Y3190444D02*
X6740956Y3261156D01*
X6670244Y3261156D01*
X6670244Y3190444D01*
X6740956Y3190444D01*
X6762956Y17185844D02*
X6762956Y17256556D01*
X6692244Y17256556D01*
X6692244Y17185844D01*
X6762956Y17185844D01*
X6762956Y12612844D02*
X6762956Y12683556D01*
X6692244Y12683556D01*
X6692244Y12612844D01*
X6762956Y12612844D01*
X6994956Y3190444D02*
X6994956Y3261156D01*
X6924244Y3261156D01*
X6924244Y3190444D01*
X6994956Y3190444D01*
X7147356Y1488644D02*
X7147356Y1559356D01*
X7076644Y1559356D01*
X7076644Y1488644D01*
X7147356Y1488644D01*
X7147356Y193244D02*
X7147356Y263956D01*
X7076644Y263956D01*
X7076644Y193244D01*
X7147356Y193244D01*
X7248956Y3190444D02*
X7248956Y3261156D01*
X7178244Y3261156D01*
X7178244Y3190444D01*
X7248956Y3190444D01*
X7502956Y3190444D02*
X7502956Y3261156D01*
X7432244Y3261156D01*
X7432244Y3190444D01*
X7502956Y3190444D01*
X7883956Y15687244D02*
X7883956Y15757956D01*
X7813244Y15757956D01*
X7813244Y15687244D01*
X7883956Y15687244D01*
X7883956Y15433244D02*
X7883956Y15503956D01*
X7813244Y15503956D01*
X7813244Y15433244D01*
X7883956Y15433244D01*
X7883956Y15179244D02*
X7883956Y15249956D01*
X7813244Y15249956D01*
X7813244Y15179244D01*
X7883956Y15179244D01*
X7883956Y11114244D02*
X7883956Y11184956D01*
X7813244Y11184956D01*
X7813244Y11114244D01*
X7883956Y11114244D01*
X7883956Y10860244D02*
X7883956Y10930956D01*
X7813244Y10930956D01*
X7813244Y10860244D01*
X7883956Y10860244D01*
X7883956Y10606244D02*
X7883956Y10676956D01*
X7813244Y10676956D01*
X7813244Y10606244D01*
X7883956Y10606244D01*
X8544356Y17185844D02*
X8544356Y17256556D01*
X8473644Y17256556D01*
X8473644Y17185844D01*
X8544356Y17185844D01*
X8544356Y12612844D02*
X8544356Y12683556D01*
X8473644Y12683556D01*
X8473644Y12612844D01*
X8544356Y12612844D01*
X9585756Y6314644D02*
X9585756Y6385356D01*
X9515044Y6385356D01*
X9515044Y6314644D01*
X9585756Y6314644D01*
X9585756Y6060644D02*
X9585756Y6131356D01*
X9515044Y6131356D01*
X9515044Y6060644D01*
X9585756Y6060644D01*
X9585756Y5806644D02*
X9585756Y5877356D01*
X9515044Y5877356D01*
X9515044Y5806644D01*
X9585756Y5806644D01*
X9585756Y5552644D02*
X9585756Y5623356D01*
X9515044Y5623356D01*
X9515044Y5552644D01*
X9585756Y5552644D01*
X9585756Y5298644D02*
X9585756Y5369356D01*
X9515044Y5369356D01*
X9515044Y5298644D01*
X9585756Y5298644D01*
X9585756Y5044644D02*
X9585756Y5115356D01*
X9515044Y5115356D01*
X9515044Y5044644D01*
X9585756Y5044644D01*
X9585756Y4790644D02*
X9585756Y4861356D01*
X9515044Y4861356D01*
X9515044Y4790644D01*
X9585756Y4790644D01*
X9585756Y4536644D02*
X9585756Y4607356D01*
X9515044Y4607356D01*
X9515044Y4536644D01*
X9585756Y4536644D01*
X9585756Y4282644D02*
X9585756Y4353356D01*
X9515044Y4353356D01*
X9515044Y4282644D01*
X9585756Y4282644D01*
X9585756Y4028644D02*
X9585756Y4099356D01*
X9515044Y4099356D01*
X9515044Y4028644D01*
X9585756Y4028644D01*
X9585756Y3774644D02*
X9585756Y3845356D01*
X9515044Y3845356D01*
X9515044Y3774644D01*
X9585756Y3774644D01*
X9585756Y3520644D02*
X9585756Y3591356D01*
X9515044Y3591356D01*
X9515044Y3520644D01*
X9585756Y3520644D01*
X9585756Y3266644D02*
X9585756Y3337356D01*
X9515044Y3337356D01*
X9515044Y3266644D01*
X9585756Y3266644D01*
X9585756Y3012644D02*
X9585756Y3083356D01*
X9515044Y3083356D01*
X9515044Y3012644D01*
X9585756Y3012644D01*
X9585756Y2758644D02*
X9585756Y2829356D01*
X9515044Y2829356D01*
X9515044Y2758644D01*
X9585756Y2758644D01*
X11109756Y6314644D02*
X11109756Y6385356D01*
X11039044Y6385356D01*
X11039044Y6314644D01*
X11109756Y6314644D01*
X11109756Y6060644D02*
X11109756Y6131356D01*
X11039044Y6131356D01*
X11039044Y6060644D01*
X11109756Y6060644D01*
X11109756Y5806644D02*
X11109756Y5877356D01*
X11039044Y5877356D01*
X11039044Y5806644D01*
X11109756Y5806644D01*
X11109756Y5552644D02*
X11109756Y5623356D01*
X11039044Y5623356D01*
X11039044Y5552644D01*
X11109756Y5552644D01*
X11109756Y5298644D02*
X11109756Y5369356D01*
X11039044Y5369356D01*
X11039044Y5298644D01*
X11109756Y5298644D01*
X11109756Y5044644D02*
X11109756Y5115356D01*
X11039044Y5115356D01*
X11039044Y5044644D01*
X11109756Y5044644D01*
X11109756Y4790644D02*
X11109756Y4861356D01*
X11039044Y4861356D01*
X11039044Y4790644D01*
X11109756Y4790644D01*
X11109756Y4536644D02*
X11109756Y4607356D01*
X11039044Y4607356D01*
X11039044Y4536644D01*
X11109756Y4536644D01*
X11109756Y4282644D02*
X11109756Y4353356D01*
X11039044Y4353356D01*
X11039044Y4282644D01*
X11109756Y4282644D01*
X11109756Y4028644D02*
X11109756Y4099356D01*
X11039044Y4099356D01*
X11039044Y4028644D01*
X11109756Y4028644D01*
X11109756Y3774644D02*
X11109756Y3845356D01*
X11039044Y3845356D01*
X11039044Y3774644D01*
X11109756Y3774644D01*
X11109756Y3520644D02*
X11109756Y3591356D01*
X11039044Y3591356D01*
X11039044Y3520644D01*
X11109756Y3520644D01*
X11109756Y3266644D02*
X11109756Y3337356D01*
X11039044Y3337356D01*
X11039044Y3266644D01*
X11109756Y3266644D01*
X11109756Y3012644D02*
X11109756Y3083356D01*
X11039044Y3083356D01*
X11039044Y3012644D01*
X11109756Y3012644D01*
X11109756Y2758644D02*
X11109756Y2829356D01*
X11039044Y2829356D01*
X11039044Y2758644D01*
X11109756Y2758644D01*
X11693956Y15687244D02*
X11693956Y15757956D01*
X11623244Y15757956D01*
X11623244Y15687244D01*
X11693956Y15687244D01*
X11693956Y15433244D02*
X11693956Y15503956D01*
X11623244Y15503956D01*
X11623244Y15433244D01*
X11693956Y15433244D01*
X11693956Y15179244D02*
X11693956Y15249956D01*
X11623244Y15249956D01*
X11623244Y15179244D01*
X11693956Y15179244D01*
X11693956Y11114244D02*
X11693956Y11184956D01*
X11623244Y11184956D01*
X11623244Y11114244D01*
X11693956Y11114244D01*
X11693956Y10860244D02*
X11693956Y10930956D01*
X11623244Y10930956D01*
X11623244Y10860244D01*
X11693956Y10860244D01*
X11693956Y10606244D02*
X11693956Y10676956D01*
X11623244Y10676956D01*
X11623244Y10606244D01*
X11693956Y10606244D01*
X12354356Y17185844D02*
X12354356Y17256556D01*
X12283644Y17256556D01*
X12283644Y17185844D01*
X12354356Y17185844D01*
X12354356Y12612844D02*
X12354356Y12683556D01*
X12283644Y12683556D01*
X12283644Y12612844D01*
X12354356Y12612844D01*
X13466956Y15687244D02*
X13466956Y15757956D01*
X13396244Y15757956D01*
X13396244Y15687244D01*
X13466956Y15687244D01*
X13466956Y15433244D02*
X13466956Y15503956D01*
X13396244Y15503956D01*
X13396244Y15433244D01*
X13466956Y15433244D01*
X13466956Y15179244D02*
X13466956Y15249956D01*
X13396244Y15249956D01*
X13396244Y15179244D01*
X13466956Y15179244D01*
X13466956Y11114244D02*
X13466956Y11184956D01*
X13396244Y11184956D01*
X13396244Y11114244D01*
X13466956Y11114244D01*
X13466956Y10860244D02*
X13466956Y10930956D01*
X13396244Y10930956D01*
X13396244Y10860244D01*
X13466956Y10860244D01*
X13466956Y10606244D02*
X13466956Y10676956D01*
X13396244Y10676956D01*
X13396244Y10606244D01*
X13466956Y10606244D01*
X14127356Y17185844D02*
X14127356Y17256556D01*
X14056644Y17256556D01*
X14056644Y17185844D01*
X14127356Y17185844D01*
X14127356Y12612844D02*
X14127356Y12683556D01*
X14056644Y12683556D01*
X14056644Y12612844D01*
X14127356Y12612844D01*
X15244856Y15687244D02*
X15244856Y15757956D01*
X15174144Y15757956D01*
X15174144Y15687244D01*
X15244856Y15687244D01*
X15244856Y15433244D02*
X15244856Y15503956D01*
X15174144Y15503956D01*
X15174144Y15433244D01*
X15244856Y15433244D01*
X15244856Y15179244D02*
X15244856Y15249956D01*
X15174144Y15249956D01*
X15174144Y15179244D01*
X15244856Y15179244D01*
X15244856Y11114244D02*
X15244856Y11184956D01*
X15174144Y11184956D01*
X15174144Y11114244D01*
X15244856Y11114244D01*
X15244856Y10860244D02*
X15244856Y10930956D01*
X15174144Y10930956D01*
X15174144Y10860244D01*
X15244856Y10860244D01*
X15244856Y10606244D02*
X15244856Y10676956D01*
X15174144Y10676956D01*
X15174144Y10606244D01*
X15244856Y10606244D01*
X15905256Y17185844D02*
X15905256Y17256556D01*
X15834544Y17256556D01*
X15834544Y17185844D01*
X15905256Y17185844D01*
X15905256Y12612844D02*
X15905256Y12683556D01*
X15834544Y12683556D01*
X15834544Y12612844D01*
X15905256Y12612844D01*
X17276876Y15686244D02*
X17276876Y15756956D01*
X17206164Y15756956D01*
X17206164Y15686244D01*
X17276876Y15686244D01*
X17276876Y15432244D02*
X17276876Y15502956D01*
X17206164Y15502956D01*
X17206164Y15432244D01*
X17276876Y15432244D01*
X17276876Y15178244D02*
X17276876Y15248956D01*
X17206164Y15248956D01*
X17206164Y15178244D01*
X17276876Y15178244D01*
X17276876Y11115244D02*
X17276876Y11185956D01*
X17206164Y11185956D01*
X17206164Y11115244D01*
X17276876Y11115244D01*
X17276876Y10861244D02*
X17276876Y10931956D01*
X17206164Y10931956D01*
X17206164Y10861244D01*
X17276876Y10861244D01*
X17276876Y10607244D02*
X17276876Y10677956D01*
X17206164Y10677956D01*
X17206164Y10607244D01*
X17276876Y10607244D01*
X17937276Y17184844D02*
X17937276Y17255556D01*
X17866564Y17255556D01*
X17866564Y17184844D01*
X17937276Y17184844D01*
X17937276Y12613844D02*
X17937276Y12684556D01*
X17866564Y12684556D01*
X17866564Y12613844D01*
X17937276Y12613844D01*
X20835556Y11114244D02*
X20835556Y11184956D01*
X20764844Y11184956D01*
X20764844Y11114244D01*
X20835556Y11114244D01*
X20835556Y10860244D02*
X20835556Y10930956D01*
X20764844Y10930956D01*
X20764844Y10860244D01*
X20835556Y10860244D01*
X20835556Y10606244D02*
X20835556Y10676956D01*
X20764844Y10676956D01*
X20764844Y10606244D01*
X20835556Y10606244D01*
X20837956Y15687244D02*
X20837956Y15757956D01*
X20767244Y15757956D01*
X20767244Y15687244D01*
X20837956Y15687244D01*
X20837956Y15433244D02*
X20837956Y15503956D01*
X20767244Y15503956D01*
X20767244Y15433244D01*
X20837956Y15433244D01*
X20837956Y15179244D02*
X20837956Y15249956D01*
X20767244Y15249956D01*
X20767244Y15179244D01*
X20837956Y15179244D01*
X21495956Y12612844D02*
X21495956Y12683556D01*
X21425244Y12683556D01*
X21425244Y12612844D01*
X21495956Y12612844D01*
X21498356Y17185844D02*
X21498356Y17256556D01*
X21427644Y17256556D01*
X21427644Y17185844D01*
X21498356Y17185844D01*
X22615756Y11114244D02*
X22615756Y11184956D01*
X22545044Y11184956D01*
X22545044Y11114244D01*
X22615756Y11114244D01*
X22615756Y10860244D02*
X22615756Y10930956D01*
X22545044Y10930956D01*
X22545044Y10860244D01*
X22615756Y10860244D01*
X22615756Y10606244D02*
X22615756Y10676956D01*
X22545044Y10676956D01*
X22545044Y10606244D01*
X22615756Y10606244D01*
X22615956Y15687244D02*
X22615956Y15757956D01*
X22545244Y15757956D01*
X22545244Y15687244D01*
X22615956Y15687244D01*
X22615956Y15433244D02*
X22615956Y15503956D01*
X22545244Y15503956D01*
X22545244Y15433244D01*
X22615956Y15433244D01*
X22615956Y15179244D02*
X22615956Y15249956D01*
X22545244Y15249956D01*
X22545244Y15179244D01*
X22615956Y15179244D01*
X23276156Y12612844D02*
X23276156Y12683556D01*
X23205444Y12683556D01*
X23205444Y12612844D01*
X23276156Y12612844D01*
X23276356Y17185844D02*
X23276356Y17256556D01*
X23205644Y17256556D01*
X23205644Y17185844D01*
X23276356Y17185844D01*
X24381256Y15687244D02*
X24381256Y15757956D01*
X24310544Y15757956D01*
X24310544Y15687244D01*
X24381256Y15687244D01*
X24381256Y15433244D02*
X24381256Y15503956D01*
X24310544Y15503956D01*
X24310544Y15433244D01*
X24381256Y15433244D01*
X24381256Y15179244D02*
X24381256Y15249956D01*
X24310544Y15249956D01*
X24310544Y15179244D01*
X24381256Y15179244D01*
X24389336Y11114244D02*
X24389336Y11184956D01*
X24318624Y11184956D01*
X24318624Y11114244D01*
X24389336Y11114244D01*
X24389336Y10860244D02*
X24389336Y10930956D01*
X24318624Y10930956D01*
X24318624Y10860244D01*
X24389336Y10860244D01*
X24389336Y10606244D02*
X24389336Y10676956D01*
X24318624Y10676956D01*
X24318624Y10606244D01*
X24389336Y10606244D01*
X25041656Y17185844D02*
X25041656Y17256556D01*
X24970944Y17256556D01*
X24970944Y17185844D01*
X25041656Y17185844D01*
X25049736Y12612844D02*
X25049736Y12683556D01*
X24979024Y12683556D01*
X24979024Y12612844D01*
X25049736Y12612844D01*
X26159256Y15687244D02*
X26159256Y15757956D01*
X26088544Y15757956D01*
X26088544Y15687244D01*
X26159256Y15687244D01*
X26159256Y15433244D02*
X26159256Y15503956D01*
X26088544Y15503956D01*
X26088544Y15433244D01*
X26159256Y15433244D01*
X26159256Y15179244D02*
X26159256Y15249956D01*
X26088544Y15249956D01*
X26088544Y15179244D01*
X26159256Y15179244D01*
X26171956Y11114244D02*
X26171956Y11184956D01*
X26101244Y11184956D01*
X26101244Y11114244D01*
X26171956Y11114244D01*
X26171956Y10860244D02*
X26171956Y10930956D01*
X26101244Y10930956D01*
X26101244Y10860244D01*
X26171956Y10860244D01*
X26171956Y10606244D02*
X26171956Y10676956D01*
X26101244Y10676956D01*
X26101244Y10606244D01*
X26171956Y10606244D01*
X26819656Y17185844D02*
X26819656Y17256556D01*
X26748944Y17256556D01*
X26748944Y17185844D01*
X26819656Y17185844D01*
X26832356Y12612844D02*
X26832356Y12683556D01*
X26761644Y12683556D01*
X26761644Y12612844D01*
X26832356Y12612844D01*
D15*
X7297000Y4923400D02*
X7352000Y4978400D01*
X7297000Y5033400D01*
X7242000Y4978400D01*
X7297000Y4923400D01*
X7297000Y4273400D02*
X7352000Y4328400D01*
X7297000Y4383400D01*
X7242000Y4328400D01*
X7297000Y4273400D01*
X7747000Y4923400D02*
X7802000Y4978400D01*
X7747000Y5033400D01*
X7692000Y4978400D01*
X7747000Y4923400D01*
X7747000Y4273400D02*
X7802000Y4328400D01*
X7747000Y4383400D01*
X7692000Y4328400D01*
X7747000Y4273400D01*
X8233200Y6493000D02*
X8288200Y6548000D01*
X8233200Y6603000D01*
X8178200Y6548000D01*
X8233200Y6493000D01*
X8233200Y5843000D02*
X8288200Y5898000D01*
X8233200Y5953000D01*
X8178200Y5898000D01*
X8233200Y5843000D01*
X8683200Y6493000D02*
X8738200Y6548000D01*
X8683200Y6603000D01*
X8628200Y6548000D01*
X8683200Y6493000D01*
X8683200Y5843000D02*
X8738200Y5898000D01*
X8683200Y5953000D01*
X8628200Y5898000D01*
X8683200Y5843000D01*
D16*
X9465400Y6689000D02*
X9635400Y6519000D01*
X9635400Y6689000D02*
X9465400Y6519000D01*
X9635400Y6604000D02*
G75*
G03*
X9635400Y6604000I-85000J0D01*
G01*
X9465400Y2625000D02*
X9635400Y2455000D01*
X9635400Y2625000D02*
X9465400Y2455000D01*
X9635400Y2540000D02*
G75*
G03*
X9635400Y2540000I-85000J0D01*
G01*
X10989400Y6689000D02*
X11159400Y6519000D01*
X11159400Y6689000D02*
X10989400Y6519000D01*
X11159400Y6604000D02*
G75*
G03*
X11159400Y6604000I-85000J0D01*
G01*
X10989400Y2625000D02*
X11159400Y2455000D01*
X11159400Y2625000D02*
X10989400Y2455000D01*
X11159400Y2540000D02*
G75*
G03*
X11159400Y2540000I-85000J0D01*
G01*
D10*
X252619Y-315476D02*
X252619Y-115476D01*
X300238Y-115476D01*
X328810Y-125000D01*
X347857Y-144048D01*
X357381Y-163095D01*
X366905Y-201190D01*
X366905Y-229762D01*
X357381Y-267857D01*
X347857Y-286905D01*
X328810Y-305952D01*
X300238Y-315476D01*
X252619Y-315476D01*
X452619Y-315476D02*
X452619Y-182143D01*
X452619Y-220238D02*
X462143Y-201190D01*
X471667Y-191667D01*
X490714Y-182143D01*
X509762Y-182143D01*
X576429Y-315476D02*
X576429Y-182143D01*
X576429Y-115476D02*
X566905Y-125000D01*
X576429Y-134524D01*
X585952Y-125000D01*
X576429Y-115476D01*
X576429Y-134524D01*
X700238Y-315476D02*
X681190Y-305952D01*
X671667Y-286905D01*
X671667Y-115476D01*
X805000Y-315476D02*
X785952Y-305952D01*
X776428Y-286905D01*
X776428Y-115476D01*
X1033571Y-315476D02*
X1033571Y-115476D01*
X1100238Y-258333D01*
X1166905Y-115476D01*
X1166905Y-315476D01*
X1347857Y-315476D02*
X1347857Y-210714D01*
X1338333Y-191667D01*
X1319286Y-182143D01*
X1281190Y-182143D01*
X1262143Y-191667D01*
X1347857Y-305952D02*
X1328810Y-315476D01*
X1281190Y-315476D01*
X1262143Y-305952D01*
X1252619Y-286905D01*
X1252619Y-267857D01*
X1262143Y-248809D01*
X1281190Y-239286D01*
X1328810Y-239286D01*
X1347857Y-229762D01*
X1443095Y-182143D02*
X1443095Y-382143D01*
X1443095Y-191667D02*
X1462143Y-182143D01*
X1500238Y-182143D01*
X1519286Y-191667D01*
X1528809Y-201190D01*
X1538333Y-220238D01*
X1538333Y-277381D01*
X1528809Y-296429D01*
X1519286Y-305952D01*
X1500238Y-315476D01*
X1462143Y-315476D01*
X1443095Y-305952D01*
X1624048Y-296429D02*
X1633571Y-305952D01*
X1624048Y-315476D01*
X1614524Y-305952D01*
X1624048Y-296429D01*
X1624048Y-315476D01*
X1624048Y-191667D02*
X1633571Y-201190D01*
X1624048Y-210714D01*
X1614524Y-201190D01*
X1624048Y-191667D01*
X1624048Y-210714D01*
D11*
X-45000Y-625000D02*
X-5000Y-665000D01*
X-5000Y-625000D02*
X-45000Y-665000D01*
D10*
X290714Y-535476D02*
X309762Y-535476D01*
X328810Y-545000D01*
X338333Y-554524D01*
X347857Y-573571D01*
X357381Y-611667D01*
X357381Y-659286D01*
X347857Y-697381D01*
X338333Y-716428D01*
X328810Y-725952D01*
X309762Y-735476D01*
X290714Y-735476D01*
X271667Y-725952D01*
X262143Y-716428D01*
X252619Y-697381D01*
X243095Y-659286D01*
X243095Y-611667D01*
X252619Y-573571D01*
X262143Y-554524D01*
X271667Y-545000D01*
X290714Y-535476D01*
X443095Y-716428D02*
X452619Y-725952D01*
X443095Y-735476D01*
X433571Y-725952D01*
X443095Y-716428D01*
X443095Y-735476D01*
X624048Y-602143D02*
X624048Y-735476D01*
X576429Y-525952D02*
X528810Y-668810D01*
X652619Y-668810D01*
X766905Y-535476D02*
X785952Y-535476D01*
X805000Y-545000D01*
X814524Y-554524D01*
X824048Y-573571D01*
X833571Y-611667D01*
X833571Y-659286D01*
X824048Y-697381D01*
X814524Y-716428D01*
X805000Y-725952D01*
X785952Y-735476D01*
X766905Y-735476D01*
X747857Y-725952D01*
X738333Y-716428D01*
X728809Y-697381D01*
X719286Y-659286D01*
X719286Y-611667D01*
X728809Y-573571D01*
X738333Y-554524D01*
X747857Y-545000D01*
X766905Y-535476D01*
X957381Y-535476D02*
X976428Y-535476D01*
X995476Y-545000D01*
X1005000Y-554524D01*
X1014524Y-573571D01*
X1024048Y-611667D01*
X1024048Y-659286D01*
X1014524Y-697381D01*
X1005000Y-716428D01*
X995476Y-725952D01*
X976428Y-735476D01*
X957381Y-735476D01*
X938333Y-725952D01*
X928809Y-716428D01*
X919286Y-697381D01*
X909762Y-659286D01*
X909762Y-611667D01*
X919286Y-573571D01*
X928809Y-554524D01*
X938333Y-545000D01*
X957381Y-535476D01*
X1109762Y-735476D02*
X1109762Y-602143D01*
X1109762Y-621190D02*
X1119286Y-611667D01*
X1138333Y-602143D01*
X1166905Y-602143D01*
X1185952Y-611667D01*
X1195476Y-630714D01*
X1195476Y-735476D01*
X1195476Y-630714D02*
X1205000Y-611667D01*
X1224048Y-602143D01*
X1252619Y-602143D01*
X1271667Y-611667D01*
X1281190Y-630714D01*
X1281190Y-735476D01*
X1376429Y-735476D02*
X1376429Y-602143D01*
X1376429Y-621190D02*
X1385952Y-611667D01*
X1405000Y-602143D01*
X1433571Y-602143D01*
X1452619Y-611667D01*
X1462143Y-630714D01*
X1462143Y-735476D01*
X1462143Y-630714D02*
X1471667Y-611667D01*
X1490714Y-602143D01*
X1519286Y-602143D01*
X1538333Y-611667D01*
X1547857Y-630714D01*
X1547857Y-735476D01*
X1938333Y-525952D02*
X1766905Y-783095D01*
X2195476Y-535476D02*
X2214524Y-535476D01*
X2233571Y-545000D01*
X2243095Y-554524D01*
X2252619Y-573571D01*
X2262143Y-611667D01*
X2262143Y-659286D01*
X2252619Y-697381D01*
X2243095Y-716428D01*
X2233571Y-725952D01*
X2214524Y-735476D01*
X2195476Y-735476D01*
X2176429Y-725952D01*
X2166905Y-716428D01*
X2157381Y-697381D01*
X2147857Y-659286D01*
X2147857Y-611667D01*
X2157381Y-573571D01*
X2166905Y-554524D01*
X2176429Y-545000D01*
X2195476Y-535476D01*
X2347857Y-716428D02*
X2357381Y-725952D01*
X2347857Y-735476D01*
X2338333Y-725952D01*
X2347857Y-716428D01*
X2347857Y-735476D01*
X2481190Y-535476D02*
X2500238Y-535476D01*
X2519286Y-545000D01*
X2528810Y-554524D01*
X2538333Y-573571D01*
X2547857Y-611667D01*
X2547857Y-659286D01*
X2538333Y-697381D01*
X2528810Y-716428D01*
X2519286Y-725952D01*
X2500238Y-735476D01*
X2481190Y-735476D01*
X2462143Y-725952D01*
X2452619Y-716428D01*
X2443095Y-697381D01*
X2433571Y-659286D01*
X2433571Y-611667D01*
X2443095Y-573571D01*
X2452619Y-554524D01*
X2462143Y-545000D01*
X2481190Y-535476D01*
X2738333Y-735476D02*
X2624048Y-735476D01*
X2681190Y-735476D02*
X2681190Y-535476D01*
X2662143Y-564048D01*
X2643095Y-583095D01*
X2624048Y-592619D01*
X2919286Y-535476D02*
X2824048Y-535476D01*
X2814524Y-630714D01*
X2824048Y-621190D01*
X2843095Y-611667D01*
X2890714Y-611667D01*
X2909762Y-621190D01*
X2919286Y-630714D01*
X2928809Y-649762D01*
X2928809Y-697381D01*
X2919286Y-716428D01*
X2909762Y-725952D01*
X2890714Y-735476D01*
X2843095Y-735476D01*
X2824048Y-725952D01*
X2814524Y-716428D01*
X2995476Y-535476D02*
X3128809Y-535476D01*
X3043095Y-735476D01*
X3195476Y-535476D02*
X3195476Y-573571D01*
X3271667Y-535476D02*
X3271667Y-573571D01*
X3566905Y-811667D02*
X3557381Y-802143D01*
X3538333Y-773571D01*
X3528809Y-754524D01*
X3519286Y-725952D01*
X3509762Y-678333D01*
X3509762Y-640238D01*
X3519286Y-592619D01*
X3528809Y-564048D01*
X3538333Y-545000D01*
X3557381Y-516428D01*
X3566905Y-506905D01*
X3728809Y-535476D02*
X3690714Y-535476D01*
X3671667Y-545000D01*
X3662143Y-554524D01*
X3643095Y-583095D01*
X3633571Y-621190D01*
X3633571Y-697381D01*
X3643095Y-716428D01*
X3652619Y-725952D01*
X3671667Y-735476D01*
X3709762Y-735476D01*
X3728809Y-725952D01*
X3738333Y-716428D01*
X3747857Y-697381D01*
X3747857Y-649762D01*
X3738333Y-630714D01*
X3728809Y-621190D01*
X3709762Y-611667D01*
X3671667Y-611667D01*
X3652619Y-621190D01*
X3643095Y-630714D01*
X3633571Y-649762D01*
X3862143Y-621190D02*
X3843095Y-611667D01*
X3833571Y-602143D01*
X3824048Y-583095D01*
X3824048Y-573571D01*
X3833571Y-554524D01*
X3843095Y-545000D01*
X3862143Y-535476D01*
X3900238Y-535476D01*
X3919286Y-545000D01*
X3928809Y-554524D01*
X3938333Y-573571D01*
X3938333Y-583095D01*
X3928809Y-602143D01*
X3919286Y-611667D01*
X3900238Y-621190D01*
X3862143Y-621190D01*
X3843095Y-630714D01*
X3833571Y-640238D01*
X3824048Y-659286D01*
X3824048Y-697381D01*
X3833571Y-716428D01*
X3843095Y-725952D01*
X3862143Y-735476D01*
X3900238Y-735476D01*
X3919286Y-725952D01*
X3928809Y-716428D01*
X3938333Y-697381D01*
X3938333Y-659286D01*
X3928809Y-640238D01*
X3919286Y-630714D01*
X3900238Y-621190D01*
X4176428Y-735476D02*
X4176428Y-535476D01*
X4262143Y-735476D02*
X4262143Y-630714D01*
X4252619Y-611667D01*
X4233571Y-602143D01*
X4205000Y-602143D01*
X4185952Y-611667D01*
X4176428Y-621190D01*
X4385952Y-735476D02*
X4366905Y-725952D01*
X4357381Y-716428D01*
X4347857Y-697381D01*
X4347857Y-640238D01*
X4357381Y-621190D01*
X4366905Y-611667D01*
X4385952Y-602143D01*
X4414524Y-602143D01*
X4433571Y-611667D01*
X4443095Y-621190D01*
X4452619Y-640238D01*
X4452619Y-697381D01*
X4443095Y-716428D01*
X4433571Y-725952D01*
X4414524Y-735476D01*
X4385952Y-735476D01*
X4566905Y-735476D02*
X4547857Y-725952D01*
X4538333Y-706905D01*
X4538333Y-535476D01*
X4719286Y-725952D02*
X4700238Y-735476D01*
X4662143Y-735476D01*
X4643095Y-725952D01*
X4633571Y-706905D01*
X4633571Y-630714D01*
X4643095Y-611667D01*
X4662143Y-602143D01*
X4700238Y-602143D01*
X4719286Y-611667D01*
X4728810Y-630714D01*
X4728810Y-649762D01*
X4633571Y-668810D01*
X4805000Y-725952D02*
X4824048Y-735476D01*
X4862143Y-735476D01*
X4881190Y-725952D01*
X4890714Y-706905D01*
X4890714Y-697381D01*
X4881190Y-678333D01*
X4862143Y-668810D01*
X4833571Y-668810D01*
X4814524Y-659286D01*
X4805000Y-640238D01*
X4805000Y-630714D01*
X4814524Y-611667D01*
X4833571Y-602143D01*
X4862143Y-602143D01*
X4881190Y-611667D01*
X4957381Y-811667D02*
X4966905Y-802143D01*
X4985952Y-773571D01*
X4995476Y-754524D01*
X5005000Y-725952D01*
X5014524Y-678333D01*
X5014524Y-640238D01*
X5005000Y-592619D01*
X4995476Y-564048D01*
X4985952Y-545000D01*
X4966905Y-516428D01*
X4957381Y-506905D01*
D12*
X-5000Y-909000D02*
G75*
G03*
X-5000Y-909000I-40000J0D01*
G01*
D10*
X290714Y-799476D02*
X309762Y-799476D01*
X328810Y-809000D01*
X338333Y-818524D01*
X347857Y-837571D01*
X357381Y-875667D01*
X357381Y-923286D01*
X347857Y-961381D01*
X338333Y-980428D01*
X328810Y-989952D01*
X309762Y-999476D01*
X290714Y-999476D01*
X271667Y-989952D01*
X262143Y-980428D01*
X252619Y-961381D01*
X243095Y-923286D01*
X243095Y-875667D01*
X252619Y-837571D01*
X262143Y-818524D01*
X271667Y-809000D01*
X290714Y-799476D01*
X443095Y-980428D02*
X452619Y-989952D01*
X443095Y-999476D01*
X433571Y-989952D01*
X443095Y-980428D01*
X443095Y-999476D01*
X566905Y-885190D02*
X547857Y-875667D01*
X538333Y-866143D01*
X528810Y-847095D01*
X528810Y-837571D01*
X538333Y-818524D01*
X547857Y-809000D01*
X566905Y-799476D01*
X605000Y-799476D01*
X624048Y-809000D01*
X633571Y-818524D01*
X643095Y-837571D01*
X643095Y-847095D01*
X633571Y-866143D01*
X624048Y-875667D01*
X605000Y-885190D01*
X566905Y-885190D01*
X547857Y-894714D01*
X538333Y-904238D01*
X528810Y-923286D01*
X528810Y-961381D01*
X538333Y-980428D01*
X547857Y-989952D01*
X566905Y-999476D01*
X605000Y-999476D01*
X624048Y-989952D01*
X633571Y-980428D01*
X643095Y-961381D01*
X643095Y-923286D01*
X633571Y-904238D01*
X624048Y-894714D01*
X605000Y-885190D01*
X766905Y-799476D02*
X785952Y-799476D01*
X805000Y-809000D01*
X814524Y-818524D01*
X824048Y-837571D01*
X833571Y-875667D01*
X833571Y-923286D01*
X824048Y-961381D01*
X814524Y-980428D01*
X805000Y-989952D01*
X785952Y-999476D01*
X766905Y-999476D01*
X747857Y-989952D01*
X738333Y-980428D01*
X728809Y-961381D01*
X719286Y-923286D01*
X719286Y-875667D01*
X728809Y-837571D01*
X738333Y-818524D01*
X747857Y-809000D01*
X766905Y-799476D01*
X957381Y-799476D02*
X976428Y-799476D01*
X995476Y-809000D01*
X1005000Y-818524D01*
X1014524Y-837571D01*
X1024048Y-875667D01*
X1024048Y-923286D01*
X1014524Y-961381D01*
X1005000Y-980428D01*
X995476Y-989952D01*
X976428Y-999476D01*
X957381Y-999476D01*
X938333Y-989952D01*
X928809Y-980428D01*
X919286Y-961381D01*
X909762Y-923286D01*
X909762Y-875667D01*
X919286Y-837571D01*
X928809Y-818524D01*
X938333Y-809000D01*
X957381Y-799476D01*
X1109762Y-999476D02*
X1109762Y-866143D01*
X1109762Y-885190D02*
X1119286Y-875667D01*
X1138333Y-866143D01*
X1166905Y-866143D01*
X1185952Y-875667D01*
X1195476Y-894714D01*
X1195476Y-999476D01*
X1195476Y-894714D02*
X1205000Y-875667D01*
X1224048Y-866143D01*
X1252619Y-866143D01*
X1271667Y-875667D01*
X1281190Y-894714D01*
X1281190Y-999476D01*
X1376429Y-999476D02*
X1376429Y-866143D01*
X1376429Y-885190D02*
X1385952Y-875667D01*
X1405000Y-866143D01*
X1433571Y-866143D01*
X1452619Y-875667D01*
X1462143Y-894714D01*
X1462143Y-999476D01*
X1462143Y-894714D02*
X1471667Y-875667D01*
X1490714Y-866143D01*
X1519286Y-866143D01*
X1538333Y-875667D01*
X1547857Y-894714D01*
X1547857Y-999476D01*
X1938333Y-789952D02*
X1766905Y-1047095D01*
X2195476Y-799476D02*
X2214524Y-799476D01*
X2233571Y-809000D01*
X2243095Y-818524D01*
X2252619Y-837571D01*
X2262143Y-875667D01*
X2262143Y-923286D01*
X2252619Y-961381D01*
X2243095Y-980428D01*
X2233571Y-989952D01*
X2214524Y-999476D01*
X2195476Y-999476D01*
X2176429Y-989952D01*
X2166905Y-980428D01*
X2157381Y-961381D01*
X2147857Y-923286D01*
X2147857Y-875667D01*
X2157381Y-837571D01*
X2166905Y-818524D01*
X2176429Y-809000D01*
X2195476Y-799476D01*
X2347857Y-980428D02*
X2357381Y-989952D01*
X2347857Y-999476D01*
X2338333Y-989952D01*
X2347857Y-980428D01*
X2347857Y-999476D01*
X2481190Y-799476D02*
X2500238Y-799476D01*
X2519286Y-809000D01*
X2528810Y-818524D01*
X2538333Y-837571D01*
X2547857Y-875667D01*
X2547857Y-923286D01*
X2538333Y-961381D01*
X2528810Y-980428D01*
X2519286Y-989952D01*
X2500238Y-999476D01*
X2481190Y-999476D01*
X2462143Y-989952D01*
X2452619Y-980428D01*
X2443095Y-961381D01*
X2433571Y-923286D01*
X2433571Y-875667D01*
X2443095Y-837571D01*
X2452619Y-818524D01*
X2462143Y-809000D01*
X2481190Y-799476D01*
X2614524Y-799476D02*
X2738333Y-799476D01*
X2671667Y-875667D01*
X2700238Y-875667D01*
X2719286Y-885190D01*
X2728810Y-894714D01*
X2738333Y-913762D01*
X2738333Y-961381D01*
X2728810Y-980428D01*
X2719286Y-989952D01*
X2700238Y-999476D01*
X2643095Y-999476D01*
X2624048Y-989952D01*
X2614524Y-980428D01*
X2928809Y-999476D02*
X2814524Y-999476D01*
X2871667Y-999476D02*
X2871667Y-799476D01*
X2852619Y-828048D01*
X2833571Y-847095D01*
X2814524Y-856619D01*
X3109762Y-799476D02*
X3014524Y-799476D01*
X3005000Y-894714D01*
X3014524Y-885190D01*
X3033571Y-875667D01*
X3081190Y-875667D01*
X3100238Y-885190D01*
X3109762Y-894714D01*
X3119286Y-913762D01*
X3119286Y-961381D01*
X3109762Y-980428D01*
X3100238Y-989952D01*
X3081190Y-999476D01*
X3033571Y-999476D01*
X3014524Y-989952D01*
X3005000Y-980428D01*
X3195476Y-799476D02*
X3195476Y-837571D01*
X3271667Y-799476D02*
X3271667Y-837571D01*
X3566905Y-1075667D02*
X3557381Y-1066143D01*
X3538333Y-1037571D01*
X3528809Y-1018524D01*
X3519286Y-989952D01*
X3509762Y-942333D01*
X3509762Y-904238D01*
X3519286Y-856619D01*
X3528809Y-828048D01*
X3538333Y-809000D01*
X3557381Y-780428D01*
X3566905Y-770905D01*
X3624048Y-799476D02*
X3757381Y-799476D01*
X3671667Y-999476D01*
X3919286Y-799476D02*
X3881190Y-799476D01*
X3862143Y-809000D01*
X3852619Y-818524D01*
X3833571Y-847095D01*
X3824048Y-885190D01*
X3824048Y-961381D01*
X3833571Y-980428D01*
X3843095Y-989952D01*
X3862143Y-999476D01*
X3900238Y-999476D01*
X3919286Y-989952D01*
X3928809Y-980428D01*
X3938333Y-961381D01*
X3938333Y-913762D01*
X3928809Y-894714D01*
X3919286Y-885190D01*
X3900238Y-875667D01*
X3862143Y-875667D01*
X3843095Y-885190D01*
X3833571Y-894714D01*
X3824048Y-913762D01*
X4014524Y-818524D02*
X4024048Y-809000D01*
X4043095Y-799476D01*
X4090714Y-799476D01*
X4109762Y-809000D01*
X4119286Y-818524D01*
X4128809Y-837571D01*
X4128809Y-856619D01*
X4119286Y-885190D01*
X4005000Y-999476D01*
X4128809Y-999476D01*
X4366905Y-999476D02*
X4366905Y-799476D01*
X4452619Y-999476D02*
X4452619Y-894714D01*
X4443095Y-875667D01*
X4424048Y-866143D01*
X4395476Y-866143D01*
X4376429Y-875667D01*
X4366905Y-885190D01*
X4576429Y-999476D02*
X4557381Y-989952D01*
X4547857Y-980428D01*
X4538333Y-961381D01*
X4538333Y-904238D01*
X4547857Y-885190D01*
X4557381Y-875667D01*
X4576429Y-866143D01*
X4605000Y-866143D01*
X4624048Y-875667D01*
X4633571Y-885190D01*
X4643095Y-904238D01*
X4643095Y-961381D01*
X4633571Y-980428D01*
X4624048Y-989952D01*
X4605000Y-999476D01*
X4576429Y-999476D01*
X4757381Y-999476D02*
X4738333Y-989952D01*
X4728810Y-970905D01*
X4728810Y-799476D01*
X4909762Y-989952D02*
X4890714Y-999476D01*
X4852619Y-999476D01*
X4833571Y-989952D01*
X4824048Y-970905D01*
X4824048Y-894714D01*
X4833571Y-875667D01*
X4852619Y-866143D01*
X4890714Y-866143D01*
X4909762Y-875667D01*
X4919286Y-894714D01*
X4919286Y-913762D01*
X4824048Y-932809D01*
X4995476Y-989952D02*
X5014524Y-999476D01*
X5052619Y-999476D01*
X5071667Y-989952D01*
X5081190Y-970905D01*
X5081190Y-961381D01*
X5071667Y-942333D01*
X5052619Y-932809D01*
X5024048Y-932809D01*
X5005000Y-923286D01*
X4995476Y-904238D01*
X4995476Y-894714D01*
X5005000Y-875667D01*
X5024048Y-866143D01*
X5052619Y-866143D01*
X5071667Y-875667D01*
X5147857Y-1075667D02*
X5157381Y-1066143D01*
X5176429Y-1037571D01*
X5185952Y-1018524D01*
X5195476Y-989952D01*
X5205000Y-942333D01*
X5205000Y-904238D01*
X5195476Y-856619D01*
X5185952Y-828048D01*
X5176429Y-809000D01*
X5157381Y-780428D01*
X5147857Y-770905D01*
D13*
X-52500Y-1125500D02*
X-52500Y-1220500D01*
X-100000Y-1173000D02*
X-5000Y-1173000D01*
D10*
X290714Y-1063476D02*
X309762Y-1063476D01*
X328810Y-1073000D01*
X338333Y-1082524D01*
X347857Y-1101571D01*
X357381Y-1139667D01*
X357381Y-1187286D01*
X347857Y-1225381D01*
X338333Y-1244429D01*
X328810Y-1253952D01*
X309762Y-1263476D01*
X290714Y-1263476D01*
X271667Y-1253952D01*
X262143Y-1244429D01*
X252619Y-1225381D01*
X243095Y-1187286D01*
X243095Y-1139667D01*
X252619Y-1101571D01*
X262143Y-1082524D01*
X271667Y-1073000D01*
X290714Y-1063476D01*
X443095Y-1244429D02*
X452619Y-1253952D01*
X443095Y-1263476D01*
X433571Y-1253952D01*
X443095Y-1244429D01*
X443095Y-1263476D01*
X547857Y-1263476D02*
X585952Y-1263476D01*
X605000Y-1253952D01*
X614524Y-1244429D01*
X633571Y-1215857D01*
X643095Y-1177762D01*
X643095Y-1101571D01*
X633571Y-1082524D01*
X624048Y-1073000D01*
X605000Y-1063476D01*
X566905Y-1063476D01*
X547857Y-1073000D01*
X538333Y-1082524D01*
X528810Y-1101571D01*
X528810Y-1149190D01*
X538333Y-1168238D01*
X547857Y-1177762D01*
X566905Y-1187286D01*
X605000Y-1187286D01*
X624048Y-1177762D01*
X633571Y-1168238D01*
X643095Y-1149190D01*
X824048Y-1063476D02*
X728809Y-1063476D01*
X719286Y-1158714D01*
X728809Y-1149190D01*
X747857Y-1139667D01*
X795476Y-1139667D01*
X814524Y-1149190D01*
X824048Y-1158714D01*
X833571Y-1177762D01*
X833571Y-1225381D01*
X824048Y-1244429D01*
X814524Y-1253952D01*
X795476Y-1263476D01*
X747857Y-1263476D01*
X728809Y-1253952D01*
X719286Y-1244429D01*
X957381Y-1063476D02*
X976428Y-1063476D01*
X995476Y-1073000D01*
X1005000Y-1082524D01*
X1014524Y-1101571D01*
X1024048Y-1139667D01*
X1024048Y-1187286D01*
X1014524Y-1225381D01*
X1005000Y-1244429D01*
X995476Y-1253952D01*
X976428Y-1263476D01*
X957381Y-1263476D01*
X938333Y-1253952D01*
X928809Y-1244429D01*
X919286Y-1225381D01*
X909762Y-1187286D01*
X909762Y-1139667D01*
X919286Y-1101571D01*
X928809Y-1082524D01*
X938333Y-1073000D01*
X957381Y-1063476D01*
X1109762Y-1263476D02*
X1109762Y-1130143D01*
X1109762Y-1149190D02*
X1119286Y-1139667D01*
X1138333Y-1130143D01*
X1166905Y-1130143D01*
X1185952Y-1139667D01*
X1195476Y-1158714D01*
X1195476Y-1263476D01*
X1195476Y-1158714D02*
X1205000Y-1139667D01*
X1224048Y-1130143D01*
X1252619Y-1130143D01*
X1271667Y-1139667D01*
X1281190Y-1158714D01*
X1281190Y-1263476D01*
X1376429Y-1263476D02*
X1376429Y-1130143D01*
X1376429Y-1149190D02*
X1385952Y-1139667D01*
X1405000Y-1130143D01*
X1433571Y-1130143D01*
X1452619Y-1139667D01*
X1462143Y-1158714D01*
X1462143Y-1263476D01*
X1462143Y-1158714D02*
X1471667Y-1139667D01*
X1490714Y-1130143D01*
X1519286Y-1130143D01*
X1538333Y-1139667D01*
X1547857Y-1158714D01*
X1547857Y-1263476D01*
X1938333Y-1053952D02*
X1766905Y-1311095D01*
X2195476Y-1063476D02*
X2214524Y-1063476D01*
X2233571Y-1073000D01*
X2243095Y-1082524D01*
X2252619Y-1101571D01*
X2262143Y-1139667D01*
X2262143Y-1187286D01*
X2252619Y-1225381D01*
X2243095Y-1244429D01*
X2233571Y-1253952D01*
X2214524Y-1263476D01*
X2195476Y-1263476D01*
X2176429Y-1253952D01*
X2166905Y-1244429D01*
X2157381Y-1225381D01*
X2147857Y-1187286D01*
X2147857Y-1139667D01*
X2157381Y-1101571D01*
X2166905Y-1082524D01*
X2176429Y-1073000D01*
X2195476Y-1063476D01*
X2347857Y-1244429D02*
X2357381Y-1253952D01*
X2347857Y-1263476D01*
X2338333Y-1253952D01*
X2347857Y-1244429D01*
X2347857Y-1263476D01*
X2481190Y-1063476D02*
X2500238Y-1063476D01*
X2519286Y-1073000D01*
X2528810Y-1082524D01*
X2538333Y-1101571D01*
X2547857Y-1139667D01*
X2547857Y-1187286D01*
X2538333Y-1225381D01*
X2528810Y-1244429D01*
X2519286Y-1253952D01*
X2500238Y-1263476D01*
X2481190Y-1263476D01*
X2462143Y-1253952D01*
X2452619Y-1244429D01*
X2443095Y-1225381D01*
X2433571Y-1187286D01*
X2433571Y-1139667D01*
X2443095Y-1101571D01*
X2452619Y-1082524D01*
X2462143Y-1073000D01*
X2481190Y-1063476D01*
X2614524Y-1063476D02*
X2738333Y-1063476D01*
X2671667Y-1139667D01*
X2700238Y-1139667D01*
X2719286Y-1149190D01*
X2728810Y-1158714D01*
X2738333Y-1177762D01*
X2738333Y-1225381D01*
X2728810Y-1244429D01*
X2719286Y-1253952D01*
X2700238Y-1263476D01*
X2643095Y-1263476D01*
X2624048Y-1253952D01*
X2614524Y-1244429D01*
X2805000Y-1063476D02*
X2938333Y-1063476D01*
X2852619Y-1263476D01*
X3100238Y-1130143D02*
X3100238Y-1263476D01*
X3052619Y-1053952D02*
X3005000Y-1196810D01*
X3128809Y-1196810D01*
X3195476Y-1063476D02*
X3195476Y-1101571D01*
X3271667Y-1063476D02*
X3271667Y-1101571D01*
X3566905Y-1339667D02*
X3557381Y-1330143D01*
X3538333Y-1301571D01*
X3528809Y-1282524D01*
X3519286Y-1253952D01*
X3509762Y-1206333D01*
X3509762Y-1168238D01*
X3519286Y-1120619D01*
X3528809Y-1092048D01*
X3538333Y-1073000D01*
X3557381Y-1044428D01*
X3566905Y-1034905D01*
X3728809Y-1130143D02*
X3728809Y-1263476D01*
X3681190Y-1053952D02*
X3633571Y-1196810D01*
X3757381Y-1196810D01*
X3928809Y-1063476D02*
X3833571Y-1063476D01*
X3824048Y-1158714D01*
X3833571Y-1149190D01*
X3852619Y-1139667D01*
X3900238Y-1139667D01*
X3919286Y-1149190D01*
X3928809Y-1158714D01*
X3938333Y-1177762D01*
X3938333Y-1225381D01*
X3928809Y-1244429D01*
X3919286Y-1253952D01*
X3900238Y-1263476D01*
X3852619Y-1263476D01*
X3833571Y-1253952D01*
X3824048Y-1244429D01*
X4176428Y-1263476D02*
X4176428Y-1063476D01*
X4262143Y-1263476D02*
X4262143Y-1158714D01*
X4252619Y-1139667D01*
X4233571Y-1130143D01*
X4205000Y-1130143D01*
X4185952Y-1139667D01*
X4176428Y-1149190D01*
X4385952Y-1263476D02*
X4366905Y-1253952D01*
X4357381Y-1244429D01*
X4347857Y-1225381D01*
X4347857Y-1168238D01*
X4357381Y-1149190D01*
X4366905Y-1139667D01*
X4385952Y-1130143D01*
X4414524Y-1130143D01*
X4433571Y-1139667D01*
X4443095Y-1149190D01*
X4452619Y-1168238D01*
X4452619Y-1225381D01*
X4443095Y-1244429D01*
X4433571Y-1253952D01*
X4414524Y-1263476D01*
X4385952Y-1263476D01*
X4566905Y-1263476D02*
X4547857Y-1253952D01*
X4538333Y-1234905D01*
X4538333Y-1063476D01*
X4719286Y-1253952D02*
X4700238Y-1263476D01*
X4662143Y-1263476D01*
X4643095Y-1253952D01*
X4633571Y-1234905D01*
X4633571Y-1158714D01*
X4643095Y-1139667D01*
X4662143Y-1130143D01*
X4700238Y-1130143D01*
X4719286Y-1139667D01*
X4728810Y-1158714D01*
X4728810Y-1177762D01*
X4633571Y-1196810D01*
X4805000Y-1253952D02*
X4824048Y-1263476D01*
X4862143Y-1263476D01*
X4881190Y-1253952D01*
X4890714Y-1234905D01*
X4890714Y-1225381D01*
X4881190Y-1206333D01*
X4862143Y-1196810D01*
X4833571Y-1196810D01*
X4814524Y-1187286D01*
X4805000Y-1168238D01*
X4805000Y-1158714D01*
X4814524Y-1139667D01*
X4833571Y-1130143D01*
X4862143Y-1130143D01*
X4881190Y-1139667D01*
X4957381Y-1339667D02*
X4966905Y-1330143D01*
X4985952Y-1301571D01*
X4995476Y-1282524D01*
X5005000Y-1253952D01*
X5014524Y-1206333D01*
X5014524Y-1168238D01*
X5005000Y-1120619D01*
X4995476Y-1092048D01*
X4985952Y-1073000D01*
X4966905Y-1044428D01*
X4957381Y-1034905D01*
D14*
X-19644Y-1472356D02*
X-19644Y-1401644D01*
X-90356Y-1401644D01*
X-90356Y-1472356D01*
X-19644Y-1472356D01*
D10*
X357381Y-1527476D02*
X243095Y-1527476D01*
X300238Y-1527476D02*
X300238Y-1327476D01*
X281190Y-1356048D01*
X262143Y-1375095D01*
X243095Y-1384619D01*
X443095Y-1508428D02*
X452619Y-1517952D01*
X443095Y-1527476D01*
X433571Y-1517952D01*
X443095Y-1508428D01*
X443095Y-1527476D01*
X576429Y-1327476D02*
X595476Y-1327476D01*
X614524Y-1337000D01*
X624048Y-1346524D01*
X633571Y-1365571D01*
X643095Y-1403667D01*
X643095Y-1451286D01*
X633571Y-1489381D01*
X624048Y-1508428D01*
X614524Y-1517952D01*
X595476Y-1527476D01*
X576429Y-1527476D01*
X557381Y-1517952D01*
X547857Y-1508428D01*
X538333Y-1489381D01*
X528810Y-1451286D01*
X528810Y-1403667D01*
X538333Y-1365571D01*
X547857Y-1346524D01*
X557381Y-1337000D01*
X576429Y-1327476D01*
X766905Y-1327476D02*
X785952Y-1327476D01*
X805000Y-1337000D01*
X814524Y-1346524D01*
X824048Y-1365571D01*
X833571Y-1403667D01*
X833571Y-1451286D01*
X824048Y-1489381D01*
X814524Y-1508428D01*
X805000Y-1517952D01*
X785952Y-1527476D01*
X766905Y-1527476D01*
X747857Y-1517952D01*
X738333Y-1508428D01*
X728809Y-1489381D01*
X719286Y-1451286D01*
X719286Y-1403667D01*
X728809Y-1365571D01*
X738333Y-1346524D01*
X747857Y-1337000D01*
X766905Y-1327476D01*
X957381Y-1327476D02*
X976428Y-1327476D01*
X995476Y-1337000D01*
X1005000Y-1346524D01*
X1014524Y-1365571D01*
X1024048Y-1403667D01*
X1024048Y-1451286D01*
X1014524Y-1489381D01*
X1005000Y-1508428D01*
X995476Y-1517952D01*
X976428Y-1527476D01*
X957381Y-1527476D01*
X938333Y-1517952D01*
X928809Y-1508428D01*
X919286Y-1489381D01*
X909762Y-1451286D01*
X909762Y-1403667D01*
X919286Y-1365571D01*
X928809Y-1346524D01*
X938333Y-1337000D01*
X957381Y-1327476D01*
X1109762Y-1527476D02*
X1109762Y-1394143D01*
X1109762Y-1413190D02*
X1119286Y-1403667D01*
X1138333Y-1394143D01*
X1166905Y-1394143D01*
X1185952Y-1403667D01*
X1195476Y-1422714D01*
X1195476Y-1527476D01*
X1195476Y-1422714D02*
X1205000Y-1403667D01*
X1224048Y-1394143D01*
X1252619Y-1394143D01*
X1271667Y-1403667D01*
X1281190Y-1422714D01*
X1281190Y-1527476D01*
X1376429Y-1527476D02*
X1376429Y-1394143D01*
X1376429Y-1413190D02*
X1385952Y-1403667D01*
X1405000Y-1394143D01*
X1433571Y-1394143D01*
X1452619Y-1403667D01*
X1462143Y-1422714D01*
X1462143Y-1527476D01*
X1462143Y-1422714D02*
X1471667Y-1403667D01*
X1490714Y-1394143D01*
X1519286Y-1394143D01*
X1538333Y-1403667D01*
X1547857Y-1422714D01*
X1547857Y-1527476D01*
X1938333Y-1317952D02*
X1766905Y-1575095D01*
X2195476Y-1327476D02*
X2214524Y-1327476D01*
X2233571Y-1337000D01*
X2243095Y-1346524D01*
X2252619Y-1365571D01*
X2262143Y-1403667D01*
X2262143Y-1451286D01*
X2252619Y-1489381D01*
X2243095Y-1508428D01*
X2233571Y-1517952D01*
X2214524Y-1527476D01*
X2195476Y-1527476D01*
X2176429Y-1517952D01*
X2166905Y-1508428D01*
X2157381Y-1489381D01*
X2147857Y-1451286D01*
X2147857Y-1403667D01*
X2157381Y-1365571D01*
X2166905Y-1346524D01*
X2176429Y-1337000D01*
X2195476Y-1327476D01*
X2347857Y-1508428D02*
X2357381Y-1517952D01*
X2347857Y-1527476D01*
X2338333Y-1517952D01*
X2347857Y-1508428D01*
X2347857Y-1527476D01*
X2481190Y-1327476D02*
X2500238Y-1327476D01*
X2519286Y-1337000D01*
X2528810Y-1346524D01*
X2538333Y-1365571D01*
X2547857Y-1403667D01*
X2547857Y-1451286D01*
X2538333Y-1489381D01*
X2528810Y-1508428D01*
X2519286Y-1517952D01*
X2500238Y-1527476D01*
X2481190Y-1527476D01*
X2462143Y-1517952D01*
X2452619Y-1508428D01*
X2443095Y-1489381D01*
X2433571Y-1451286D01*
X2433571Y-1403667D01*
X2443095Y-1365571D01*
X2452619Y-1346524D01*
X2462143Y-1337000D01*
X2481190Y-1327476D01*
X2614524Y-1327476D02*
X2738333Y-1327476D01*
X2671667Y-1403667D01*
X2700238Y-1403667D01*
X2719286Y-1413190D01*
X2728810Y-1422714D01*
X2738333Y-1441762D01*
X2738333Y-1489381D01*
X2728810Y-1508428D01*
X2719286Y-1517952D01*
X2700238Y-1527476D01*
X2643095Y-1527476D01*
X2624048Y-1517952D01*
X2614524Y-1508428D01*
X2833571Y-1527476D02*
X2871667Y-1527476D01*
X2890714Y-1517952D01*
X2900238Y-1508428D01*
X2919286Y-1479857D01*
X2928809Y-1441762D01*
X2928809Y-1365571D01*
X2919286Y-1346524D01*
X2909762Y-1337000D01*
X2890714Y-1327476D01*
X2852619Y-1327476D01*
X2833571Y-1337000D01*
X2824048Y-1346524D01*
X2814524Y-1365571D01*
X2814524Y-1413190D01*
X2824048Y-1432238D01*
X2833571Y-1441762D01*
X2852619Y-1451286D01*
X2890714Y-1451286D01*
X2909762Y-1441762D01*
X2919286Y-1432238D01*
X2928809Y-1413190D01*
X3100238Y-1394143D02*
X3100238Y-1527476D01*
X3052619Y-1317952D02*
X3005000Y-1460809D01*
X3128809Y-1460809D01*
X3195476Y-1327476D02*
X3195476Y-1365571D01*
X3271667Y-1327476D02*
X3271667Y-1365571D01*
X3566905Y-1603667D02*
X3557381Y-1594143D01*
X3538333Y-1565571D01*
X3528809Y-1546524D01*
X3519286Y-1517952D01*
X3509762Y-1470333D01*
X3509762Y-1432238D01*
X3519286Y-1384619D01*
X3528809Y-1356048D01*
X3538333Y-1337000D01*
X3557381Y-1308429D01*
X3566905Y-1298905D01*
X3747857Y-1527476D02*
X3633571Y-1527476D01*
X3690714Y-1527476D02*
X3690714Y-1327476D01*
X3671667Y-1356048D01*
X3652619Y-1375095D01*
X3633571Y-1384619D01*
X3814524Y-1327476D02*
X3938333Y-1327476D01*
X3871667Y-1403667D01*
X3900238Y-1403667D01*
X3919286Y-1413190D01*
X3928809Y-1422714D01*
X3938333Y-1441762D01*
X3938333Y-1489381D01*
X3928809Y-1508428D01*
X3919286Y-1517952D01*
X3900238Y-1527476D01*
X3843095Y-1527476D01*
X3824048Y-1517952D01*
X3814524Y-1508428D01*
X4052619Y-1413190D02*
X4033571Y-1403667D01*
X4024048Y-1394143D01*
X4014524Y-1375095D01*
X4014524Y-1365571D01*
X4024048Y-1346524D01*
X4033571Y-1337000D01*
X4052619Y-1327476D01*
X4090714Y-1327476D01*
X4109762Y-1337000D01*
X4119286Y-1346524D01*
X4128809Y-1365571D01*
X4128809Y-1375095D01*
X4119286Y-1394143D01*
X4109762Y-1403667D01*
X4090714Y-1413190D01*
X4052619Y-1413190D01*
X4033571Y-1422714D01*
X4024048Y-1432238D01*
X4014524Y-1451286D01*
X4014524Y-1489381D01*
X4024048Y-1508428D01*
X4033571Y-1517952D01*
X4052619Y-1527476D01*
X4090714Y-1527476D01*
X4109762Y-1517952D01*
X4119286Y-1508428D01*
X4128809Y-1489381D01*
X4128809Y-1451286D01*
X4119286Y-1432238D01*
X4109762Y-1422714D01*
X4090714Y-1413190D01*
X4366905Y-1527476D02*
X4366905Y-1327476D01*
X4452619Y-1527476D02*
X4452619Y-1422714D01*
X4443095Y-1403667D01*
X4424048Y-1394143D01*
X4395476Y-1394143D01*
X4376429Y-1403667D01*
X4366905Y-1413190D01*
X4576429Y-1527476D02*
X4557381Y-1517952D01*
X4547857Y-1508428D01*
X4538333Y-1489381D01*
X4538333Y-1432238D01*
X4547857Y-1413190D01*
X4557381Y-1403667D01*
X4576429Y-1394143D01*
X4605000Y-1394143D01*
X4624048Y-1403667D01*
X4633571Y-1413190D01*
X4643095Y-1432238D01*
X4643095Y-1489381D01*
X4633571Y-1508428D01*
X4624048Y-1517952D01*
X4605000Y-1527476D01*
X4576429Y-1527476D01*
X4757381Y-1527476D02*
X4738333Y-1517952D01*
X4728810Y-1498905D01*
X4728810Y-1327476D01*
X4909762Y-1517952D02*
X4890714Y-1527476D01*
X4852619Y-1527476D01*
X4833571Y-1517952D01*
X4824048Y-1498905D01*
X4824048Y-1422714D01*
X4833571Y-1403667D01*
X4852619Y-1394143D01*
X4890714Y-1394143D01*
X4909762Y-1403667D01*
X4919286Y-1422714D01*
X4919286Y-1441762D01*
X4824048Y-1460809D01*
X4995476Y-1517952D02*
X5014524Y-1527476D01*
X5052619Y-1527476D01*
X5071667Y-1517952D01*
X5081190Y-1498905D01*
X5081190Y-1489381D01*
X5071667Y-1470333D01*
X5052619Y-1460809D01*
X5024048Y-1460809D01*
X5005000Y-1451286D01*
X4995476Y-1432238D01*
X4995476Y-1422714D01*
X5005000Y-1403667D01*
X5024048Y-1394143D01*
X5052619Y-1394143D01*
X5071667Y-1403667D01*
X5147857Y-1603667D02*
X5157381Y-1594143D01*
X5176429Y-1565571D01*
X5185952Y-1546524D01*
X5195476Y-1517952D01*
X5205000Y-1470333D01*
X5205000Y-1432238D01*
X5195476Y-1384619D01*
X5185952Y-1356048D01*
X5176429Y-1337000D01*
X5157381Y-1308429D01*
X5147857Y-1298905D01*
D15*
X-60000Y-1756000D02*
X-5000Y-1701000D01*
X-60000Y-1646000D01*
X-115000Y-1701000D01*
X-60000Y-1756000D01*
D10*
X357381Y-1791476D02*
X243095Y-1791476D01*
X300238Y-1791476D02*
X300238Y-1591476D01*
X281190Y-1620048D01*
X262143Y-1639095D01*
X243095Y-1648619D01*
X443095Y-1772428D02*
X452619Y-1781952D01*
X443095Y-1791476D01*
X433571Y-1781952D01*
X443095Y-1772428D01*
X443095Y-1791476D01*
X643095Y-1791476D02*
X528810Y-1791476D01*
X585952Y-1791476D02*
X585952Y-1591476D01*
X566905Y-1620048D01*
X547857Y-1639095D01*
X528810Y-1648619D01*
X766905Y-1591476D02*
X785952Y-1591476D01*
X805000Y-1601000D01*
X814524Y-1610524D01*
X824048Y-1629571D01*
X833571Y-1667667D01*
X833571Y-1715286D01*
X824048Y-1753381D01*
X814524Y-1772428D01*
X805000Y-1781952D01*
X785952Y-1791476D01*
X766905Y-1791476D01*
X747857Y-1781952D01*
X738333Y-1772428D01*
X728809Y-1753381D01*
X719286Y-1715286D01*
X719286Y-1667667D01*
X728809Y-1629571D01*
X738333Y-1610524D01*
X747857Y-1601000D01*
X766905Y-1591476D01*
X957381Y-1591476D02*
X976428Y-1591476D01*
X995476Y-1601000D01*
X1005000Y-1610524D01*
X1014524Y-1629571D01*
X1024048Y-1667667D01*
X1024048Y-1715286D01*
X1014524Y-1753381D01*
X1005000Y-1772428D01*
X995476Y-1781952D01*
X976428Y-1791476D01*
X957381Y-1791476D01*
X938333Y-1781952D01*
X928809Y-1772428D01*
X919286Y-1753381D01*
X909762Y-1715286D01*
X909762Y-1667667D01*
X919286Y-1629571D01*
X928809Y-1610524D01*
X938333Y-1601000D01*
X957381Y-1591476D01*
X1109762Y-1791476D02*
X1109762Y-1658143D01*
X1109762Y-1677190D02*
X1119286Y-1667667D01*
X1138333Y-1658143D01*
X1166905Y-1658143D01*
X1185952Y-1667667D01*
X1195476Y-1686714D01*
X1195476Y-1791476D01*
X1195476Y-1686714D02*
X1205000Y-1667667D01*
X1224048Y-1658143D01*
X1252619Y-1658143D01*
X1271667Y-1667667D01*
X1281190Y-1686714D01*
X1281190Y-1791476D01*
X1376429Y-1791476D02*
X1376429Y-1658143D01*
X1376429Y-1677190D02*
X1385952Y-1667667D01*
X1405000Y-1658143D01*
X1433571Y-1658143D01*
X1452619Y-1667667D01*
X1462143Y-1686714D01*
X1462143Y-1791476D01*
X1462143Y-1686714D02*
X1471667Y-1667667D01*
X1490714Y-1658143D01*
X1519286Y-1658143D01*
X1538333Y-1667667D01*
X1547857Y-1686714D01*
X1547857Y-1791476D01*
X1938333Y-1581952D02*
X1766905Y-1839095D01*
X2195476Y-1591476D02*
X2214524Y-1591476D01*
X2233571Y-1601000D01*
X2243095Y-1610524D01*
X2252619Y-1629571D01*
X2262143Y-1667667D01*
X2262143Y-1715286D01*
X2252619Y-1753381D01*
X2243095Y-1772428D01*
X2233571Y-1781952D01*
X2214524Y-1791476D01*
X2195476Y-1791476D01*
X2176429Y-1781952D01*
X2166905Y-1772428D01*
X2157381Y-1753381D01*
X2147857Y-1715286D01*
X2147857Y-1667667D01*
X2157381Y-1629571D01*
X2166905Y-1610524D01*
X2176429Y-1601000D01*
X2195476Y-1591476D01*
X2347857Y-1772428D02*
X2357381Y-1781952D01*
X2347857Y-1791476D01*
X2338333Y-1781952D01*
X2347857Y-1772428D01*
X2347857Y-1791476D01*
X2481190Y-1591476D02*
X2500238Y-1591476D01*
X2519286Y-1601000D01*
X2528810Y-1610524D01*
X2538333Y-1629571D01*
X2547857Y-1667667D01*
X2547857Y-1715286D01*
X2538333Y-1753381D01*
X2528810Y-1772428D01*
X2519286Y-1781952D01*
X2500238Y-1791476D01*
X2481190Y-1791476D01*
X2462143Y-1781952D01*
X2452619Y-1772428D01*
X2443095Y-1753381D01*
X2433571Y-1715286D01*
X2433571Y-1667667D01*
X2443095Y-1629571D01*
X2452619Y-1610524D01*
X2462143Y-1601000D01*
X2481190Y-1591476D01*
X2719286Y-1658143D02*
X2719286Y-1791476D01*
X2671667Y-1581952D02*
X2624048Y-1724809D01*
X2747857Y-1724809D01*
X2805000Y-1591476D02*
X2928809Y-1591476D01*
X2862143Y-1667667D01*
X2890714Y-1667667D01*
X2909762Y-1677190D01*
X2919286Y-1686714D01*
X2928809Y-1705762D01*
X2928809Y-1753381D01*
X2919286Y-1772428D01*
X2909762Y-1781952D01*
X2890714Y-1791476D01*
X2833571Y-1791476D01*
X2814524Y-1781952D01*
X2805000Y-1772428D01*
X2995476Y-1591476D02*
X3119286Y-1591476D01*
X3052619Y-1667667D01*
X3081190Y-1667667D01*
X3100238Y-1677190D01*
X3109762Y-1686714D01*
X3119286Y-1705762D01*
X3119286Y-1753381D01*
X3109762Y-1772428D01*
X3100238Y-1781952D01*
X3081190Y-1791476D01*
X3024048Y-1791476D01*
X3005000Y-1781952D01*
X2995476Y-1772428D01*
X3195476Y-1591476D02*
X3195476Y-1629571D01*
X3271667Y-1591476D02*
X3271667Y-1629571D01*
X3566905Y-1867667D02*
X3557381Y-1858143D01*
X3538333Y-1829571D01*
X3528809Y-1810524D01*
X3519286Y-1781952D01*
X3509762Y-1734333D01*
X3509762Y-1696238D01*
X3519286Y-1648619D01*
X3528809Y-1620048D01*
X3538333Y-1601000D01*
X3557381Y-1572428D01*
X3566905Y-1562905D01*
X3671667Y-1677190D02*
X3652619Y-1667667D01*
X3643095Y-1658143D01*
X3633571Y-1639095D01*
X3633571Y-1629571D01*
X3643095Y-1610524D01*
X3652619Y-1601000D01*
X3671667Y-1591476D01*
X3709762Y-1591476D01*
X3728809Y-1601000D01*
X3738333Y-1610524D01*
X3747857Y-1629571D01*
X3747857Y-1639095D01*
X3738333Y-1658143D01*
X3728809Y-1667667D01*
X3709762Y-1677190D01*
X3671667Y-1677190D01*
X3652619Y-1686714D01*
X3643095Y-1696238D01*
X3633571Y-1715286D01*
X3633571Y-1753381D01*
X3643095Y-1772428D01*
X3652619Y-1781952D01*
X3671667Y-1791476D01*
X3709762Y-1791476D01*
X3728809Y-1781952D01*
X3738333Y-1772428D01*
X3747857Y-1753381D01*
X3747857Y-1715286D01*
X3738333Y-1696238D01*
X3728809Y-1686714D01*
X3709762Y-1677190D01*
X3985952Y-1791476D02*
X3985952Y-1591476D01*
X4071667Y-1791476D02*
X4071667Y-1686714D01*
X4062143Y-1667667D01*
X4043095Y-1658143D01*
X4014524Y-1658143D01*
X3995476Y-1667667D01*
X3985952Y-1677190D01*
X4195476Y-1791476D02*
X4176428Y-1781952D01*
X4166905Y-1772428D01*
X4157381Y-1753381D01*
X4157381Y-1696238D01*
X4166905Y-1677190D01*
X4176428Y-1667667D01*
X4195476Y-1658143D01*
X4224048Y-1658143D01*
X4243095Y-1667667D01*
X4252619Y-1677190D01*
X4262143Y-1696238D01*
X4262143Y-1753381D01*
X4252619Y-1772428D01*
X4243095Y-1781952D01*
X4224048Y-1791476D01*
X4195476Y-1791476D01*
X4376429Y-1791476D02*
X4357381Y-1781952D01*
X4347857Y-1762905D01*
X4347857Y-1591476D01*
X4528810Y-1781952D02*
X4509762Y-1791476D01*
X4471667Y-1791476D01*
X4452619Y-1781952D01*
X4443095Y-1762905D01*
X4443095Y-1686714D01*
X4452619Y-1667667D01*
X4471667Y-1658143D01*
X4509762Y-1658143D01*
X4528810Y-1667667D01*
X4538333Y-1686714D01*
X4538333Y-1705762D01*
X4443095Y-1724809D01*
X4614524Y-1781952D02*
X4633571Y-1791476D01*
X4671667Y-1791476D01*
X4690714Y-1781952D01*
X4700238Y-1762905D01*
X4700238Y-1753381D01*
X4690714Y-1734333D01*
X4671667Y-1724809D01*
X4643095Y-1724809D01*
X4624048Y-1715286D01*
X4614524Y-1696238D01*
X4614524Y-1686714D01*
X4624048Y-1667667D01*
X4643095Y-1658143D01*
X4671667Y-1658143D01*
X4690714Y-1667667D01*
X4766905Y-1867667D02*
X4776429Y-1858143D01*
X4795476Y-1829571D01*
X4805000Y-1810524D01*
X4814524Y-1781952D01*
X4824048Y-1734333D01*
X4824048Y-1696238D01*
X4814524Y-1648619D01*
X4805000Y-1620048D01*
X4795476Y-1601000D01*
X4776429Y-1572428D01*
X4766905Y-1562905D01*
D16*
X-175000Y-1880000D02*
X-5000Y-2050000D01*
X-5000Y-1880000D02*
X-175000Y-2050000D01*
X-5000Y-1965000D02*
G75*
G03*
X-5000Y-1965000I-85000J0D01*
G01*
D10*
X357381Y-2055476D02*
X243095Y-2055476D01*
X300238Y-2055476D02*
X300238Y-1855476D01*
X281190Y-1884048D01*
X262143Y-1903095D01*
X243095Y-1912619D01*
X443095Y-2036428D02*
X452619Y-2045952D01*
X443095Y-2055476D01*
X433571Y-2045952D01*
X443095Y-2036428D01*
X443095Y-2055476D01*
X519286Y-1855476D02*
X652619Y-1855476D01*
X566905Y-2055476D01*
X766905Y-1855476D02*
X785952Y-1855476D01*
X805000Y-1865000D01*
X814524Y-1874524D01*
X824048Y-1893571D01*
X833571Y-1931667D01*
X833571Y-1979286D01*
X824048Y-2017381D01*
X814524Y-2036428D01*
X805000Y-2045952D01*
X785952Y-2055476D01*
X766905Y-2055476D01*
X747857Y-2045952D01*
X738333Y-2036428D01*
X728809Y-2017381D01*
X719286Y-1979286D01*
X719286Y-1931667D01*
X728809Y-1893571D01*
X738333Y-1874524D01*
X747857Y-1865000D01*
X766905Y-1855476D01*
X957381Y-1855476D02*
X976428Y-1855476D01*
X995476Y-1865000D01*
X1005000Y-1874524D01*
X1014524Y-1893571D01*
X1024048Y-1931667D01*
X1024048Y-1979286D01*
X1014524Y-2017381D01*
X1005000Y-2036428D01*
X995476Y-2045952D01*
X976428Y-2055476D01*
X957381Y-2055476D01*
X938333Y-2045952D01*
X928809Y-2036428D01*
X919286Y-2017381D01*
X909762Y-1979286D01*
X909762Y-1931667D01*
X919286Y-1893571D01*
X928809Y-1874524D01*
X938333Y-1865000D01*
X957381Y-1855476D01*
X1109762Y-2055476D02*
X1109762Y-1922143D01*
X1109762Y-1941190D02*
X1119286Y-1931667D01*
X1138333Y-1922143D01*
X1166905Y-1922143D01*
X1185952Y-1931667D01*
X1195476Y-1950714D01*
X1195476Y-2055476D01*
X1195476Y-1950714D02*
X1205000Y-1931667D01*
X1224048Y-1922143D01*
X1252619Y-1922143D01*
X1271667Y-1931667D01*
X1281190Y-1950714D01*
X1281190Y-2055476D01*
X1376429Y-2055476D02*
X1376429Y-1922143D01*
X1376429Y-1941190D02*
X1385952Y-1931667D01*
X1405000Y-1922143D01*
X1433571Y-1922143D01*
X1452619Y-1931667D01*
X1462143Y-1950714D01*
X1462143Y-2055476D01*
X1462143Y-1950714D02*
X1471667Y-1931667D01*
X1490714Y-1922143D01*
X1519286Y-1922143D01*
X1538333Y-1931667D01*
X1547857Y-1950714D01*
X1547857Y-2055476D01*
X1938333Y-1845952D02*
X1766905Y-2103095D01*
X2195476Y-1855476D02*
X2214524Y-1855476D01*
X2233571Y-1865000D01*
X2243095Y-1874524D01*
X2252619Y-1893571D01*
X2262143Y-1931667D01*
X2262143Y-1979286D01*
X2252619Y-2017381D01*
X2243095Y-2036428D01*
X2233571Y-2045952D01*
X2214524Y-2055476D01*
X2195476Y-2055476D01*
X2176429Y-2045952D01*
X2166905Y-2036428D01*
X2157381Y-2017381D01*
X2147857Y-1979286D01*
X2147857Y-1931667D01*
X2157381Y-1893571D01*
X2166905Y-1874524D01*
X2176429Y-1865000D01*
X2195476Y-1855476D01*
X2347857Y-2036428D02*
X2357381Y-2045952D01*
X2347857Y-2055476D01*
X2338333Y-2045952D01*
X2347857Y-2036428D01*
X2347857Y-2055476D01*
X2481190Y-1855476D02*
X2500238Y-1855476D01*
X2519286Y-1865000D01*
X2528810Y-1874524D01*
X2538333Y-1893571D01*
X2547857Y-1931667D01*
X2547857Y-1979286D01*
X2538333Y-2017381D01*
X2528810Y-2036428D01*
X2519286Y-2045952D01*
X2500238Y-2055476D01*
X2481190Y-2055476D01*
X2462143Y-2045952D01*
X2452619Y-2036428D01*
X2443095Y-2017381D01*
X2433571Y-1979286D01*
X2433571Y-1931667D01*
X2443095Y-1893571D01*
X2452619Y-1874524D01*
X2462143Y-1865000D01*
X2481190Y-1855476D01*
X2719286Y-1855476D02*
X2681190Y-1855476D01*
X2662143Y-1865000D01*
X2652619Y-1874524D01*
X2633571Y-1903095D01*
X2624048Y-1941190D01*
X2624048Y-2017381D01*
X2633571Y-2036428D01*
X2643095Y-2045952D01*
X2662143Y-2055476D01*
X2700238Y-2055476D01*
X2719286Y-2045952D01*
X2728810Y-2036428D01*
X2738333Y-2017381D01*
X2738333Y-1969762D01*
X2728810Y-1950714D01*
X2719286Y-1941190D01*
X2700238Y-1931667D01*
X2662143Y-1931667D01*
X2643095Y-1941190D01*
X2633571Y-1950714D01*
X2624048Y-1969762D01*
X2909762Y-1855476D02*
X2871667Y-1855476D01*
X2852619Y-1865000D01*
X2843095Y-1874524D01*
X2824048Y-1903095D01*
X2814524Y-1941190D01*
X2814524Y-2017381D01*
X2824048Y-2036428D01*
X2833571Y-2045952D01*
X2852619Y-2055476D01*
X2890714Y-2055476D01*
X2909762Y-2045952D01*
X2919286Y-2036428D01*
X2928809Y-2017381D01*
X2928809Y-1969762D01*
X2919286Y-1950714D01*
X2909762Y-1941190D01*
X2890714Y-1931667D01*
X2852619Y-1931667D01*
X2833571Y-1941190D01*
X2824048Y-1950714D01*
X2814524Y-1969762D01*
X3024048Y-2055476D02*
X3062143Y-2055476D01*
X3081190Y-2045952D01*
X3090714Y-2036428D01*
X3109762Y-2007857D01*
X3119286Y-1969762D01*
X3119286Y-1893571D01*
X3109762Y-1874524D01*
X3100238Y-1865000D01*
X3081190Y-1855476D01*
X3043095Y-1855476D01*
X3024048Y-1865000D01*
X3014524Y-1874524D01*
X3005000Y-1893571D01*
X3005000Y-1941190D01*
X3014524Y-1960238D01*
X3024048Y-1969762D01*
X3043095Y-1979286D01*
X3081190Y-1979286D01*
X3100238Y-1969762D01*
X3109762Y-1960238D01*
X3119286Y-1941190D01*
X3195476Y-1855476D02*
X3195476Y-1893571D01*
X3271667Y-1855476D02*
X3271667Y-1893571D01*
X3566905Y-2131667D02*
X3557381Y-2122143D01*
X3538333Y-2093571D01*
X3528809Y-2074524D01*
X3519286Y-2045952D01*
X3509762Y-1998333D01*
X3509762Y-1960238D01*
X3519286Y-1912619D01*
X3528809Y-1884048D01*
X3538333Y-1865000D01*
X3557381Y-1836428D01*
X3566905Y-1826905D01*
X3728809Y-1922143D02*
X3728809Y-2055476D01*
X3681190Y-1845952D02*
X3633571Y-1988809D01*
X3757381Y-1988809D01*
X3985952Y-2055476D02*
X3985952Y-1855476D01*
X4071667Y-2055476D02*
X4071667Y-1950714D01*
X4062143Y-1931667D01*
X4043095Y-1922143D01*
X4014524Y-1922143D01*
X3995476Y-1931667D01*
X3985952Y-1941190D01*
X4195476Y-2055476D02*
X4176428Y-2045952D01*
X4166905Y-2036428D01*
X4157381Y-2017381D01*
X4157381Y-1960238D01*
X4166905Y-1941190D01*
X4176428Y-1931667D01*
X4195476Y-1922143D01*
X4224048Y-1922143D01*
X4243095Y-1931667D01*
X4252619Y-1941190D01*
X4262143Y-1960238D01*
X4262143Y-2017381D01*
X4252619Y-2036428D01*
X4243095Y-2045952D01*
X4224048Y-2055476D01*
X4195476Y-2055476D01*
X4376429Y-2055476D02*
X4357381Y-2045952D01*
X4347857Y-2026905D01*
X4347857Y-1855476D01*
X4528810Y-2045952D02*
X4509762Y-2055476D01*
X4471667Y-2055476D01*
X4452619Y-2045952D01*
X4443095Y-2026905D01*
X4443095Y-1950714D01*
X4452619Y-1931667D01*
X4471667Y-1922143D01*
X4509762Y-1922143D01*
X4528810Y-1931667D01*
X4538333Y-1950714D01*
X4538333Y-1969762D01*
X4443095Y-1988809D01*
X4614524Y-2045952D02*
X4633571Y-2055476D01*
X4671667Y-2055476D01*
X4690714Y-2045952D01*
X4700238Y-2026905D01*
X4700238Y-2017381D01*
X4690714Y-1998333D01*
X4671667Y-1988809D01*
X4643095Y-1988809D01*
X4624048Y-1979286D01*
X4614524Y-1960238D01*
X4614524Y-1950714D01*
X4624048Y-1931667D01*
X4643095Y-1922143D01*
X4671667Y-1922143D01*
X4690714Y-1931667D01*
X4766905Y-2131667D02*
X4776429Y-2122143D01*
X4795476Y-2093571D01*
X4805000Y-2074524D01*
X4814524Y-2045952D01*
X4824048Y-1998333D01*
X4824048Y-1960238D01*
X4814524Y-1912619D01*
X4805000Y-1884048D01*
X4795476Y-1865000D01*
X4776429Y-1836428D01*
X4766905Y-1826905D01*
M02*
