%TF.GenerationSoftware,KiCad,Pcbnew,(5.99.0-12218-g749d2d5987)*%
%TF.CreationDate,2021-09-14T22:45:12+03:00*%
%TF.ProjectId,stend_main,7374656e-645f-46d6-9169-6e2e6b696361,rev*%
%TF.SameCoordinates,PX258bd10PYee998b0*%
%TF.FileFunction,Copper,L1,Top*%
%TF.FilePolarity,Positive*%
%FSLAX46Y46*%
G04 Gerber Fmt 4.6, Leading zero omitted, Abs format (unit mm)*
G04 Created by KiCad (PCBNEW (5.99.0-12218-g749d2d5987)) date 2021-09-14 22:45:12*
%MOMM*%
%LPD*%
G01*
G04 APERTURE LIST*
G04 Aperture macros list*
%AMRoundRect*
0 Rectangle with rounded corners*
0 $1 Rounding radius*
0 $2 $3 $4 $5 $6 $7 $8 $9 X,Y pos of 4 corners*
0 Add a 4 corners polygon primitive as box body*
4,1,4,$2,$3,$4,$5,$6,$7,$8,$9,$2,$3,0*
0 Add four circle primitives for the rounded corners*
1,1,$1+$1,$2,$3*
1,1,$1+$1,$4,$5*
1,1,$1+$1,$6,$7*
1,1,$1+$1,$8,$9*
0 Add four rect primitives between the rounded corners*
20,1,$1+$1,$2,$3,$4,$5,0*
20,1,$1+$1,$4,$5,$6,$7,0*
20,1,$1+$1,$6,$7,$8,$9,0*
20,1,$1+$1,$8,$9,$2,$3,0*%
G04 Aperture macros list end*
%TA.AperFunction,SMDPad,CuDef*%
%ADD10RoundRect,0.243750X0.243750X0.456250X-0.243750X0.456250X-0.243750X-0.456250X0.243750X-0.456250X0*%
%TD*%
%TA.AperFunction,SMDPad,CuDef*%
%ADD11RoundRect,0.250000X-0.262500X-0.450000X0.262500X-0.450000X0.262500X0.450000X-0.262500X0.450000X0*%
%TD*%
%TA.AperFunction,SMDPad,CuDef*%
%ADD12RoundRect,0.250000X0.262500X0.450000X-0.262500X0.450000X-0.262500X-0.450000X0.262500X-0.450000X0*%
%TD*%
%TA.AperFunction,SMDPad,CuDef*%
%ADD13R,0.900000X1.200000*%
%TD*%
%TA.AperFunction,SMDPad,CuDef*%
%ADD14R,0.800000X0.900000*%
%TD*%
%TA.AperFunction,ComponentPad*%
%ADD15R,1.700000X1.700000*%
%TD*%
%TA.AperFunction,ComponentPad*%
%ADD16R,2.400000X1.600000*%
%TD*%
%TA.AperFunction,ComponentPad*%
%ADD17O,2.400000X1.600000*%
%TD*%
%TA.AperFunction,SMDPad,CuDef*%
%ADD18R,1.300000X1.550000*%
%TD*%
%TA.AperFunction,SMDPad,CuDef*%
%ADD19R,1.800000X0.800000*%
%TD*%
%TA.AperFunction,ComponentPad*%
%ADD20R,1.600000X2.400000*%
%TD*%
%TA.AperFunction,ComponentPad*%
%ADD21O,1.600000X2.400000*%
%TD*%
%TA.AperFunction,ComponentPad*%
%ADD22RoundRect,0.250000X-0.600000X-0.725000X0.600000X-0.725000X0.600000X0.725000X-0.600000X0.725000X0*%
%TD*%
%TA.AperFunction,ComponentPad*%
%ADD23O,1.700000X1.950000*%
%TD*%
%TA.AperFunction,ComponentPad*%
%ADD24RoundRect,0.250000X-0.725000X0.600000X-0.725000X-0.600000X0.725000X-0.600000X0.725000X0.600000X0*%
%TD*%
%TA.AperFunction,ComponentPad*%
%ADD25O,1.950000X1.700000*%
%TD*%
%TA.AperFunction,ComponentPad*%
%ADD26C,2.000000*%
%TD*%
%TA.AperFunction,SMDPad,CuDef*%
%ADD27RoundRect,0.250000X-0.450000X0.262500X-0.450000X-0.262500X0.450000X-0.262500X0.450000X0.262500X0*%
%TD*%
%TA.AperFunction,ComponentPad*%
%ADD28O,1.700000X1.700000*%
%TD*%
%TA.AperFunction,SMDPad,CuDef*%
%ADD29RoundRect,0.243750X-0.243750X-0.456250X0.243750X-0.456250X0.243750X0.456250X-0.243750X0.456250X0*%
%TD*%
%TA.AperFunction,SMDPad,CuDef*%
%ADD30RoundRect,0.250000X0.450000X-0.262500X0.450000X0.262500X-0.450000X0.262500X-0.450000X-0.262500X0*%
%TD*%
%TA.AperFunction,ComponentPad*%
%ADD31C,1.700000*%
%TD*%
%TA.AperFunction,ViaPad*%
%ADD32C,0.800000*%
%TD*%
%TA.AperFunction,Conductor*%
%ADD33C,0.250000*%
%TD*%
G04 APERTURE END LIST*
D10*
%TO.P,VD1,1,K*%
%TO.N,/MCU_GND*%
X123365500Y60960000D03*
%TO.P,VD1,2,A*%
%TO.N,Net-(R1-Pad2)*%
X121490500Y60960000D03*
%TD*%
D11*
%TO.P,R35,1*%
%TO.N,Net-(R35-Pad1)*%
X121261500Y129783992D03*
%TO.P,R35,2*%
%TO.N,Net-(CP40-Pad1)*%
X123086500Y129783992D03*
%TD*%
D12*
%TO.P,R66,1*%
%TO.N,/RL21*%
X248943500Y149860000D03*
%TO.P,R66,2*%
%TO.N,Net-(CP83-Pad1)*%
X247118500Y149860000D03*
%TD*%
D13*
%TO.P,VD49,1,K*%
%TO.N,+5V*%
X260859000Y172212000D03*
%TO.P,VD49,2,A*%
%TO.N,Net-(CP92-Pad1)*%
X264159000Y172212000D03*
%TD*%
D14*
%TO.P,VT9,1,B*%
%TO.N,Net-(CP35-Pad1)*%
X120208000Y155210000D03*
%TO.P,VT9,2,E*%
%TO.N,GNDD*%
X122108000Y155210000D03*
%TO.P,VT9,3,C*%
%TO.N,Net-(CP36-Pad1)*%
X121158000Y157210000D03*
%TD*%
D15*
%TO.P,CP10,1,1*%
%TO.N,/CTRL3*%
X43007000Y154686000D03*
%TD*%
D16*
%TO.P,BB4,1*%
%TO.N,unconnected-(BB4-Pad1)*%
X203298000Y64928000D03*
X193138000Y64928000D03*
X198218000Y64928000D03*
X200758000Y64928000D03*
X208378000Y64928000D03*
X195678000Y64928000D03*
D17*
%TO.P,BB4,2*%
%TO.N,unconnected-(BB4-Pad2)*%
X208378000Y62388000D03*
X203298000Y62388000D03*
X198218000Y62388000D03*
X200758000Y62388000D03*
X193138000Y62388000D03*
X195678000Y62388000D03*
%TO.P,BB4,3*%
%TO.N,unconnected-(BB4-Pad3)*%
X200758000Y59848000D03*
X198218000Y59848000D03*
X203298000Y59848000D03*
X208378000Y59848000D03*
X195678000Y59848000D03*
X193138000Y59848000D03*
%TO.P,BB4,4*%
%TO.N,unconnected-(BB4-Pad4)*%
X198218000Y57308000D03*
X195678000Y57308000D03*
X193138000Y57308000D03*
X208378000Y57308000D03*
X200758000Y57308000D03*
X203298000Y57308000D03*
%TO.P,BB4,5*%
%TO.N,unconnected-(BB4-Pad5)*%
X200758000Y54768000D03*
X198218000Y54768000D03*
X203298000Y54768000D03*
X193138000Y54768000D03*
X208378000Y54768000D03*
X195678000Y54768000D03*
%TO.P,BB4,6*%
%TO.N,unconnected-(BB4-Pad6)*%
X200758000Y52228000D03*
X195678000Y52228000D03*
X203298000Y52228000D03*
X208378000Y52228000D03*
X193138000Y52228000D03*
X198218000Y52228000D03*
%TO.P,BB4,7*%
%TO.N,unconnected-(BB4-Pad7)*%
X193138000Y49688000D03*
X195678000Y49688000D03*
X208378000Y49688000D03*
X203298000Y49688000D03*
X200758000Y49688000D03*
X198218000Y49688000D03*
%TO.P,BB4,8*%
%TO.N,unconnected-(BB4-Pad8)*%
X195678000Y47148000D03*
X200758000Y47148000D03*
X198218000Y47148000D03*
X193138000Y47148000D03*
X203298000Y47148000D03*
X208378000Y47148000D03*
%TO.P,BB4,9*%
%TO.N,unconnected-(BB4-Pad9)*%
X223618000Y47148000D03*
X228698000Y47148000D03*
X226158000Y47148000D03*
X231238000Y47148000D03*
X221078000Y47148000D03*
X215998000Y47148000D03*
%TO.P,BB4,10*%
%TO.N,unconnected-(BB4-Pad10)*%
X228698000Y49688000D03*
X226158000Y49688000D03*
X221078000Y49688000D03*
X231238000Y49688000D03*
X223618000Y49688000D03*
X215998000Y49688000D03*
%TO.P,BB4,11*%
%TO.N,unconnected-(BB4-Pad11)*%
X226158000Y52228000D03*
X221078000Y52228000D03*
X223618000Y52228000D03*
X228698000Y52228000D03*
X215998000Y52228000D03*
X231238000Y52228000D03*
%TO.P,BB4,12*%
%TO.N,unconnected-(BB4-Pad12)*%
X226158000Y54768000D03*
X215998000Y54768000D03*
X221078000Y54768000D03*
X223618000Y54768000D03*
X231238000Y54768000D03*
X228698000Y54768000D03*
%TO.P,BB4,13*%
%TO.N,unconnected-(BB4-Pad13)*%
X223618000Y57308000D03*
X215998000Y57308000D03*
X228698000Y57308000D03*
X231238000Y57308000D03*
X226158000Y57308000D03*
X221078000Y57308000D03*
%TO.P,BB4,14*%
%TO.N,unconnected-(BB4-Pad14)*%
X215998000Y59848000D03*
X228698000Y59848000D03*
X223618000Y59848000D03*
X221078000Y59848000D03*
X231238000Y59848000D03*
X226158000Y59848000D03*
X221078000Y59848000D03*
%TO.P,BB4,15*%
%TO.N,unconnected-(BB4-Pad15)*%
X221078000Y62388000D03*
X223618000Y62388000D03*
X231238000Y62388000D03*
X223618000Y62388000D03*
X215998000Y62388000D03*
X228698000Y62388000D03*
X226158000Y62388000D03*
X228698000Y62388000D03*
X221078000Y62388000D03*
X231238000Y62388000D03*
X226158000Y62388000D03*
%TO.P,BB4,16*%
%TO.N,unconnected-(BB4-Pad16)*%
X221078000Y64928000D03*
X228698000Y64928000D03*
X223618000Y64928000D03*
X231238000Y64928000D03*
X215998000Y64928000D03*
X226158000Y64928000D03*
%TD*%
D14*
%TO.P,VT17,1,B*%
%TO.N,Net-(CP67-Pad1)*%
X211648000Y155210000D03*
%TO.P,VT17,2,E*%
%TO.N,GNDD*%
X213548000Y155210000D03*
%TO.P,VT17,3,C*%
%TO.N,Net-(CP68-Pad1)*%
X212598000Y157210000D03*
%TD*%
D15*
%TO.P,CP30,1,1*%
%TO.N,/CTRL8*%
X78486000Y108956000D03*
%TD*%
%TO.P,CP43,1,1*%
%TO.N,Net-(CP43-Pad1)*%
X134316000Y157226000D03*
%TD*%
D11*
%TO.P,R62,1*%
%TO.N,Net-(R62-Pad1)*%
X230481500Y175514000D03*
%TO.P,R62,2*%
%TO.N,Net-(CP76-Pad1)*%
X232306500Y175514000D03*
%TD*%
D13*
%TO.P,VD23,1,K*%
%TO.N,+5V*%
X116206000Y126482000D03*
%TO.P,VD23,2,A*%
%TO.N,Net-(CP40-Pad1)*%
X119506000Y126482000D03*
%TD*%
D15*
%TO.P,CP50,1,1*%
%TO.N,/CTRL13*%
X152095000Y154686000D03*
%TD*%
%TO.P,CP8,1,1*%
%TO.N,Net-(CP8-Pad1)*%
X31750000Y126482000D03*
%TD*%
D12*
%TO.P,R80,1*%
%TO.N,Net-(R80-Pad1)*%
X9548500Y92202000D03*
%TO.P,R80,2*%
%TO.N,Net-(CP100-Pad1)*%
X7723500Y92202000D03*
%TD*%
D13*
%TO.P,VD19,1,K*%
%TO.N,+5V*%
X78106000Y126482000D03*
%TO.P,VD19,2,A*%
%TO.N,Net-(CP32-Pad1)*%
X81406000Y126482000D03*
%TD*%
D15*
%TO.P,CP20,1,1*%
%TO.N,Net-(CP20-Pad1)*%
X67276000Y172212000D03*
%TD*%
D18*
%TO.P,S2,1,1*%
%TO.N,Net-(DD1-Pad20)*%
X108422000Y12535000D03*
X108422000Y20485000D03*
%TO.P,S2,2,2*%
%TO.N,/MCU_GND*%
X103922000Y20485000D03*
X103922000Y12535000D03*
%TD*%
D15*
%TO.P,CP94,1,1*%
%TO.N,/CTRL24*%
X261366000Y108956000D03*
%TD*%
D19*
%TO.P,K22,1*%
%TO.N,+5V*%
X242981800Y122380000D03*
%TO.P,K22,2*%
%TO.N,N/C*%
X242981800Y119180000D03*
%TO.P,K22,3*%
%TO.N,/INSTR+*%
X242981800Y116980000D03*
%TO.P,K22,4*%
%TO.N,/CTRL22*%
X242981800Y114780000D03*
%TO.P,K22,5*%
%TO.N,N/C*%
X249981800Y114780000D03*
%TO.P,K22,6*%
X249981800Y116980000D03*
%TO.P,K22,7*%
X249981800Y119180000D03*
%TO.P,K22,8*%
%TO.N,Net-(CP88-Pad1)*%
X249981800Y122380000D03*
%TD*%
D12*
%TO.P,R36,1*%
%TO.N,/RL11*%
X139800500Y149860000D03*
%TO.P,R36,2*%
%TO.N,Net-(CP43-Pad1)*%
X137975500Y149860000D03*
%TD*%
D11*
%TO.P,R1,1*%
%TO.N,/2_MCU/MOSI*%
X116689500Y60960000D03*
%TO.P,R1,2*%
%TO.N,Net-(R1-Pad2)*%
X118514500Y60960000D03*
%TD*%
D10*
%TO.P,VD46,1,K*%
%TO.N,Net-(R71-Pad1)*%
X244985300Y129784000D03*
%TO.P,VD46,2,A*%
%TO.N,+5V*%
X243110300Y129784000D03*
%TD*%
D11*
%TO.P,R55,1*%
%TO.N,Net-(CP67-Pad1)*%
X211685500Y152410000D03*
%TO.P,R55,2*%
%TO.N,GNDD*%
X213510500Y152410000D03*
%TD*%
%TO.P,R77,1*%
%TO.N,Net-(R77-Pad1)*%
X266041500Y129784000D03*
%TO.P,R77,2*%
%TO.N,Net-(CP96-Pad1)*%
X267866500Y129784000D03*
%TD*%
D15*
%TO.P,CP1,1,1*%
%TO.N,/INSTR+*%
X25146000Y152146000D03*
%TD*%
%TO.P,CP28,1,1*%
%TO.N,Net-(CP28-Pad1)*%
X85090000Y172212000D03*
%TD*%
D11*
%TO.P,R78,1*%
%TO.N,+5V*%
X7977500Y119126000D03*
%TO.P,R78,2*%
%TO.N,Net-(CP99-Pad1)*%
X9802500Y119126000D03*
%TD*%
D12*
%TO.P,R60,1*%
%TO.N,/RL19*%
X231290500Y149860000D03*
%TO.P,R60,2*%
%TO.N,Net-(CP75-Pad1)*%
X229465500Y149860000D03*
%TD*%
D13*
%TO.P,VD15,1,K*%
%TO.N,+5V*%
X60292000Y126482000D03*
%TO.P,VD15,2,A*%
%TO.N,Net-(CP24-Pad1)*%
X63592000Y126482000D03*
%TD*%
D19*
%TO.P,K8,1*%
%TO.N,+5V*%
X77928000Y122380000D03*
%TO.P,K8,2*%
%TO.N,N/C*%
X77928000Y119180000D03*
%TO.P,K8,3*%
%TO.N,/INSTR+*%
X77928000Y116980000D03*
%TO.P,K8,4*%
%TO.N,/CTRL8*%
X77928000Y114780000D03*
%TO.P,K8,5*%
%TO.N,N/C*%
X84928000Y114780000D03*
%TO.P,K8,6*%
X84928000Y116980000D03*
%TO.P,K8,7*%
X84928000Y119180000D03*
%TO.P,K8,8*%
%TO.N,Net-(CP32-Pad1)*%
X84928000Y122380000D03*
%TD*%
D15*
%TO.P,CP34,1,1*%
%TO.N,/CTRL9*%
X116586000Y154686000D03*
%TD*%
%TO.P,CP49,1,1*%
%TO.N,/INSTR+*%
X152095000Y152146000D03*
%TD*%
D13*
%TO.P,VD45,1,K*%
%TO.N,+5V*%
X243079000Y172212000D03*
%TO.P,VD45,2,A*%
%TO.N,Net-(CP84-Pad1)*%
X246379000Y172212000D03*
%TD*%
D15*
%TO.P,CP95,1,1*%
%TO.N,Net-(CP95-Pad1)*%
X261366000Y111496000D03*
%TD*%
D13*
%TO.P,VD35,1,K*%
%TO.N,+5V*%
X172035200Y126492000D03*
%TO.P,VD35,2,A*%
%TO.N,Net-(CP64-Pad1)*%
X175335200Y126492000D03*
%TD*%
D12*
%TO.P,R15,1*%
%TO.N,/RL4*%
X48491500Y104130000D03*
%TO.P,R15,2*%
%TO.N,Net-(CP15-Pad1)*%
X46666500Y104130000D03*
%TD*%
D14*
%TO.P,VT6,1,B*%
%TO.N,Net-(CP23-Pad1)*%
X64294000Y109480000D03*
%TO.P,VT6,2,E*%
%TO.N,GNDD*%
X66194000Y109480000D03*
%TO.P,VT6,3,C*%
%TO.N,Net-(CP24-Pad1)*%
X65244000Y111480000D03*
%TD*%
D15*
%TO.P,CP69,1,1*%
%TO.N,/INSTR+*%
X208002000Y106416000D03*
%TD*%
D11*
%TO.P,R37,1*%
%TO.N,Net-(CP43-Pad1)*%
X137975500Y152410000D03*
%TO.P,R37,2*%
%TO.N,GNDD*%
X139800500Y152410000D03*
%TD*%
D15*
%TO.P,CP41,1,1*%
%TO.N,/INSTR+*%
X134316000Y152146000D03*
%TD*%
%TO.P,CP16,1,1*%
%TO.N,Net-(CP16-Pad1)*%
X49611000Y126482000D03*
%TD*%
D14*
%TO.P,VT15,1,B*%
%TO.N,Net-(CP59-Pad1)*%
X176037200Y155200000D03*
%TO.P,VT15,2,E*%
%TO.N,GNDD*%
X177937200Y155200000D03*
%TO.P,VT15,3,C*%
%TO.N,Net-(CP60-Pad1)*%
X176987200Y157200000D03*
%TD*%
D11*
%TO.P,R38,1*%
%TO.N,Net-(R38-Pad1)*%
X138991500Y175514000D03*
%TO.P,R38,2*%
%TO.N,Net-(CP44-Pad1)*%
X140816500Y175514000D03*
%TD*%
D10*
%TO.P,VD26,1,K*%
%TO.N,Net-(R41-Pad1)*%
X135761500Y129784000D03*
%TO.P,VD26,2,A*%
%TO.N,+5V*%
X133886500Y129784000D03*
%TD*%
D11*
%TO.P,R8,1*%
%TO.N,Net-(R8-Pad1)*%
X29821500Y175514000D03*
%TO.P,R8,2*%
%TO.N,Net-(CP4-Pad1)*%
X31646500Y175514000D03*
%TD*%
D10*
%TO.P,VD10,1,K*%
%TO.N,Net-(R17-Pad1)*%
X44452500Y129784000D03*
%TO.P,VD10,2,A*%
%TO.N,+5V*%
X42577500Y129784000D03*
%TD*%
%TO.P,VD32,1,K*%
%TO.N,Net-(R50-Pad1)*%
X173860700Y175504000D03*
%TO.P,VD32,2,A*%
%TO.N,+5V*%
X171985700Y175504000D03*
%TD*%
D15*
%TO.P,CP88,1,1*%
%TO.N,Net-(CP88-Pad1)*%
X250143800Y126482000D03*
%TD*%
D19*
%TO.P,K18,1*%
%TO.N,+5V*%
X207444000Y122380000D03*
%TO.P,K18,2*%
%TO.N,N/C*%
X207444000Y119180000D03*
%TO.P,K18,3*%
%TO.N,/INSTR+*%
X207444000Y116980000D03*
%TO.P,K18,4*%
%TO.N,/CTRL18*%
X207444000Y114780000D03*
%TO.P,K18,5*%
%TO.N,N/C*%
X214444000Y114780000D03*
%TO.P,K18,6*%
X214444000Y116980000D03*
%TO.P,K18,7*%
X214444000Y119180000D03*
%TO.P,K18,8*%
%TO.N,Net-(CP72-Pad1)*%
X214444000Y122380000D03*
%TD*%
D15*
%TO.P,CP6,1,1*%
%TO.N,/CTRL2*%
X25146000Y108956000D03*
%TD*%
%TO.P,CP59,1,1*%
%TO.N,Net-(CP59-Pad1)*%
X172415200Y157216000D03*
%TD*%
D19*
%TO.P,K11,1*%
%TO.N,+5V*%
X133758000Y168110000D03*
%TO.P,K11,2*%
%TO.N,N/C*%
X133758000Y164910000D03*
%TO.P,K11,3*%
%TO.N,/INSTR+*%
X133758000Y162710000D03*
%TO.P,K11,4*%
%TO.N,/CTRL11*%
X133758000Y160510000D03*
%TO.P,K11,5*%
%TO.N,N/C*%
X140758000Y160510000D03*
%TO.P,K11,6*%
X140758000Y162710000D03*
%TO.P,K11,7*%
X140758000Y164910000D03*
%TO.P,K11,8*%
%TO.N,Net-(CP44-Pad1)*%
X140758000Y168110000D03*
%TD*%
%TO.P,K12,1*%
%TO.N,+5V*%
X133758000Y122380000D03*
%TO.P,K12,2*%
%TO.N,N/C*%
X133758000Y119180000D03*
%TO.P,K12,3*%
%TO.N,/INSTR+*%
X133758000Y116980000D03*
%TO.P,K12,4*%
%TO.N,/CTRL12*%
X133758000Y114780000D03*
%TO.P,K12,5*%
%TO.N,N/C*%
X140758000Y114780000D03*
%TO.P,K12,6*%
X140758000Y116980000D03*
%TO.P,K12,7*%
X140758000Y119180000D03*
%TO.P,K12,8*%
%TO.N,Net-(CP48-Pad1)*%
X140758000Y122380000D03*
%TD*%
D15*
%TO.P,CP60,1,1*%
%TO.N,Net-(CP60-Pad1)*%
X179019200Y172202000D03*
%TD*%
D19*
%TO.P,K7,1*%
%TO.N,+5V*%
X77928000Y168110000D03*
%TO.P,K7,2*%
%TO.N,N/C*%
X77928000Y164910000D03*
%TO.P,K7,3*%
%TO.N,/INSTR+*%
X77928000Y162710000D03*
%TO.P,K7,4*%
%TO.N,/CTRL7*%
X77928000Y160510000D03*
%TO.P,K7,5*%
%TO.N,N/C*%
X84928000Y160510000D03*
%TO.P,K7,6*%
X84928000Y162710000D03*
%TO.P,K7,7*%
X84928000Y164910000D03*
%TO.P,K7,8*%
%TO.N,Net-(CP28-Pad1)*%
X84928000Y168110000D03*
%TD*%
D14*
%TO.P,VT13,1,B*%
%TO.N,Net-(CP51-Pad1)*%
X155717000Y155210000D03*
%TO.P,VT13,2,E*%
%TO.N,GNDD*%
X157617000Y155210000D03*
%TO.P,VT13,3,C*%
%TO.N,Net-(CP52-Pad1)*%
X156667000Y157210000D03*
%TD*%
D15*
%TO.P,CP31,1,1*%
%TO.N,Net-(CP31-Pad1)*%
X78486000Y111496000D03*
%TD*%
D11*
%TO.P,R17,1*%
%TO.N,Net-(R17-Pad1)*%
X47682500Y129784000D03*
%TO.P,R17,2*%
%TO.N,Net-(CP16-Pad1)*%
X49507500Y129784000D03*
%TD*%
D15*
%TO.P,CP2,1,1*%
%TO.N,/CTRL1*%
X25146000Y154686000D03*
%TD*%
D20*
%TO.P,BB6,1*%
%TO.N,unconnected-(BB6-Pad1)*%
X284226000Y72644000D03*
X284226000Y57404000D03*
X284226000Y59944000D03*
X284226000Y67564000D03*
X284226000Y62484000D03*
X284226000Y65024000D03*
D21*
%TO.P,BB6,2*%
%TO.N,unconnected-(BB6-Pad2)*%
X286766000Y59944000D03*
X286766000Y65024000D03*
X286766000Y62484000D03*
X286766000Y67564000D03*
X286766000Y57404000D03*
X286766000Y72644000D03*
%TO.P,BB6,3*%
%TO.N,unconnected-(BB6-Pad3)*%
X289306000Y72644000D03*
X289306000Y57404000D03*
X289306000Y65024000D03*
X289306000Y62484000D03*
X289306000Y59944000D03*
X289306000Y67564000D03*
%TO.P,BB6,4*%
%TO.N,unconnected-(BB6-Pad4)*%
X291846000Y67564000D03*
X291846000Y59944000D03*
X291846000Y65024000D03*
X291846000Y72644000D03*
X291846000Y62484000D03*
X291846000Y57404000D03*
%TO.P,BB6,5*%
%TO.N,unconnected-(BB6-Pad5)*%
X294386000Y72644000D03*
X294386000Y67564000D03*
X294386000Y57404000D03*
X294386000Y65024000D03*
X294386000Y62484000D03*
X294386000Y59944000D03*
%TO.P,BB6,6*%
%TO.N,unconnected-(BB6-Pad6)*%
X296926000Y72644000D03*
X296926000Y62484000D03*
X296926000Y57404000D03*
X296926000Y65024000D03*
X296926000Y67564000D03*
X296926000Y59944000D03*
%TO.P,BB6,7*%
%TO.N,unconnected-(BB6-Pad7)*%
X299466000Y72644000D03*
X299466000Y67564000D03*
X299466000Y62484000D03*
X299466000Y65024000D03*
X299466000Y59944000D03*
X299466000Y57404000D03*
%TO.P,BB6,8*%
%TO.N,unconnected-(BB6-Pad8)*%
X302006000Y67564000D03*
X302006000Y57404000D03*
X302006000Y72644000D03*
X302006000Y62484000D03*
X302006000Y65024000D03*
X302006000Y59944000D03*
%TO.P,BB6,9*%
%TO.N,unconnected-(BB6-Pad9)*%
X302006000Y90424000D03*
X302006000Y95504000D03*
X302006000Y87884000D03*
X302006000Y80264000D03*
X302006000Y92964000D03*
X302006000Y85344000D03*
%TO.P,BB6,10*%
%TO.N,unconnected-(BB6-Pad10)*%
X299466000Y92964000D03*
X299466000Y80264000D03*
X299466000Y85344000D03*
X299466000Y90424000D03*
X299466000Y87884000D03*
X299466000Y95504000D03*
%TO.P,BB6,11*%
%TO.N,unconnected-(BB6-Pad11)*%
X296926000Y95504000D03*
X296926000Y90424000D03*
X296926000Y80264000D03*
X296926000Y85344000D03*
X296926000Y87884000D03*
X296926000Y92964000D03*
%TO.P,BB6,12*%
%TO.N,unconnected-(BB6-Pad12)*%
X294386000Y85344000D03*
X294386000Y90424000D03*
X294386000Y92964000D03*
X294386000Y80264000D03*
X294386000Y95504000D03*
X294386000Y87884000D03*
%TO.P,BB6,13*%
%TO.N,unconnected-(BB6-Pad13)*%
X291846000Y95504000D03*
X291846000Y80264000D03*
X291846000Y85344000D03*
X291846000Y90424000D03*
X291846000Y87884000D03*
X291846000Y92964000D03*
%TO.P,BB6,14*%
%TO.N,unconnected-(BB6-Pad14)*%
X289306000Y95504000D03*
X289306000Y90424000D03*
X289306000Y87884000D03*
X289306000Y85344000D03*
X289306000Y92964000D03*
X289306000Y85344000D03*
X289306000Y80264000D03*
%TO.P,BB6,15*%
%TO.N,unconnected-(BB6-Pad15)*%
X286766000Y80264000D03*
X286766000Y87884000D03*
X286766000Y90424000D03*
X286766000Y90424000D03*
X286766000Y92964000D03*
X286766000Y92964000D03*
X286766000Y95504000D03*
X286766000Y85344000D03*
X286766000Y85344000D03*
X286766000Y95504000D03*
X286766000Y87884000D03*
%TO.P,BB6,16*%
%TO.N,unconnected-(BB6-Pad16)*%
X284226000Y90424000D03*
X284226000Y85344000D03*
X284226000Y95504000D03*
X284226000Y80264000D03*
X284226000Y87884000D03*
X284226000Y92964000D03*
%TD*%
D22*
%TO.P,X6,1,1*%
%TO.N,/CTRL17*%
X228780000Y185166000D03*
D23*
%TO.P,X6,2,2*%
%TO.N,/CTRL18*%
X231280000Y185166000D03*
%TO.P,X6,3,3*%
%TO.N,/CTRL19*%
X233780000Y185166000D03*
%TO.P,X6,4,4*%
%TO.N,/CTRL20*%
X236280000Y185166000D03*
%TO.P,X6,5,5*%
%TO.N,/CTRL21*%
X238780000Y185166000D03*
%TO.P,X6,6,6*%
%TO.N,/CTRL22*%
X241280000Y185166000D03*
%TO.P,X6,7,7*%
%TO.N,/CTRL23*%
X243780000Y185166000D03*
%TO.P,X6,8,8*%
%TO.N,/CTRL24*%
X246280000Y185166000D03*
%TO.P,X6,9,9*%
%TO.N,N/C*%
X248780000Y185166000D03*
%TO.P,X6,10,10*%
%TO.N,GNDD*%
X251280000Y185166000D03*
%TD*%
D19*
%TO.P,K10,1*%
%TO.N,+5V*%
X116028000Y122380000D03*
%TO.P,K10,2*%
%TO.N,N/C*%
X116028000Y119180000D03*
%TO.P,K10,3*%
%TO.N,/INSTR+*%
X116028000Y116980000D03*
%TO.P,K10,4*%
%TO.N,/CTRL10*%
X116028000Y114780000D03*
%TO.P,K10,5*%
%TO.N,N/C*%
X123028000Y114780000D03*
%TO.P,K10,6*%
X123028000Y116980000D03*
%TO.P,K10,7*%
X123028000Y119180000D03*
%TO.P,K10,8*%
%TO.N,Net-(CP40-Pad1)*%
X123028000Y122380000D03*
%TD*%
D15*
%TO.P,CP21,1,1*%
%TO.N,/INSTR+*%
X60672000Y106416000D03*
%TD*%
%TO.P,CP55,1,1*%
%TO.N,Net-(CP55-Pad1)*%
X152095000Y111496000D03*
%TD*%
D10*
%TO.P,VD22,1,K*%
%TO.N,Net-(R35-Pad1)*%
X118031500Y129784000D03*
%TO.P,VD22,2,A*%
%TO.N,+5V*%
X116156500Y129784000D03*
%TD*%
D12*
%TO.P,R48,1*%
%TO.N,/RL15*%
X177899700Y149850000D03*
%TO.P,R48,2*%
%TO.N,Net-(CP59-Pad1)*%
X176074700Y149850000D03*
%TD*%
D11*
%TO.P,R29,1*%
%TO.N,Net-(R29-Pad1)*%
X83161500Y129784000D03*
%TO.P,R29,2*%
%TO.N,Net-(CP32-Pad1)*%
X84986500Y129784000D03*
%TD*%
D12*
%TO.P,R79,1*%
%TO.N,Net-(CP99-Pad1)*%
X9802500Y116078000D03*
%TO.P,R79,2*%
%TO.N,GNDD*%
X7977500Y116078000D03*
%TD*%
D15*
%TO.P,CP27,1,1*%
%TO.N,Net-(CP27-Pad1)*%
X78486000Y157226000D03*
%TD*%
D12*
%TO.P,R75,1*%
%TO.N,/RL24*%
X266850500Y104130000D03*
%TO.P,R75,2*%
%TO.N,Net-(CP95-Pad1)*%
X265025500Y104130000D03*
%TD*%
D15*
%TO.P,CP5,1,1*%
%TO.N,/INSTR+*%
X25146000Y106416000D03*
%TD*%
D22*
%TO.P,X3,1,1*%
%TO.N,GNDD*%
X274654000Y185212000D03*
D23*
%TO.P,X3,2,2*%
%TO.N,+5V*%
X277154000Y185212000D03*
%TO.P,X3,3,3*%
%TO.N,N/C*%
X279654000Y185212000D03*
%TO.P,X3,4,4*%
X282154000Y185212000D03*
%TO.P,X3,5,5*%
X284654000Y185212000D03*
%TD*%
D14*
%TO.P,VT18,1,B*%
%TO.N,Net-(CP71-Pad1)*%
X211624000Y109480000D03*
%TO.P,VT18,2,E*%
%TO.N,GNDD*%
X213524000Y109480000D03*
%TO.P,VT18,3,C*%
%TO.N,Net-(CP72-Pad1)*%
X212574000Y111480000D03*
%TD*%
%TO.P,VT3,1,B*%
%TO.N,Net-(CP11-Pad1)*%
X46629000Y155210000D03*
%TO.P,VT3,2,E*%
%TO.N,GNDD*%
X48529000Y155210000D03*
%TO.P,VT3,3,C*%
%TO.N,Net-(CP12-Pad1)*%
X47579000Y157210000D03*
%TD*%
D11*
%TO.P,R2,1*%
%TO.N,Net-(DD1-Pad27)*%
X116689500Y55880000D03*
%TO.P,R2,2*%
%TO.N,Net-(R2-Pad2)*%
X118514500Y55880000D03*
%TD*%
D15*
%TO.P,CP61,1,1*%
%TO.N,/INSTR+*%
X172415200Y106426000D03*
%TD*%
D14*
%TO.P,VT25,1,B*%
%TO.N,Net-(CP99-Pad1)*%
X9840000Y113268000D03*
%TO.P,VT25,2,E*%
%TO.N,GNDD*%
X7940000Y113268000D03*
%TO.P,VT25,3,C*%
%TO.N,Net-(CP100-Pad1)*%
X8890000Y111268000D03*
%TD*%
D11*
%TO.P,R52,1*%
%TO.N,Net-(CP63-Pad1)*%
X176074700Y106690000D03*
%TO.P,R52,2*%
%TO.N,GNDD*%
X177899700Y106690000D03*
%TD*%
D15*
%TO.P,CP45,1,1*%
%TO.N,/INSTR+*%
X134316000Y106416000D03*
%TD*%
D10*
%TO.P,VD40,1,K*%
%TO.N,Net-(R62-Pad1)*%
X227251500Y175514000D03*
%TO.P,VD40,2,A*%
%TO.N,+5V*%
X225376500Y175514000D03*
%TD*%
%TO.P,VD20,1,K*%
%TO.N,Net-(R32-Pad1)*%
X118031500Y175514000D03*
%TO.P,VD20,2,A*%
%TO.N,+5V*%
X116156500Y175514000D03*
%TD*%
D14*
%TO.P,VT12,1,B*%
%TO.N,Net-(CP47-Pad1)*%
X137938000Y109480000D03*
%TO.P,VT12,2,E*%
%TO.N,GNDD*%
X139838000Y109480000D03*
%TO.P,VT12,3,C*%
%TO.N,Net-(CP48-Pad1)*%
X138888000Y111480000D03*
%TD*%
D15*
%TO.P,CP70,1,1*%
%TO.N,/CTRL18*%
X208002000Y108956000D03*
%TD*%
D14*
%TO.P,VT8,1,B*%
%TO.N,Net-(CP31-Pad1)*%
X82108000Y109480000D03*
%TO.P,VT8,2,E*%
%TO.N,GNDD*%
X84008000Y109480000D03*
%TO.P,VT8,3,C*%
%TO.N,Net-(CP32-Pad1)*%
X83058000Y111480000D03*
%TD*%
D24*
%TO.P,X1,1,1*%
%TO.N,/MCU+*%
X88692000Y34718000D03*
D25*
%TO.P,X1,2,2*%
%TO.N,/MCU_GND*%
X88692000Y32218000D03*
%TO.P,X1,3*%
%TO.N,N/C*%
X88692000Y29718000D03*
%TO.P,X1,4*%
X88692000Y27218000D03*
%TO.P,X1,5*%
X88692000Y24718000D03*
%TD*%
D15*
%TO.P,CP82,1,1*%
%TO.N,/CTRL21*%
X243459000Y154686000D03*
%TD*%
D19*
%TO.P,K17,1*%
%TO.N,+5V*%
X207468000Y168110000D03*
%TO.P,K17,2*%
%TO.N,N/C*%
X207468000Y164910000D03*
%TO.P,K17,3*%
%TO.N,/INSTR+*%
X207468000Y162710000D03*
%TO.P,K17,4*%
%TO.N,/CTRL17*%
X207468000Y160510000D03*
%TO.P,K17,5*%
%TO.N,N/C*%
X214468000Y160510000D03*
%TO.P,K17,6*%
X214468000Y162710000D03*
%TO.P,K17,7*%
X214468000Y164910000D03*
%TO.P,K17,8*%
%TO.N,Net-(CP68-Pad1)*%
X214468000Y168110000D03*
%TD*%
D11*
%TO.P,R20,1*%
%TO.N,Net-(R20-Pad1)*%
X65347500Y175514000D03*
%TO.P,R20,2*%
%TO.N,Net-(CP20-Pad1)*%
X67172500Y175514000D03*
%TD*%
D15*
%TO.P,CP84,1,1*%
%TO.N,Net-(CP84-Pad1)*%
X250063000Y172212000D03*
%TD*%
D11*
%TO.P,R56,1*%
%TO.N,Net-(R56-Pad1)*%
X212701500Y175514000D03*
%TO.P,R56,2*%
%TO.N,Net-(CP68-Pad1)*%
X214526500Y175514000D03*
%TD*%
D10*
%TO.P,VD44,1,K*%
%TO.N,Net-(R68-Pad1)*%
X244904500Y175514000D03*
%TO.P,VD44,2,A*%
%TO.N,+5V*%
X243029500Y175514000D03*
%TD*%
D15*
%TO.P,CP47,1,1*%
%TO.N,Net-(CP47-Pad1)*%
X134316000Y111496000D03*
%TD*%
%TO.P,CP26,1,1*%
%TO.N,/CTRL7*%
X78486000Y154686000D03*
%TD*%
D19*
%TO.P,K25,1*%
%TO.N,+5V*%
X14940000Y100352000D03*
%TO.P,K25,2*%
%TO.N,N/C*%
X14940000Y103552000D03*
%TO.P,K25,3*%
%TO.N,+5V*%
X14940000Y105752000D03*
%TO.P,K25,4*%
%TO.N,/MCU+*%
X14940000Y107952000D03*
%TO.P,K25,5*%
%TO.N,/MCU_GND*%
X7940000Y107952000D03*
%TO.P,K25,6*%
%TO.N,GNDD*%
X7940000Y105752000D03*
%TO.P,K25,7*%
%TO.N,N/C*%
X7940000Y103552000D03*
%TO.P,K25,8*%
%TO.N,Net-(CP100-Pad1)*%
X7940000Y100352000D03*
%TD*%
D14*
%TO.P,VT7,1,B*%
%TO.N,Net-(CP27-Pad1)*%
X82108000Y155210000D03*
%TO.P,VT7,2,E*%
%TO.N,GNDD*%
X84008000Y155210000D03*
%TO.P,VT7,3,C*%
%TO.N,Net-(CP28-Pad1)*%
X83058000Y157210000D03*
%TD*%
D26*
%TO.P,S3,1,1*%
%TO.N,Net-(DD1-Pad9)*%
X77470000Y43284000D03*
X77470000Y49784000D03*
%TO.P,S3,2,2*%
%TO.N,Net-(DD2-Pad2)*%
X72970000Y43284000D03*
X72970000Y49784000D03*
%TD*%
D15*
%TO.P,CP42,1,1*%
%TO.N,/CTRL11*%
X134316000Y154686000D03*
%TD*%
%TO.P,CP89,1,1*%
%TO.N,/INSTR+*%
X261239000Y152146000D03*
%TD*%
%TO.P,CP13,1,1*%
%TO.N,/INSTR+*%
X43007000Y106416000D03*
%TD*%
D10*
%TO.P,VD14,1,K*%
%TO.N,Net-(R23-Pad1)*%
X62117500Y129784000D03*
%TO.P,VD14,2,A*%
%TO.N,+5V*%
X60242500Y129784000D03*
%TD*%
%TO.P,VD2,1,K*%
%TO.N,/MCU_GND*%
X123365500Y55880000D03*
%TO.P,VD2,2,A*%
%TO.N,Net-(R2-Pad2)*%
X121490500Y55880000D03*
%TD*%
D15*
%TO.P,CP32,1,1*%
%TO.N,Net-(CP32-Pad1)*%
X85090000Y126482000D03*
%TD*%
%TO.P,CP22,1,1*%
%TO.N,/CTRL6*%
X60672000Y108956000D03*
%TD*%
D14*
%TO.P,VT11,1,B*%
%TO.N,Net-(CP43-Pad1)*%
X137938000Y155210000D03*
%TO.P,VT11,2,E*%
%TO.N,GNDD*%
X139838000Y155210000D03*
%TO.P,VT11,3,C*%
%TO.N,Net-(CP44-Pad1)*%
X138888000Y157210000D03*
%TD*%
D12*
%TO.P,R21,1*%
%TO.N,/RL6*%
X66156500Y104130000D03*
%TO.P,R21,2*%
%TO.N,Net-(CP23-Pad1)*%
X64331500Y104130000D03*
%TD*%
D13*
%TO.P,VD41,1,K*%
%TO.N,+5V*%
X225426000Y172212000D03*
%TO.P,VD41,2,A*%
%TO.N,Net-(CP76-Pad1)*%
X228726000Y172212000D03*
%TD*%
D15*
%TO.P,CP18,1,1*%
%TO.N,/CTRL5*%
X60672000Y154686000D03*
%TD*%
%TO.P,CP12,1,1*%
%TO.N,Net-(CP12-Pad1)*%
X49611000Y172212000D03*
%TD*%
D12*
%TO.P,R63,1*%
%TO.N,/RL20*%
X231288500Y104130000D03*
%TO.P,R63,2*%
%TO.N,Net-(CP79-Pad1)*%
X229463500Y104130000D03*
%TD*%
%TO.P,R45,1*%
%TO.N,/RL14*%
X157579500Y104130000D03*
%TO.P,R45,2*%
%TO.N,Net-(CP55-Pad1)*%
X155754500Y104130000D03*
%TD*%
D15*
%TO.P,CP102,1,1*%
%TO.N,/MCU_GND*%
X5080000Y107915989D03*
%TD*%
D13*
%TO.P,VD47,1,K*%
%TO.N,+5V*%
X243159800Y126482000D03*
%TO.P,VD47,2,A*%
%TO.N,Net-(CP88-Pad1)*%
X246459800Y126482000D03*
%TD*%
D10*
%TO.P,VD4,1,K*%
%TO.N,Net-(R8-Pad1)*%
X26591500Y175514000D03*
%TO.P,VD4,2,A*%
%TO.N,+5V*%
X24716500Y175514000D03*
%TD*%
D11*
%TO.P,R16,1*%
%TO.N,Net-(CP15-Pad1)*%
X46666500Y106680000D03*
%TO.P,R16,2*%
%TO.N,GNDD*%
X48491500Y106680000D03*
%TD*%
D15*
%TO.P,CP17,1,1*%
%TO.N,/INSTR+*%
X60672000Y152146000D03*
%TD*%
D14*
%TO.P,VT19,1,B*%
%TO.N,Net-(CP75-Pad1)*%
X229428000Y155210000D03*
%TO.P,VT19,2,E*%
%TO.N,GNDD*%
X231328000Y155210000D03*
%TO.P,VT19,3,C*%
%TO.N,Net-(CP76-Pad1)*%
X230378000Y157210000D03*
%TD*%
%TO.P,VT4,1,B*%
%TO.N,Net-(CP15-Pad1)*%
X46629000Y109480000D03*
%TO.P,VT4,2,E*%
%TO.N,GNDD*%
X48529000Y109480000D03*
%TO.P,VT4,3,C*%
%TO.N,Net-(CP16-Pad1)*%
X47579000Y111480000D03*
%TD*%
D11*
%TO.P,R3,1*%
%TO.N,Net-(DD1-Pad25)*%
X116689500Y50800000D03*
%TO.P,R3,2*%
%TO.N,Net-(R3-Pad2)*%
X118514500Y50800000D03*
%TD*%
D12*
%TO.P,R12,1*%
%TO.N,/RL3*%
X48491500Y149860000D03*
%TO.P,R12,2*%
%TO.N,Net-(CP11-Pad1)*%
X46666500Y149860000D03*
%TD*%
D16*
%TO.P,BB3,1*%
%TO.N,unconnected-(BB3-Pad1)*%
X151638000Y27638000D03*
X156718000Y27638000D03*
X141478000Y27638000D03*
X146558000Y27638000D03*
X149098000Y27638000D03*
X144018000Y27638000D03*
D17*
%TO.P,BB3,2*%
%TO.N,unconnected-(BB3-Pad2)*%
X144018000Y25098000D03*
X146558000Y25098000D03*
X151638000Y25098000D03*
X156718000Y25098000D03*
X141478000Y25098000D03*
X149098000Y25098000D03*
%TO.P,BB3,3*%
%TO.N,unconnected-(BB3-Pad3)*%
X151638000Y22558000D03*
X146558000Y22558000D03*
X156718000Y22558000D03*
X144018000Y22558000D03*
X149098000Y22558000D03*
X141478000Y22558000D03*
%TO.P,BB3,4*%
%TO.N,unconnected-(BB3-Pad4)*%
X151638000Y20018000D03*
X141478000Y20018000D03*
X156718000Y20018000D03*
X149098000Y20018000D03*
X144018000Y20018000D03*
X146558000Y20018000D03*
%TO.P,BB3,5*%
%TO.N,unconnected-(BB3-Pad5)*%
X146558000Y17478000D03*
X141478000Y17478000D03*
X151638000Y17478000D03*
X156718000Y17478000D03*
X144018000Y17478000D03*
X149098000Y17478000D03*
%TO.P,BB3,6*%
%TO.N,unconnected-(BB3-Pad6)*%
X151638000Y14938000D03*
X141478000Y14938000D03*
X144018000Y14938000D03*
X156718000Y14938000D03*
X146558000Y14938000D03*
X149098000Y14938000D03*
%TO.P,BB3,7*%
%TO.N,unconnected-(BB3-Pad7)*%
X141478000Y12398000D03*
X156718000Y12398000D03*
X151638000Y12398000D03*
X149098000Y12398000D03*
X144018000Y12398000D03*
X146558000Y12398000D03*
%TO.P,BB3,8*%
%TO.N,unconnected-(BB3-Pad8)*%
X151638000Y9858000D03*
X144018000Y9858000D03*
X146558000Y9858000D03*
X149098000Y9858000D03*
X156718000Y9858000D03*
X141478000Y9858000D03*
%TO.P,BB3,9*%
%TO.N,unconnected-(BB3-Pad9)*%
X179578000Y9858000D03*
X169418000Y9858000D03*
X171958000Y9858000D03*
X177038000Y9858000D03*
X174498000Y9858000D03*
X164338000Y9858000D03*
%TO.P,BB3,10*%
%TO.N,unconnected-(BB3-Pad10)*%
X171958000Y12398000D03*
X179578000Y12398000D03*
X169418000Y12398000D03*
X174498000Y12398000D03*
X177038000Y12398000D03*
X164338000Y12398000D03*
%TO.P,BB3,11*%
%TO.N,unconnected-(BB3-Pad11)*%
X177038000Y14938000D03*
X179578000Y14938000D03*
X174498000Y14938000D03*
X171958000Y14938000D03*
X169418000Y14938000D03*
X164338000Y14938000D03*
%TO.P,BB3,12*%
%TO.N,unconnected-(BB3-Pad12)*%
X169418000Y17478000D03*
X164338000Y17478000D03*
X179578000Y17478000D03*
X174498000Y17478000D03*
X177038000Y17478000D03*
X171958000Y17478000D03*
%TO.P,BB3,13*%
%TO.N,unconnected-(BB3-Pad13)*%
X179578000Y20018000D03*
X169418000Y20018000D03*
X164338000Y20018000D03*
X174498000Y20018000D03*
X177038000Y20018000D03*
X171958000Y20018000D03*
%TO.P,BB3,14*%
%TO.N,unconnected-(BB3-Pad14)*%
X164338000Y22558000D03*
X177038000Y22558000D03*
X171958000Y22558000D03*
X169418000Y22558000D03*
X169418000Y22558000D03*
X179578000Y22558000D03*
X174498000Y22558000D03*
%TO.P,BB3,15*%
%TO.N,unconnected-(BB3-Pad15)*%
X177038000Y25098000D03*
X169418000Y25098000D03*
X179578000Y25098000D03*
X177038000Y25098000D03*
X171958000Y25098000D03*
X171958000Y25098000D03*
X164338000Y25098000D03*
X169418000Y25098000D03*
X179578000Y25098000D03*
X174498000Y25098000D03*
X174498000Y25098000D03*
%TO.P,BB3,16*%
%TO.N,unconnected-(BB3-Pad16)*%
X177038000Y27638000D03*
X169418000Y27638000D03*
X171958000Y27638000D03*
X179578000Y27638000D03*
X164338000Y27638000D03*
X174498000Y27638000D03*
%TD*%
D27*
%TO.P,R4,1*%
%TO.N,Net-(DD1-Pad21)*%
X118872000Y10056500D03*
%TO.P,R4,2*%
%TO.N,/MCU+*%
X118872000Y8231500D03*
%TD*%
D19*
%TO.P,K6,1*%
%TO.N,+5V*%
X60114000Y122380000D03*
%TO.P,K6,2*%
%TO.N,N/C*%
X60114000Y119180000D03*
%TO.P,K6,3*%
%TO.N,/INSTR+*%
X60114000Y116980000D03*
%TO.P,K6,4*%
%TO.N,/CTRL6*%
X60114000Y114780000D03*
%TO.P,K6,5*%
%TO.N,N/C*%
X67114000Y114780000D03*
%TO.P,K6,6*%
X67114000Y116980000D03*
%TO.P,K6,7*%
X67114000Y119180000D03*
%TO.P,K6,8*%
%TO.N,Net-(CP24-Pad1)*%
X67114000Y122380000D03*
%TD*%
D10*
%TO.P,VD6,1,K*%
%TO.N,Net-(R11-Pad1)*%
X26591500Y129784000D03*
%TO.P,VD6,2,A*%
%TO.N,+5V*%
X24716500Y129784000D03*
%TD*%
D13*
%TO.P,VD17,1,K*%
%TO.N,+5V*%
X78106000Y172212000D03*
%TO.P,VD17,2,A*%
%TO.N,Net-(CP28-Pad1)*%
X81406000Y172212000D03*
%TD*%
D15*
%TO.P,CP104,1,1*%
%TO.N,/2_MCU/SYNC IN*%
X71120000Y2286000D03*
%TD*%
D11*
%TO.P,R61,1*%
%TO.N,Net-(CP75-Pad1)*%
X229465500Y152410000D03*
%TO.P,R61,2*%
%TO.N,GNDD*%
X231290500Y152410000D03*
%TD*%
D14*
%TO.P,VT5,1,B*%
%TO.N,Net-(CP19-Pad1)*%
X64294000Y155210000D03*
%TO.P,VT5,2,E*%
%TO.N,GNDD*%
X66194000Y155210000D03*
%TO.P,VT5,3,C*%
%TO.N,Net-(CP20-Pad1)*%
X65244000Y157210000D03*
%TD*%
D11*
%TO.P,R22,1*%
%TO.N,Net-(CP23-Pad1)*%
X64331500Y106680000D03*
%TO.P,R22,2*%
%TO.N,GNDD*%
X66156500Y106680000D03*
%TD*%
D19*
%TO.P,K1,1*%
%TO.N,+5V*%
X24588000Y168110000D03*
%TO.P,K1,2*%
%TO.N,N/C*%
X24588000Y164910000D03*
%TO.P,K1,3*%
%TO.N,/INSTR+*%
X24588000Y162710000D03*
%TO.P,K1,4*%
%TO.N,/CTRL1*%
X24588000Y160510000D03*
%TO.P,K1,5*%
%TO.N,N/C*%
X31588000Y160510000D03*
%TO.P,K1,6*%
X31588000Y162710000D03*
%TO.P,K1,7*%
X31588000Y164910000D03*
%TO.P,K1,8*%
%TO.N,Net-(CP4-Pad1)*%
X31588000Y168110000D03*
%TD*%
D11*
%TO.P,R32,1*%
%TO.N,Net-(R32-Pad1)*%
X121261500Y175514000D03*
%TO.P,R32,2*%
%TO.N,Net-(CP36-Pad1)*%
X123086500Y175514000D03*
%TD*%
%TO.P,R64,1*%
%TO.N,Net-(CP79-Pad1)*%
X229463500Y106680000D03*
%TO.P,R64,2*%
%TO.N,GNDD*%
X231288500Y106680000D03*
%TD*%
D15*
%TO.P,CP83,1,1*%
%TO.N,Net-(CP83-Pad1)*%
X243459000Y157226000D03*
%TD*%
%TO.P,CP57,1,1*%
%TO.N,/INSTR+*%
X172415200Y152136000D03*
%TD*%
%TO.P,CP96,1,1*%
%TO.N,Net-(CP96-Pad1)*%
X267970000Y126482000D03*
%TD*%
D11*
%TO.P,R31,1*%
%TO.N,Net-(CP35-Pad1)*%
X120245500Y152410000D03*
%TO.P,R31,2*%
%TO.N,GNDD*%
X122070500Y152410000D03*
%TD*%
D15*
%TO.P,CP85,1,1*%
%TO.N,/INSTR+*%
X243539800Y106416000D03*
%TD*%
D16*
%TO.P,BB2,1*%
%TO.N,unconnected-(BB2-Pad1)*%
X195678000Y27638000D03*
X208378000Y27638000D03*
X193138000Y27638000D03*
X203298000Y27638000D03*
X200758000Y27638000D03*
X198218000Y27638000D03*
D17*
%TO.P,BB2,2*%
%TO.N,unconnected-(BB2-Pad2)*%
X195678000Y25098000D03*
X193138000Y25098000D03*
X198218000Y25098000D03*
X208378000Y25098000D03*
X200758000Y25098000D03*
X203298000Y25098000D03*
%TO.P,BB2,3*%
%TO.N,unconnected-(BB2-Pad3)*%
X203298000Y22558000D03*
X208378000Y22558000D03*
X198218000Y22558000D03*
X200758000Y22558000D03*
X195678000Y22558000D03*
X193138000Y22558000D03*
%TO.P,BB2,4*%
%TO.N,unconnected-(BB2-Pad4)*%
X193138000Y20018000D03*
X208378000Y20018000D03*
X203298000Y20018000D03*
X200758000Y20018000D03*
X198218000Y20018000D03*
X195678000Y20018000D03*
%TO.P,BB2,5*%
%TO.N,unconnected-(BB2-Pad5)*%
X200758000Y17478000D03*
X203298000Y17478000D03*
X193138000Y17478000D03*
X195678000Y17478000D03*
X198218000Y17478000D03*
X208378000Y17478000D03*
%TO.P,BB2,6*%
%TO.N,unconnected-(BB2-Pad6)*%
X208378000Y14938000D03*
X200758000Y14938000D03*
X198218000Y14938000D03*
X193138000Y14938000D03*
X195678000Y14938000D03*
X203298000Y14938000D03*
%TO.P,BB2,7*%
%TO.N,unconnected-(BB2-Pad7)*%
X208378000Y12398000D03*
X200758000Y12398000D03*
X193138000Y12398000D03*
X195678000Y12398000D03*
X198218000Y12398000D03*
X203298000Y12398000D03*
%TO.P,BB2,8*%
%TO.N,unconnected-(BB2-Pad8)*%
X198218000Y9858000D03*
X200758000Y9858000D03*
X208378000Y9858000D03*
X193138000Y9858000D03*
X203298000Y9858000D03*
X195678000Y9858000D03*
%TO.P,BB2,9*%
%TO.N,unconnected-(BB2-Pad9)*%
X221078000Y9858000D03*
X226158000Y9858000D03*
X231238000Y9858000D03*
X228698000Y9858000D03*
X215998000Y9858000D03*
X223618000Y9858000D03*
%TO.P,BB2,10*%
%TO.N,unconnected-(BB2-Pad10)*%
X215998000Y12398000D03*
X226158000Y12398000D03*
X228698000Y12398000D03*
X223618000Y12398000D03*
X221078000Y12398000D03*
X231238000Y12398000D03*
%TO.P,BB2,11*%
%TO.N,unconnected-(BB2-Pad11)*%
X231238000Y14938000D03*
X215998000Y14938000D03*
X226158000Y14938000D03*
X228698000Y14938000D03*
X221078000Y14938000D03*
X223618000Y14938000D03*
%TO.P,BB2,12*%
%TO.N,unconnected-(BB2-Pad12)*%
X215998000Y17478000D03*
X231238000Y17478000D03*
X221078000Y17478000D03*
X226158000Y17478000D03*
X228698000Y17478000D03*
X223618000Y17478000D03*
%TO.P,BB2,13*%
%TO.N,unconnected-(BB2-Pad13)*%
X231238000Y20018000D03*
X228698000Y20018000D03*
X215998000Y20018000D03*
X223618000Y20018000D03*
X226158000Y20018000D03*
X221078000Y20018000D03*
%TO.P,BB2,14*%
%TO.N,unconnected-(BB2-Pad14)*%
X221078000Y22558000D03*
X221078000Y22558000D03*
X231238000Y22558000D03*
X223618000Y22558000D03*
X228698000Y22558000D03*
X215998000Y22558000D03*
X226158000Y22558000D03*
%TO.P,BB2,15*%
%TO.N,unconnected-(BB2-Pad15)*%
X228698000Y25098000D03*
X226158000Y25098000D03*
X231238000Y25098000D03*
X226158000Y25098000D03*
X221078000Y25098000D03*
X231238000Y25098000D03*
X221078000Y25098000D03*
X215998000Y25098000D03*
X223618000Y25098000D03*
X223618000Y25098000D03*
X228698000Y25098000D03*
%TO.P,BB2,16*%
%TO.N,unconnected-(BB2-Pad16)*%
X231238000Y27638000D03*
X215998000Y27638000D03*
X223618000Y27638000D03*
X221078000Y27638000D03*
X228698000Y27638000D03*
X226158000Y27638000D03*
%TD*%
D15*
%TO.P,CP64,1,1*%
%TO.N,Net-(CP64-Pad1)*%
X179019200Y126492000D03*
%TD*%
%TO.P,CP19,1,1*%
%TO.N,Net-(CP19-Pad1)*%
X60672000Y157226000D03*
%TD*%
D11*
%TO.P,R70,1*%
%TO.N,Net-(CP87-Pad1)*%
X247199300Y106680000D03*
%TO.P,R70,2*%
%TO.N,GNDD*%
X249024300Y106680000D03*
%TD*%
D15*
%TO.P,CP25,1,1*%
%TO.N,/INSTR+*%
X78486000Y152146000D03*
%TD*%
D11*
%TO.P,R26,1*%
%TO.N,Net-(R26-Pad1)*%
X83161500Y175514000D03*
%TO.P,R26,2*%
%TO.N,Net-(CP28-Pad1)*%
X84986500Y175514000D03*
%TD*%
D15*
%TO.P,DD2,1,SDA*%
%TO.N,Net-(DD2-Pad1)*%
X67056000Y32258000D03*
D28*
%TO.P,DD2,2,SCL*%
%TO.N,Net-(DD2-Pad2)*%
X69596000Y32258000D03*
%TO.P,DD2,3,VCC*%
%TO.N,/MCU+*%
X72136000Y32258000D03*
%TO.P,DD2,4,GND*%
%TO.N,/MCU_GND*%
X74676000Y32258000D03*
%TD*%
D15*
%TO.P,CP73,1,1*%
%TO.N,/INSTR+*%
X225806000Y152146000D03*
%TD*%
D10*
%TO.P,VD18,1,K*%
%TO.N,Net-(R29-Pad1)*%
X79931500Y129784000D03*
%TO.P,VD18,2,A*%
%TO.N,+5V*%
X78056500Y129784000D03*
%TD*%
D19*
%TO.P,K2,1*%
%TO.N,+5V*%
X24588000Y122380000D03*
%TO.P,K2,2*%
%TO.N,N/C*%
X24588000Y119180000D03*
%TO.P,K2,3*%
%TO.N,/INSTR+*%
X24588000Y116980000D03*
%TO.P,K2,4*%
%TO.N,/CTRL2*%
X24588000Y114780000D03*
%TO.P,K2,5*%
%TO.N,N/C*%
X31588000Y114780000D03*
%TO.P,K2,6*%
X31588000Y116980000D03*
%TO.P,K2,7*%
X31588000Y119180000D03*
%TO.P,K2,8*%
%TO.N,Net-(CP8-Pad1)*%
X31588000Y122380000D03*
%TD*%
%TO.P,K14,1*%
%TO.N,+5V*%
X151537000Y122380000D03*
%TO.P,K14,2*%
%TO.N,N/C*%
X151537000Y119180000D03*
%TO.P,K14,3*%
%TO.N,/INSTR+*%
X151537000Y116980000D03*
%TO.P,K14,4*%
%TO.N,/CTRL14*%
X151537000Y114780000D03*
%TO.P,K14,5*%
%TO.N,N/C*%
X158537000Y114780000D03*
%TO.P,K14,6*%
X158537000Y116980000D03*
%TO.P,K14,7*%
X158537000Y119180000D03*
%TO.P,K14,8*%
%TO.N,Net-(CP56-Pad1)*%
X158537000Y122380000D03*
%TD*%
D15*
%TO.P,CP79,1,1*%
%TO.N,Net-(CP79-Pad1)*%
X225804000Y111496000D03*
%TD*%
D11*
%TO.P,R68,1*%
%TO.N,Net-(R68-Pad1)*%
X248134500Y175514000D03*
%TO.P,R68,2*%
%TO.N,Net-(CP84-Pad1)*%
X249959500Y175514000D03*
%TD*%
%TO.P,R28,1*%
%TO.N,Net-(CP31-Pad1)*%
X82145500Y106680000D03*
%TO.P,R28,2*%
%TO.N,GNDD*%
X83970500Y106680000D03*
%TD*%
D15*
%TO.P,CP63,1,1*%
%TO.N,Net-(CP63-Pad1)*%
X172415200Y111506000D03*
%TD*%
%TO.P,CP37,1,1*%
%TO.N,/INSTR+*%
X116586000Y106416000D03*
%TD*%
D11*
%TO.P,R59,1*%
%TO.N,Net-(R59-Pad1)*%
X212677500Y129784000D03*
%TO.P,R59,2*%
%TO.N,Net-(CP72-Pad1)*%
X214502500Y129784000D03*
%TD*%
D12*
%TO.P,R57,1*%
%TO.N,/RL18*%
X213486500Y104130000D03*
%TO.P,R57,2*%
%TO.N,Net-(CP71-Pad1)*%
X211661500Y104130000D03*
%TD*%
D11*
%TO.P,R14,1*%
%TO.N,Net-(R14-Pad1)*%
X47682500Y175514000D03*
%TO.P,R14,2*%
%TO.N,Net-(CP12-Pad1)*%
X49507500Y175514000D03*
%TD*%
D15*
%TO.P,CP99,1,1*%
%TO.N,Net-(CP99-Pad1)*%
X12954000Y116078000D03*
%TD*%
%TO.P,CP39,1,1*%
%TO.N,Net-(CP39-Pad1)*%
X116586000Y111496000D03*
%TD*%
D12*
%TO.P,R42,1*%
%TO.N,/RL13*%
X157579500Y149860000D03*
%TO.P,R42,2*%
%TO.N,Net-(CP51-Pad1)*%
X155754500Y149860000D03*
%TD*%
D26*
%TO.P,S4,1,1*%
%TO.N,Net-(DD1-Pad8)*%
X86832000Y65480000D03*
X86832000Y58980000D03*
%TO.P,S4,2,2*%
%TO.N,Net-(DD2-Pad1)*%
X82332000Y65480000D03*
X82332000Y58980000D03*
%TD*%
D15*
%TO.P,CP90,1,1*%
%TO.N,/CTRL23*%
X261239000Y154686000D03*
%TD*%
D14*
%TO.P,VT1,1,B*%
%TO.N,Net-(CP3-Pad1)*%
X28768000Y155210000D03*
%TO.P,VT1,2,E*%
%TO.N,GNDD*%
X30668000Y155210000D03*
%TO.P,VT1,3,C*%
%TO.N,Net-(CP4-Pad1)*%
X29718000Y157210000D03*
%TD*%
D12*
%TO.P,R33,1*%
%TO.N,/RL10*%
X122070500Y104130000D03*
%TO.P,R33,2*%
%TO.N,Net-(CP39-Pad1)*%
X120245500Y104130000D03*
%TD*%
D15*
%TO.P,CP93,1,1*%
%TO.N,/INSTR+*%
X261366000Y106416000D03*
%TD*%
%TO.P,CP36,1,1*%
%TO.N,Net-(CP36-Pad1)*%
X123190000Y172212000D03*
%TD*%
%TO.P,CP3,1,1*%
%TO.N,Net-(CP3-Pad1)*%
X25146000Y157226000D03*
%TD*%
%TO.P,CP71,1,1*%
%TO.N,Net-(CP71-Pad1)*%
X208002000Y111496000D03*
%TD*%
D18*
%TO.P,S1,1,1*%
%TO.N,Net-(DD1-Pad21)*%
X118908000Y20739000D03*
X118908000Y12789000D03*
%TO.P,S1,2,2*%
%TO.N,/MCU_GND*%
X123408000Y20739000D03*
X123408000Y12789000D03*
%TD*%
D13*
%TO.P,VD7,1,K*%
%TO.N,+5V*%
X24766000Y126482000D03*
%TO.P,VD7,2,A*%
%TO.N,Net-(CP8-Pad1)*%
X28066000Y126482000D03*
%TD*%
D11*
%TO.P,R67,1*%
%TO.N,Net-(CP83-Pad1)*%
X247118500Y152410000D03*
%TO.P,R67,2*%
%TO.N,GNDD*%
X248943500Y152410000D03*
%TD*%
D19*
%TO.P,K5,1*%
%TO.N,+5V*%
X60114000Y168110000D03*
%TO.P,K5,2*%
%TO.N,N/C*%
X60114000Y164910000D03*
%TO.P,K5,3*%
%TO.N,/INSTR+*%
X60114000Y162710000D03*
%TO.P,K5,4*%
%TO.N,/CTRL5*%
X60114000Y160510000D03*
%TO.P,K5,5*%
%TO.N,N/C*%
X67114000Y160510000D03*
%TO.P,K5,6*%
X67114000Y162710000D03*
%TO.P,K5,7*%
X67114000Y164910000D03*
%TO.P,K5,8*%
%TO.N,Net-(CP20-Pad1)*%
X67114000Y168110000D03*
%TD*%
D13*
%TO.P,VD51,1,K*%
%TO.N,+5V*%
X260986000Y126482000D03*
%TO.P,VD51,2,A*%
%TO.N,Net-(CP96-Pad1)*%
X264286000Y126482000D03*
%TD*%
D15*
%TO.P,CP80,1,1*%
%TO.N,Net-(CP80-Pad1)*%
X232408000Y126482000D03*
%TD*%
D11*
%TO.P,R49,1*%
%TO.N,Net-(CP59-Pad1)*%
X176074700Y152400000D03*
%TO.P,R49,2*%
%TO.N,GNDD*%
X177899700Y152400000D03*
%TD*%
D14*
%TO.P,VT20,1,B*%
%TO.N,Net-(CP79-Pad1)*%
X229426000Y109480000D03*
%TO.P,VT20,2,E*%
%TO.N,GNDD*%
X231326000Y109480000D03*
%TO.P,VT20,3,C*%
%TO.N,Net-(CP80-Pad1)*%
X230376000Y111480000D03*
%TD*%
D15*
%TO.P,CP56,1,1*%
%TO.N,Net-(CP56-Pad1)*%
X158699000Y126482000D03*
%TD*%
D29*
%TO.P,VD52,1,K*%
%TO.N,Net-(R80-Pad1)*%
X13032500Y92202000D03*
%TO.P,VD52,2,A*%
%TO.N,+5V*%
X14907500Y92202000D03*
%TD*%
D15*
%TO.P,CP40,1,1*%
%TO.N,Net-(CP40-Pad1)*%
X123190000Y126482000D03*
%TD*%
D10*
%TO.P,VD34,1,K*%
%TO.N,Net-(R53-Pad1)*%
X173860700Y129794000D03*
%TO.P,VD34,2,A*%
%TO.N,+5V*%
X171985700Y129794000D03*
%TD*%
D19*
%TO.P,K13,1*%
%TO.N,+5V*%
X151537000Y168110000D03*
%TO.P,K13,2*%
%TO.N,N/C*%
X151537000Y164910000D03*
%TO.P,K13,3*%
%TO.N,/INSTR+*%
X151537000Y162710000D03*
%TO.P,K13,4*%
%TO.N,/CTRL13*%
X151537000Y160510000D03*
%TO.P,K13,5*%
%TO.N,N/C*%
X158537000Y160510000D03*
%TO.P,K13,6*%
X158537000Y162710000D03*
%TO.P,K13,7*%
X158537000Y164910000D03*
%TO.P,K13,8*%
%TO.N,Net-(CP52-Pad1)*%
X158537000Y168110000D03*
%TD*%
D20*
%TO.P,BB5,1*%
%TO.N,unconnected-(BB5-Pad1)*%
X284226000Y128778000D03*
X284226000Y113538000D03*
X284226000Y123698000D03*
X284226000Y121158000D03*
X284226000Y118618000D03*
X284226000Y116078000D03*
D21*
%TO.P,BB5,2*%
%TO.N,unconnected-(BB5-Pad2)*%
X286766000Y121158000D03*
X286766000Y116078000D03*
X286766000Y128778000D03*
X286766000Y113538000D03*
X286766000Y118618000D03*
X286766000Y123698000D03*
%TO.P,BB5,3*%
%TO.N,unconnected-(BB5-Pad3)*%
X289306000Y116078000D03*
X289306000Y123698000D03*
X289306000Y128778000D03*
X289306000Y113538000D03*
X289306000Y121158000D03*
X289306000Y118618000D03*
%TO.P,BB5,4*%
%TO.N,unconnected-(BB5-Pad4)*%
X291846000Y128778000D03*
X291846000Y116078000D03*
X291846000Y118618000D03*
X291846000Y123698000D03*
X291846000Y113538000D03*
X291846000Y121158000D03*
%TO.P,BB5,5*%
%TO.N,unconnected-(BB5-Pad5)*%
X294386000Y113538000D03*
X294386000Y121158000D03*
X294386000Y118618000D03*
X294386000Y123698000D03*
X294386000Y128778000D03*
X294386000Y116078000D03*
%TO.P,BB5,6*%
%TO.N,unconnected-(BB5-Pad6)*%
X296926000Y113538000D03*
X296926000Y118618000D03*
X296926000Y128778000D03*
X296926000Y116078000D03*
X296926000Y121158000D03*
X296926000Y123698000D03*
%TO.P,BB5,7*%
%TO.N,unconnected-(BB5-Pad7)*%
X299466000Y121158000D03*
X299466000Y123698000D03*
X299466000Y113538000D03*
X299466000Y116078000D03*
X299466000Y118618000D03*
X299466000Y128778000D03*
%TO.P,BB5,8*%
%TO.N,unconnected-(BB5-Pad8)*%
X302006000Y121158000D03*
X302006000Y123698000D03*
X302006000Y113538000D03*
X302006000Y128778000D03*
X302006000Y116078000D03*
X302006000Y118618000D03*
%TO.P,BB5,9*%
%TO.N,unconnected-(BB5-Pad9)*%
X302006000Y144018000D03*
X302006000Y141478000D03*
X302006000Y151638000D03*
X302006000Y149098000D03*
X302006000Y146558000D03*
X302006000Y136398000D03*
%TO.P,BB5,10*%
%TO.N,unconnected-(BB5-Pad10)*%
X299466000Y141478000D03*
X299466000Y136398000D03*
X299466000Y151638000D03*
X299466000Y144018000D03*
X299466000Y146558000D03*
X299466000Y149098000D03*
%TO.P,BB5,11*%
%TO.N,unconnected-(BB5-Pad11)*%
X296926000Y144018000D03*
X296926000Y146558000D03*
X296926000Y151638000D03*
X296926000Y136398000D03*
X296926000Y141478000D03*
X296926000Y149098000D03*
%TO.P,BB5,12*%
%TO.N,unconnected-(BB5-Pad12)*%
X294386000Y151638000D03*
X294386000Y141478000D03*
X294386000Y149098000D03*
X294386000Y144018000D03*
X294386000Y146558000D03*
X294386000Y136398000D03*
%TO.P,BB5,13*%
%TO.N,unconnected-(BB5-Pad13)*%
X291846000Y141478000D03*
X291846000Y149098000D03*
X291846000Y151638000D03*
X291846000Y136398000D03*
X291846000Y146558000D03*
X291846000Y144018000D03*
%TO.P,BB5,14*%
%TO.N,unconnected-(BB5-Pad14)*%
X289306000Y149098000D03*
X289306000Y141478000D03*
X289306000Y141478000D03*
X289306000Y144018000D03*
X289306000Y151638000D03*
X289306000Y136398000D03*
X289306000Y146558000D03*
%TO.P,BB5,15*%
%TO.N,unconnected-(BB5-Pad15)*%
X286766000Y141478000D03*
X286766000Y151638000D03*
X286766000Y149098000D03*
X286766000Y141478000D03*
X286766000Y146558000D03*
X286766000Y151638000D03*
X286766000Y136398000D03*
X286766000Y149098000D03*
X286766000Y144018000D03*
X286766000Y144018000D03*
X286766000Y146558000D03*
%TO.P,BB5,16*%
%TO.N,unconnected-(BB5-Pad16)*%
X284226000Y144018000D03*
X284226000Y141478000D03*
X284226000Y151638000D03*
X284226000Y136398000D03*
X284226000Y146558000D03*
X284226000Y149098000D03*
%TD*%
D11*
%TO.P,R34,1*%
%TO.N,Net-(CP39-Pad1)*%
X120245500Y106680000D03*
%TO.P,R34,2*%
%TO.N,GNDD*%
X122070500Y106680000D03*
%TD*%
%TO.P,R74,1*%
%TO.N,Net-(R74-Pad1)*%
X265914500Y175514000D03*
%TO.P,R74,2*%
%TO.N,Net-(CP92-Pad1)*%
X267739500Y175514000D03*
%TD*%
D15*
%TO.P,CP29,1,1*%
%TO.N,/INSTR+*%
X78486000Y106416000D03*
%TD*%
D11*
%TO.P,R19,1*%
%TO.N,Net-(CP19-Pad1)*%
X64331500Y152410000D03*
%TO.P,R19,2*%
%TO.N,GNDD*%
X66156500Y152410000D03*
%TD*%
D19*
%TO.P,K20,1*%
%TO.N,+5V*%
X225246000Y122380000D03*
%TO.P,K20,2*%
%TO.N,N/C*%
X225246000Y119180000D03*
%TO.P,K20,3*%
%TO.N,/INSTR+*%
X225246000Y116980000D03*
%TO.P,K20,4*%
%TO.N,/CTRL20*%
X225246000Y114780000D03*
%TO.P,K20,5*%
%TO.N,N/C*%
X232246000Y114780000D03*
%TO.P,K20,6*%
X232246000Y116980000D03*
%TO.P,K20,7*%
X232246000Y119180000D03*
%TO.P,K20,8*%
%TO.N,Net-(CP80-Pad1)*%
X232246000Y122380000D03*
%TD*%
D12*
%TO.P,R24,1*%
%TO.N,/RL7*%
X83970500Y149860000D03*
%TO.P,R24,2*%
%TO.N,Net-(CP27-Pad1)*%
X82145500Y149860000D03*
%TD*%
D15*
%TO.P,CP72,1,1*%
%TO.N,Net-(CP72-Pad1)*%
X214606000Y126482000D03*
%TD*%
%TO.P,CP58,1,1*%
%TO.N,/CTRL15*%
X172415200Y154676000D03*
%TD*%
%TO.P,CP98,1,1*%
%TO.N,/MCU+*%
X17272000Y107950000D03*
%TD*%
D14*
%TO.P,VT21,1,B*%
%TO.N,Net-(CP83-Pad1)*%
X247081000Y155210000D03*
%TO.P,VT21,2,E*%
%TO.N,GNDD*%
X248981000Y155210000D03*
%TO.P,VT21,3,C*%
%TO.N,Net-(CP84-Pad1)*%
X248031000Y157210000D03*
%TD*%
D11*
%TO.P,R41,1*%
%TO.N,Net-(R41-Pad1)*%
X138991500Y129784000D03*
%TO.P,R41,2*%
%TO.N,Net-(CP48-Pad1)*%
X140816500Y129784000D03*
%TD*%
D13*
%TO.P,VD21,1,K*%
%TO.N,+5V*%
X116206000Y172212000D03*
%TO.P,VD21,2,A*%
%TO.N,Net-(CP36-Pad1)*%
X119506000Y172212000D03*
%TD*%
D12*
%TO.P,R69,1*%
%TO.N,/RL22*%
X249024300Y104130000D03*
%TO.P,R69,2*%
%TO.N,Net-(CP87-Pad1)*%
X247199300Y104130000D03*
%TD*%
D13*
%TO.P,VD43,1,K*%
%TO.N,+5V*%
X225424000Y126482000D03*
%TO.P,VD43,2,A*%
%TO.N,Net-(CP80-Pad1)*%
X228724000Y126482000D03*
%TD*%
D12*
%TO.P,R30,1*%
%TO.N,/RL9*%
X122070500Y149860000D03*
%TO.P,R30,2*%
%TO.N,Net-(CP35-Pad1)*%
X120245500Y149860000D03*
%TD*%
D13*
%TO.P,VD29,1,K*%
%TO.N,+5V*%
X151715000Y172212000D03*
%TO.P,VD29,2,A*%
%TO.N,Net-(CP52-Pad1)*%
X155015000Y172212000D03*
%TD*%
D11*
%TO.P,R43,1*%
%TO.N,Net-(CP51-Pad1)*%
X155754500Y152410000D03*
%TO.P,R43,2*%
%TO.N,GNDD*%
X157579500Y152410000D03*
%TD*%
D19*
%TO.P,K24,1*%
%TO.N,+5V*%
X260808000Y122380000D03*
%TO.P,K24,2*%
%TO.N,N/C*%
X260808000Y119180000D03*
%TO.P,K24,3*%
%TO.N,/INSTR+*%
X260808000Y116980000D03*
%TO.P,K24,4*%
%TO.N,/CTRL24*%
X260808000Y114780000D03*
%TO.P,K24,5*%
%TO.N,N/C*%
X267808000Y114780000D03*
%TO.P,K24,6*%
X267808000Y116980000D03*
%TO.P,K24,7*%
X267808000Y119180000D03*
%TO.P,K24,8*%
%TO.N,Net-(CP96-Pad1)*%
X267808000Y122380000D03*
%TD*%
D13*
%TO.P,VD33,1,K*%
%TO.N,+5V*%
X172035200Y172202000D03*
%TO.P,VD33,2,A*%
%TO.N,Net-(CP60-Pad1)*%
X175335200Y172202000D03*
%TD*%
%TO.P,VD37,1,K*%
%TO.N,+5V*%
X207646000Y172212000D03*
%TO.P,VD37,2,A*%
%TO.N,Net-(CP68-Pad1)*%
X210946000Y172212000D03*
%TD*%
D19*
%TO.P,K4,1*%
%TO.N,+5V*%
X42449000Y122380000D03*
%TO.P,K4,2*%
%TO.N,N/C*%
X42449000Y119180000D03*
%TO.P,K4,3*%
%TO.N,/INSTR+*%
X42449000Y116980000D03*
%TO.P,K4,4*%
%TO.N,/CTRL4*%
X42449000Y114780000D03*
%TO.P,K4,5*%
%TO.N,N/C*%
X49449000Y114780000D03*
%TO.P,K4,6*%
X49449000Y116980000D03*
%TO.P,K4,7*%
X49449000Y119180000D03*
%TO.P,K4,8*%
%TO.N,Net-(CP16-Pad1)*%
X49449000Y122380000D03*
%TD*%
D11*
%TO.P,R46,1*%
%TO.N,Net-(CP55-Pad1)*%
X155754500Y106680000D03*
%TO.P,R46,2*%
%TO.N,GNDD*%
X157579500Y106680000D03*
%TD*%
D15*
%TO.P,CP48,1,1*%
%TO.N,Net-(CP48-Pad1)*%
X140920000Y126482000D03*
%TD*%
%TO.P,CP103,1,1*%
%TO.N,/2_MCU/SYNC OUT*%
X71120000Y15240000D03*
%TD*%
D10*
%TO.P,VD48,1,K*%
%TO.N,Net-(R74-Pad1)*%
X262684500Y175514000D03*
%TO.P,VD48,2,A*%
%TO.N,+5V*%
X260809500Y175514000D03*
%TD*%
D15*
%TO.P,CP86,1,1*%
%TO.N,/CTRL22*%
X243539800Y108956000D03*
%TD*%
D11*
%TO.P,R7,1*%
%TO.N,Net-(CP3-Pad1)*%
X28805500Y152410000D03*
%TO.P,R7,2*%
%TO.N,GNDD*%
X30630500Y152410000D03*
%TD*%
D15*
%TO.P,CP91,1,1*%
%TO.N,Net-(CP91-Pad1)*%
X261239000Y157226000D03*
%TD*%
D11*
%TO.P,R76,1*%
%TO.N,Net-(CP95-Pad1)*%
X265025500Y106680000D03*
%TO.P,R76,2*%
%TO.N,GNDD*%
X266850500Y106680000D03*
%TD*%
%TO.P,R71,1*%
%TO.N,Net-(R71-Pad1)*%
X248215300Y129784000D03*
%TO.P,R71,2*%
%TO.N,Net-(CP88-Pad1)*%
X250040300Y129784000D03*
%TD*%
D15*
%TO.P,CP14,1,1*%
%TO.N,/CTRL4*%
X43007000Y108956000D03*
%TD*%
D13*
%TO.P,VD9,1,K*%
%TO.N,+5V*%
X42627000Y172212000D03*
%TO.P,VD9,2,A*%
%TO.N,Net-(CP12-Pad1)*%
X45927000Y172212000D03*
%TD*%
D12*
%TO.P,R51,1*%
%TO.N,/RL16*%
X177899700Y104140000D03*
%TO.P,R51,2*%
%TO.N,Net-(CP63-Pad1)*%
X176074700Y104140000D03*
%TD*%
D13*
%TO.P,VD53,1,K*%
%TO.N,+5V*%
X14858000Y96266000D03*
%TO.P,VD53,2,A*%
%TO.N,Net-(CP100-Pad1)*%
X11558000Y96266000D03*
%TD*%
D10*
%TO.P,VD3,1,K*%
%TO.N,/MCU_GND*%
X123365500Y50800000D03*
%TO.P,VD3,2,A*%
%TO.N,Net-(R3-Pad2)*%
X121490500Y50800000D03*
%TD*%
D11*
%TO.P,R23,1*%
%TO.N,Net-(R23-Pad1)*%
X65347500Y129784000D03*
%TO.P,R23,2*%
%TO.N,Net-(CP24-Pad1)*%
X67172500Y129784000D03*
%TD*%
D15*
%TO.P,CP87,1,1*%
%TO.N,Net-(CP87-Pad1)*%
X243539800Y111496000D03*
%TD*%
D13*
%TO.P,VD13,1,K*%
%TO.N,+5V*%
X60292000Y172212000D03*
%TO.P,VD13,2,A*%
%TO.N,Net-(CP20-Pad1)*%
X63592000Y172212000D03*
%TD*%
%TO.P,VD11,1,K*%
%TO.N,+5V*%
X42627000Y126482000D03*
%TO.P,VD11,2,A*%
%TO.N,Net-(CP16-Pad1)*%
X45927000Y126482000D03*
%TD*%
D12*
%TO.P,R54,1*%
%TO.N,/RL17*%
X213510500Y149860000D03*
%TO.P,R54,2*%
%TO.N,Net-(CP67-Pad1)*%
X211685500Y149860000D03*
%TD*%
D19*
%TO.P,K16,1*%
%TO.N,+5V*%
X171857200Y122390000D03*
%TO.P,K16,2*%
%TO.N,N/C*%
X171857200Y119190000D03*
%TO.P,K16,3*%
%TO.N,/INSTR+*%
X171857200Y116990000D03*
%TO.P,K16,4*%
%TO.N,/CTRL16*%
X171857200Y114790000D03*
%TO.P,K16,5*%
%TO.N,N/C*%
X178857200Y114790000D03*
%TO.P,K16,6*%
X178857200Y116990000D03*
%TO.P,K16,7*%
X178857200Y119190000D03*
%TO.P,K16,8*%
%TO.N,Net-(CP64-Pad1)*%
X178857200Y122390000D03*
%TD*%
D12*
%TO.P,R72,1*%
%TO.N,/RL23*%
X266723500Y149860000D03*
%TO.P,R72,2*%
%TO.N,Net-(CP91-Pad1)*%
X264898500Y149860000D03*
%TD*%
D10*
%TO.P,VD30,1,K*%
%TO.N,Net-(R47-Pad1)*%
X153540500Y129784000D03*
%TO.P,VD30,2,A*%
%TO.N,+5V*%
X151665500Y129784000D03*
%TD*%
D15*
%TO.P,CP9,1,1*%
%TO.N,/INSTR+*%
X43007000Y152146000D03*
%TD*%
D16*
%TO.P,BB7,1*%
%TO.N,unconnected-(BB7-Pad1)*%
X151638000Y64928000D03*
X149098000Y64928000D03*
X141478000Y64928000D03*
X144018000Y64928000D03*
X156718000Y64928000D03*
X146558000Y64928000D03*
D17*
%TO.P,BB7,2*%
%TO.N,unconnected-(BB7-Pad2)*%
X144018000Y62388000D03*
X156718000Y62388000D03*
X149098000Y62388000D03*
X141478000Y62388000D03*
X151638000Y62388000D03*
X146558000Y62388000D03*
%TO.P,BB7,3*%
%TO.N,unconnected-(BB7-Pad3)*%
X151638000Y59848000D03*
X141478000Y59848000D03*
X144018000Y59848000D03*
X156718000Y59848000D03*
X146558000Y59848000D03*
X149098000Y59848000D03*
%TO.P,BB7,4*%
%TO.N,unconnected-(BB7-Pad4)*%
X151638000Y57308000D03*
X146558000Y57308000D03*
X149098000Y57308000D03*
X156718000Y57308000D03*
X144018000Y57308000D03*
X141478000Y57308000D03*
%TO.P,BB7,5*%
%TO.N,unconnected-(BB7-Pad5)*%
X141478000Y54768000D03*
X144018000Y54768000D03*
X149098000Y54768000D03*
X156718000Y54768000D03*
X151638000Y54768000D03*
X146558000Y54768000D03*
%TO.P,BB7,6*%
%TO.N,unconnected-(BB7-Pad6)*%
X141478000Y52228000D03*
X151638000Y52228000D03*
X144018000Y52228000D03*
X149098000Y52228000D03*
X156718000Y52228000D03*
X146558000Y52228000D03*
%TO.P,BB7,7*%
%TO.N,unconnected-(BB7-Pad7)*%
X141478000Y49688000D03*
X149098000Y49688000D03*
X151638000Y49688000D03*
X156718000Y49688000D03*
X146558000Y49688000D03*
X144018000Y49688000D03*
%TO.P,BB7,8*%
%TO.N,unconnected-(BB7-Pad8)*%
X151638000Y47148000D03*
X141478000Y47148000D03*
X146558000Y47148000D03*
X149098000Y47148000D03*
X156718000Y47148000D03*
X144018000Y47148000D03*
%TO.P,BB7,9*%
%TO.N,unconnected-(BB7-Pad9)*%
X164338000Y47148000D03*
X179578000Y47148000D03*
X169418000Y47148000D03*
X177038000Y47148000D03*
X171958000Y47148000D03*
X174498000Y47148000D03*
%TO.P,BB7,10*%
%TO.N,unconnected-(BB7-Pad10)*%
X169418000Y49688000D03*
X164338000Y49688000D03*
X171958000Y49688000D03*
X179578000Y49688000D03*
X174498000Y49688000D03*
X177038000Y49688000D03*
%TO.P,BB7,11*%
%TO.N,unconnected-(BB7-Pad11)*%
X171958000Y52228000D03*
X179578000Y52228000D03*
X169418000Y52228000D03*
X177038000Y52228000D03*
X174498000Y52228000D03*
X164338000Y52228000D03*
%TO.P,BB7,12*%
%TO.N,unconnected-(BB7-Pad12)*%
X169418000Y54768000D03*
X174498000Y54768000D03*
X164338000Y54768000D03*
X179578000Y54768000D03*
X171958000Y54768000D03*
X177038000Y54768000D03*
%TO.P,BB7,13*%
%TO.N,unconnected-(BB7-Pad13)*%
X171958000Y57308000D03*
X164338000Y57308000D03*
X174498000Y57308000D03*
X177038000Y57308000D03*
X169418000Y57308000D03*
X179578000Y57308000D03*
%TO.P,BB7,14*%
%TO.N,unconnected-(BB7-Pad14)*%
X169418000Y59848000D03*
X164338000Y59848000D03*
X169418000Y59848000D03*
X179578000Y59848000D03*
X177038000Y59848000D03*
X174498000Y59848000D03*
X171958000Y59848000D03*
%TO.P,BB7,15*%
%TO.N,unconnected-(BB7-Pad15)*%
X169418000Y62388000D03*
X164338000Y62388000D03*
X179578000Y62388000D03*
X177038000Y62388000D03*
X171958000Y62388000D03*
X174498000Y62388000D03*
X174498000Y62388000D03*
X177038000Y62388000D03*
X179578000Y62388000D03*
X169418000Y62388000D03*
X171958000Y62388000D03*
%TO.P,BB7,16*%
%TO.N,unconnected-(BB7-Pad16)*%
X169418000Y64928000D03*
X177038000Y64928000D03*
X174498000Y64928000D03*
X179578000Y64928000D03*
X164338000Y64928000D03*
X171958000Y64928000D03*
%TD*%
D10*
%TO.P,VD16,1,K*%
%TO.N,Net-(R26-Pad1)*%
X79931500Y175514000D03*
%TO.P,VD16,2,A*%
%TO.N,+5V*%
X78056500Y175514000D03*
%TD*%
%TO.P,VD42,1,K*%
%TO.N,Net-(R65-Pad1)*%
X227249500Y129784000D03*
%TO.P,VD42,2,A*%
%TO.N,+5V*%
X225374500Y129784000D03*
%TD*%
D15*
%TO.P,CP76,1,1*%
%TO.N,Net-(CP76-Pad1)*%
X232410000Y172212000D03*
%TD*%
D14*
%TO.P,VT23,1,B*%
%TO.N,Net-(CP91-Pad1)*%
X264861000Y155210000D03*
%TO.P,VT23,2,E*%
%TO.N,GNDD*%
X266761000Y155210000D03*
%TO.P,VT23,3,C*%
%TO.N,Net-(CP92-Pad1)*%
X265811000Y157210000D03*
%TD*%
D11*
%TO.P,R65,1*%
%TO.N,Net-(R65-Pad1)*%
X230479500Y129784000D03*
%TO.P,R65,2*%
%TO.N,Net-(CP80-Pad1)*%
X232304500Y129784000D03*
%TD*%
D15*
%TO.P,CP15,1,1*%
%TO.N,Net-(CP15-Pad1)*%
X43007000Y111496000D03*
%TD*%
D22*
%TO.P,X4,1,1*%
%TO.N,/CTRL1*%
X45880000Y185166000D03*
D23*
%TO.P,X4,2,2*%
%TO.N,/CTRL2*%
X48380000Y185166000D03*
%TO.P,X4,3,3*%
%TO.N,/CTRL3*%
X50880000Y185166000D03*
%TO.P,X4,4,4*%
%TO.N,/CTRL4*%
X53380000Y185166000D03*
%TO.P,X4,5,5*%
%TO.N,/CTRL5*%
X55880000Y185166000D03*
%TO.P,X4,6,6*%
%TO.N,/CTRL6*%
X58380000Y185166000D03*
%TO.P,X4,7,7*%
%TO.N,/CTRL7*%
X60880000Y185166000D03*
%TO.P,X4,8,8*%
%TO.N,/CTRL8*%
X63380000Y185166000D03*
%TO.P,X4,9,9*%
%TO.N,N/C*%
X65880000Y185166000D03*
%TO.P,X4,10,10*%
%TO.N,GNDD*%
X68380000Y185166000D03*
%TD*%
D13*
%TO.P,VD27,1,K*%
%TO.N,+5V*%
X133936000Y126482000D03*
%TO.P,VD27,2,A*%
%TO.N,Net-(CP48-Pad1)*%
X137236000Y126482000D03*
%TD*%
D19*
%TO.P,K19,1*%
%TO.N,+5V*%
X225248000Y168110000D03*
%TO.P,K19,2*%
%TO.N,N/C*%
X225248000Y164910000D03*
%TO.P,K19,3*%
%TO.N,/INSTR+*%
X225248000Y162710000D03*
%TO.P,K19,4*%
%TO.N,/CTRL19*%
X225248000Y160510000D03*
%TO.P,K19,5*%
%TO.N,N/C*%
X232248000Y160510000D03*
%TO.P,K19,6*%
X232248000Y162710000D03*
%TO.P,K19,7*%
X232248000Y164910000D03*
%TO.P,K19,8*%
%TO.N,Net-(CP76-Pad1)*%
X232248000Y168110000D03*
%TD*%
D22*
%TO.P,X5,1,1*%
%TO.N,/CTRL9*%
X137340000Y185166000D03*
D23*
%TO.P,X5,2,2*%
%TO.N,/CTRL10*%
X139840000Y185166000D03*
%TO.P,X5,3,3*%
%TO.N,/CTRL11*%
X142340000Y185166000D03*
%TO.P,X5,4,4*%
%TO.N,/CTRL12*%
X144840000Y185166000D03*
%TO.P,X5,5,5*%
%TO.N,/CTRL13*%
X147340000Y185166000D03*
%TO.P,X5,6,6*%
%TO.N,/CTRL14*%
X149840000Y185166000D03*
%TO.P,X5,7,7*%
%TO.N,/CTRL15*%
X152340000Y185166000D03*
%TO.P,X5,8,8*%
%TO.N,/CTRL16*%
X154840000Y185166000D03*
%TO.P,X5,9,9*%
%TO.N,N/C*%
X157340000Y185166000D03*
%TO.P,X5,10,10*%
%TO.N,GNDD*%
X159840000Y185166000D03*
%TD*%
D15*
%TO.P,CP46,1,1*%
%TO.N,/CTRL12*%
X134316000Y108956000D03*
%TD*%
D22*
%TO.P,X2,1,1*%
%TO.N,/INSTR+*%
X54436000Y6142000D03*
D23*
%TO.P,X2,2,2*%
%TO.N,/2_MCU/SYNC OUT*%
X56936000Y6142000D03*
%TO.P,X2,3,3*%
%TO.N,/2_MCU/SYNC IN*%
X59436000Y6142000D03*
%TO.P,X2,4,4*%
%TO.N,GNDD*%
X61936000Y6142000D03*
%TO.P,X2,5,5*%
X64436000Y6142000D03*
%TD*%
D12*
%TO.P,R18,1*%
%TO.N,/RL5*%
X66156500Y149860000D03*
%TO.P,R18,2*%
%TO.N,Net-(CP19-Pad1)*%
X64331500Y149860000D03*
%TD*%
D30*
%TO.P,R5,1*%
%TO.N,/MCU+*%
X108458000Y8231500D03*
%TO.P,R5,2*%
%TO.N,Net-(DD1-Pad20)*%
X108458000Y10056500D03*
%TD*%
D13*
%TO.P,VD5,1,K*%
%TO.N,+5V*%
X24766000Y172212000D03*
%TO.P,VD5,2,A*%
%TO.N,Net-(CP4-Pad1)*%
X28066000Y172212000D03*
%TD*%
D14*
%TO.P,VT22,1,B*%
%TO.N,Net-(CP87-Pad1)*%
X247161800Y109480000D03*
%TO.P,VT22,2,E*%
%TO.N,GNDD*%
X249061800Y109480000D03*
%TO.P,VT22,3,C*%
%TO.N,Net-(CP88-Pad1)*%
X248111800Y111480000D03*
%TD*%
D15*
%TO.P,CP24,1,1*%
%TO.N,Net-(CP24-Pad1)*%
X67276000Y126482000D03*
%TD*%
%TO.P,CP78,1,1*%
%TO.N,/CTRL20*%
X225804000Y108956000D03*
%TD*%
D14*
%TO.P,VT16,1,B*%
%TO.N,Net-(CP63-Pad1)*%
X176037200Y109490000D03*
%TO.P,VT16,2,E*%
%TO.N,GNDD*%
X177937200Y109490000D03*
%TO.P,VT16,3,C*%
%TO.N,Net-(CP64-Pad1)*%
X176987200Y111490000D03*
%TD*%
D13*
%TO.P,VD31,1,K*%
%TO.N,+5V*%
X151715000Y126482000D03*
%TO.P,VD31,2,A*%
%TO.N,Net-(CP56-Pad1)*%
X155015000Y126482000D03*
%TD*%
D11*
%TO.P,R58,1*%
%TO.N,Net-(CP71-Pad1)*%
X211661500Y106680000D03*
%TO.P,R58,2*%
%TO.N,GNDD*%
X213486500Y106680000D03*
%TD*%
D15*
%TO.P,CP101,1,1*%
%TO.N,GNDD*%
X3940000Y105664000D03*
%TD*%
D10*
%TO.P,VD28,1,K*%
%TO.N,Net-(R44-Pad1)*%
X153540500Y175514000D03*
%TO.P,VD28,2,A*%
%TO.N,+5V*%
X151665500Y175514000D03*
%TD*%
D12*
%TO.P,R39,1*%
%TO.N,/RL12*%
X139800500Y104130000D03*
%TO.P,R39,2*%
%TO.N,Net-(CP47-Pad1)*%
X137975500Y104130000D03*
%TD*%
D15*
%TO.P,CP33,1,1*%
%TO.N,/INSTR+*%
X116586000Y152146000D03*
%TD*%
D11*
%TO.P,R11,1*%
%TO.N,Net-(R11-Pad1)*%
X29821500Y129784000D03*
%TO.P,R11,2*%
%TO.N,Net-(CP8-Pad1)*%
X31646500Y129784000D03*
%TD*%
D14*
%TO.P,VT2,1,B*%
%TO.N,Net-(CP7-Pad1)*%
X28768000Y109480000D03*
%TO.P,VT2,2,E*%
%TO.N,GNDD*%
X30668000Y109480000D03*
%TO.P,VT2,3,C*%
%TO.N,Net-(CP8-Pad1)*%
X29718000Y111480000D03*
%TD*%
D13*
%TO.P,VD39,1,K*%
%TO.N,+5V*%
X207622000Y126482000D03*
%TO.P,VD39,2,A*%
%TO.N,Net-(CP72-Pad1)*%
X210922000Y126482000D03*
%TD*%
D11*
%TO.P,R25,1*%
%TO.N,Net-(CP27-Pad1)*%
X82145500Y152410000D03*
%TO.P,R25,2*%
%TO.N,GNDD*%
X83970500Y152410000D03*
%TD*%
%TO.P,R13,1*%
%TO.N,Net-(CP11-Pad1)*%
X46666500Y152410000D03*
%TO.P,R13,2*%
%TO.N,GNDD*%
X48491500Y152410000D03*
%TD*%
D15*
%TO.P,CP51,1,1*%
%TO.N,Net-(CP51-Pad1)*%
X152095000Y157226000D03*
%TD*%
%TO.P,DD1,1,D13/PB5(SCK)*%
%TO.N,/2_MCU/SCK*%
X95504000Y63500000D03*
D28*
%TO.P,DD1,2,+3v3*%
%TO.N,N/C*%
X95504000Y60960000D03*
%TO.P,DD1,3,AREF*%
X95504000Y58420000D03*
%TO.P,DD1,4,A0/PC0*%
X95504000Y55880000D03*
%TO.P,DD1,5,A1/PC1*%
X95504000Y53340000D03*
%TO.P,DD1,6,A2/PC2*%
X95504000Y50800000D03*
%TO.P,DD1,7,A3/PC3*%
X95504000Y48260000D03*
%TO.P,DD1,8,A4/PC4*%
%TO.N,Net-(DD1-Pad8)*%
X95504000Y45720000D03*
%TO.P,DD1,9,A5/PC5*%
%TO.N,Net-(DD1-Pad9)*%
X95504000Y43180000D03*
%TO.P,DD1,10,A6/ADC[6]*%
%TO.N,N/C*%
X95504000Y40640000D03*
%TO.P,DD1,11,A7/ADC[7]*%
X95504000Y38100000D03*
%TO.P,DD1,12,+5V*%
%TO.N,/MCU+*%
X95504000Y35560000D03*
%TO.P,DD1,13,RESET/PC6*%
%TO.N,N/C*%
X95504000Y33020000D03*
%TO.P,DD1,14,GND*%
%TO.N,/MCU_GND*%
X95504000Y30480000D03*
%TO.P,DD1,15,Vin*%
%TO.N,N/C*%
X95504000Y27940000D03*
%TO.P,DD1,16,TX1/PD1*%
X110744000Y27940000D03*
%TO.P,DD1,17,RX0/PD0*%
X110744000Y30480000D03*
%TO.P,DD1,18,PC6/RESET*%
X110744000Y33020000D03*
%TO.P,DD1,19,GND*%
%TO.N,/MCU_GND*%
X110744000Y35560000D03*
%TO.P,DD1,20,D2/PD2*%
%TO.N,Net-(DD1-Pad20)*%
X110744000Y38100000D03*
%TO.P,DD1,21,D3/PD3*%
%TO.N,Net-(DD1-Pad21)*%
X110744000Y40640000D03*
%TO.P,DD1,22,D4/PD4*%
%TO.N,/2_MCU/SYNC IN*%
X110744000Y43180000D03*
%TO.P,DD1,23,D5/PD5*%
%TO.N,/2_MCU/SYNC OUT*%
X110744000Y45720000D03*
%TO.P,DD1,24,D6/PD6*%
%TO.N,N/C*%
X110744000Y48260000D03*
%TO.P,DD1,25,D7/PD7*%
%TO.N,Net-(DD1-Pad25)*%
X110744000Y50800000D03*
%TO.P,DD1,26,D8/PB0*%
%TO.N,N/C*%
X110744000Y53340000D03*
%TO.P,DD1,27,D9/PB1*%
%TO.N,Net-(DD1-Pad27)*%
X110744000Y55880000D03*
%TO.P,DD1,28,D10/PB2(CS/SS)*%
%TO.N,/2_MCU/CS{slash}SS*%
X110744000Y58420000D03*
%TO.P,DD1,29,D11/PB3(MOSI)*%
%TO.N,/2_MCU/MOSI*%
X110744000Y60960000D03*
D31*
%TO.P,DD1,30,D12/PB4(MISO)*%
%TO.N,N/C*%
X110744000Y63500000D03*
%TD*%
D15*
%TO.P,CP65,1,1*%
%TO.N,/INSTR+*%
X208026000Y152146000D03*
%TD*%
D10*
%TO.P,VD36,1,K*%
%TO.N,Net-(R56-Pad1)*%
X209471500Y175514000D03*
%TO.P,VD36,2,A*%
%TO.N,+5V*%
X207596500Y175514000D03*
%TD*%
D19*
%TO.P,K21,1*%
%TO.N,+5V*%
X242901000Y168110000D03*
%TO.P,K21,2*%
%TO.N,N/C*%
X242901000Y164910000D03*
%TO.P,K21,3*%
%TO.N,/INSTR+*%
X242901000Y162710000D03*
%TO.P,K21,4*%
%TO.N,/CTRL21*%
X242901000Y160510000D03*
%TO.P,K21,5*%
%TO.N,N/C*%
X249901000Y160510000D03*
%TO.P,K21,6*%
X249901000Y162710000D03*
%TO.P,K21,7*%
X249901000Y164910000D03*
%TO.P,K21,8*%
%TO.N,Net-(CP84-Pad1)*%
X249901000Y168110000D03*
%TD*%
D15*
%TO.P,CP75,1,1*%
%TO.N,Net-(CP75-Pad1)*%
X225806000Y157226000D03*
%TD*%
%TO.P,CP67,1,1*%
%TO.N,Net-(CP67-Pad1)*%
X208026000Y157226000D03*
%TD*%
D14*
%TO.P,VT14,1,B*%
%TO.N,Net-(CP55-Pad1)*%
X155717000Y109480000D03*
%TO.P,VT14,2,E*%
%TO.N,GNDD*%
X157617000Y109480000D03*
%TO.P,VT14,3,C*%
%TO.N,Net-(CP56-Pad1)*%
X156667000Y111480000D03*
%TD*%
D15*
%TO.P,CP23,1,1*%
%TO.N,Net-(CP23-Pad1)*%
X60672000Y111496000D03*
%TD*%
D11*
%TO.P,R50,1*%
%TO.N,Net-(R50-Pad1)*%
X177090700Y175504000D03*
%TO.P,R50,2*%
%TO.N,Net-(CP60-Pad1)*%
X178915700Y175504000D03*
%TD*%
D12*
%TO.P,R6,1*%
%TO.N,/RL1*%
X30630500Y149860000D03*
%TO.P,R6,2*%
%TO.N,Net-(CP3-Pad1)*%
X28805500Y149860000D03*
%TD*%
D10*
%TO.P,VD12,1,K*%
%TO.N,Net-(R20-Pad1)*%
X62117500Y175514000D03*
%TO.P,VD12,2,A*%
%TO.N,+5V*%
X60242500Y175514000D03*
%TD*%
D19*
%TO.P,K3,1*%
%TO.N,+5V*%
X42449000Y168110000D03*
%TO.P,K3,2*%
%TO.N,N/C*%
X42449000Y164910000D03*
%TO.P,K3,3*%
%TO.N,/INSTR+*%
X42449000Y162710000D03*
%TO.P,K3,4*%
%TO.N,/CTRL3*%
X42449000Y160510000D03*
%TO.P,K3,5*%
%TO.N,N/C*%
X49449000Y160510000D03*
%TO.P,K3,6*%
X49449000Y162710000D03*
%TO.P,K3,7*%
X49449000Y164910000D03*
%TO.P,K3,8*%
%TO.N,Net-(CP12-Pad1)*%
X49449000Y168110000D03*
%TD*%
%TO.P,K15,1*%
%TO.N,+5V*%
X171857200Y168100000D03*
%TO.P,K15,2*%
%TO.N,N/C*%
X171857200Y164900000D03*
%TO.P,K15,3*%
%TO.N,/INSTR+*%
X171857200Y162700000D03*
%TO.P,K15,4*%
%TO.N,/CTRL15*%
X171857200Y160500000D03*
%TO.P,K15,5*%
%TO.N,N/C*%
X178857200Y160500000D03*
%TO.P,K15,6*%
X178857200Y162700000D03*
%TO.P,K15,7*%
X178857200Y164900000D03*
%TO.P,K15,8*%
%TO.N,Net-(CP60-Pad1)*%
X178857200Y168100000D03*
%TD*%
D14*
%TO.P,VT10,1,B*%
%TO.N,Net-(CP39-Pad1)*%
X120208000Y109480000D03*
%TO.P,VT10,2,E*%
%TO.N,GNDD*%
X122108000Y109480000D03*
%TO.P,VT10,3,C*%
%TO.N,Net-(CP40-Pad1)*%
X121158000Y111480000D03*
%TD*%
D10*
%TO.P,VD38,1,K*%
%TO.N,Net-(R59-Pad1)*%
X209447500Y129784000D03*
%TO.P,VD38,2,A*%
%TO.N,+5V*%
X207572500Y129784000D03*
%TD*%
D15*
%TO.P,CP66,1,1*%
%TO.N,/CTRL17*%
X208026000Y154686000D03*
%TD*%
%TO.P,CP53,1,1*%
%TO.N,/INSTR+*%
X152095000Y106416000D03*
%TD*%
D10*
%TO.P,VD50,1,K*%
%TO.N,Net-(R77-Pad1)*%
X262811500Y129784000D03*
%TO.P,VD50,2,A*%
%TO.N,+5V*%
X260936500Y129784000D03*
%TD*%
D20*
%TO.P,BB1,1*%
%TO.N,unconnected-(BB1-Pad1)*%
X5832000Y33528000D03*
X5832000Y23368000D03*
X5832000Y38608000D03*
X5832000Y28448000D03*
X5832000Y25908000D03*
X5832000Y30988000D03*
D21*
%TO.P,BB1,2*%
%TO.N,unconnected-(BB1-Pad2)*%
X8372000Y25908000D03*
X8372000Y23368000D03*
X8372000Y38608000D03*
X8372000Y28448000D03*
X8372000Y33528000D03*
X8372000Y30988000D03*
%TO.P,BB1,3*%
%TO.N,unconnected-(BB1-Pad3)*%
X10912000Y28448000D03*
X10912000Y38608000D03*
X10912000Y33528000D03*
X10912000Y23368000D03*
X10912000Y30988000D03*
X10912000Y25908000D03*
%TO.P,BB1,4*%
%TO.N,unconnected-(BB1-Pad4)*%
X13452000Y28448000D03*
X13452000Y38608000D03*
X13452000Y25908000D03*
X13452000Y33528000D03*
X13452000Y23368000D03*
X13452000Y30988000D03*
%TO.P,BB1,5*%
%TO.N,unconnected-(BB1-Pad5)*%
X15992000Y25908000D03*
X15992000Y38608000D03*
X15992000Y28448000D03*
X15992000Y23368000D03*
X15992000Y30988000D03*
X15992000Y33528000D03*
%TO.P,BB1,6*%
%TO.N,unconnected-(BB1-Pad6)*%
X18532000Y38608000D03*
X18532000Y28448000D03*
X18532000Y23368000D03*
X18532000Y30988000D03*
X18532000Y33528000D03*
X18532000Y25908000D03*
%TO.P,BB1,7*%
%TO.N,unconnected-(BB1-Pad7)*%
X21072000Y25908000D03*
X21072000Y33528000D03*
X21072000Y30988000D03*
X21072000Y28448000D03*
X21072000Y38608000D03*
X21072000Y23368000D03*
%TO.P,BB1,8*%
%TO.N,unconnected-(BB1-Pad8)*%
X23612000Y30988000D03*
X23612000Y38608000D03*
X23612000Y23368000D03*
X23612000Y25908000D03*
X23612000Y28448000D03*
X23612000Y33528000D03*
%TO.P,BB1,9*%
%TO.N,unconnected-(BB1-Pad9)*%
X23612000Y51308000D03*
X23612000Y53848000D03*
X23612000Y46228000D03*
X23612000Y56388000D03*
X23612000Y58928000D03*
X23612000Y61468000D03*
%TO.P,BB1,10*%
%TO.N,unconnected-(BB1-Pad10)*%
X21072000Y58928000D03*
X21072000Y56388000D03*
X21072000Y51308000D03*
X21072000Y53848000D03*
X21072000Y61468000D03*
X21072000Y46228000D03*
%TO.P,BB1,11*%
%TO.N,unconnected-(BB1-Pad11)*%
X18532000Y51308000D03*
X18532000Y46228000D03*
X18532000Y56388000D03*
X18532000Y61468000D03*
X18532000Y53848000D03*
X18532000Y58928000D03*
%TO.P,BB1,12*%
%TO.N,unconnected-(BB1-Pad12)*%
X15992000Y58928000D03*
X15992000Y51308000D03*
X15992000Y53848000D03*
X15992000Y61468000D03*
X15992000Y46228000D03*
X15992000Y56388000D03*
%TO.P,BB1,13*%
%TO.N,unconnected-(BB1-Pad13)*%
X13452000Y61468000D03*
X13452000Y56388000D03*
X13452000Y51308000D03*
X13452000Y46228000D03*
X13452000Y53848000D03*
X13452000Y58928000D03*
%TO.P,BB1,14*%
%TO.N,unconnected-(BB1-Pad14)*%
X10912000Y51308000D03*
X10912000Y51308000D03*
X10912000Y61468000D03*
X10912000Y58928000D03*
X10912000Y53848000D03*
X10912000Y56388000D03*
X10912000Y46228000D03*
%TO.P,BB1,15*%
%TO.N,unconnected-(BB1-Pad15)*%
X8372000Y51308000D03*
X8372000Y61468000D03*
X8372000Y61468000D03*
X8372000Y53848000D03*
X8372000Y58928000D03*
X8372000Y58928000D03*
X8372000Y56388000D03*
X8372000Y46228000D03*
X8372000Y53848000D03*
X8372000Y56388000D03*
X8372000Y51308000D03*
%TO.P,BB1,16*%
%TO.N,unconnected-(BB1-Pad16)*%
X5832000Y51308000D03*
X5832000Y56388000D03*
X5832000Y46228000D03*
X5832000Y53848000D03*
X5832000Y61468000D03*
X5832000Y58928000D03*
%TD*%
D10*
%TO.P,VD24,1,K*%
%TO.N,Net-(R38-Pad1)*%
X135761500Y175514000D03*
%TO.P,VD24,2,A*%
%TO.N,+5V*%
X133886500Y175514000D03*
%TD*%
D11*
%TO.P,R47,1*%
%TO.N,Net-(R47-Pad1)*%
X156770500Y129784000D03*
%TO.P,R47,2*%
%TO.N,Net-(CP56-Pad1)*%
X158595500Y129784000D03*
%TD*%
D15*
%TO.P,CP97,1,1*%
%TO.N,+5V*%
X7874000Y122428000D03*
%TD*%
%TO.P,CP44,1,1*%
%TO.N,Net-(CP44-Pad1)*%
X140920000Y172212000D03*
%TD*%
%TO.P,CP38,1,1*%
%TO.N,/CTRL10*%
X116586000Y108956000D03*
%TD*%
D11*
%TO.P,R10,1*%
%TO.N,Net-(CP7-Pad1)*%
X28805500Y106680000D03*
%TO.P,R10,2*%
%TO.N,GNDD*%
X30630500Y106680000D03*
%TD*%
D12*
%TO.P,R27,1*%
%TO.N,/RL8*%
X83970500Y104130000D03*
%TO.P,R27,2*%
%TO.N,Net-(CP31-Pad1)*%
X82145500Y104130000D03*
%TD*%
D19*
%TO.P,K23,1*%
%TO.N,+5V*%
X260681000Y168110000D03*
%TO.P,K23,2*%
%TO.N,N/C*%
X260681000Y164910000D03*
%TO.P,K23,3*%
%TO.N,/INSTR+*%
X260681000Y162710000D03*
%TO.P,K23,4*%
%TO.N,/CTRL23*%
X260681000Y160510000D03*
%TO.P,K23,5*%
%TO.N,N/C*%
X267681000Y160510000D03*
%TO.P,K23,6*%
X267681000Y162710000D03*
%TO.P,K23,7*%
X267681000Y164910000D03*
%TO.P,K23,8*%
%TO.N,Net-(CP92-Pad1)*%
X267681000Y168110000D03*
%TD*%
D14*
%TO.P,VT24,1,B*%
%TO.N,Net-(CP95-Pad1)*%
X264988000Y109480000D03*
%TO.P,VT24,2,E*%
%TO.N,GNDD*%
X266888000Y109480000D03*
%TO.P,VT24,3,C*%
%TO.N,Net-(CP96-Pad1)*%
X265938000Y111480000D03*
%TD*%
D11*
%TO.P,R53,1*%
%TO.N,Net-(R53-Pad1)*%
X177090700Y129794000D03*
%TO.P,R53,2*%
%TO.N,Net-(CP64-Pad1)*%
X178915700Y129794000D03*
%TD*%
D15*
%TO.P,CP4,1,1*%
%TO.N,Net-(CP4-Pad1)*%
X31750000Y172212000D03*
%TD*%
%TO.P,CP7,1,1*%
%TO.N,Net-(CP7-Pad1)*%
X25146000Y111496000D03*
%TD*%
%TO.P,CP81,1,1*%
%TO.N,/INSTR+*%
X243459000Y152146000D03*
%TD*%
%TO.P,CP62,1,1*%
%TO.N,/CTRL16*%
X172415200Y108966000D03*
%TD*%
%TO.P,CP54,1,1*%
%TO.N,/CTRL14*%
X152095000Y108956000D03*
%TD*%
%TO.P,CP100,1,1*%
%TO.N,Net-(CP100-Pad1)*%
X7874000Y96266000D03*
%TD*%
%TO.P,CP77,1,1*%
%TO.N,/INSTR+*%
X225804000Y106416000D03*
%TD*%
D11*
%TO.P,R44,1*%
%TO.N,Net-(R44-Pad1)*%
X156770500Y175514000D03*
%TO.P,R44,2*%
%TO.N,Net-(CP52-Pad1)*%
X158595500Y175514000D03*
%TD*%
D15*
%TO.P,CP35,1,1*%
%TO.N,Net-(CP35-Pad1)*%
X116586000Y157226000D03*
%TD*%
D19*
%TO.P,K9,1*%
%TO.N,+5V*%
X116028000Y168110000D03*
%TO.P,K9,2*%
%TO.N,N/C*%
X116028000Y164910000D03*
%TO.P,K9,3*%
%TO.N,/INSTR+*%
X116028000Y162710000D03*
%TO.P,K9,4*%
%TO.N,/CTRL9*%
X116028000Y160510000D03*
%TO.P,K9,5*%
%TO.N,N/C*%
X123028000Y160510000D03*
%TO.P,K9,6*%
X123028000Y162710000D03*
%TO.P,K9,7*%
X123028000Y164910000D03*
%TO.P,K9,8*%
%TO.N,Net-(CP36-Pad1)*%
X123028000Y168110000D03*
%TD*%
D15*
%TO.P,CP11,1,1*%
%TO.N,Net-(CP11-Pad1)*%
X43007000Y157226000D03*
%TD*%
D12*
%TO.P,R9,1*%
%TO.N,/RL2*%
X30630500Y104130000D03*
%TO.P,R9,2*%
%TO.N,Net-(CP7-Pad1)*%
X28805500Y104130000D03*
%TD*%
D15*
%TO.P,CP68,1,1*%
%TO.N,Net-(CP68-Pad1)*%
X214630000Y172212000D03*
%TD*%
%TO.P,CP92,1,1*%
%TO.N,Net-(CP92-Pad1)*%
X267843000Y172212000D03*
%TD*%
D11*
%TO.P,R73,1*%
%TO.N,Net-(CP91-Pad1)*%
X264898500Y152410000D03*
%TO.P,R73,2*%
%TO.N,GNDD*%
X266723500Y152410000D03*
%TD*%
D15*
%TO.P,CP52,1,1*%
%TO.N,Net-(CP52-Pad1)*%
X158699000Y172212000D03*
%TD*%
D13*
%TO.P,VD25,1,K*%
%TO.N,+5V*%
X133936000Y172212000D03*
%TO.P,VD25,2,A*%
%TO.N,Net-(CP44-Pad1)*%
X137236000Y172212000D03*
%TD*%
D11*
%TO.P,R40,1*%
%TO.N,Net-(CP47-Pad1)*%
X137975500Y106680000D03*
%TO.P,R40,2*%
%TO.N,GNDD*%
X139800500Y106680000D03*
%TD*%
D10*
%TO.P,VD8,1,K*%
%TO.N,Net-(R14-Pad1)*%
X44452500Y175514000D03*
%TO.P,VD8,2,A*%
%TO.N,+5V*%
X42577500Y175514000D03*
%TD*%
D15*
%TO.P,CP74,1,1*%
%TO.N,/CTRL19*%
X225806000Y154686000D03*
%TD*%
D20*
%TO.P,DD5,1,QB*%
%TO.N,/RL18*%
X230124000Y88890000D03*
D21*
%TO.P,DD5,2,QC*%
%TO.N,/RL19*%
X232664000Y88890000D03*
%TO.P,DD5,3,QD*%
%TO.N,/RL20*%
X235204000Y88890000D03*
%TO.P,DD5,4,QE*%
%TO.N,/RL21*%
X237744000Y88890000D03*
%TO.P,DD5,5,QF*%
%TO.N,/RL22*%
X240284000Y88890000D03*
%TO.P,DD5,6,QG*%
%TO.N,/RL23*%
X242824000Y88890000D03*
%TO.P,DD5,7,QH*%
%TO.N,/RL24*%
X245364000Y88890000D03*
%TO.P,DD5,8,GND*%
%TO.N,GNDD*%
X247904000Y88890000D03*
%TO.P,DD5,9,QH'*%
%TO.N,N/C*%
X247904000Y81270000D03*
%TO.P,DD5,10,~SRCLR*%
X245364000Y81270000D03*
%TO.P,DD5,11,SRCLK*%
%TO.N,/2_MCU/SCK*%
X242824000Y81270000D03*
%TO.P,DD5,12,RCLK*%
%TO.N,/2_MCU/CS{slash}SS*%
X240284000Y81270000D03*
%TO.P,DD5,13,~OE*%
%TO.N,GNDD*%
X237744000Y81270000D03*
%TO.P,DD5,14,SER*%
%TO.N,Net-(DD4-Pad9)*%
X235204000Y81270000D03*
%TO.P,DD5,15,QA*%
%TO.N,/RL17*%
X232664000Y81270000D03*
%TO.P,DD5,16,VCC*%
%TO.N,+5V*%
X230124000Y81270000D03*
%TD*%
D20*
%TO.P,DD3,1,QB*%
%TO.N,/RL2*%
X44948000Y88890000D03*
D21*
%TO.P,DD3,2,QC*%
%TO.N,/RL3*%
X47488000Y88890000D03*
%TO.P,DD3,3,QD*%
%TO.N,/RL4*%
X50028000Y88890000D03*
%TO.P,DD3,4,QE*%
%TO.N,/RL5*%
X52568000Y88890000D03*
%TO.P,DD3,5,QF*%
%TO.N,/RL6*%
X55108000Y88890000D03*
%TO.P,DD3,6,QG*%
%TO.N,/RL7*%
X57648000Y88890000D03*
%TO.P,DD3,7,QH*%
%TO.N,/RL8*%
X60188000Y88890000D03*
%TO.P,DD3,8,GND*%
%TO.N,GNDD*%
X62728000Y88890000D03*
%TO.P,DD3,9,QH'*%
%TO.N,Net-(DD3-Pad9)*%
X62728000Y81270000D03*
%TO.P,DD3,10,~SRCLR*%
%TO.N,N/C*%
X60188000Y81270000D03*
%TO.P,DD3,11,SRCLK*%
%TO.N,/2_MCU/SCK*%
X57648000Y81270000D03*
%TO.P,DD3,12,RCLK*%
%TO.N,/2_MCU/CS{slash}SS*%
X55108000Y81270000D03*
%TO.P,DD3,13,~OE*%
%TO.N,GNDD*%
X52568000Y81270000D03*
%TO.P,DD3,14,SER*%
%TO.N,/2_MCU/MOSI*%
X50028000Y81270000D03*
%TO.P,DD3,15,QA*%
%TO.N,/RL1*%
X47488000Y81270000D03*
%TO.P,DD3,16,VCC*%
%TO.N,+5V*%
X44948000Y81270000D03*
%TD*%
D20*
%TO.P,DD4,1,QB*%
%TO.N,/RL10*%
X137150000Y88890000D03*
D21*
%TO.P,DD4,2,QC*%
%TO.N,/RL11*%
X139690000Y88890000D03*
%TO.P,DD4,3,QD*%
%TO.N,/RL12*%
X142230000Y88890000D03*
%TO.P,DD4,4,QE*%
%TO.N,/RL13*%
X144770000Y88890000D03*
%TO.P,DD4,5,QF*%
%TO.N,/RL14*%
X147310000Y88890000D03*
%TO.P,DD4,6,QG*%
%TO.N,/RL15*%
X149850000Y88890000D03*
%TO.P,DD4,7,QH*%
%TO.N,/RL16*%
X152390000Y88890000D03*
%TO.P,DD4,8,GND*%
%TO.N,GNDD*%
X154930000Y88890000D03*
%TO.P,DD4,9,QH'*%
%TO.N,Net-(DD4-Pad9)*%
X154930000Y81270000D03*
%TO.P,DD4,10,~SRCLR*%
%TO.N,N/C*%
X152390000Y81270000D03*
%TO.P,DD4,11,SRCLK*%
%TO.N,/2_MCU/SCK*%
X149850000Y81270000D03*
%TO.P,DD4,12,RCLK*%
%TO.N,/2_MCU/CS{slash}SS*%
X147310000Y81270000D03*
%TO.P,DD4,13,~OE*%
%TO.N,GNDD*%
X144770000Y81270000D03*
%TO.P,DD4,14,SER*%
%TO.N,Net-(DD3-Pad9)*%
X142230000Y81270000D03*
%TO.P,DD4,15,QA*%
%TO.N,/RL9*%
X139690000Y81270000D03*
%TO.P,DD4,16,VCC*%
%TO.N,+5V*%
X137150000Y81270000D03*
%TD*%
D32*
%TO.N,/INSTR+*%
X194310000Y152146000D03*
X194310000Y106426000D03*
X170129200Y106426000D03*
%TO.N,+5V*%
X135636000Y122428000D03*
X209296000Y122428000D03*
X153416000Y122428000D03*
X262636000Y122428000D03*
X263398000Y168148000D03*
X173482000Y168148000D03*
X58420000Y122428000D03*
X76200000Y122428000D03*
X44196000Y168148000D03*
X118110000Y122428000D03*
X40386000Y122428000D03*
X209550000Y168148000D03*
X118110000Y168148000D03*
X198120000Y122428000D03*
X109728000Y122428000D03*
X26670000Y168148000D03*
X227330000Y168148000D03*
X244856000Y168148000D03*
X244856000Y122428000D03*
X80010000Y168148000D03*
X22860000Y122428000D03*
X173990000Y122428000D03*
X135636000Y168148000D03*
X61722000Y168148000D03*
X153416000Y168148000D03*
X198120000Y168148000D03*
X227330000Y122428000D03*
%TO.N,/MCU+*%
X97536000Y12954000D03*
X97536000Y7112000D03*
%TO.N,GNDD*%
X233330511Y110236000D03*
X196596000Y110236000D03*
X123856511Y110140511D03*
X33168511Y110130511D03*
X70358000Y155956000D03*
X196639306Y155999306D03*
X5842000Y110236000D03*
X250654694Y155999306D03*
X159468694Y155999306D03*
X68072000Y110236000D03*
X250698000Y110236000D03*
X50546000Y155956000D03*
X141890511Y110140511D03*
X268732000Y109982000D03*
X141688694Y155999306D03*
X269240000Y155956000D03*
X32512000Y155702000D03*
X232707306Y155999306D03*
X50292000Y110236000D03*
X123654694Y155999306D03*
X159416511Y110140511D03*
X215138000Y155956000D03*
X215042511Y110140511D03*
X86360000Y155956000D03*
X86000511Y110130511D03*
X179673489Y110140511D03*
X179788694Y155999306D03*
%TO.N,/MCU_GND*%
X99822000Y20574000D03*
X121666000Y20574000D03*
%TO.N,/2_MCU/CS{slash}SS*%
X117602000Y75184000D03*
%TO.N,/RL5*%
X56896000Y146050000D03*
X52832000Y146050000D03*
%TO.N,/RL13*%
X149352000Y145796000D03*
X144907000Y145669000D03*
%TO.N,/RL21*%
X237744000Y144780000D03*
X241046000Y144780000D03*
%TD*%
D33*
%TO.N,/INSTR+*%
X240919000Y162052000D02*
X240919000Y152400000D01*
X23264000Y162710000D02*
X22606000Y162052000D01*
X40721000Y152146000D02*
X43007000Y152146000D01*
X75946000Y162052000D02*
X75946000Y152400000D01*
X258826000Y116322000D02*
X258826000Y106670000D01*
X259080000Y106416000D02*
X261366000Y106416000D01*
X132434000Y162710000D02*
X131776000Y162052000D01*
X240999800Y116322000D02*
X240999800Y106670000D01*
X58790000Y162710000D02*
X58132000Y162052000D01*
X241577000Y162710000D02*
X240919000Y162052000D01*
X116028000Y116980000D02*
X114704000Y116980000D01*
X22606000Y152400000D02*
X22860000Y152146000D01*
X240999800Y106670000D02*
X241253800Y106416000D01*
X75946000Y152400000D02*
X76200000Y152146000D01*
X260681000Y162710000D02*
X259357000Y162710000D01*
X58386000Y152146000D02*
X60672000Y152146000D01*
X223520000Y152146000D02*
X225806000Y152146000D01*
X149555000Y116322000D02*
X149555000Y106670000D01*
X114300000Y106416000D02*
X116586000Y106416000D01*
X41125000Y116980000D02*
X40467000Y116322000D01*
X151537000Y162710000D02*
X150213000Y162710000D01*
X205462000Y116322000D02*
X205462000Y106670000D01*
X76200000Y152146000D02*
X78486000Y152146000D01*
X169875200Y152390000D02*
X170129200Y152136000D01*
X225246000Y116980000D02*
X223922000Y116980000D01*
X22606000Y162052000D02*
X22606000Y152400000D01*
X58132000Y152400000D02*
X58386000Y152146000D01*
X206120000Y116980000D02*
X205462000Y116322000D01*
X223264000Y106670000D02*
X223518000Y106416000D01*
X22606000Y116322000D02*
X22606000Y106670000D01*
X170533200Y162700000D02*
X169875200Y162042000D01*
X22860000Y152146000D02*
X25146000Y152146000D01*
X223924000Y162710000D02*
X223266000Y162052000D01*
X40721000Y106416000D02*
X43007000Y106416000D01*
X22860000Y106416000D02*
X25146000Y106416000D01*
X223264000Y116322000D02*
X223264000Y106670000D01*
X169875200Y116332000D02*
X169875200Y106680000D01*
X60114000Y162710000D02*
X58790000Y162710000D01*
X75946000Y116322000D02*
X75946000Y106670000D01*
X259357000Y162710000D02*
X258699000Y162052000D01*
X114300000Y152146000D02*
X116586000Y152146000D01*
X150213000Y162710000D02*
X149555000Y162052000D01*
X171857200Y116990000D02*
X170533200Y116990000D01*
X114046000Y162052000D02*
X114046000Y152400000D01*
X169875200Y162042000D02*
X169875200Y152390000D01*
X76604000Y116980000D02*
X75946000Y116322000D01*
X22606000Y106670000D02*
X22860000Y106416000D01*
X133758000Y116980000D02*
X132434000Y116980000D01*
X241253800Y106416000D02*
X243539800Y106416000D01*
X205716000Y106416000D02*
X208002000Y106416000D01*
X151537000Y116980000D02*
X150213000Y116980000D01*
X194310000Y106426000D02*
X194310000Y152146000D01*
X260808000Y116980000D02*
X259484000Y116980000D01*
X223518000Y106416000D02*
X225804000Y106416000D01*
X132030000Y106416000D02*
X134316000Y106416000D01*
X223264000Y116322000D02*
X223264000Y106670000D01*
X205486000Y162052000D02*
X205486000Y152400000D01*
X207468000Y162710000D02*
X206144000Y162710000D01*
X241173000Y152146000D02*
X243459000Y152146000D01*
X131776000Y106670000D02*
X132030000Y106416000D01*
X42449000Y162710000D02*
X41125000Y162710000D01*
X77928000Y116980000D02*
X76604000Y116980000D01*
X114046000Y106670000D02*
X114300000Y106416000D01*
X149555000Y162052000D02*
X149555000Y152400000D01*
X131776000Y116322000D02*
X131776000Y106670000D01*
X171857200Y162700000D02*
X170533200Y162700000D01*
X114046000Y116322000D02*
X114046000Y106670000D01*
X242981800Y116980000D02*
X241657800Y116980000D01*
X205462000Y106670000D02*
X205716000Y106416000D01*
X149555000Y152400000D02*
X149809000Y152146000D01*
X225246000Y116980000D02*
X223922000Y116980000D01*
X114046000Y152400000D02*
X114300000Y152146000D01*
X242901000Y162710000D02*
X241577000Y162710000D01*
X150213000Y116980000D02*
X149555000Y116322000D01*
X223266000Y162052000D02*
X223266000Y152400000D01*
X58132000Y116322000D02*
X58132000Y106670000D01*
X40467000Y152400000D02*
X40721000Y152146000D01*
X170533200Y116990000D02*
X169875200Y116332000D01*
X149555000Y106670000D02*
X149809000Y106416000D01*
X131776000Y152400000D02*
X132030000Y152146000D01*
X258699000Y152400000D02*
X258953000Y152146000D01*
X58386000Y106416000D02*
X60672000Y106416000D01*
X76200000Y106416000D02*
X78486000Y106416000D01*
X223922000Y116980000D02*
X223264000Y116322000D01*
X114704000Y116980000D02*
X114046000Y116322000D01*
X40467000Y106670000D02*
X40721000Y106416000D01*
X40467000Y116322000D02*
X40467000Y106670000D01*
X133758000Y162710000D02*
X132434000Y162710000D01*
X41125000Y162710000D02*
X40467000Y162052000D01*
X241657800Y116980000D02*
X240999800Y116322000D01*
X258826000Y106670000D02*
X259080000Y106416000D01*
X58132000Y162052000D02*
X58132000Y152400000D01*
X58790000Y116980000D02*
X58132000Y116322000D01*
X76604000Y162710000D02*
X75946000Y162052000D01*
X258953000Y152146000D02*
X261239000Y152146000D01*
X205740000Y152146000D02*
X208026000Y152146000D01*
X60114000Y116980000D02*
X58790000Y116980000D01*
X223264000Y106670000D02*
X223518000Y106416000D01*
X149809000Y106416000D02*
X152095000Y106416000D01*
X223922000Y116980000D02*
X223264000Y116322000D01*
X259484000Y116980000D02*
X258826000Y116322000D01*
X132434000Y116980000D02*
X131776000Y116322000D01*
X170129200Y106426000D02*
X172415200Y106426000D01*
X225248000Y162710000D02*
X223924000Y162710000D01*
X131776000Y162052000D02*
X131776000Y152400000D01*
X170129200Y152136000D02*
X172415200Y152136000D01*
X205486000Y152400000D02*
X205740000Y152146000D01*
X58132000Y106670000D02*
X58386000Y106416000D01*
X116028000Y162710000D02*
X114704000Y162710000D01*
X207444000Y116980000D02*
X206120000Y116980000D01*
X169875200Y106680000D02*
X170129200Y106426000D01*
X24588000Y116980000D02*
X23264000Y116980000D01*
X206144000Y162710000D02*
X205486000Y162052000D01*
X258699000Y162052000D02*
X258699000Y152400000D01*
X114704000Y162710000D02*
X114046000Y162052000D01*
X40467000Y162052000D02*
X40467000Y152400000D01*
X223518000Y106416000D02*
X225804000Y106416000D01*
X240919000Y152400000D02*
X241173000Y152146000D01*
X42449000Y116980000D02*
X41125000Y116980000D01*
X77928000Y162710000D02*
X76604000Y162710000D01*
X23264000Y116980000D02*
X22606000Y116322000D01*
X149809000Y152146000D02*
X152095000Y152146000D01*
X75946000Y106670000D02*
X76200000Y106416000D01*
X132030000Y152146000D02*
X134316000Y152146000D01*
X24588000Y162710000D02*
X23264000Y162710000D01*
X223266000Y152400000D02*
X223520000Y152146000D01*
%TO.N,/CTRL1*%
X39878000Y177546000D02*
X42164000Y179832000D01*
X44958000Y179832000D02*
X45880000Y180754000D01*
X23622000Y154686000D02*
X25146000Y154686000D01*
X22860000Y148590000D02*
X22098000Y149352000D01*
X24588000Y159562000D02*
X24638000Y159512000D01*
X22098000Y149352000D02*
X22098000Y177292000D01*
X24588000Y160510000D02*
X24588000Y159562000D01*
X27178000Y154178000D02*
X27178000Y149098000D01*
X24384000Y159258000D02*
X23622000Y159258000D01*
X23368000Y159004000D02*
X23368000Y154940000D01*
X23368000Y154940000D02*
X23622000Y154686000D01*
X42164000Y179832000D02*
X44958000Y179832000D01*
X27178000Y149098000D02*
X26670000Y148590000D01*
X26670000Y148590000D02*
X22860000Y148590000D01*
X24638000Y159512000D02*
X24384000Y159258000D01*
X23622000Y159258000D02*
X23368000Y159004000D01*
X22352000Y177546000D02*
X39878000Y177546000D01*
X26670000Y154686000D02*
X27178000Y154178000D01*
X45880000Y180754000D02*
X45880000Y185166000D01*
X22098000Y177292000D02*
X22352000Y177546000D01*
X25146000Y154686000D02*
X26670000Y154686000D01*
%TO.N,Net-(CP3-Pad1)*%
X28855500Y149910000D02*
X28805500Y149860000D01*
X25146000Y157226000D02*
X26670000Y157226000D01*
X28768000Y152497500D02*
X28855500Y152410000D01*
X28768000Y156144000D02*
X28768000Y155210000D01*
X26670000Y157226000D02*
X27432000Y156464000D01*
X28448000Y156464000D02*
X28768000Y156144000D01*
X27432000Y156464000D02*
X28448000Y156464000D01*
X28768000Y155210000D02*
X28768000Y152497500D01*
X28855500Y152410000D02*
X28855500Y149910000D01*
%TO.N,Net-(CP4-Pad1)*%
X31646500Y175514000D02*
X31646500Y168168500D01*
X31588000Y168110000D02*
X30188000Y168110000D01*
X31646500Y168168500D02*
X31588000Y168110000D01*
X29718000Y167640000D02*
X29718000Y157210000D01*
X28066000Y172212000D02*
X31750000Y172212000D01*
X30188000Y168110000D02*
X29718000Y167640000D01*
%TO.N,/CTRL2*%
X24384000Y113528000D02*
X23622000Y113528000D01*
X27178000Y103368000D02*
X26426000Y102616000D01*
X25146000Y108956000D02*
X26670000Y108956000D01*
X23622000Y108956000D02*
X25146000Y108956000D01*
X24588000Y113832000D02*
X24638000Y113782000D01*
X24638000Y113782000D02*
X24384000Y113528000D01*
X23368000Y113274000D02*
X23368000Y109210000D01*
X27178000Y108448000D02*
X27178000Y103368000D01*
X24588000Y114780000D02*
X24588000Y113832000D01*
X23622000Y113528000D02*
X23368000Y113274000D01*
X21590000Y102616000D02*
X21082000Y103124000D01*
X26426000Y102616000D02*
X21590000Y102616000D01*
X26670000Y108956000D02*
X27178000Y108448000D01*
X21082000Y103124000D02*
X21082000Y181102000D01*
X21082000Y181102000D02*
X26924000Y186944000D01*
X46602000Y186944000D02*
X48380000Y185166000D01*
X23368000Y109210000D02*
X23622000Y108956000D01*
X26924000Y186944000D02*
X46602000Y186944000D01*
%TO.N,Net-(CP7-Pad1)*%
X28768000Y110414000D02*
X28768000Y109480000D01*
X28855500Y106680000D02*
X28855500Y104180000D01*
X27432000Y110734000D02*
X28448000Y110734000D01*
X28448000Y110734000D02*
X28768000Y110414000D01*
X28768000Y109480000D02*
X28768000Y106767500D01*
X26670000Y111496000D02*
X27432000Y110734000D01*
X28768000Y106767500D02*
X28855500Y106680000D01*
X28855500Y104180000D02*
X28805500Y104130000D01*
X25146000Y111496000D02*
X26670000Y111496000D01*
%TO.N,Net-(CP8-Pad1)*%
X31588000Y122380000D02*
X30188000Y122380000D01*
X31646500Y129784000D02*
X31646500Y122438500D01*
X29718000Y121910000D02*
X29718000Y111480000D01*
X28066000Y126482000D02*
X31750000Y126482000D01*
X30188000Y122380000D02*
X29718000Y121910000D01*
X31646500Y122438500D02*
X31588000Y122380000D01*
%TO.N,/CTRL3*%
X42245000Y159258000D02*
X41483000Y159258000D01*
X42449000Y160510000D02*
X42449000Y159562000D01*
X41229000Y159004000D02*
X41229000Y154940000D01*
X43007000Y154686000D02*
X44531000Y154686000D01*
X39624000Y149098000D02*
X39624000Y175514000D01*
X42926000Y178816000D02*
X46482000Y178816000D01*
X41483000Y159258000D02*
X41229000Y159004000D01*
X45039000Y154178000D02*
X45039000Y149098000D01*
X42449000Y159562000D02*
X42499000Y159512000D01*
X45039000Y149098000D02*
X39624000Y149098000D01*
X46482000Y178816000D02*
X50880000Y183214000D01*
X41229000Y154940000D02*
X41483000Y154686000D01*
X39624000Y175514000D02*
X42926000Y178816000D01*
X41483000Y154686000D02*
X43007000Y154686000D01*
X44531000Y154686000D02*
X45039000Y154178000D01*
X42499000Y159512000D02*
X42245000Y159258000D01*
X50880000Y183214000D02*
X50880000Y185166000D01*
%TO.N,Net-(CP11-Pad1)*%
X46629000Y152497500D02*
X46716500Y152410000D01*
X45293000Y156464000D02*
X46309000Y156464000D01*
X46629000Y156144000D02*
X46629000Y155210000D01*
X44531000Y157226000D02*
X45293000Y156464000D01*
X46629000Y155210000D02*
X46629000Y152497500D01*
X46716500Y149910000D02*
X46666500Y149860000D01*
X43007000Y157226000D02*
X44531000Y157226000D01*
X46716500Y152410000D02*
X46716500Y149910000D01*
X46309000Y156464000D02*
X46629000Y156144000D01*
%TO.N,Net-(CP12-Pad1)*%
X49507500Y175514000D02*
X49507500Y168168500D01*
X45927000Y172212000D02*
X49611000Y172212000D01*
X48049000Y168110000D02*
X47579000Y167640000D01*
X49449000Y168110000D02*
X48049000Y168110000D01*
X47579000Y167640000D02*
X47579000Y157210000D01*
X49507500Y168168500D02*
X49449000Y168110000D01*
%TO.N,/CTRL4*%
X49705480Y183309480D02*
X49705480Y186103480D01*
X42245000Y113528000D02*
X41483000Y113528000D01*
X41483000Y113528000D02*
X41229000Y113274000D01*
X38862000Y103378000D02*
X38862000Y175572480D01*
X38862000Y175572480D02*
X42613520Y179324000D01*
X45720000Y179324000D02*
X49705480Y183309480D01*
X41229000Y113274000D02*
X41229000Y109210000D01*
X44795000Y103124000D02*
X39116000Y103124000D01*
X42449000Y114780000D02*
X42449000Y113832000D01*
X41229000Y109210000D02*
X41483000Y108956000D01*
X45039000Y108448000D02*
X45039000Y103368000D01*
X50546000Y186944000D02*
X51602000Y186944000D01*
X45039000Y103368000D02*
X44795000Y103124000D01*
X43007000Y108956000D02*
X44531000Y108956000D01*
X44531000Y108956000D02*
X45039000Y108448000D01*
X39116000Y103124000D02*
X38862000Y103378000D01*
X51602000Y186944000D02*
X53380000Y185166000D01*
X42449000Y113832000D02*
X42499000Y113782000D01*
X42613520Y179324000D02*
X45720000Y179324000D01*
X49705480Y186103480D02*
X50546000Y186944000D01*
X41483000Y108956000D02*
X43007000Y108956000D01*
X42499000Y113782000D02*
X42245000Y113528000D01*
%TO.N,Net-(CP15-Pad1)*%
X46309000Y110734000D02*
X46629000Y110414000D01*
X46716500Y104180000D02*
X46666500Y104130000D01*
X44531000Y111496000D02*
X45293000Y110734000D01*
X43007000Y111496000D02*
X44531000Y111496000D01*
X46716500Y106680000D02*
X46716500Y104180000D01*
X46629000Y106767500D02*
X46716500Y106680000D01*
X45293000Y110734000D02*
X46309000Y110734000D01*
X46629000Y109480000D02*
X46629000Y106767500D01*
X46629000Y110414000D02*
X46629000Y109480000D01*
%TO.N,Net-(CP16-Pad1)*%
X48049000Y122380000D02*
X47579000Y121910000D01*
X47579000Y121910000D02*
X47579000Y111480000D01*
X45927000Y126482000D02*
X49611000Y126482000D01*
X49449000Y122380000D02*
X48049000Y122380000D01*
X49507500Y122438500D02*
X49449000Y122380000D01*
X49507500Y129784000D02*
X49507500Y122438500D01*
%TO.N,/CTRL5*%
X59148000Y154686000D02*
X60672000Y154686000D01*
X62738000Y150114000D02*
X62230000Y149606000D01*
X55880000Y152146000D02*
X55880000Y185166000D01*
X58894000Y154940000D02*
X59148000Y154686000D01*
X60672000Y154686000D02*
X62738000Y152620000D01*
X60114000Y160510000D02*
X60114000Y159562000D01*
X59910000Y159258000D02*
X59148000Y159258000D01*
X58420000Y149606000D02*
X55880000Y152146000D01*
X60164000Y159512000D02*
X59910000Y159258000D01*
X58894000Y159004000D02*
X58894000Y154940000D01*
X59148000Y159258000D02*
X58894000Y159004000D01*
X62738000Y152620000D02*
X62738000Y150114000D01*
X60114000Y159562000D02*
X60164000Y159512000D01*
X62230000Y149606000D02*
X58420000Y149606000D01*
%TO.N,Net-(CP19-Pad1)*%
X64294000Y156144000D02*
X64294000Y155210000D01*
X64294000Y155210000D02*
X64294000Y152497500D01*
X64381500Y149910000D02*
X64331500Y149860000D01*
X63974000Y156464000D02*
X64294000Y156144000D01*
X64294000Y152497500D02*
X64381500Y152410000D01*
X60672000Y157226000D02*
X62196000Y157226000D01*
X62196000Y157226000D02*
X62958000Y156464000D01*
X64381500Y152410000D02*
X64381500Y149910000D01*
X62958000Y156464000D02*
X63974000Y156464000D01*
%TO.N,Net-(CP20-Pad1)*%
X67114000Y168110000D02*
X65714000Y168110000D01*
X65244000Y167640000D02*
X65244000Y157210000D01*
X65714000Y168110000D02*
X65244000Y167640000D01*
X63592000Y172212000D02*
X67276000Y172212000D01*
X67172500Y168168500D02*
X67114000Y168110000D01*
X67172500Y175514000D02*
X67172500Y168168500D01*
%TO.N,/CTRL6*%
X60164000Y113782000D02*
X59910000Y113528000D01*
X54705480Y185777502D02*
X55393498Y186465520D01*
X58420000Y120650000D02*
X54705480Y124364520D01*
X60114000Y114780000D02*
X60114000Y113832000D01*
X60114000Y114780000D02*
X62230000Y116896000D01*
X61468000Y120650000D02*
X58420000Y120650000D01*
X54705480Y124364520D02*
X54705480Y185777502D01*
X62230000Y119888000D02*
X61468000Y120650000D01*
X59148000Y108956000D02*
X60672000Y108956000D01*
X62230000Y116896000D02*
X62230000Y119888000D01*
X59910000Y113528000D02*
X59148000Y113528000D01*
X58894000Y113274000D02*
X58894000Y109210000D01*
X57080480Y186465520D02*
X58380000Y185166000D01*
X59148000Y113528000D02*
X58894000Y113274000D01*
X55393498Y186465520D02*
X57080480Y186465520D01*
X60114000Y113832000D02*
X60164000Y113782000D01*
X58894000Y109210000D02*
X59148000Y108956000D01*
%TO.N,Net-(CP23-Pad1)*%
X62196000Y111496000D02*
X62958000Y110734000D01*
X64294000Y110414000D02*
X64294000Y109480000D01*
X64381500Y106680000D02*
X64381500Y104180000D01*
X63974000Y110734000D02*
X64294000Y110414000D01*
X62958000Y110734000D02*
X63974000Y110734000D01*
X64294000Y109480000D02*
X64294000Y106767500D01*
X60672000Y111496000D02*
X62196000Y111496000D01*
%TO.N,Net-(CP24-Pad1)*%
X67114000Y122380000D02*
X65714000Y122380000D01*
X63592000Y126482000D02*
X67276000Y126482000D01*
X67172500Y129784000D02*
X67172500Y122438500D01*
X65244000Y121910000D02*
X65244000Y111480000D01*
X65714000Y122380000D02*
X65244000Y121910000D01*
%TO.N,/CTRL7*%
X76708000Y154940000D02*
X76962000Y154686000D01*
X77978000Y159512000D02*
X77724000Y159258000D01*
X76708000Y159004000D02*
X76708000Y154940000D01*
X80518000Y150368000D02*
X80010000Y149860000D01*
X75184000Y150622000D02*
X75184000Y188214000D01*
X77928000Y160510000D02*
X77928000Y159562000D01*
X80010000Y149860000D02*
X75946000Y149860000D01*
X60880000Y187786000D02*
X60880000Y185166000D01*
X80518000Y154178000D02*
X80518000Y150368000D01*
X61816000Y188722000D02*
X60880000Y187786000D01*
X78486000Y154686000D02*
X80010000Y154686000D01*
X76962000Y159258000D02*
X76708000Y159004000D01*
X77724000Y159258000D02*
X76962000Y159258000D01*
X75184000Y188214000D02*
X74676000Y188722000D01*
X74676000Y188722000D02*
X61816000Y188722000D01*
X77928000Y159562000D02*
X77978000Y159512000D01*
X76962000Y154686000D02*
X78486000Y154686000D01*
X80010000Y154686000D02*
X80518000Y154178000D01*
X75946000Y149860000D02*
X75184000Y150622000D01*
%TO.N,Net-(CP27-Pad1)*%
X82108000Y155210000D02*
X82108000Y152497500D01*
X82108000Y156144000D02*
X82108000Y155210000D01*
X82195500Y149910000D02*
X82145500Y149860000D01*
X78486000Y157226000D02*
X81026000Y157226000D01*
X82108000Y152497500D02*
X82195500Y152410000D01*
X81026000Y157226000D02*
X82108000Y156144000D01*
X82195500Y152410000D02*
X82195500Y149910000D01*
%TO.N,Net-(CP28-Pad1)*%
X83528000Y168110000D02*
X83058000Y167640000D01*
X84928000Y168110000D02*
X83528000Y168110000D01*
X84986500Y175514000D02*
X84986500Y168168500D01*
X81406000Y172212000D02*
X85090000Y172212000D01*
X84986500Y168168500D02*
X84928000Y168110000D01*
X83058000Y167640000D02*
X83058000Y157210000D01*
%TO.N,/CTRL8*%
X77928000Y114780000D02*
X77928000Y113832000D01*
X80518000Y108448000D02*
X80518000Y103368000D01*
X80010000Y108956000D02*
X80518000Y108448000D01*
X77928000Y113832000D02*
X77978000Y113782000D01*
X76962000Y113528000D02*
X76708000Y113274000D01*
X73406000Y121920000D02*
X73406000Y187452000D01*
X76708000Y109210000D02*
X76962000Y108956000D01*
X76708000Y113274000D02*
X76708000Y109210000D01*
X73406000Y187452000D02*
X63514000Y187452000D01*
X78486000Y108956000D02*
X80010000Y108956000D01*
X75184000Y121158000D02*
X73914000Y122428000D01*
X75702000Y103368000D02*
X75184000Y103886000D01*
X75184000Y103886000D02*
X75184000Y121158000D01*
X76962000Y108956000D02*
X78486000Y108956000D01*
X63514000Y187452000D02*
X63006000Y186944000D01*
X63380000Y187318000D02*
X63380000Y185166000D01*
X63514000Y187452000D02*
X63380000Y187318000D01*
X80518000Y103368000D02*
X75702000Y103368000D01*
X77724000Y113528000D02*
X76962000Y113528000D01*
X77978000Y113782000D02*
X77724000Y113528000D01*
%TO.N,Net-(CP31-Pad1)*%
X82108000Y106767500D02*
X82195500Y106680000D01*
X82195500Y106680000D02*
X82195500Y104180000D01*
X78486000Y111496000D02*
X80010000Y111496000D01*
X80010000Y111496000D02*
X80772000Y110734000D01*
X82108000Y109480000D02*
X82108000Y106767500D01*
X82195500Y104180000D02*
X82145500Y104130000D01*
X82108000Y110414000D02*
X82108000Y109480000D01*
X81788000Y110734000D02*
X82108000Y110414000D01*
X80772000Y110734000D02*
X81788000Y110734000D01*
%TO.N,Net-(CP32-Pad1)*%
X84986500Y122438500D02*
X84928000Y122380000D01*
X84986500Y129784000D02*
X84986500Y122438500D01*
X83528000Y122380000D02*
X83058000Y121910000D01*
X81406000Y126482000D02*
X85090000Y126482000D01*
X83058000Y121910000D02*
X83058000Y111480000D01*
X84928000Y122380000D02*
X83528000Y122380000D01*
%TO.N,/CTRL9*%
X118110000Y148336000D02*
X113284000Y148336000D01*
X113284000Y148336000D02*
X113284000Y183642000D01*
X116078000Y159512000D02*
X115824000Y159258000D01*
X115824000Y159258000D02*
X115062000Y159258000D01*
X114808000Y159004000D02*
X114808000Y154940000D01*
X115062000Y154686000D02*
X116586000Y154686000D01*
X114808000Y185166000D02*
X137340000Y185166000D01*
X116586000Y154686000D02*
X118364000Y154686000D01*
X116028000Y159562000D02*
X116078000Y159512000D01*
X115062000Y159258000D02*
X114808000Y159004000D01*
X113284000Y183642000D02*
X114808000Y185166000D01*
X118618000Y154432000D02*
X118618000Y148844000D01*
X116028000Y160510000D02*
X116028000Y159562000D01*
X118618000Y148844000D02*
X118110000Y148336000D01*
X118364000Y154686000D02*
X118618000Y154432000D01*
X114808000Y154940000D02*
X115062000Y154686000D01*
%TO.N,Net-(CP35-Pad1)*%
X119888000Y156464000D02*
X120208000Y156144000D01*
X118872000Y156464000D02*
X119888000Y156464000D01*
X120208000Y152497500D02*
X120295500Y152410000D01*
X120295500Y152410000D02*
X120295500Y149910000D01*
X120295500Y149910000D02*
X120245500Y149860000D01*
X120208000Y156144000D02*
X120208000Y155210000D01*
X116586000Y157226000D02*
X118110000Y157226000D01*
X120208000Y155210000D02*
X120208000Y152497500D01*
X118110000Y157226000D02*
X118872000Y156464000D01*
%TO.N,Net-(CP36-Pad1)*%
X123086500Y168168500D02*
X123028000Y168110000D01*
X121628000Y168110000D02*
X121158000Y167640000D01*
X119506000Y172212000D02*
X123190000Y172212000D01*
X123028000Y168110000D02*
X121628000Y168110000D01*
X121158000Y167640000D02*
X121158000Y157210000D01*
X123086500Y175514000D02*
X123086500Y168168500D01*
%TO.N,/CTRL10*%
X113284000Y102870000D02*
X118364000Y102870000D01*
X112776000Y186436000D02*
X112776000Y103378000D01*
X112776000Y186436000D02*
X114300000Y187960000D01*
X139840000Y187084000D02*
X139840000Y185166000D01*
X114300000Y187960000D02*
X139192000Y187960000D01*
X116078000Y113782000D02*
X116028000Y113832000D01*
X116028000Y114780000D02*
X116028000Y113832000D01*
X118618000Y103124000D02*
X118618000Y108448000D01*
X139192000Y187960000D02*
X139954000Y187198000D01*
X114808000Y109210000D02*
X115062000Y108956000D01*
X118364000Y102870000D02*
X118618000Y103124000D01*
X112776000Y103378000D02*
X113284000Y102870000D01*
X116028000Y113832000D02*
X114808000Y112612000D01*
X114808000Y112612000D02*
X114808000Y109210000D01*
X115062000Y108956000D02*
X116586000Y108956000D01*
X139954000Y187198000D02*
X139840000Y187084000D01*
X118618000Y108448000D02*
X118110000Y108956000D01*
X118110000Y108956000D02*
X116586000Y108956000D01*
%TO.N,Net-(CP39-Pad1)*%
X119888000Y110734000D02*
X120208000Y110414000D01*
X118110000Y111496000D02*
X118872000Y110734000D01*
X118872000Y110734000D02*
X119888000Y110734000D01*
X120208000Y106767500D02*
X120295500Y106680000D01*
X120208000Y110414000D02*
X120208000Y109480000D01*
X116586000Y111496000D02*
X118110000Y111496000D01*
X120295500Y106680000D02*
X120295500Y104180000D01*
X120295500Y104180000D02*
X120245500Y104130000D01*
X120208000Y109480000D02*
X120208000Y106767500D01*
%TO.N,Net-(CP40-Pad1)*%
X119506000Y126482000D02*
X123190000Y126482000D01*
X121628000Y122380000D02*
X121158000Y121910000D01*
X121158000Y121910000D02*
X121158000Y111480000D01*
X123028000Y122380000D02*
X121628000Y122380000D01*
X123086500Y129784000D02*
X123086500Y122438500D01*
X123086500Y122438500D02*
X123028000Y122380000D01*
%TO.N,/CTRL11*%
X132792000Y159258000D02*
X132538000Y159004000D01*
X132538000Y154940000D02*
X132792000Y154686000D01*
X134316000Y154686000D02*
X135840000Y154686000D01*
X133554000Y159258000D02*
X132792000Y159258000D01*
X135840000Y154686000D02*
X136348000Y154178000D01*
X133758000Y159562000D02*
X133808000Y159512000D01*
X142240000Y178308000D02*
X142240000Y178816000D01*
X132588000Y178054000D02*
X141986000Y178054000D01*
X131064000Y176530000D02*
X132588000Y178054000D01*
X131064000Y149860000D02*
X131064000Y176530000D01*
X136348000Y154178000D02*
X136348000Y149302000D01*
X142240000Y178816000D02*
X142340000Y178916000D01*
X135890000Y148844000D02*
X132080000Y148844000D01*
X133758000Y160510000D02*
X133758000Y159562000D01*
X141986000Y178054000D02*
X142240000Y178308000D01*
X132080000Y148844000D02*
X131064000Y149860000D01*
X133808000Y159512000D02*
X133554000Y159258000D01*
X132538000Y159004000D02*
X132538000Y154940000D01*
X132792000Y154686000D02*
X134316000Y154686000D01*
X136348000Y149302000D02*
X135890000Y148844000D01*
X142340000Y178916000D02*
X142340000Y185166000D01*
%TO.N,Net-(CP43-Pad1)*%
X136602000Y156464000D02*
X137618000Y156464000D01*
X134316000Y157226000D02*
X135840000Y157226000D01*
X137938000Y155210000D02*
X137938000Y152497500D01*
X137618000Y156464000D02*
X137938000Y156144000D01*
X137938000Y152497500D02*
X138025500Y152410000D01*
X135840000Y157226000D02*
X136602000Y156464000D01*
X137938000Y156144000D02*
X137938000Y155210000D01*
X138025500Y149910000D02*
X137975500Y149860000D01*
X138025500Y152410000D02*
X138025500Y149910000D01*
%TO.N,Net-(CP44-Pad1)*%
X138888000Y167640000D02*
X138888000Y157210000D01*
X140816500Y175514000D02*
X140816500Y168168500D01*
X140758000Y168110000D02*
X139358000Y168110000D01*
X140816500Y168168500D02*
X140758000Y168110000D01*
X137236000Y172212000D02*
X140920000Y172212000D01*
X139358000Y168110000D02*
X138888000Y167640000D01*
%TO.N,/CTRL12*%
X136144000Y108712000D02*
X136144000Y104902000D01*
X144840000Y187138000D02*
X144840000Y185166000D01*
X132538000Y109210000D02*
X132792000Y108956000D01*
X133758000Y113832000D02*
X133808000Y113782000D01*
X141165480Y179519480D02*
X141165480Y187647480D01*
X132792000Y108956000D02*
X134316000Y108956000D01*
X135900000Y108956000D02*
X136144000Y108712000D01*
X133554000Y113528000D02*
X132792000Y113528000D01*
X141165480Y187647480D02*
X141732000Y188214000D01*
X143764000Y188214000D02*
X144840000Y187138000D01*
X135382000Y104140000D02*
X130810000Y104140000D01*
X141732000Y188214000D02*
X143764000Y188214000D01*
X130556000Y104394000D02*
X130556000Y177927380D01*
X130556000Y177927380D02*
X131698620Y179070000D01*
X140716000Y179070000D02*
X141165480Y179519480D01*
X131698620Y179070000D02*
X140716000Y179070000D01*
X136144000Y104902000D02*
X135382000Y104140000D01*
X133808000Y113782000D02*
X133554000Y113528000D01*
X133758000Y114780000D02*
X133758000Y113832000D01*
X130810000Y104140000D02*
X130556000Y104394000D01*
X132792000Y113528000D02*
X132538000Y113274000D01*
X132538000Y113274000D02*
X132538000Y109210000D01*
X134316000Y108956000D02*
X135900000Y108956000D01*
%TO.N,Net-(CP47-Pad1)*%
X137938000Y110414000D02*
X137938000Y109480000D01*
X137938000Y109480000D02*
X137938000Y106767500D01*
X137618000Y110734000D02*
X137938000Y110414000D01*
X138025500Y104180000D02*
X137975500Y104130000D01*
X134316000Y111496000D02*
X135840000Y111496000D01*
X137938000Y106767500D02*
X138025500Y106680000D01*
X135840000Y111496000D02*
X136602000Y110734000D01*
X138025500Y106680000D02*
X138025500Y104180000D01*
X136602000Y110734000D02*
X137618000Y110734000D01*
%TO.N,Net-(CP48-Pad1)*%
X140816500Y122438500D02*
X140758000Y122380000D01*
X140758000Y122380000D02*
X139358000Y122380000D01*
X139358000Y122380000D02*
X138888000Y121910000D01*
X140816500Y129784000D02*
X140816500Y122438500D01*
X138888000Y121910000D02*
X138888000Y111480000D01*
X137236000Y126482000D02*
X140920000Y126482000D01*
%TO.N,/CTRL13*%
X148590000Y148844000D02*
X147340000Y150094000D01*
X154127000Y149098000D02*
X153924000Y149098000D01*
X150317000Y154940000D02*
X150571000Y154686000D01*
X150571000Y154686000D02*
X152095000Y154686000D01*
X153619000Y154686000D02*
X154127000Y154178000D01*
X154127000Y154178000D02*
X154127000Y149098000D01*
X150571000Y159258000D02*
X150317000Y159004000D01*
X151587000Y159512000D02*
X151333000Y159258000D01*
X150317000Y159004000D02*
X150317000Y154940000D01*
X151537000Y160510000D02*
X151537000Y159562000D01*
X153670000Y148844000D02*
X148590000Y148844000D01*
X151333000Y159258000D02*
X150571000Y159258000D01*
X153924000Y149098000D02*
X153670000Y148844000D01*
X152095000Y154686000D02*
X153619000Y154686000D01*
X147340000Y150094000D02*
X147340000Y185166000D01*
X151537000Y159562000D02*
X151587000Y159512000D01*
%TO.N,Net-(CP51-Pad1)*%
X155397000Y156464000D02*
X155717000Y156144000D01*
X154381000Y156464000D02*
X155397000Y156464000D01*
X155804500Y152410000D02*
X155804500Y149910000D01*
X153619000Y157226000D02*
X154381000Y156464000D01*
X155717000Y152497500D02*
X155804500Y152410000D01*
X155804500Y149910000D02*
X155754500Y149860000D01*
X152095000Y157226000D02*
X153619000Y157226000D01*
X155717000Y155210000D02*
X155717000Y152497500D01*
X155717000Y156144000D02*
X155717000Y155210000D01*
%TO.N,Net-(CP52-Pad1)*%
X156667000Y167640000D02*
X156667000Y157210000D01*
X155015000Y172212000D02*
X158699000Y172212000D01*
X158595500Y175514000D02*
X158595500Y168168500D01*
X158537000Y168110000D02*
X157137000Y168110000D01*
X158595500Y168168500D02*
X158537000Y168110000D01*
X157137000Y168110000D02*
X156667000Y167640000D01*
%TO.N,/CTRL14*%
X154127000Y108448000D02*
X153619000Y108956000D01*
X151537000Y113832000D02*
X151587000Y113782000D01*
X151537000Y114780000D02*
X151537000Y113832000D01*
X146050000Y104140000D02*
X146822000Y103368000D01*
X151587000Y113782000D02*
X151333000Y113528000D01*
X151333000Y113528000D02*
X150571000Y113528000D01*
X150571000Y113528000D02*
X150317000Y113274000D01*
X146558000Y187706000D02*
X146050000Y187198000D01*
X149840000Y187218000D02*
X149352000Y187706000D01*
X150317000Y109210000D02*
X150571000Y108956000D01*
X150317000Y113274000D02*
X150317000Y109210000D01*
X153619000Y108956000D02*
X152095000Y108956000D01*
X146822000Y103368000D02*
X154127000Y103368000D01*
X150571000Y108956000D02*
X152095000Y108956000D01*
X146050000Y187198000D02*
X146050000Y104140000D01*
X154127000Y103368000D02*
X154127000Y108448000D01*
X149840000Y185166000D02*
X149840000Y187218000D01*
X149352000Y187706000D02*
X146558000Y187706000D01*
%TO.N,Net-(CP55-Pad1)*%
X155717000Y110414000D02*
X155717000Y109480000D01*
X153619000Y111496000D02*
X154381000Y110734000D01*
X154381000Y110734000D02*
X155397000Y110734000D01*
X155717000Y109480000D02*
X155717000Y106767500D01*
X155717000Y106767500D02*
X155804500Y106680000D01*
X152095000Y111496000D02*
X153619000Y111496000D01*
X155804500Y106680000D02*
X155804500Y104180000D01*
X155804500Y104180000D02*
X155754500Y104130000D01*
X155397000Y110734000D02*
X155717000Y110414000D01*
%TO.N,Net-(CP56-Pad1)*%
X157137000Y122380000D02*
X156667000Y121910000D01*
X155015000Y126482000D02*
X158699000Y126482000D01*
X158537000Y122380000D02*
X157137000Y122380000D01*
X158595500Y129784000D02*
X158595500Y122438500D01*
X158595500Y122438500D02*
X158537000Y122380000D01*
X156667000Y121910000D02*
X156667000Y111480000D01*
%TO.N,/CTRL15*%
X174447200Y149047200D02*
X173990000Y148590000D01*
X173939200Y154676000D02*
X174447200Y154168000D01*
X152908000Y188214000D02*
X152146000Y187452000D01*
X170891200Y154676000D02*
X172415200Y154676000D01*
X170637200Y154930000D02*
X170891200Y154676000D01*
X168910000Y166370000D02*
X169418000Y166878000D01*
X168656000Y188214000D02*
X152908000Y188214000D01*
X152340000Y187258000D02*
X152340000Y185166000D01*
X169418000Y148590000D02*
X168910000Y149098000D01*
X173990000Y148590000D02*
X169418000Y148590000D01*
X169418000Y187452000D02*
X168656000Y188214000D01*
X170891200Y159248000D02*
X170637200Y158994000D01*
X174447200Y154168000D02*
X174447200Y149047200D01*
X170637200Y158994000D02*
X170637200Y154930000D01*
X171857200Y160500000D02*
X171857200Y159552000D01*
X168910000Y149098000D02*
X168910000Y166370000D01*
X169418000Y166878000D02*
X169418000Y187452000D01*
X171653200Y159248000D02*
X170891200Y159248000D01*
X171857200Y159552000D02*
X171907200Y159502000D01*
X171907200Y159502000D02*
X171653200Y159248000D01*
X152146000Y187452000D02*
X152340000Y187258000D01*
X172415200Y154676000D02*
X173939200Y154676000D01*
%TO.N,Net-(CP59-Pad1)*%
X172415200Y157216000D02*
X173939200Y157216000D01*
X176124700Y152400000D02*
X176124700Y149900000D01*
X176037200Y155200000D02*
X176037200Y152487500D01*
X176037200Y152487500D02*
X176124700Y152400000D01*
X176037200Y156134000D02*
X176037200Y155200000D01*
X174701200Y156454000D02*
X175717200Y156454000D01*
X176124700Y149900000D02*
X176074700Y149850000D01*
X173939200Y157216000D02*
X174701200Y156454000D01*
X175717200Y156454000D02*
X176037200Y156134000D01*
%TO.N,Net-(CP60-Pad1)*%
X178915700Y175504000D02*
X178915700Y168158500D01*
X178915700Y168158500D02*
X178857200Y168100000D01*
X176987200Y167630000D02*
X176987200Y157200000D01*
X177457200Y168100000D02*
X176987200Y167630000D01*
X175335200Y172202000D02*
X179019200Y172202000D01*
X178857200Y168100000D02*
X177457200Y168100000D01*
%TO.N,/CTRL16*%
X171857200Y113842000D02*
X171907200Y113792000D01*
X174447200Y108458000D02*
X174447200Y103378000D01*
X164338000Y186944000D02*
X165354000Y185928000D01*
X172415200Y108966000D02*
X173939200Y108966000D01*
X173939200Y108966000D02*
X174447200Y108458000D01*
X165354000Y185928000D02*
X165354000Y103632000D01*
X170637200Y113284000D02*
X170637200Y109220000D01*
X170891200Y113538000D02*
X170637200Y113284000D01*
X174244000Y103378000D02*
X174447200Y103378000D01*
X165862000Y103124000D02*
X173990000Y103124000D01*
X171653200Y113538000D02*
X170891200Y113538000D01*
X170637200Y109220000D02*
X170891200Y108966000D01*
X170891200Y108966000D02*
X172415200Y108966000D01*
X154840000Y186844000D02*
X154940000Y186944000D01*
X165354000Y103632000D02*
X165862000Y103124000D01*
X154940000Y186944000D02*
X164338000Y186944000D01*
X171907200Y113792000D02*
X171653200Y113538000D01*
X173990000Y103124000D02*
X174244000Y103378000D01*
X154840000Y185166000D02*
X154840000Y186844000D01*
X171857200Y114790000D02*
X171857200Y113842000D01*
%TO.N,Net-(CP63-Pad1)*%
X176037200Y106777500D02*
X176124700Y106690000D01*
X176124700Y106690000D02*
X176124700Y104190000D01*
X176037200Y110424000D02*
X176037200Y109490000D01*
X174701200Y110744000D02*
X175717200Y110744000D01*
X172415200Y111506000D02*
X173939200Y111506000D01*
X176037200Y109490000D02*
X176037200Y106777500D01*
X175717200Y110744000D02*
X176037200Y110424000D01*
X173939200Y111506000D02*
X174701200Y110744000D01*
X176124700Y104190000D02*
X176074700Y104140000D01*
%TO.N,Net-(CP64-Pad1)*%
X176987200Y121920000D02*
X176987200Y111490000D01*
X178915700Y129794000D02*
X178915700Y122448500D01*
X178915700Y122448500D02*
X178857200Y122390000D01*
X175335200Y126492000D02*
X179019200Y126492000D01*
X178857200Y122390000D02*
X177457200Y122390000D01*
X177457200Y122390000D02*
X176987200Y121920000D01*
%TO.N,/CTRL17*%
X209804000Y148844000D02*
X204978000Y148844000D01*
X204978000Y148844000D02*
X204724000Y149098000D01*
X208026000Y154686000D02*
X209550000Y154686000D01*
X206756000Y185166000D02*
X228780000Y185166000D01*
X210058000Y154178000D02*
X210058000Y149098000D01*
X206248000Y154940000D02*
X206502000Y154686000D01*
X207468000Y159562000D02*
X207518000Y159512000D01*
X207518000Y159512000D02*
X207264000Y159258000D01*
X206502000Y159258000D02*
X206248000Y159004000D01*
X204724000Y149098000D02*
X204724000Y183134000D01*
X210058000Y149098000D02*
X209804000Y148844000D01*
X207264000Y159258000D02*
X206502000Y159258000D01*
X209550000Y154686000D02*
X210058000Y154178000D01*
X207468000Y160510000D02*
X207468000Y159562000D01*
X206248000Y159004000D02*
X206248000Y154940000D01*
X206502000Y154686000D02*
X208026000Y154686000D01*
X204724000Y183134000D02*
X206756000Y185166000D01*
%TO.N,Net-(CP67-Pad1)*%
X211648000Y155210000D02*
X211648000Y152497500D01*
X211735500Y149910000D02*
X211685500Y149860000D01*
X208026000Y157226000D02*
X209550000Y157226000D01*
X210312000Y156464000D02*
X211328000Y156464000D01*
X211735500Y152410000D02*
X211735500Y149910000D01*
X211648000Y156144000D02*
X211648000Y155210000D01*
X209550000Y157226000D02*
X210312000Y156464000D01*
X211648000Y152497500D02*
X211735500Y152410000D01*
X211328000Y156464000D02*
X211648000Y156144000D01*
%TO.N,Net-(CP68-Pad1)*%
X212598000Y167640000D02*
X212598000Y157210000D01*
X214526500Y175514000D02*
X214526500Y168168500D01*
X214468000Y168110000D02*
X213068000Y168110000D01*
X210946000Y172212000D02*
X214630000Y172212000D01*
X213068000Y168110000D02*
X212598000Y167640000D01*
X214526500Y168168500D02*
X214468000Y168110000D01*
%TO.N,/CTRL18*%
X206478000Y113528000D02*
X206224000Y113274000D01*
X206224000Y109210000D02*
X206478000Y108956000D01*
X209550000Y102870000D02*
X204724000Y102870000D01*
X206224000Y113274000D02*
X206224000Y109210000D01*
X207444000Y114780000D02*
X207444000Y113832000D01*
X207494000Y113782000D02*
X207240000Y113528000D01*
X204724000Y102870000D02*
X203708000Y103886000D01*
X210034000Y103354000D02*
X209550000Y102870000D01*
X231280000Y187592000D02*
X231280000Y185166000D01*
X208002000Y108956000D02*
X209526000Y108956000D01*
X203708000Y103886000D02*
X203708000Y186690000D01*
X206478000Y108956000D02*
X208002000Y108956000D01*
X210034000Y108448000D02*
X210034000Y103354000D01*
X230886000Y188214000D02*
X231394000Y187706000D01*
X231394000Y187706000D02*
X231280000Y187592000D01*
X205232000Y188214000D02*
X230886000Y188214000D01*
X209526000Y108956000D02*
X210034000Y108448000D01*
X207444000Y113832000D02*
X207494000Y113782000D01*
X207240000Y113528000D02*
X206478000Y113528000D01*
X203708000Y186690000D02*
X205232000Y188214000D01*
%TO.N,Net-(CP71-Pad1)*%
X210288000Y110734000D02*
X211304000Y110734000D01*
X211711500Y106680000D02*
X211711500Y104180000D01*
X211624000Y109480000D02*
X211624000Y106767500D01*
X211711500Y104180000D02*
X211661500Y104130000D01*
X208002000Y111496000D02*
X209526000Y111496000D01*
X211624000Y106767500D02*
X211711500Y106680000D01*
X211624000Y110414000D02*
X211624000Y109480000D01*
X211304000Y110734000D02*
X211624000Y110414000D01*
X209526000Y111496000D02*
X210288000Y110734000D01*
%TO.N,Net-(CP72-Pad1)*%
X212574000Y121910000D02*
X212574000Y111480000D01*
X214444000Y122380000D02*
X213044000Y122380000D01*
X213044000Y122380000D02*
X212574000Y121910000D01*
X214502500Y129784000D02*
X214502500Y122438500D01*
X214502500Y122438500D02*
X214444000Y122380000D01*
X210922000Y126482000D02*
X214606000Y126482000D01*
%TO.N,/CTRL19*%
X222504000Y178054000D02*
X226060000Y181610000D01*
X225298000Y159512000D02*
X225044000Y159258000D01*
X224028000Y154940000D02*
X224282000Y154686000D01*
X225044000Y159258000D02*
X224282000Y159258000D01*
X224028000Y159004000D02*
X224028000Y154940000D01*
X225248000Y159562000D02*
X225298000Y159512000D01*
X227330000Y154686000D02*
X227838000Y154178000D01*
X233780000Y182472000D02*
X233780000Y185166000D01*
X222504000Y149860000D02*
X222504000Y178054000D01*
X224282000Y154686000D02*
X225806000Y154686000D01*
X223266000Y149098000D02*
X222504000Y149860000D01*
X232918000Y181610000D02*
X233780000Y182472000D01*
X227838000Y149098000D02*
X223266000Y149098000D01*
X226060000Y181610000D02*
X232918000Y181610000D01*
X227838000Y154178000D02*
X227838000Y149098000D01*
X225806000Y154686000D02*
X227330000Y154686000D01*
X225248000Y160510000D02*
X225248000Y159562000D01*
X224282000Y159258000D02*
X224028000Y159004000D01*
%TO.N,Net-(CP75-Pad1)*%
X228092000Y156464000D02*
X229108000Y156464000D01*
X229108000Y156464000D02*
X229428000Y156144000D01*
X229428000Y155210000D02*
X229428000Y152497500D01*
X229515500Y152410000D02*
X229515500Y149910000D01*
X229428000Y156144000D02*
X229428000Y155210000D01*
X225806000Y157226000D02*
X227330000Y157226000D01*
X227330000Y157226000D02*
X228092000Y156464000D01*
X229428000Y152497500D02*
X229515500Y152410000D01*
X229515500Y149910000D02*
X229465500Y149860000D01*
%TO.N,Net-(CP76-Pad1)*%
X230848000Y168110000D02*
X230378000Y167640000D01*
X232306500Y168168500D02*
X232248000Y168110000D01*
X232306500Y175514000D02*
X232306500Y168168500D01*
X228726000Y172212000D02*
X232410000Y172212000D01*
X230378000Y167640000D02*
X230378000Y157210000D01*
X232248000Y168110000D02*
X230848000Y168110000D01*
%TO.N,/CTRL20*%
X232664000Y182880000D02*
X232605480Y182938520D01*
X225246000Y114780000D02*
X225246000Y113832000D01*
X225246000Y113832000D02*
X225296000Y113782000D01*
X224280000Y113528000D02*
X224026000Y113274000D01*
X232605480Y186885480D02*
X233426000Y187706000D01*
X232156000Y182372000D02*
X232664000Y182880000D01*
X235458000Y187706000D02*
X236280000Y186884000D01*
X221996000Y102870000D02*
X221234000Y103632000D01*
X221234000Y103632000D02*
X221234000Y178816000D01*
X224026000Y109210000D02*
X224280000Y108956000D01*
X224026000Y113274000D02*
X224026000Y109210000D01*
X224280000Y108956000D02*
X225804000Y108956000D01*
X221234000Y178816000D02*
X224790000Y182372000D01*
X225246000Y113832000D02*
X225296000Y113782000D01*
X224026000Y109210000D02*
X224280000Y108956000D01*
X225296000Y113782000D02*
X225042000Y113528000D01*
X225042000Y113528000D02*
X224280000Y113528000D01*
X224280000Y108956000D02*
X225804000Y108956000D01*
X225246000Y114780000D02*
X225246000Y113832000D01*
X224026000Y113274000D02*
X224026000Y109210000D01*
X227330000Y102870000D02*
X221996000Y102870000D01*
X227836000Y103368000D02*
X227828000Y103368000D01*
X225296000Y113782000D02*
X225042000Y113528000D01*
X236280000Y186884000D02*
X236280000Y185166000D01*
X227328000Y108956000D02*
X227836000Y108448000D01*
X224790000Y182372000D02*
X232156000Y182372000D01*
X233426000Y187706000D02*
X235458000Y187706000D01*
X224280000Y113528000D02*
X224026000Y113274000D01*
X225042000Y113528000D02*
X224280000Y113528000D01*
X227836000Y108448000D02*
X227836000Y103368000D01*
X225804000Y108956000D02*
X227328000Y108956000D01*
X232605480Y182938520D02*
X232605480Y186885480D01*
X227828000Y103368000D02*
X227330000Y102870000D01*
%TO.N,Net-(CP79-Pad1)*%
X229426000Y109480000D02*
X229426000Y106767500D01*
X229106000Y110734000D02*
X229426000Y110414000D01*
X228090000Y110734000D02*
X229106000Y110734000D01*
X229513500Y106680000D02*
X229513500Y104180000D01*
X229426000Y106767500D02*
X229513500Y106680000D01*
X225804000Y111496000D02*
X227328000Y111496000D01*
X229426000Y106767500D02*
X229513500Y106680000D01*
X229426000Y110414000D02*
X229426000Y109480000D01*
X229426000Y110414000D02*
X229426000Y109480000D01*
X229426000Y109480000D02*
X229426000Y106767500D01*
X229106000Y110734000D02*
X229426000Y110414000D01*
X225804000Y111496000D02*
X227328000Y111496000D01*
X229513500Y104180000D02*
X229463500Y104130000D01*
X229513500Y104180000D02*
X229463500Y104130000D01*
X227328000Y111496000D02*
X228090000Y110734000D01*
X229513500Y106680000D02*
X229513500Y104180000D01*
X227328000Y111496000D02*
X228090000Y110734000D01*
X228090000Y110734000D02*
X229106000Y110734000D01*
%TO.N,Net-(CP80-Pad1)*%
X228724000Y126482000D02*
X232408000Y126482000D01*
X232304500Y122438500D02*
X232246000Y122380000D01*
X232246000Y122380000D02*
X230846000Y122380000D01*
X230376000Y121910000D02*
X230376000Y111480000D01*
X228724000Y126482000D02*
X232408000Y126482000D01*
X230846000Y122380000D02*
X230376000Y121910000D01*
X232304500Y122438500D02*
X232246000Y122380000D01*
X230376000Y121910000D02*
X230376000Y111480000D01*
X232304500Y129784000D02*
X232304500Y122438500D01*
X230846000Y122380000D02*
X230376000Y121910000D01*
X232304500Y129784000D02*
X232304500Y122438500D01*
X232246000Y122380000D02*
X230846000Y122380000D01*
%TO.N,/CTRL21*%
X241681000Y154940000D02*
X241935000Y154686000D01*
X240030000Y180340000D02*
X238760000Y181610000D01*
X244856000Y148082000D02*
X240792000Y148082000D01*
X241935000Y159258000D02*
X241681000Y159004000D01*
X242697000Y159258000D02*
X241935000Y159258000D01*
X244983000Y154686000D02*
X245491000Y154178000D01*
X242901000Y159562000D02*
X242951000Y159512000D01*
X243459000Y154686000D02*
X244983000Y154686000D01*
X245491000Y148717000D02*
X244856000Y148082000D01*
X240792000Y148082000D02*
X240030000Y148844000D01*
X238780000Y181630000D02*
X238780000Y185166000D01*
X241681000Y159004000D02*
X241681000Y154940000D01*
X242951000Y159512000D02*
X242697000Y159258000D01*
X241935000Y154686000D02*
X243459000Y154686000D01*
X238760000Y181610000D02*
X238780000Y181630000D01*
X242901000Y160510000D02*
X242901000Y159562000D01*
X240030000Y148844000D02*
X240030000Y180340000D01*
X245491000Y154178000D02*
X245491000Y148717000D01*
%TO.N,Net-(CP83-Pad1)*%
X244983000Y157226000D02*
X245745000Y156464000D01*
X243459000Y157226000D02*
X244983000Y157226000D01*
X246761000Y156464000D02*
X247081000Y156144000D01*
X247081000Y152497500D02*
X247168500Y152410000D01*
X245745000Y156464000D02*
X246761000Y156464000D01*
X247081000Y156144000D02*
X247081000Y155210000D01*
X247081000Y155210000D02*
X247081000Y152497500D01*
X247168500Y149910000D02*
X247118500Y149860000D01*
X247168500Y152410000D02*
X247168500Y149910000D01*
%TO.N,Net-(CP84-Pad1)*%
X246379000Y172212000D02*
X250063000Y172212000D01*
X249959500Y168168500D02*
X249901000Y168110000D01*
X249901000Y168110000D02*
X248501000Y168110000D01*
X248031000Y167640000D02*
X248031000Y157210000D01*
X249959500Y175514000D02*
X249959500Y168168500D01*
X248501000Y168110000D02*
X248031000Y167640000D01*
%TO.N,/CTRL22*%
X245063800Y108956000D02*
X245571800Y108448000D01*
X242981800Y114780000D02*
X242981800Y113832000D01*
X245571800Y108448000D02*
X245571800Y103424200D01*
X239014000Y103632000D02*
X239014000Y179070000D01*
X237490000Y183134000D02*
X237490000Y186944000D01*
X237236000Y182880000D02*
X237490000Y183134000D01*
X241761800Y113274000D02*
X241761800Y109210000D01*
X242015800Y108956000D02*
X243539800Y108956000D01*
X237998000Y187452000D02*
X240792000Y187452000D01*
X241300000Y186690000D02*
X241280000Y186670000D01*
X239014000Y179070000D02*
X237236000Y180848000D01*
X242981800Y113832000D02*
X243031800Y113782000D01*
X241300000Y186944000D02*
X241300000Y186690000D01*
X237236000Y180848000D02*
X237236000Y182880000D01*
X241280000Y186670000D02*
X241280000Y185166000D01*
X239314200Y103424200D02*
X239268000Y103378000D01*
X240792000Y187452000D02*
X241300000Y186944000D01*
X237490000Y186944000D02*
X237998000Y187452000D01*
X245571800Y103424200D02*
X239314200Y103424200D01*
X241761800Y109210000D02*
X242015800Y108956000D01*
X243031800Y113782000D02*
X242777800Y113528000D01*
X242777800Y113528000D02*
X242015800Y113528000D01*
X242015800Y113528000D02*
X241761800Y113274000D01*
X243539800Y108956000D02*
X245063800Y108956000D01*
X239268000Y103378000D02*
X239014000Y103632000D01*
%TO.N,Net-(CP87-Pad1)*%
X247249300Y106680000D02*
X247249300Y104180000D01*
X247161800Y110414000D02*
X247161800Y109480000D01*
X245063800Y111496000D02*
X245825800Y110734000D01*
X243539800Y111496000D02*
X245063800Y111496000D01*
X247161800Y106767500D02*
X247249300Y106680000D01*
X245825800Y110734000D02*
X246841800Y110734000D01*
X247249300Y104180000D02*
X247199300Y104130000D01*
X246841800Y110734000D02*
X247161800Y110414000D01*
X247161800Y109480000D02*
X247161800Y106767500D01*
%TO.N,Net-(CP88-Pad1)*%
X250040300Y129784000D02*
X250040300Y122438500D01*
X248111800Y121910000D02*
X248111800Y111480000D01*
X250040300Y122438500D02*
X249981800Y122380000D01*
X246459800Y126482000D02*
X250143800Y126482000D01*
X249981800Y122380000D02*
X248581800Y122380000D01*
X248581800Y122380000D02*
X248111800Y121910000D01*
%TO.N,/CTRL23*%
X254508000Y189230000D02*
X244602000Y189230000D01*
X262890000Y148082000D02*
X255270000Y148082000D01*
X244602000Y189230000D02*
X243780000Y188408000D01*
X259461000Y154940000D02*
X259715000Y154686000D01*
X260681000Y160510000D02*
X260681000Y159562000D01*
X255270000Y148082000D02*
X254762000Y148590000D01*
X263271000Y154178000D02*
X263271000Y148463000D01*
X259715000Y159258000D02*
X259461000Y159004000D01*
X255270000Y188468000D02*
X254508000Y189230000D01*
X262763000Y154686000D02*
X263271000Y154178000D01*
X261239000Y154686000D02*
X262763000Y154686000D01*
X243780000Y188408000D02*
X243780000Y185166000D01*
X263271000Y148463000D02*
X262890000Y148082000D01*
X260681000Y159562000D02*
X260731000Y159512000D01*
X254762000Y187960000D02*
X255270000Y188468000D01*
X260477000Y159258000D02*
X259715000Y159258000D01*
X259715000Y154686000D02*
X261239000Y154686000D01*
X260731000Y159512000D02*
X260477000Y159258000D01*
X254762000Y148590000D02*
X254762000Y187960000D01*
X259461000Y159004000D02*
X259461000Y154940000D01*
%TO.N,Net-(CP91-Pad1)*%
X264861000Y155210000D02*
X264861000Y152497500D01*
X262763000Y157226000D02*
X263525000Y156464000D01*
X264861000Y152497500D02*
X264948500Y152410000D01*
X264948500Y149910000D02*
X264898500Y149860000D01*
X264541000Y156464000D02*
X264861000Y156144000D01*
X263525000Y156464000D02*
X264541000Y156464000D01*
X261239000Y157226000D02*
X262763000Y157226000D01*
X264861000Y156144000D02*
X264861000Y155210000D01*
X264948500Y152410000D02*
X264948500Y149910000D01*
%TO.N,Net-(CP92-Pad1)*%
X267739500Y168168500D02*
X267681000Y168110000D01*
X267739500Y175514000D02*
X267739500Y168168500D01*
X264159000Y172212000D02*
X267843000Y172212000D01*
X265811000Y167640000D02*
X265811000Y157210000D01*
X266281000Y168110000D02*
X265811000Y167640000D01*
X267681000Y168110000D02*
X266281000Y168110000D01*
%TO.N,/CTRL24*%
X247142000Y182626000D02*
X253492000Y182626000D01*
X254508000Y102362000D02*
X262636000Y102362000D01*
X263398000Y103124000D02*
X263398000Y108448000D01*
X253492000Y182626000D02*
X253492000Y103378000D01*
X263398000Y108448000D02*
X262890000Y108956000D01*
X259588000Y113274000D02*
X259588000Y109210000D01*
X259842000Y113528000D02*
X259588000Y113274000D01*
X253492000Y103378000D02*
X254508000Y102362000D01*
X260858000Y113782000D02*
X260604000Y113528000D01*
X246280000Y183488000D02*
X247142000Y182626000D01*
X260808000Y114780000D02*
X260808000Y113832000D01*
X259842000Y108956000D02*
X261366000Y108956000D01*
X262890000Y108956000D02*
X261366000Y108956000D01*
X246280000Y185166000D02*
X246280000Y183488000D01*
X262636000Y102362000D02*
X263398000Y103124000D01*
X259588000Y109210000D02*
X259842000Y108956000D01*
X260808000Y113832000D02*
X260858000Y113782000D01*
X260604000Y113528000D02*
X259842000Y113528000D01*
%TO.N,Net-(CP95-Pad1)*%
X265075500Y106680000D02*
X265075500Y104180000D01*
X265075500Y104180000D02*
X265025500Y104130000D01*
X264988000Y110414000D02*
X264988000Y109480000D01*
X264988000Y106767500D02*
X265075500Y106680000D01*
X263652000Y110734000D02*
X264668000Y110734000D01*
X262890000Y111496000D02*
X263652000Y110734000D01*
X261366000Y111496000D02*
X262890000Y111496000D01*
X264668000Y110734000D02*
X264988000Y110414000D01*
X264988000Y109480000D02*
X264988000Y106767500D01*
%TO.N,Net-(CP96-Pad1)*%
X267808000Y122380000D02*
X266408000Y122380000D01*
X266408000Y122380000D02*
X265938000Y121910000D01*
X267866500Y122438500D02*
X267808000Y122380000D01*
X267866500Y129784000D02*
X267866500Y122438500D01*
X265938000Y121910000D02*
X265938000Y111480000D01*
X264286000Y126482000D02*
X267970000Y126482000D01*
%TO.N,+5V*%
X116156500Y129784000D02*
X116156500Y126531500D01*
X133758000Y122380000D02*
X135588000Y122380000D01*
X14907500Y92202000D02*
X14907500Y96216500D01*
X133936000Y126482000D02*
X133936000Y122558000D01*
X151715000Y122558000D02*
X151537000Y122380000D01*
X60242500Y129784000D02*
X60242500Y126531500D01*
X207444000Y122380000D02*
X209248000Y122380000D01*
X116156500Y172261500D02*
X116206000Y172212000D01*
X7977500Y118006500D02*
X7977500Y119126000D01*
X24766000Y126482000D02*
X24766000Y122558000D01*
X44196000Y168148000D02*
X42487000Y168148000D01*
X173482000Y168148000D02*
X171905200Y168148000D01*
X227330000Y168148000D02*
X225286000Y168148000D01*
X277154000Y185212000D02*
X277154000Y179364000D01*
X260809500Y172261500D02*
X260859000Y172212000D01*
X207596500Y172261500D02*
X207646000Y172212000D01*
X198638000Y81270000D02*
X198120000Y81788000D01*
X133936000Y122558000D02*
X133758000Y122380000D01*
X116028000Y122380000D02*
X118062000Y122380000D01*
X151665500Y126531500D02*
X151715000Y126482000D01*
X42577500Y172261500D02*
X42627000Y172212000D01*
X171857200Y122390000D02*
X173952000Y122390000D01*
X78056500Y126531500D02*
X78106000Y126482000D01*
X133936000Y168288000D02*
X133758000Y168110000D01*
X225424000Y122558000D02*
X225246000Y122380000D01*
X60292000Y172212000D02*
X60292000Y168288000D01*
X135588000Y122380000D02*
X135636000Y122428000D01*
X243159800Y126482000D02*
X243159800Y122558000D01*
X244856000Y168148000D02*
X242939000Y168148000D01*
X60292000Y126482000D02*
X60292000Y122558000D01*
X7874000Y122428000D02*
X7874000Y119229500D01*
X78106000Y172212000D02*
X78106000Y168288000D01*
X26632000Y168110000D02*
X26670000Y168148000D01*
X42577500Y129784000D02*
X42577500Y126531500D01*
X243110300Y129784000D02*
X243110300Y126531500D01*
X12700000Y101092000D02*
X12700000Y105156000D01*
X260859000Y168288000D02*
X260681000Y168110000D01*
X151715000Y126482000D02*
X151715000Y122558000D01*
X133936000Y172212000D02*
X133936000Y168288000D01*
X173952000Y122390000D02*
X173990000Y122428000D01*
X243029500Y175514000D02*
X243029500Y172261500D01*
X137150000Y81270000D02*
X110754000Y81270000D01*
X263398000Y168148000D02*
X263360000Y168110000D01*
X8890000Y112522000D02*
X8890000Y117094000D01*
X42627000Y168288000D02*
X42449000Y168110000D01*
X24716500Y126531500D02*
X24766000Y126482000D01*
X225246000Y122380000D02*
X227282000Y122380000D01*
X8890000Y117094000D02*
X7977500Y118006500D01*
X14858000Y96266000D02*
X14858000Y100270000D01*
X78056500Y129784000D02*
X78056500Y126531500D01*
X13296000Y105752000D02*
X14940000Y105752000D01*
X42577500Y126531500D02*
X42627000Y126482000D01*
X116206000Y172212000D02*
X116206000Y168288000D01*
X24766000Y172212000D02*
X24766000Y168288000D01*
X118062000Y122380000D02*
X118110000Y122428000D01*
X19558000Y90678000D02*
X28966000Y81270000D01*
X24588000Y168110000D02*
X26632000Y168110000D01*
X42577500Y175514000D02*
X42577500Y172261500D01*
X40386000Y122428000D02*
X42401000Y122428000D01*
X225374500Y126531500D02*
X225424000Y126482000D01*
X151665500Y129784000D02*
X151665500Y126531500D01*
X207622000Y122558000D02*
X207444000Y122380000D01*
X78106000Y122558000D02*
X77928000Y122380000D01*
X116206000Y168288000D02*
X116028000Y168110000D01*
X260808000Y122380000D02*
X262588000Y122380000D01*
X12700000Y110236000D02*
X10668000Y112268000D01*
X13296000Y105752000D02*
X13296000Y105830000D01*
X207572500Y126531500D02*
X207622000Y126482000D01*
X13296000Y105830000D02*
X12700000Y106426000D01*
X60292000Y168288000D02*
X60114000Y168110000D01*
X42627000Y126482000D02*
X42627000Y122558000D01*
X225424000Y126482000D02*
X225424000Y122558000D01*
X260809500Y177497500D02*
X260809500Y175514000D01*
X9144000Y112268000D02*
X8890000Y112522000D01*
X22908000Y122380000D02*
X22860000Y122428000D01*
X80010000Y168148000D02*
X77966000Y168148000D01*
X263360000Y168110000D02*
X260681000Y168110000D01*
X207622000Y126482000D02*
X207622000Y122558000D01*
X198120000Y168148000D02*
X198120000Y122428000D01*
X151715000Y172212000D02*
X151715000Y168288000D01*
X153368000Y122380000D02*
X153416000Y122428000D01*
X275844000Y178054000D02*
X261366000Y178054000D01*
X225424000Y126482000D02*
X225424000Y122558000D01*
X133886500Y172261500D02*
X133936000Y172212000D01*
X209550000Y168148000D02*
X207506000Y168148000D01*
X260859000Y172212000D02*
X260859000Y168288000D01*
X78106000Y126482000D02*
X78106000Y122558000D01*
X172035200Y168278000D02*
X171857200Y168100000D01*
X261366000Y178054000D02*
X260809500Y177497500D01*
X260986000Y126482000D02*
X260986000Y122558000D01*
X118110000Y168148000D02*
X116066000Y168148000D01*
X24766000Y168288000D02*
X24588000Y168110000D01*
X151665500Y172261500D02*
X151715000Y172212000D01*
X171985700Y172251500D02*
X172035200Y172202000D01*
X78056500Y172261500D02*
X78106000Y172212000D01*
X243110300Y126531500D02*
X243159800Y126482000D01*
X225374500Y129784000D02*
X225374500Y126531500D01*
X151665500Y175514000D02*
X151665500Y172261500D01*
X60242500Y172261500D02*
X60292000Y172212000D01*
X225374500Y129784000D02*
X225374500Y126531500D01*
X243159800Y122558000D02*
X242981800Y122380000D01*
X42627000Y172212000D02*
X42627000Y168288000D01*
X133886500Y126531500D02*
X133936000Y126482000D01*
X116206000Y126482000D02*
X116206000Y122558000D01*
X78106000Y168288000D02*
X77928000Y168110000D01*
X260986000Y122558000D02*
X260808000Y122380000D01*
X225426000Y172212000D02*
X225426000Y168288000D01*
X116206000Y122558000D02*
X116028000Y122380000D01*
X78056500Y175514000D02*
X78056500Y172261500D01*
X262588000Y122380000D02*
X262636000Y122428000D01*
X28966000Y81270000D02*
X44948000Y81270000D01*
X133886500Y175514000D02*
X133886500Y172261500D01*
X277154000Y179364000D02*
X275844000Y178054000D01*
X13440000Y100352000D02*
X12700000Y101092000D01*
X207646000Y168288000D02*
X207468000Y168110000D01*
X260809500Y175514000D02*
X260809500Y172261500D01*
X171985700Y175504000D02*
X171985700Y172251500D01*
X76200000Y122428000D02*
X77880000Y122428000D01*
X10668000Y112268000D02*
X9144000Y112268000D01*
X24766000Y122558000D02*
X24588000Y122380000D01*
X12700000Y110236000D02*
X18796000Y110236000D01*
X225426000Y168288000D02*
X225248000Y168110000D01*
X225376500Y175514000D02*
X225376500Y172261500D01*
X58420000Y122428000D02*
X60066000Y122428000D01*
X109728000Y82296000D02*
X109728000Y122428000D01*
X153416000Y168148000D02*
X151575000Y168148000D01*
X60242500Y175514000D02*
X60242500Y172261500D01*
X260936500Y129784000D02*
X260936500Y126531500D01*
X171985700Y126541500D02*
X172035200Y126492000D01*
X243029500Y172261500D02*
X243079000Y172212000D01*
X198120000Y81788000D02*
X198120000Y122428000D01*
X209248000Y122380000D02*
X209296000Y122428000D01*
X172035200Y122568000D02*
X171857200Y122390000D01*
X207646000Y172212000D02*
X207646000Y168288000D01*
X225374500Y126531500D02*
X225424000Y126482000D01*
X116156500Y175514000D02*
X116156500Y172261500D01*
X24588000Y122380000D02*
X22908000Y122380000D01*
X225424000Y122558000D02*
X225246000Y122380000D01*
X230124000Y81270000D02*
X198638000Y81270000D01*
X14940000Y100352000D02*
X13440000Y100352000D01*
X151537000Y122380000D02*
X153368000Y122380000D01*
X42627000Y122558000D02*
X42449000Y122380000D01*
X244808000Y122380000D02*
X244856000Y122428000D01*
X110754000Y81270000D02*
X109728000Y82296000D01*
X172035200Y126492000D02*
X172035200Y122568000D01*
X24716500Y172261500D02*
X24766000Y172212000D01*
X133886500Y129784000D02*
X133886500Y126531500D01*
X243079000Y172212000D02*
X243079000Y168288000D01*
X227282000Y122380000D02*
X227330000Y122428000D01*
X171985700Y129794000D02*
X171985700Y126541500D01*
X12700000Y106426000D02*
X12700000Y110236000D01*
X12700000Y105156000D02*
X13296000Y105752000D01*
X242981800Y122380000D02*
X244808000Y122380000D01*
X207572500Y129784000D02*
X207572500Y126531500D01*
X19558000Y109474000D02*
X19558000Y90678000D01*
X61722000Y168148000D02*
X60152000Y168148000D01*
X225376500Y172261500D02*
X225426000Y172212000D01*
X18796000Y110236000D02*
X19558000Y109474000D01*
X260936500Y126531500D02*
X260986000Y126482000D01*
X207596500Y175514000D02*
X207596500Y172261500D01*
X116156500Y126531500D02*
X116206000Y126482000D01*
X135636000Y168148000D02*
X133796000Y168148000D01*
X172035200Y172202000D02*
X172035200Y168278000D01*
X243079000Y168288000D02*
X242901000Y168110000D01*
X151715000Y168288000D02*
X151537000Y168110000D01*
X24716500Y129784000D02*
X24716500Y126531500D01*
X24716500Y175514000D02*
X24716500Y172261500D01*
%TO.N,/MCU+*%
X118110000Y6604000D02*
X118872000Y7366000D01*
X98044000Y6604000D02*
X108458000Y6604000D01*
X118872000Y7366000D02*
X118872000Y8231500D01*
X97536000Y7112000D02*
X98044000Y6604000D01*
X108458000Y6604000D02*
X118110000Y6604000D01*
X88692000Y34718000D02*
X72310000Y34718000D01*
X90090000Y34718000D02*
X88692000Y34718000D01*
X72310000Y34718000D02*
X72136000Y34544000D01*
X95504000Y35560000D02*
X96774000Y35560000D01*
X96774000Y35560000D02*
X97536000Y34798000D01*
X72136000Y34544000D02*
X72136000Y32258000D01*
X90090000Y34718000D02*
X90932000Y35560000D01*
X95504000Y35560000D02*
X90932000Y35560000D01*
X17272000Y76454000D02*
X59008000Y34718000D01*
X59008000Y34718000D02*
X90090000Y34718000D01*
X97536000Y34798000D02*
X97536000Y12954000D01*
X108458000Y8231500D02*
X108458000Y6604000D01*
X17272000Y107950000D02*
X17272000Y76454000D01*
X14940000Y107952000D02*
X17270000Y107952000D01*
%TO.N,Net-(CP99-Pad1)*%
X9802500Y119126000D02*
X9802500Y113305500D01*
X9802500Y116078000D02*
X12954000Y116078000D01*
%TO.N,Net-(CP100-Pad1)*%
X10668000Y101092000D02*
X10668000Y110744000D01*
X10668000Y110744000D02*
X10144000Y111268000D01*
X7723500Y92202000D02*
X7723500Y96115500D01*
X7940000Y100352000D02*
X9928000Y100352000D01*
X11558000Y96266000D02*
X7874000Y96266000D01*
X9928000Y100352000D02*
X10668000Y101092000D01*
X7874000Y96266000D02*
X7874000Y100286000D01*
X10144000Y111268000D02*
X8890000Y111268000D01*
%TO.N,GNDD*%
X32020000Y155210000D02*
X30668000Y155210000D01*
X159512000Y89662000D02*
X159512000Y110045022D01*
X32252000Y109480000D02*
X32258000Y109474000D01*
X157617000Y109480000D02*
X158998000Y109480000D01*
X233426000Y109728000D02*
X233426000Y110045022D01*
X49524000Y109480000D02*
X48529000Y109480000D01*
X158740000Y88890000D02*
X159512000Y89662000D01*
X177937200Y155200000D02*
X177937200Y152412500D01*
X159258000Y155194000D02*
X159468694Y155404694D01*
X6366000Y113268000D02*
X7940000Y113268000D01*
X48529000Y152422500D02*
X48541500Y152410000D01*
X233426000Y110045022D02*
X233330511Y110140511D01*
X9906000Y109220000D02*
X9652000Y109474000D01*
X139838000Y152422500D02*
X139850500Y152410000D01*
X248981000Y152422500D02*
X248993500Y152410000D01*
X6350000Y113284000D02*
X6366000Y113268000D01*
X231328000Y152422500D02*
X231340500Y152410000D01*
X32512000Y155702000D02*
X32020000Y155210000D01*
X123444000Y109474000D02*
X123856511Y109886511D01*
X141732000Y155448000D02*
X141732000Y155956000D01*
X68072000Y94234000D02*
X62728000Y88890000D01*
X249061800Y106692500D02*
X249074300Y106680000D01*
X50280000Y110236000D02*
X49524000Y109480000D01*
X159468694Y155404694D02*
X159468694Y155999306D01*
X84008000Y106692500D02*
X84020500Y106680000D01*
X49800000Y155210000D02*
X48529000Y155210000D01*
X48529000Y109480000D02*
X48529000Y106692500D01*
X231328000Y155210000D02*
X231328000Y152422500D01*
X159242000Y155210000D02*
X159258000Y155194000D01*
X123438000Y109480000D02*
X123444000Y109474000D01*
X30668000Y155210000D02*
X30668000Y152422500D01*
X122108000Y106692500D02*
X122120500Y106680000D01*
X215138000Y155956000D02*
X215138000Y155194000D01*
X48529000Y155210000D02*
X48529000Y152422500D01*
X9652000Y109474000D02*
X6350000Y109474000D01*
X123654694Y155658694D02*
X123654694Y155999306D01*
X141230000Y109480000D02*
X141890511Y110140511D01*
X139838000Y155210000D02*
X139838000Y152422500D01*
X122108000Y155210000D02*
X123174000Y155210000D01*
X231326000Y109480000D02*
X231326000Y106692500D01*
X215122000Y155210000D02*
X213548000Y155210000D01*
X70358000Y155956000D02*
X69612000Y155210000D01*
X268230000Y109480000D02*
X268732000Y109982000D01*
X250698000Y89916000D02*
X249672000Y88890000D01*
X70358000Y184404000D02*
X69596000Y185166000D01*
X179340000Y109490000D02*
X179673489Y109823489D01*
X84008000Y152422500D02*
X84020500Y152410000D01*
X231328000Y155210000D02*
X232426000Y155210000D01*
X250654694Y155404694D02*
X250654694Y155999306D01*
X250428000Y155210000D02*
X250444000Y155194000D01*
X69596000Y185166000D02*
X68380000Y185166000D01*
X32258000Y109474000D02*
X33020000Y109474000D01*
X33274000Y109728000D02*
X33274000Y134620000D01*
X248981000Y155210000D02*
X248981000Y152422500D01*
X122108000Y109480000D02*
X122108000Y106692500D01*
X68072000Y109220000D02*
X67945000Y109093000D01*
X5842000Y109982000D02*
X5842000Y112776000D01*
X50292000Y110236000D02*
X50280000Y110236000D01*
X141494000Y155210000D02*
X141732000Y155448000D01*
X7940000Y105752000D02*
X9486000Y105752000D01*
X266761000Y155210000D02*
X266761000Y152422500D01*
X157617000Y109480000D02*
X157617000Y106692500D01*
X30668000Y152422500D02*
X30680500Y152410000D01*
X85338000Y109480000D02*
X85344000Y109474000D01*
X139838000Y109480000D02*
X139838000Y106692500D01*
X9486000Y105752000D02*
X9906000Y106172000D01*
X266761000Y152422500D02*
X266773500Y152410000D01*
X250444000Y155194000D02*
X250654694Y155404694D01*
X122108000Y109480000D02*
X123438000Y109480000D01*
X231326000Y109480000D02*
X233178000Y109480000D01*
X177937200Y155200000D02*
X179572000Y155200000D01*
X9906000Y106172000D02*
X9906000Y109220000D01*
X66194000Y109480000D02*
X66194000Y106692500D01*
X231326000Y106692500D02*
X231338500Y106680000D01*
X123856511Y109886511D02*
X123856511Y110140511D01*
X250438000Y109480000D02*
X249061800Y109480000D01*
X29793480Y138100520D02*
X29793480Y150951480D01*
X84008000Y109480000D02*
X85338000Y109480000D01*
X213524000Y109480000D02*
X214878000Y109480000D01*
X159416511Y109886511D02*
X159416511Y110140511D01*
X215138000Y155194000D02*
X215122000Y155210000D01*
X7977500Y116078000D02*
X7977500Y113305500D01*
X157617000Y155210000D02*
X159242000Y155210000D01*
X30480000Y151130000D02*
X30630500Y151280500D01*
X84008000Y155210000D02*
X84008000Y152422500D01*
X30630500Y151280500D02*
X30630500Y152410000D01*
X231326000Y106692500D02*
X231338500Y106680000D01*
X232707306Y155491306D02*
X232707306Y155999306D01*
X5842000Y112776000D02*
X6350000Y113284000D01*
X231326000Y109480000D02*
X231326000Y106692500D01*
X123174000Y155210000D02*
X123190000Y155194000D01*
X233178000Y109480000D02*
X233426000Y109728000D01*
X30668000Y106692500D02*
X30680500Y106680000D01*
X177937200Y109490000D02*
X179340000Y109490000D01*
X179673489Y109823489D02*
X179673489Y110140511D01*
X214884000Y109474000D02*
X215042511Y109632511D01*
X66194000Y155210000D02*
X66194000Y152422500D01*
X159512000Y110045022D02*
X159416511Y110140511D01*
X232426000Y155210000D02*
X232707306Y155491306D01*
X157617000Y106692500D02*
X157629500Y106680000D01*
X250698000Y110236000D02*
X250698000Y89916000D01*
X159004000Y109474000D02*
X159416511Y109886511D01*
X50546000Y155956000D02*
X49800000Y155210000D01*
X6350000Y109474000D02*
X5842000Y109982000D01*
X158998000Y109480000D02*
X159004000Y109474000D01*
X154930000Y88890000D02*
X158740000Y88890000D01*
X179788694Y155404694D02*
X179788694Y155999306D01*
X84008000Y109480000D02*
X84008000Y106692500D01*
X266888000Y106692500D02*
X266900500Y106680000D01*
X85614000Y155210000D02*
X86360000Y155956000D01*
X266888000Y109480000D02*
X268230000Y109480000D01*
X123190000Y155194000D02*
X123654694Y155658694D01*
X67945000Y109093000D02*
X66581000Y109093000D01*
X141732000Y155956000D02*
X141688694Y155999306D01*
X214878000Y109480000D02*
X214884000Y109474000D01*
X29972000Y151130000D02*
X30480000Y151130000D01*
X66581000Y109093000D02*
X66194000Y109480000D01*
X33020000Y109474000D02*
X33274000Y109728000D01*
X122108000Y152422500D02*
X122120500Y152410000D01*
X159840000Y185166000D02*
X163322000Y185166000D01*
X213524000Y109480000D02*
X213524000Y106692500D01*
X196639306Y110279306D02*
X196596000Y110236000D01*
X215042511Y109632511D02*
X215042511Y110140511D01*
X179572000Y155200000D02*
X179578000Y155194000D01*
X30668000Y109480000D02*
X32252000Y109480000D01*
X157617000Y152422500D02*
X157629500Y152410000D01*
X48529000Y106692500D02*
X48541500Y106680000D01*
X266888000Y109480000D02*
X266888000Y106692500D01*
X248981000Y155210000D02*
X250428000Y155210000D01*
X139838000Y155210000D02*
X141494000Y155210000D01*
X213524000Y106692500D02*
X213536500Y106680000D01*
X163830000Y184658000D02*
X163830000Y160360612D01*
X249672000Y88890000D02*
X247904000Y88890000D01*
X177937200Y109490000D02*
X177937200Y106702500D01*
X85344000Y109474000D02*
X86000511Y110130511D01*
X163830000Y160360612D02*
X159468694Y155999306D01*
X213548000Y152422500D02*
X213560500Y152410000D01*
X7940000Y105752000D02*
X4028000Y105752000D01*
X69612000Y155210000D02*
X66194000Y155210000D01*
X122108000Y155210000D02*
X122108000Y152422500D01*
X68072000Y110236000D02*
X68072000Y94234000D01*
X249061800Y109480000D02*
X249061800Y106692500D01*
X84008000Y155210000D02*
X85614000Y155210000D01*
X33274000Y134620000D02*
X29793480Y138100520D01*
X30668000Y109480000D02*
X30668000Y106692500D01*
X268472000Y155200000D02*
X268478000Y155194000D01*
X196639306Y155999306D02*
X196639306Y110279306D01*
X163322000Y185166000D02*
X163830000Y184658000D01*
X139838000Y109480000D02*
X141230000Y109480000D01*
X177937200Y106702500D02*
X177949700Y106690000D01*
X66194000Y152422500D02*
X66206500Y152410000D01*
X177937200Y152412500D02*
X177949700Y152400000D01*
X266888000Y155200000D02*
X268472000Y155200000D01*
X29793480Y150951480D02*
X29972000Y151130000D01*
X157617000Y155210000D02*
X157617000Y152422500D01*
X213548000Y155210000D02*
X213548000Y152422500D01*
X268478000Y155194000D02*
X269240000Y155956000D01*
X179578000Y155194000D02*
X179788694Y155404694D01*
X250698000Y109740000D02*
X250438000Y109480000D01*
X70358000Y155956000D02*
X70358000Y184404000D01*
%TO.N,/MCU_GND*%
X123243000Y20574000D02*
X121666000Y20574000D01*
X1270000Y107442000D02*
X1270000Y89916000D01*
X5080000Y107916000D02*
X2066000Y107916000D01*
X123408000Y20739000D02*
X123408000Y12789000D01*
X1778000Y107950000D02*
X1270000Y107442000D01*
X103922000Y20485000D02*
X103833000Y20574000D01*
X62484000Y28702000D02*
X74168000Y28702000D01*
X103833000Y20574000D02*
X99822000Y20574000D01*
X1270000Y89916000D02*
X62484000Y28702000D01*
X2032000Y107950000D02*
X1778000Y107950000D01*
X123408000Y60917500D02*
X123408000Y20739000D01*
X123408000Y20739000D02*
X123243000Y20574000D01*
X103922000Y20485000D02*
X103922000Y12535000D01*
X74168000Y28702000D02*
X74676000Y29210000D01*
X7940000Y107952000D02*
X5116000Y107952000D01*
X2066000Y107916000D02*
X2032000Y107950000D01*
X74676000Y29210000D02*
X74676000Y32258000D01*
%TO.N,/2_MCU/SCK*%
X242824000Y77724000D02*
X242824000Y81270000D01*
X149850000Y77480000D02*
X150114000Y77216000D01*
X57648000Y81270000D02*
X57648000Y79258000D01*
X86360000Y72644000D02*
X95504000Y63500000D01*
X57648000Y83068000D02*
X57150000Y83566000D01*
X150114000Y77216000D02*
X242316000Y77216000D01*
X57648000Y81270000D02*
X57648000Y83068000D01*
X242316000Y77216000D02*
X242824000Y77724000D01*
X149586000Y77216000D02*
X149850000Y77480000D01*
X58420000Y72644000D02*
X86360000Y72644000D01*
X57648000Y79258000D02*
X59690000Y77216000D01*
X53848000Y77216000D02*
X58420000Y72644000D01*
X53848000Y83312000D02*
X53848000Y77216000D01*
X149850000Y81270000D02*
X149850000Y77480000D01*
X57150000Y83566000D02*
X54102000Y83566000D01*
X54102000Y83566000D02*
X53848000Y83312000D01*
X59690000Y77216000D02*
X149586000Y77216000D01*
%TO.N,Net-(DD1-Pad20)*%
X108458000Y22098000D02*
X108458000Y37084000D01*
X108422000Y20485000D02*
X108458000Y20521000D01*
X108458000Y37084000D02*
X109474000Y38100000D01*
X108458000Y20521000D02*
X108458000Y22026000D01*
X108422000Y12535000D02*
X108422000Y20485000D01*
X109474000Y38100000D02*
X110744000Y38100000D01*
X108422000Y10092500D02*
X108422000Y12535000D01*
%TO.N,Net-(DD1-Pad21)*%
X113030000Y40640000D02*
X113538000Y40132000D01*
X114300000Y20574000D02*
X118743000Y20574000D01*
X110744000Y40640000D02*
X113030000Y40640000D01*
X118872000Y10056500D02*
X118872000Y12753000D01*
X118908000Y12789000D02*
X118908000Y20739000D01*
X113538000Y40132000D02*
X113538000Y21336000D01*
X113538000Y21336000D02*
X114300000Y20574000D01*
%TO.N,/2_MCU/SYNC IN*%
X60452000Y8890000D02*
X71120000Y8890000D01*
X59436000Y6142000D02*
X59436000Y7874000D01*
X106621520Y40835520D02*
X108966000Y43180000D01*
X71120000Y8890000D02*
X71120000Y2286000D01*
X108966000Y43180000D02*
X110744000Y43180000D01*
X106621520Y8890000D02*
X106621520Y40835520D01*
X71120000Y8890000D02*
X106621520Y8890000D01*
X59436000Y7874000D02*
X60452000Y8890000D01*
%TO.N,/2_MCU/SYNC OUT*%
X56936000Y8676000D02*
X58420000Y10160000D01*
X58420000Y10160000D02*
X71120000Y10160000D01*
X107188000Y45720000D02*
X110744000Y45720000D01*
X105410000Y10160000D02*
X105410000Y43942000D01*
X71120000Y10160000D02*
X71120000Y15240000D01*
X71120000Y10160000D02*
X105410000Y10160000D01*
X105410000Y43942000D02*
X107188000Y45720000D01*
X56936000Y6142000D02*
X56936000Y8676000D01*
%TO.N,Net-(DD1-Pad25)*%
X116689500Y50800000D02*
X110744000Y50800000D01*
%TO.N,Net-(DD1-Pad27)*%
X116689500Y55880000D02*
X110744000Y55880000D01*
%TO.N,/2_MCU/CS{slash}SS*%
X117602000Y75184000D02*
X117602000Y59182000D01*
X57658000Y75184000D02*
X55108000Y77734000D01*
X55108000Y77734000D02*
X55108000Y81270000D01*
X116840000Y58420000D02*
X110744000Y58420000D01*
X117602000Y75184000D02*
X57658000Y75184000D01*
X117602000Y59182000D02*
X116840000Y58420000D01*
%TO.N,/2_MCU/MOSI*%
X85788978Y70866000D02*
X94329489Y62325489D01*
X109378511Y62325489D02*
X110744000Y60960000D01*
X50028000Y78496000D02*
X57658000Y70866000D01*
X94329489Y62325489D02*
X109378511Y62325489D01*
X57658000Y70866000D02*
X85788978Y70866000D01*
X50028000Y81270000D02*
X50028000Y78496000D01*
X116689500Y60960000D02*
X110744000Y60960000D01*
%TO.N,/RL2*%
X32258000Y103632000D02*
X31760000Y104130000D01*
X31760000Y104130000D02*
X30630500Y104130000D01*
X44948000Y88890000D02*
X43190000Y88890000D01*
X43190000Y88890000D02*
X32258000Y99822000D01*
X32258000Y99822000D02*
X32258000Y103632000D01*
%TO.N,/RL3*%
X48491500Y149860000D02*
X49784000Y149860000D01*
X49784000Y149860000D02*
X51308000Y148336000D01*
X50546000Y86868000D02*
X48260000Y86868000D01*
X47488000Y87640000D02*
X47488000Y88890000D01*
X51308000Y148336000D02*
X51308000Y87630000D01*
X51308000Y87630000D02*
X50546000Y86868000D01*
X48260000Y86868000D02*
X47488000Y87640000D01*
%TO.N,/RL4*%
X50028000Y91323000D02*
X50028000Y88890000D01*
X48491500Y104130000D02*
X48491500Y92859500D01*
X48491500Y92859500D02*
X50028000Y91323000D01*
%TO.N,/RL5*%
X52568000Y88890000D02*
X52568000Y91176000D01*
X52568000Y91176000D02*
X54610000Y93218000D01*
X54610000Y122174000D02*
X52832000Y123952000D01*
X52832000Y123952000D02*
X52832000Y146050000D01*
X66040000Y146558000D02*
X66040000Y149860000D01*
X57150000Y146050000D02*
X65532000Y146050000D01*
X65532000Y146050000D02*
X66040000Y146558000D01*
X54610000Y93218000D02*
X54610000Y122174000D01*
%TO.N,/RL6*%
X66156500Y101970500D02*
X66156500Y104130000D01*
X55108000Y88890000D02*
X55108000Y90922000D01*
X55108000Y90922000D02*
X66156500Y101970500D01*
%TO.N,/RL7*%
X58420000Y85598000D02*
X70612000Y85598000D01*
X57648000Y86370000D02*
X58420000Y85598000D01*
X87630000Y102616000D02*
X87630000Y149352000D01*
X87122000Y149860000D02*
X83970500Y149860000D01*
X70612000Y85598000D02*
X87630000Y102616000D01*
X87630000Y149352000D02*
X87122000Y149860000D01*
X57648000Y88890000D02*
X57648000Y86370000D01*
%TO.N,/RL8*%
X60706000Y86614000D02*
X69596000Y86614000D01*
X83970500Y100988500D02*
X83970500Y104130000D01*
X60188000Y87132000D02*
X60706000Y86614000D01*
X60188000Y88890000D02*
X60188000Y87132000D01*
X69596000Y86614000D02*
X83970500Y100988500D01*
%TO.N,Net-(DD3-Pad9)*%
X142240000Y78994000D02*
X142230000Y79004000D01*
X62728000Y79258000D02*
X63246000Y78740000D01*
X142230000Y79004000D02*
X142230000Y81270000D01*
X62728000Y81270000D02*
X62728000Y79258000D01*
X63246000Y78740000D02*
X141986000Y78740000D01*
X141986000Y78740000D02*
X142240000Y78994000D01*
%TO.N,/RL1*%
X34798000Y105664000D02*
X34798000Y145692500D01*
X34798000Y145692500D02*
X30630500Y149860000D01*
X46072511Y94389489D02*
X34798000Y105664000D01*
X46072511Y82685489D02*
X46072511Y94389489D01*
X47488000Y81270000D02*
X46072511Y82685489D01*
%TO.N,/RL10*%
X123962000Y104130000D02*
X122070500Y104130000D01*
X137150000Y90922000D02*
X137160000Y90932000D01*
X137160000Y90932000D02*
X123962000Y104130000D01*
X137150000Y88890000D02*
X137150000Y90922000D01*
%TO.N,/RL11*%
X142240000Y149860000D02*
X139800500Y149860000D01*
X143002000Y106172000D02*
X143002000Y149098000D01*
X138963480Y105181480D02*
X139192000Y105410000D01*
X143002000Y149098000D02*
X142240000Y149860000D01*
X139192000Y105410000D02*
X142240000Y105410000D01*
X138963480Y89616520D02*
X138963480Y105181480D01*
X139690000Y88890000D02*
X138963480Y89616520D01*
X142240000Y105410000D02*
X143002000Y106172000D01*
%TO.N,/RL12*%
X142230000Y103388000D02*
X141488000Y104130000D01*
X141488000Y104130000D02*
X139800500Y104130000D01*
X142230000Y88890000D02*
X142230000Y103388000D01*
%TO.N,/RL13*%
X144770000Y88890000D02*
X144770000Y145532000D01*
X149352000Y145796000D02*
X157480000Y145796000D01*
X157579500Y145895500D02*
X157579500Y149860000D01*
X157480000Y145796000D02*
X157579500Y145895500D01*
X144770000Y145532000D02*
X144907000Y145669000D01*
%TO.N,/RL14*%
X157226000Y101854000D02*
X157579500Y102207500D01*
X147310000Y88890000D02*
X147310000Y91450000D01*
X157579500Y102207500D02*
X157579500Y104130000D01*
X156210000Y101854000D02*
X157226000Y101854000D01*
X147066000Y91694000D02*
X147066000Y92710000D01*
X147310000Y91450000D02*
X147066000Y91694000D01*
X147066000Y92710000D02*
X156210000Y101854000D01*
%TO.N,/RL15*%
X149850000Y88890000D02*
X149850000Y84592000D01*
X182626000Y88138000D02*
X182626000Y148844000D01*
X149850000Y84592000D02*
X150368000Y84074000D01*
X181620000Y149850000D02*
X177899700Y149850000D01*
X178562000Y84074000D02*
X182626000Y88138000D01*
X150368000Y84074000D02*
X178562000Y84074000D01*
X182626000Y148844000D02*
X181620000Y149850000D01*
%TO.N,/RL16*%
X176530000Y85852000D02*
X177899700Y87221700D01*
X177899700Y87221700D02*
X177899700Y104140000D01*
X152390000Y86624000D02*
X153162000Y85852000D01*
X152390000Y88890000D02*
X152390000Y86624000D01*
X153162000Y85852000D02*
X176530000Y85852000D01*
%TO.N,Net-(DD4-Pad9)*%
X154930000Y79258000D02*
X155448000Y78740000D01*
X235204000Y78994000D02*
X235204000Y81270000D01*
X234950000Y78740000D02*
X235204000Y78994000D01*
X155448000Y78740000D02*
X234950000Y78740000D01*
X154930000Y81270000D02*
X154930000Y79258000D01*
%TO.N,/RL9*%
X124714000Y149860000D02*
X122070500Y149860000D01*
X125222000Y104394000D02*
X125222000Y149352000D01*
X125222000Y149352000D02*
X124714000Y149860000D01*
X138274511Y82685489D02*
X138274511Y91341489D01*
X139690000Y81270000D02*
X138274511Y82685489D01*
X138274511Y91341489D02*
X125222000Y104394000D01*
%TO.N,/RL18*%
X230124000Y88890000D02*
X214386000Y88890000D01*
X214386000Y88890000D02*
X213486500Y89789500D01*
X213486500Y89789500D02*
X213486500Y104130000D01*
%TO.N,/RL19*%
X232664000Y88890000D02*
X232664000Y86360000D01*
X233172000Y85852000D02*
X236220000Y85852000D01*
X236619480Y86251480D02*
X236619480Y92310520D01*
X232664000Y86360000D02*
X233172000Y85852000D01*
X236220000Y148082000D02*
X234442000Y149860000D01*
X234442000Y149860000D02*
X231290500Y149860000D01*
X236220000Y85852000D02*
X236619480Y86251480D01*
X236619480Y92310520D02*
X236220000Y92710000D01*
X236220000Y92710000D02*
X236220000Y148082000D01*
%TO.N,/RL20*%
X232928000Y104130000D02*
X235204000Y101854000D01*
X231288500Y104130000D02*
X232928000Y104130000D01*
X235204000Y101854000D02*
X235204000Y88890000D01*
%TO.N,/RL21*%
X237744000Y88890000D02*
X237744000Y144780000D01*
X248943500Y145565500D02*
X248943500Y149860000D01*
X241046000Y144780000D02*
X248158000Y144780000D01*
X248158000Y144780000D02*
X248943500Y145565500D01*
%TO.N,/RL22*%
X247904000Y91948000D02*
X240792000Y91948000D01*
X240284000Y91440000D02*
X240284000Y88890000D01*
X249024300Y93068300D02*
X247904000Y91948000D01*
X240792000Y91948000D02*
X240284000Y91440000D01*
X249024300Y104130000D02*
X249024300Y93068300D01*
%TO.N,/RL23*%
X242824000Y85598000D02*
X243586000Y84836000D01*
X242824000Y88890000D02*
X242824000Y85598000D01*
X243586000Y84836000D02*
X270002000Y84836000D01*
X270002000Y84836000D02*
X270764000Y85598000D01*
X270764000Y85598000D02*
X270764000Y149098000D01*
X270764000Y149098000D02*
X270002000Y149860000D01*
X270002000Y149860000D02*
X266723500Y149860000D01*
%TO.N,/RL24*%
X266954000Y87122000D02*
X266850500Y87225500D01*
X266192000Y86360000D02*
X266954000Y87122000D01*
X245364000Y88890000D02*
X245364000Y86868000D01*
X245364000Y86868000D02*
X245872000Y86360000D01*
X245872000Y86360000D02*
X266192000Y86360000D01*
X266850500Y87225500D02*
X266850500Y104130000D01*
%TO.N,/RL17*%
X232664000Y81270000D02*
X231394000Y82540000D01*
X231394000Y82540000D02*
X231394000Y91694000D01*
X230632000Y92456000D02*
X217424000Y92456000D01*
X216916000Y149098000D02*
X216154000Y149860000D01*
X217424000Y92456000D02*
X216916000Y92964000D01*
X216916000Y92964000D02*
X216916000Y149098000D01*
X216154000Y149860000D02*
X213510500Y149860000D01*
X231394000Y91694000D02*
X230632000Y92456000D01*
%TO.N,Net-(R1-Pad2)*%
X121490500Y60960000D02*
X118514500Y60960000D01*
%TO.N,Net-(R2-Pad2)*%
X121490500Y55880000D02*
X118514500Y55880000D01*
%TO.N,Net-(R3-Pad2)*%
X121490500Y50800000D02*
X118514500Y50800000D01*
%TO.N,Net-(R8-Pad1)*%
X26591500Y175514000D02*
X29821500Y175514000D01*
%TO.N,Net-(R11-Pad1)*%
X26591500Y129784000D02*
X29821500Y129784000D01*
%TO.N,Net-(R14-Pad1)*%
X44452500Y175514000D02*
X47682500Y175514000D01*
%TO.N,Net-(R17-Pad1)*%
X44452500Y129784000D02*
X47682500Y129784000D01*
%TO.N,Net-(R20-Pad1)*%
X62117500Y175514000D02*
X65347500Y175514000D01*
%TO.N,Net-(R23-Pad1)*%
X62117500Y129784000D02*
X65347500Y129784000D01*
%TO.N,Net-(R26-Pad1)*%
X79931500Y175514000D02*
X83161500Y175514000D01*
%TO.N,Net-(R29-Pad1)*%
X79931500Y129784000D02*
X83161500Y129784000D01*
%TO.N,Net-(R32-Pad1)*%
X118031500Y175514000D02*
X121261500Y175514000D01*
%TO.N,Net-(R35-Pad1)*%
X118031500Y129784000D02*
X121261500Y129784000D01*
%TO.N,Net-(R38-Pad1)*%
X135761500Y175514000D02*
X138991500Y175514000D01*
%TO.N,Net-(R41-Pad1)*%
X135761500Y129784000D02*
X138991500Y129784000D01*
%TO.N,Net-(R44-Pad1)*%
X153540500Y175514000D02*
X156770500Y175514000D01*
%TO.N,Net-(R47-Pad1)*%
X153540500Y129784000D02*
X156770500Y129784000D01*
%TO.N,Net-(R50-Pad1)*%
X173860700Y175504000D02*
X177090700Y175504000D01*
%TO.N,Net-(R53-Pad1)*%
X173860700Y129794000D02*
X177090700Y129794000D01*
%TO.N,Net-(R56-Pad1)*%
X209471500Y175514000D02*
X212701500Y175514000D01*
%TO.N,Net-(R59-Pad1)*%
X209447500Y129784000D02*
X212677500Y129784000D01*
%TO.N,Net-(R62-Pad1)*%
X227251500Y175514000D02*
X230481500Y175514000D01*
%TO.N,Net-(R65-Pad1)*%
X227249500Y129784000D02*
X230479500Y129784000D01*
X227249500Y129784000D02*
X230479500Y129784000D01*
%TO.N,Net-(R68-Pad1)*%
X244904500Y175514000D02*
X248134500Y175514000D01*
%TO.N,Net-(R71-Pad1)*%
X244985300Y129784000D02*
X248215300Y129784000D01*
%TO.N,Net-(R74-Pad1)*%
X262684500Y175514000D02*
X265914500Y175514000D01*
%TO.N,Net-(R77-Pad1)*%
X262811500Y129784000D02*
X266041500Y129784000D01*
%TO.N,Net-(R80-Pad1)*%
X13032500Y92202000D02*
X9548500Y92202000D01*
%TD*%
M02*
