%TF.GenerationSoftware,KiCad,Pcbnew,(5.99.0-12218-g749d2d5987)*%
%TF.CreationDate,2021-09-14T22:45:12+03:00*%
%TF.ProjectId,stend_main,7374656e-645f-46d6-9169-6e2e6b696361,rev*%
%TF.SameCoordinates,PX258bd10PYee998b0*%
%TF.FileFunction,Copper,L2,Bot*%
%TF.FilePolarity,Positive*%
%FSLAX46Y46*%
G04 Gerber Fmt 4.6, Leading zero omitted, Abs format (unit mm)*
G04 Created by KiCad (PCBNEW (5.99.0-12218-g749d2d5987)) date 2021-09-14 22:45:12*
%MOMM*%
%LPD*%
G01*
G04 APERTURE LIST*
G04 Aperture macros list*
%AMRoundRect*
0 Rectangle with rounded corners*
0 $1 Rounding radius*
0 $2 $3 $4 $5 $6 $7 $8 $9 X,Y pos of 4 corners*
0 Add a 4 corners polygon primitive as box body*
4,1,4,$2,$3,$4,$5,$6,$7,$8,$9,$2,$3,0*
0 Add four circle primitives for the rounded corners*
1,1,$1+$1,$2,$3*
1,1,$1+$1,$4,$5*
1,1,$1+$1,$6,$7*
1,1,$1+$1,$8,$9*
0 Add four rect primitives between the rounded corners*
20,1,$1+$1,$2,$3,$4,$5,0*
20,1,$1+$1,$4,$5,$6,$7,0*
20,1,$1+$1,$6,$7,$8,$9,0*
20,1,$1+$1,$8,$9,$2,$3,0*%
G04 Aperture macros list end*
%ADD10C,0.076200*%
%TA.AperFunction,NonConductor*%
%ADD11C,0.076200*%
%TD*%
%TA.AperFunction,ComponentPad*%
%ADD12R,1.700000X1.700000*%
%TD*%
%TA.AperFunction,ComponentPad*%
%ADD13R,2.400000X1.600000*%
%TD*%
%TA.AperFunction,ComponentPad*%
%ADD14O,2.400000X1.600000*%
%TD*%
%TA.AperFunction,ComponentPad*%
%ADD15R,1.600000X2.400000*%
%TD*%
%TA.AperFunction,ComponentPad*%
%ADD16O,1.600000X2.400000*%
%TD*%
%TA.AperFunction,ComponentPad*%
%ADD17RoundRect,0.250000X-0.600000X-0.725000X0.600000X-0.725000X0.600000X0.725000X-0.600000X0.725000X0*%
%TD*%
%TA.AperFunction,ComponentPad*%
%ADD18O,1.700000X1.950000*%
%TD*%
%TA.AperFunction,ComponentPad*%
%ADD19RoundRect,0.250000X-0.725000X0.600000X-0.725000X-0.600000X0.725000X-0.600000X0.725000X0.600000X0*%
%TD*%
%TA.AperFunction,ComponentPad*%
%ADD20O,1.950000X1.700000*%
%TD*%
%TA.AperFunction,ComponentPad*%
%ADD21C,2.000000*%
%TD*%
%TA.AperFunction,ComponentPad*%
%ADD22O,1.700000X1.700000*%
%TD*%
%TA.AperFunction,ComponentPad*%
%ADD23C,1.700000*%
%TD*%
%TA.AperFunction,ViaPad*%
%ADD24C,0.800000*%
%TD*%
%TA.AperFunction,Conductor*%
%ADD25C,0.250000*%
%TD*%
G04 APERTURE END LIST*
D10*
D11*
X294364833Y14170177D02*
X294661166Y14774939D01*
X294872833Y14170177D02*
X294872833Y15440177D01*
X294534166Y15440177D01*
X294449500Y15379700D01*
X294407166Y15319224D01*
X294364833Y15198272D01*
X294364833Y15016843D01*
X294407166Y14895891D01*
X294449500Y14835415D01*
X294534166Y14774939D01*
X294872833Y14774939D01*
X293983833Y15440177D02*
X293983833Y14412081D01*
X293941500Y14291129D01*
X293899166Y14230653D01*
X293814500Y14170177D01*
X293645166Y14170177D01*
X293560500Y14230653D01*
X293518166Y14291129D01*
X293475833Y14412081D01*
X293475833Y15440177D01*
X293094833Y14230653D02*
X292967833Y14170177D01*
X292756166Y14170177D01*
X292671500Y14230653D01*
X292629166Y14291129D01*
X292586833Y14412081D01*
X292586833Y14533034D01*
X292629166Y14653986D01*
X292671500Y14714462D01*
X292756166Y14774939D01*
X292925500Y14835415D01*
X293010166Y14895891D01*
X293052500Y14956367D01*
X293094833Y15077320D01*
X293094833Y15198272D01*
X293052500Y15319224D01*
X293010166Y15379700D01*
X292925500Y15440177D01*
X292713833Y15440177D01*
X292586833Y15379700D01*
X292332833Y15440177D02*
X291824833Y15440177D01*
X292078833Y14170177D02*
X292078833Y15440177D01*
X291528500Y14291129D02*
X291486166Y14230653D01*
X291528500Y14170177D01*
X291570833Y14230653D01*
X291528500Y14291129D01*
X291528500Y14170177D01*
X291189833Y15440177D02*
X290597166Y15440177D01*
X291189833Y14170177D01*
X290597166Y14170177D01*
X290258500Y14170177D02*
X290258500Y15440177D01*
X289962166Y14533034D01*
X289665833Y15440177D01*
X289665833Y14170177D01*
X289242500Y14653986D02*
X288565166Y14653986D01*
X287676166Y14170177D02*
X288184166Y14170177D01*
X287930166Y14170177D02*
X287930166Y15440177D01*
X288014833Y15258748D01*
X288099500Y15137796D01*
X288184166Y15077320D01*
X287337500Y15319224D02*
X287295166Y15379700D01*
X287210500Y15440177D01*
X286998833Y15440177D01*
X286914166Y15379700D01*
X286871833Y15319224D01*
X286829500Y15198272D01*
X286829500Y15077320D01*
X286871833Y14895891D01*
X287379833Y14170177D01*
X286829500Y14170177D01*
X286448500Y14291129D02*
X286406166Y14230653D01*
X286448500Y14170177D01*
X286490833Y14230653D01*
X286448500Y14291129D01*
X286448500Y14170177D01*
X285644166Y15016843D02*
X285644166Y14170177D01*
X285855833Y15500653D02*
X286067500Y14593510D01*
X285517166Y14593510D01*
X285009166Y15440177D02*
X284924500Y15440177D01*
X284839833Y15379700D01*
X284797500Y15319224D01*
X284755166Y15198272D01*
X284712833Y14956367D01*
X284712833Y14653986D01*
X284755166Y14412081D01*
X284797500Y14291129D01*
X284839833Y14230653D01*
X284924500Y14170177D01*
X285009166Y14170177D01*
X285093833Y14230653D01*
X285136166Y14291129D01*
X285178500Y14412081D01*
X285220833Y14653986D01*
X285220833Y14956367D01*
X285178500Y15198272D01*
X285136166Y15319224D01*
X285093833Y15379700D01*
X285009166Y15440177D01*
X284374166Y15319224D02*
X284331833Y15379700D01*
X284247166Y15440177D01*
X284035500Y15440177D01*
X283950833Y15379700D01*
X283908500Y15319224D01*
X283866166Y15198272D01*
X283866166Y15077320D01*
X283908500Y14895891D01*
X284416500Y14170177D01*
X283866166Y14170177D01*
X283485166Y14291129D02*
X283442833Y14230653D01*
X283485166Y14170177D01*
X283527500Y14230653D01*
X283485166Y14291129D01*
X283485166Y14170177D01*
X282596166Y14170177D02*
X283104166Y14170177D01*
X282850166Y14170177D02*
X282850166Y15440177D01*
X282934833Y15258748D01*
X283019500Y15137796D01*
X283104166Y15077320D01*
X281749500Y14170177D02*
X282257500Y14170177D01*
X282003500Y14170177D02*
X282003500Y15440177D01*
X282088166Y15258748D01*
X282172833Y15137796D01*
X282257500Y15077320D01*
X281368500Y14291129D02*
X281326166Y14230653D01*
X281368500Y14170177D01*
X281410833Y14230653D01*
X281368500Y14291129D01*
X281368500Y14170177D01*
X280775833Y15440177D02*
X280691166Y15440177D01*
X280606500Y15379700D01*
X280564166Y15319224D01*
X280521833Y15198272D01*
X280479500Y14956367D01*
X280479500Y14653986D01*
X280521833Y14412081D01*
X280564166Y14291129D01*
X280606500Y14230653D01*
X280691166Y14170177D01*
X280775833Y14170177D01*
X280860500Y14230653D01*
X280902833Y14291129D01*
X280945166Y14412081D01*
X280987500Y14653986D01*
X280987500Y14956367D01*
X280945166Y15198272D01*
X280902833Y15319224D01*
X280860500Y15379700D01*
X280775833Y15440177D01*
X279929166Y15440177D02*
X279844500Y15440177D01*
X279759833Y15379700D01*
X279717500Y15319224D01*
X279675166Y15198272D01*
X279632833Y14956367D01*
X279632833Y14653986D01*
X279675166Y14412081D01*
X279717500Y14291129D01*
X279759833Y14230653D01*
X279844500Y14170177D01*
X279929166Y14170177D01*
X280013833Y14230653D01*
X280056166Y14291129D01*
X280098500Y14412081D01*
X280140833Y14653986D01*
X280140833Y14956367D01*
X280098500Y15198272D01*
X280056166Y15319224D01*
X280013833Y15379700D01*
X279929166Y15440177D01*
X291253333Y13395477D02*
X291168666Y13395477D01*
X291084000Y13335000D01*
X291041666Y13274524D01*
X290999333Y13153572D01*
X290957000Y12911667D01*
X290957000Y12609286D01*
X290999333Y12367381D01*
X291041666Y12246429D01*
X291084000Y12185953D01*
X291168666Y12125477D01*
X291253333Y12125477D01*
X291338000Y12185953D01*
X291380333Y12246429D01*
X291422666Y12367381D01*
X291465000Y12609286D01*
X291465000Y12911667D01*
X291422666Y13153572D01*
X291380333Y13274524D01*
X291338000Y13335000D01*
X291253333Y13395477D01*
X290110333Y12125477D02*
X290618333Y12125477D01*
X290364333Y12125477D02*
X290364333Y13395477D01*
X290449000Y13214048D01*
X290533666Y13093096D01*
X290618333Y13032620D01*
X289094333Y12185953D02*
X289009666Y12125477D01*
X288840333Y12125477D01*
X288755666Y12185953D01*
X288713333Y12306905D01*
X288713333Y12367381D01*
X288755666Y12488334D01*
X288840333Y12548810D01*
X288967333Y12548810D01*
X289052000Y12609286D01*
X289094333Y12730239D01*
X289094333Y12790715D01*
X289052000Y12911667D01*
X288967333Y12972143D01*
X288840333Y12972143D01*
X288755666Y12911667D01*
X287993666Y12185953D02*
X288078333Y12125477D01*
X288247666Y12125477D01*
X288332333Y12185953D01*
X288374666Y12306905D01*
X288374666Y12790715D01*
X288332333Y12911667D01*
X288247666Y12972143D01*
X288078333Y12972143D01*
X287993666Y12911667D01*
X287951333Y12790715D01*
X287951333Y12669762D01*
X288374666Y12548810D01*
X287570333Y12972143D02*
X287570333Y11702143D01*
X287570333Y12911667D02*
X287485666Y12972143D01*
X287316333Y12972143D01*
X287231666Y12911667D01*
X287189333Y12851191D01*
X287147000Y12730239D01*
X287147000Y12367381D01*
X287189333Y12246429D01*
X287231666Y12185953D01*
X287316333Y12125477D01*
X287485666Y12125477D01*
X287570333Y12185953D01*
X286131000Y13274524D02*
X286088666Y13335000D01*
X286004000Y13395477D01*
X285792333Y13395477D01*
X285707666Y13335000D01*
X285665333Y13274524D01*
X285623000Y13153572D01*
X285623000Y13032620D01*
X285665333Y12851191D01*
X286173333Y12125477D01*
X285623000Y12125477D01*
X285072666Y13395477D02*
X284988000Y13395477D01*
X284903333Y13335000D01*
X284861000Y13274524D01*
X284818666Y13153572D01*
X284776333Y12911667D01*
X284776333Y12609286D01*
X284818666Y12367381D01*
X284861000Y12246429D01*
X284903333Y12185953D01*
X284988000Y12125477D01*
X285072666Y12125477D01*
X285157333Y12185953D01*
X285199666Y12246429D01*
X285242000Y12367381D01*
X285284333Y12609286D01*
X285284333Y12911667D01*
X285242000Y13153572D01*
X285199666Y13274524D01*
X285157333Y13335000D01*
X285072666Y13395477D01*
X284437666Y13274524D02*
X284395333Y13335000D01*
X284310666Y13395477D01*
X284099000Y13395477D01*
X284014333Y13335000D01*
X283972000Y13274524D01*
X283929666Y13153572D01*
X283929666Y13032620D01*
X283972000Y12851191D01*
X284480000Y12125477D01*
X283929666Y12125477D01*
X283083000Y12125477D02*
X283591000Y12125477D01*
X283337000Y12125477D02*
X283337000Y13395477D01*
X283421666Y13214048D01*
X283506333Y13093096D01*
X283591000Y13032620D01*
X289094333Y10080777D02*
X289094333Y10927443D01*
X289094333Y10806491D02*
X289052000Y10866967D01*
X288967333Y10927443D01*
X288840333Y10927443D01*
X288755666Y10866967D01*
X288713333Y10746015D01*
X288713333Y10080777D01*
X288713333Y10746015D02*
X288671000Y10866967D01*
X288586333Y10927443D01*
X288459333Y10927443D01*
X288374666Y10866967D01*
X288332333Y10746015D01*
X288332333Y10080777D01*
X287528000Y10080777D02*
X287528000Y10746015D01*
X287570333Y10866967D01*
X287655000Y10927443D01*
X287824333Y10927443D01*
X287909000Y10866967D01*
X287528000Y10141253D02*
X287612666Y10080777D01*
X287824333Y10080777D01*
X287909000Y10141253D01*
X287951333Y10262205D01*
X287951333Y10383158D01*
X287909000Y10504110D01*
X287824333Y10564586D01*
X287612666Y10564586D01*
X287528000Y10625062D01*
X287104666Y10080777D02*
X287104666Y10927443D01*
X287104666Y11350777D02*
X287147000Y11290300D01*
X287104666Y11229824D01*
X287062333Y11290300D01*
X287104666Y11350777D01*
X287104666Y11229824D01*
X286681333Y10927443D02*
X286681333Y10080777D01*
X286681333Y10806491D02*
X286639000Y10866967D01*
X286554333Y10927443D01*
X286427333Y10927443D01*
X286342666Y10866967D01*
X286300333Y10746015D01*
X286300333Y10080777D01*
X285961666Y11350777D02*
X285411333Y11350777D01*
X285707666Y10866967D01*
X285580666Y10866967D01*
X285496000Y10806491D01*
X285453666Y10746015D01*
X285411333Y10625062D01*
X285411333Y10322681D01*
X285453666Y10201729D01*
X285496000Y10141253D01*
X285580666Y10080777D01*
X285834666Y10080777D01*
X285919333Y10141253D01*
X285961666Y10201729D01*
D12*
%TO.P,CP10,1,1*%
%TO.N,/CTRL3*%
X43007000Y154686000D03*
%TD*%
D13*
%TO.P,BB4,1*%
%TO.N,unconnected-(BB4-Pad1)*%
X203298000Y64928000D03*
X193138000Y64928000D03*
X198218000Y64928000D03*
X200758000Y64928000D03*
X208378000Y64928000D03*
X195678000Y64928000D03*
D14*
%TO.P,BB4,2*%
%TO.N,unconnected-(BB4-Pad2)*%
X208378000Y62388000D03*
X203298000Y62388000D03*
X198218000Y62388000D03*
X200758000Y62388000D03*
X193138000Y62388000D03*
X195678000Y62388000D03*
%TO.P,BB4,3*%
%TO.N,unconnected-(BB4-Pad3)*%
X200758000Y59848000D03*
X198218000Y59848000D03*
X203298000Y59848000D03*
X208378000Y59848000D03*
X195678000Y59848000D03*
X193138000Y59848000D03*
%TO.P,BB4,4*%
%TO.N,unconnected-(BB4-Pad4)*%
X198218000Y57308000D03*
X195678000Y57308000D03*
X193138000Y57308000D03*
X208378000Y57308000D03*
X200758000Y57308000D03*
X203298000Y57308000D03*
%TO.P,BB4,5*%
%TO.N,unconnected-(BB4-Pad5)*%
X200758000Y54768000D03*
X198218000Y54768000D03*
X203298000Y54768000D03*
X193138000Y54768000D03*
X208378000Y54768000D03*
X195678000Y54768000D03*
%TO.P,BB4,6*%
%TO.N,unconnected-(BB4-Pad6)*%
X200758000Y52228000D03*
X195678000Y52228000D03*
X203298000Y52228000D03*
X208378000Y52228000D03*
X193138000Y52228000D03*
X198218000Y52228000D03*
%TO.P,BB4,7*%
%TO.N,unconnected-(BB4-Pad7)*%
X193138000Y49688000D03*
X195678000Y49688000D03*
X208378000Y49688000D03*
X203298000Y49688000D03*
X200758000Y49688000D03*
X198218000Y49688000D03*
%TO.P,BB4,8*%
%TO.N,unconnected-(BB4-Pad8)*%
X195678000Y47148000D03*
X200758000Y47148000D03*
X198218000Y47148000D03*
X193138000Y47148000D03*
X203298000Y47148000D03*
X208378000Y47148000D03*
%TO.P,BB4,9*%
%TO.N,unconnected-(BB4-Pad9)*%
X223618000Y47148000D03*
X228698000Y47148000D03*
X226158000Y47148000D03*
X231238000Y47148000D03*
X221078000Y47148000D03*
X215998000Y47148000D03*
%TO.P,BB4,10*%
%TO.N,unconnected-(BB4-Pad10)*%
X228698000Y49688000D03*
X226158000Y49688000D03*
X221078000Y49688000D03*
X231238000Y49688000D03*
X223618000Y49688000D03*
X215998000Y49688000D03*
%TO.P,BB4,11*%
%TO.N,unconnected-(BB4-Pad11)*%
X226158000Y52228000D03*
X221078000Y52228000D03*
X223618000Y52228000D03*
X228698000Y52228000D03*
X215998000Y52228000D03*
X231238000Y52228000D03*
%TO.P,BB4,12*%
%TO.N,unconnected-(BB4-Pad12)*%
X226158000Y54768000D03*
X215998000Y54768000D03*
X221078000Y54768000D03*
X223618000Y54768000D03*
X231238000Y54768000D03*
X228698000Y54768000D03*
%TO.P,BB4,13*%
%TO.N,unconnected-(BB4-Pad13)*%
X223618000Y57308000D03*
X215998000Y57308000D03*
X228698000Y57308000D03*
X231238000Y57308000D03*
X226158000Y57308000D03*
X221078000Y57308000D03*
%TO.P,BB4,14*%
%TO.N,unconnected-(BB4-Pad14)*%
X215998000Y59848000D03*
X228698000Y59848000D03*
X223618000Y59848000D03*
X221078000Y59848000D03*
X231238000Y59848000D03*
X226158000Y59848000D03*
X221078000Y59848000D03*
%TO.P,BB4,15*%
%TO.N,unconnected-(BB4-Pad15)*%
X221078000Y62388000D03*
X223618000Y62388000D03*
X231238000Y62388000D03*
X223618000Y62388000D03*
X215998000Y62388000D03*
X228698000Y62388000D03*
X226158000Y62388000D03*
X228698000Y62388000D03*
X221078000Y62388000D03*
X231238000Y62388000D03*
X226158000Y62388000D03*
%TO.P,BB4,16*%
%TO.N,unconnected-(BB4-Pad16)*%
X221078000Y64928000D03*
X228698000Y64928000D03*
X223618000Y64928000D03*
X231238000Y64928000D03*
X215998000Y64928000D03*
X226158000Y64928000D03*
%TD*%
D12*
%TO.P,CP30,1,1*%
%TO.N,/CTRL8*%
X78486000Y108956000D03*
%TD*%
%TO.P,CP43,1,1*%
%TO.N,Net-(CP43-Pad1)*%
X134316000Y157226000D03*
%TD*%
%TO.P,CP50,1,1*%
%TO.N,/CTRL13*%
X152095000Y154686000D03*
%TD*%
%TO.P,CP8,1,1*%
%TO.N,Net-(CP8-Pad1)*%
X31750000Y126482000D03*
%TD*%
%TO.P,CP20,1,1*%
%TO.N,Net-(CP20-Pad1)*%
X67276000Y172212000D03*
%TD*%
%TO.P,CP94,1,1*%
%TO.N,/CTRL24*%
X261366000Y108956000D03*
%TD*%
%TO.P,CP1,1,1*%
%TO.N,/INSTR+*%
X25146000Y152146000D03*
%TD*%
%TO.P,CP28,1,1*%
%TO.N,Net-(CP28-Pad1)*%
X85090000Y172212000D03*
%TD*%
%TO.P,CP34,1,1*%
%TO.N,/CTRL9*%
X116586000Y154686000D03*
%TD*%
%TO.P,CP49,1,1*%
%TO.N,/INSTR+*%
X152095000Y152146000D03*
%TD*%
%TO.P,CP95,1,1*%
%TO.N,Net-(CP95-Pad1)*%
X261366000Y111496000D03*
%TD*%
%TO.P,CP69,1,1*%
%TO.N,/INSTR+*%
X208002000Y106416000D03*
%TD*%
%TO.P,CP41,1,1*%
%TO.N,/INSTR+*%
X134316000Y152146000D03*
%TD*%
%TO.P,CP16,1,1*%
%TO.N,Net-(CP16-Pad1)*%
X49611000Y126482000D03*
%TD*%
%TO.P,CP88,1,1*%
%TO.N,Net-(CP88-Pad1)*%
X250143800Y126482000D03*
%TD*%
%TO.P,CP6,1,1*%
%TO.N,/CTRL2*%
X25146000Y108956000D03*
%TD*%
%TO.P,CP59,1,1*%
%TO.N,Net-(CP59-Pad1)*%
X172415200Y157216000D03*
%TD*%
%TO.P,CP60,1,1*%
%TO.N,Net-(CP60-Pad1)*%
X179019200Y172202000D03*
%TD*%
%TO.P,CP31,1,1*%
%TO.N,Net-(CP31-Pad1)*%
X78486000Y111496000D03*
%TD*%
%TO.P,CP2,1,1*%
%TO.N,/CTRL1*%
X25146000Y154686000D03*
%TD*%
D15*
%TO.P,BB6,1*%
%TO.N,unconnected-(BB6-Pad1)*%
X284226000Y72644000D03*
X284226000Y57404000D03*
X284226000Y59944000D03*
X284226000Y67564000D03*
X284226000Y62484000D03*
X284226000Y65024000D03*
D16*
%TO.P,BB6,2*%
%TO.N,unconnected-(BB6-Pad2)*%
X286766000Y59944000D03*
X286766000Y65024000D03*
X286766000Y62484000D03*
X286766000Y67564000D03*
X286766000Y57404000D03*
X286766000Y72644000D03*
%TO.P,BB6,3*%
%TO.N,unconnected-(BB6-Pad3)*%
X289306000Y72644000D03*
X289306000Y57404000D03*
X289306000Y65024000D03*
X289306000Y62484000D03*
X289306000Y59944000D03*
X289306000Y67564000D03*
%TO.P,BB6,4*%
%TO.N,unconnected-(BB6-Pad4)*%
X291846000Y67564000D03*
X291846000Y59944000D03*
X291846000Y65024000D03*
X291846000Y72644000D03*
X291846000Y62484000D03*
X291846000Y57404000D03*
%TO.P,BB6,5*%
%TO.N,unconnected-(BB6-Pad5)*%
X294386000Y72644000D03*
X294386000Y67564000D03*
X294386000Y57404000D03*
X294386000Y65024000D03*
X294386000Y62484000D03*
X294386000Y59944000D03*
%TO.P,BB6,6*%
%TO.N,unconnected-(BB6-Pad6)*%
X296926000Y72644000D03*
X296926000Y62484000D03*
X296926000Y57404000D03*
X296926000Y65024000D03*
X296926000Y67564000D03*
X296926000Y59944000D03*
%TO.P,BB6,7*%
%TO.N,unconnected-(BB6-Pad7)*%
X299466000Y72644000D03*
X299466000Y67564000D03*
X299466000Y62484000D03*
X299466000Y65024000D03*
X299466000Y59944000D03*
X299466000Y57404000D03*
%TO.P,BB6,8*%
%TO.N,unconnected-(BB6-Pad8)*%
X302006000Y67564000D03*
X302006000Y57404000D03*
X302006000Y72644000D03*
X302006000Y62484000D03*
X302006000Y65024000D03*
X302006000Y59944000D03*
%TO.P,BB6,9*%
%TO.N,unconnected-(BB6-Pad9)*%
X302006000Y90424000D03*
X302006000Y95504000D03*
X302006000Y87884000D03*
X302006000Y80264000D03*
X302006000Y92964000D03*
X302006000Y85344000D03*
%TO.P,BB6,10*%
%TO.N,unconnected-(BB6-Pad10)*%
X299466000Y92964000D03*
X299466000Y80264000D03*
X299466000Y85344000D03*
X299466000Y90424000D03*
X299466000Y87884000D03*
X299466000Y95504000D03*
%TO.P,BB6,11*%
%TO.N,unconnected-(BB6-Pad11)*%
X296926000Y95504000D03*
X296926000Y90424000D03*
X296926000Y80264000D03*
X296926000Y85344000D03*
X296926000Y87884000D03*
X296926000Y92964000D03*
%TO.P,BB6,12*%
%TO.N,unconnected-(BB6-Pad12)*%
X294386000Y85344000D03*
X294386000Y90424000D03*
X294386000Y92964000D03*
X294386000Y80264000D03*
X294386000Y95504000D03*
X294386000Y87884000D03*
%TO.P,BB6,13*%
%TO.N,unconnected-(BB6-Pad13)*%
X291846000Y95504000D03*
X291846000Y80264000D03*
X291846000Y85344000D03*
X291846000Y90424000D03*
X291846000Y87884000D03*
X291846000Y92964000D03*
%TO.P,BB6,14*%
%TO.N,unconnected-(BB6-Pad14)*%
X289306000Y95504000D03*
X289306000Y90424000D03*
X289306000Y87884000D03*
X289306000Y85344000D03*
X289306000Y92964000D03*
X289306000Y85344000D03*
X289306000Y80264000D03*
%TO.P,BB6,15*%
%TO.N,unconnected-(BB6-Pad15)*%
X286766000Y80264000D03*
X286766000Y87884000D03*
X286766000Y90424000D03*
X286766000Y90424000D03*
X286766000Y92964000D03*
X286766000Y92964000D03*
X286766000Y95504000D03*
X286766000Y85344000D03*
X286766000Y85344000D03*
X286766000Y95504000D03*
X286766000Y87884000D03*
%TO.P,BB6,16*%
%TO.N,unconnected-(BB6-Pad16)*%
X284226000Y90424000D03*
X284226000Y85344000D03*
X284226000Y95504000D03*
X284226000Y80264000D03*
X284226000Y87884000D03*
X284226000Y92964000D03*
%TD*%
D17*
%TO.P,X6,1,1*%
%TO.N,/CTRL17*%
X228780000Y185166000D03*
D18*
%TO.P,X6,2,2*%
%TO.N,/CTRL18*%
X231280000Y185166000D03*
%TO.P,X6,3,3*%
%TO.N,/CTRL19*%
X233780000Y185166000D03*
%TO.P,X6,4,4*%
%TO.N,/CTRL20*%
X236280000Y185166000D03*
%TO.P,X6,5,5*%
%TO.N,/CTRL21*%
X238780000Y185166000D03*
%TO.P,X6,6,6*%
%TO.N,/CTRL22*%
X241280000Y185166000D03*
%TO.P,X6,7,7*%
%TO.N,/CTRL23*%
X243780000Y185166000D03*
%TO.P,X6,8,8*%
%TO.N,/CTRL24*%
X246280000Y185166000D03*
%TO.P,X6,9,9*%
%TO.N,N/C*%
X248780000Y185166000D03*
%TO.P,X6,10,10*%
%TO.N,GNDD*%
X251280000Y185166000D03*
%TD*%
D12*
%TO.P,CP21,1,1*%
%TO.N,/INSTR+*%
X60672000Y106416000D03*
%TD*%
%TO.P,CP55,1,1*%
%TO.N,Net-(CP55-Pad1)*%
X152095000Y111496000D03*
%TD*%
%TO.P,CP27,1,1*%
%TO.N,Net-(CP27-Pad1)*%
X78486000Y157226000D03*
%TD*%
%TO.P,CP5,1,1*%
%TO.N,/INSTR+*%
X25146000Y106416000D03*
%TD*%
D17*
%TO.P,X3,1,1*%
%TO.N,GNDD*%
X274654000Y185212000D03*
D18*
%TO.P,X3,2,2*%
%TO.N,+5V*%
X277154000Y185212000D03*
%TO.P,X3,3,3*%
%TO.N,N/C*%
X279654000Y185212000D03*
%TO.P,X3,4,4*%
X282154000Y185212000D03*
%TO.P,X3,5,5*%
X284654000Y185212000D03*
%TD*%
D12*
%TO.P,CP61,1,1*%
%TO.N,/INSTR+*%
X172415200Y106426000D03*
%TD*%
%TO.P,CP45,1,1*%
%TO.N,/INSTR+*%
X134316000Y106416000D03*
%TD*%
%TO.P,CP70,1,1*%
%TO.N,/CTRL18*%
X208002000Y108956000D03*
%TD*%
D19*
%TO.P,X1,1,1*%
%TO.N,/MCU+*%
X88692000Y34718000D03*
D20*
%TO.P,X1,2,2*%
%TO.N,/MCU_GND*%
X88692000Y32218000D03*
%TO.P,X1,3*%
%TO.N,N/C*%
X88692000Y29718000D03*
%TO.P,X1,4*%
X88692000Y27218000D03*
%TO.P,X1,5*%
X88692000Y24718000D03*
%TD*%
D12*
%TO.P,CP82,1,1*%
%TO.N,/CTRL21*%
X243459000Y154686000D03*
%TD*%
%TO.P,CP84,1,1*%
%TO.N,Net-(CP84-Pad1)*%
X250063000Y172212000D03*
%TD*%
%TO.P,CP47,1,1*%
%TO.N,Net-(CP47-Pad1)*%
X134316000Y111496000D03*
%TD*%
%TO.P,CP26,1,1*%
%TO.N,/CTRL7*%
X78486000Y154686000D03*
%TD*%
D21*
%TO.P,S3,1,1*%
%TO.N,Net-(DD1-Pad9)*%
X77470000Y43284000D03*
X77470000Y49784000D03*
%TO.P,S3,2,2*%
%TO.N,Net-(DD2-Pad2)*%
X72970000Y43284000D03*
X72970000Y49784000D03*
%TD*%
D12*
%TO.P,CP42,1,1*%
%TO.N,/CTRL11*%
X134316000Y154686000D03*
%TD*%
%TO.P,CP89,1,1*%
%TO.N,/INSTR+*%
X261239000Y152146000D03*
%TD*%
%TO.P,CP13,1,1*%
%TO.N,/INSTR+*%
X43007000Y106416000D03*
%TD*%
%TO.P,CP32,1,1*%
%TO.N,Net-(CP32-Pad1)*%
X85090000Y126482000D03*
%TD*%
%TO.P,CP22,1,1*%
%TO.N,/CTRL6*%
X60672000Y108956000D03*
%TD*%
%TO.P,CP18,1,1*%
%TO.N,/CTRL5*%
X60672000Y154686000D03*
%TD*%
%TO.P,CP12,1,1*%
%TO.N,Net-(CP12-Pad1)*%
X49611000Y172212000D03*
%TD*%
%TO.P,CP102,1,1*%
%TO.N,/MCU_GND*%
X5080000Y107915989D03*
%TD*%
%TO.P,CP17,1,1*%
%TO.N,/INSTR+*%
X60672000Y152146000D03*
%TD*%
D13*
%TO.P,BB3,1*%
%TO.N,unconnected-(BB3-Pad1)*%
X151638000Y27638000D03*
X156718000Y27638000D03*
X141478000Y27638000D03*
X146558000Y27638000D03*
X149098000Y27638000D03*
X144018000Y27638000D03*
D14*
%TO.P,BB3,2*%
%TO.N,unconnected-(BB3-Pad2)*%
X144018000Y25098000D03*
X146558000Y25098000D03*
X151638000Y25098000D03*
X156718000Y25098000D03*
X141478000Y25098000D03*
X149098000Y25098000D03*
%TO.P,BB3,3*%
%TO.N,unconnected-(BB3-Pad3)*%
X151638000Y22558000D03*
X146558000Y22558000D03*
X156718000Y22558000D03*
X144018000Y22558000D03*
X149098000Y22558000D03*
X141478000Y22558000D03*
%TO.P,BB3,4*%
%TO.N,unconnected-(BB3-Pad4)*%
X151638000Y20018000D03*
X141478000Y20018000D03*
X156718000Y20018000D03*
X149098000Y20018000D03*
X144018000Y20018000D03*
X146558000Y20018000D03*
%TO.P,BB3,5*%
%TO.N,unconnected-(BB3-Pad5)*%
X146558000Y17478000D03*
X141478000Y17478000D03*
X151638000Y17478000D03*
X156718000Y17478000D03*
X144018000Y17478000D03*
X149098000Y17478000D03*
%TO.P,BB3,6*%
%TO.N,unconnected-(BB3-Pad6)*%
X151638000Y14938000D03*
X141478000Y14938000D03*
X144018000Y14938000D03*
X156718000Y14938000D03*
X146558000Y14938000D03*
X149098000Y14938000D03*
%TO.P,BB3,7*%
%TO.N,unconnected-(BB3-Pad7)*%
X141478000Y12398000D03*
X156718000Y12398000D03*
X151638000Y12398000D03*
X149098000Y12398000D03*
X144018000Y12398000D03*
X146558000Y12398000D03*
%TO.P,BB3,8*%
%TO.N,unconnected-(BB3-Pad8)*%
X151638000Y9858000D03*
X144018000Y9858000D03*
X146558000Y9858000D03*
X149098000Y9858000D03*
X156718000Y9858000D03*
X141478000Y9858000D03*
%TO.P,BB3,9*%
%TO.N,unconnected-(BB3-Pad9)*%
X179578000Y9858000D03*
X169418000Y9858000D03*
X171958000Y9858000D03*
X177038000Y9858000D03*
X174498000Y9858000D03*
X164338000Y9858000D03*
%TO.P,BB3,10*%
%TO.N,unconnected-(BB3-Pad10)*%
X171958000Y12398000D03*
X179578000Y12398000D03*
X169418000Y12398000D03*
X174498000Y12398000D03*
X177038000Y12398000D03*
X164338000Y12398000D03*
%TO.P,BB3,11*%
%TO.N,unconnected-(BB3-Pad11)*%
X177038000Y14938000D03*
X179578000Y14938000D03*
X174498000Y14938000D03*
X171958000Y14938000D03*
X169418000Y14938000D03*
X164338000Y14938000D03*
%TO.P,BB3,12*%
%TO.N,unconnected-(BB3-Pad12)*%
X169418000Y17478000D03*
X164338000Y17478000D03*
X179578000Y17478000D03*
X174498000Y17478000D03*
X177038000Y17478000D03*
X171958000Y17478000D03*
%TO.P,BB3,13*%
%TO.N,unconnected-(BB3-Pad13)*%
X179578000Y20018000D03*
X169418000Y20018000D03*
X164338000Y20018000D03*
X174498000Y20018000D03*
X177038000Y20018000D03*
X171958000Y20018000D03*
%TO.P,BB3,14*%
%TO.N,unconnected-(BB3-Pad14)*%
X164338000Y22558000D03*
X177038000Y22558000D03*
X171958000Y22558000D03*
X169418000Y22558000D03*
X169418000Y22558000D03*
X179578000Y22558000D03*
X174498000Y22558000D03*
%TO.P,BB3,15*%
%TO.N,unconnected-(BB3-Pad15)*%
X177038000Y25098000D03*
X169418000Y25098000D03*
X179578000Y25098000D03*
X177038000Y25098000D03*
X171958000Y25098000D03*
X171958000Y25098000D03*
X164338000Y25098000D03*
X169418000Y25098000D03*
X179578000Y25098000D03*
X174498000Y25098000D03*
X174498000Y25098000D03*
%TO.P,BB3,16*%
%TO.N,unconnected-(BB3-Pad16)*%
X177038000Y27638000D03*
X169418000Y27638000D03*
X171958000Y27638000D03*
X179578000Y27638000D03*
X164338000Y27638000D03*
X174498000Y27638000D03*
%TD*%
D12*
%TO.P,CP104,1,1*%
%TO.N,/2_MCU/SYNC IN*%
X71120000Y2286000D03*
%TD*%
%TO.P,CP83,1,1*%
%TO.N,Net-(CP83-Pad1)*%
X243459000Y157226000D03*
%TD*%
%TO.P,CP57,1,1*%
%TO.N,/INSTR+*%
X172415200Y152136000D03*
%TD*%
%TO.P,CP96,1,1*%
%TO.N,Net-(CP96-Pad1)*%
X267970000Y126482000D03*
%TD*%
%TO.P,CP85,1,1*%
%TO.N,/INSTR+*%
X243539800Y106416000D03*
%TD*%
D13*
%TO.P,BB2,1*%
%TO.N,unconnected-(BB2-Pad1)*%
X195678000Y27638000D03*
X208378000Y27638000D03*
X193138000Y27638000D03*
X203298000Y27638000D03*
X200758000Y27638000D03*
X198218000Y27638000D03*
D14*
%TO.P,BB2,2*%
%TO.N,unconnected-(BB2-Pad2)*%
X195678000Y25098000D03*
X193138000Y25098000D03*
X198218000Y25098000D03*
X208378000Y25098000D03*
X200758000Y25098000D03*
X203298000Y25098000D03*
%TO.P,BB2,3*%
%TO.N,unconnected-(BB2-Pad3)*%
X203298000Y22558000D03*
X208378000Y22558000D03*
X198218000Y22558000D03*
X200758000Y22558000D03*
X195678000Y22558000D03*
X193138000Y22558000D03*
%TO.P,BB2,4*%
%TO.N,unconnected-(BB2-Pad4)*%
X193138000Y20018000D03*
X208378000Y20018000D03*
X203298000Y20018000D03*
X200758000Y20018000D03*
X198218000Y20018000D03*
X195678000Y20018000D03*
%TO.P,BB2,5*%
%TO.N,unconnected-(BB2-Pad5)*%
X200758000Y17478000D03*
X203298000Y17478000D03*
X193138000Y17478000D03*
X195678000Y17478000D03*
X198218000Y17478000D03*
X208378000Y17478000D03*
%TO.P,BB2,6*%
%TO.N,unconnected-(BB2-Pad6)*%
X208378000Y14938000D03*
X200758000Y14938000D03*
X198218000Y14938000D03*
X193138000Y14938000D03*
X195678000Y14938000D03*
X203298000Y14938000D03*
%TO.P,BB2,7*%
%TO.N,unconnected-(BB2-Pad7)*%
X208378000Y12398000D03*
X200758000Y12398000D03*
X193138000Y12398000D03*
X195678000Y12398000D03*
X198218000Y12398000D03*
X203298000Y12398000D03*
%TO.P,BB2,8*%
%TO.N,unconnected-(BB2-Pad8)*%
X198218000Y9858000D03*
X200758000Y9858000D03*
X208378000Y9858000D03*
X193138000Y9858000D03*
X203298000Y9858000D03*
X195678000Y9858000D03*
%TO.P,BB2,9*%
%TO.N,unconnected-(BB2-Pad9)*%
X221078000Y9858000D03*
X226158000Y9858000D03*
X231238000Y9858000D03*
X228698000Y9858000D03*
X215998000Y9858000D03*
X223618000Y9858000D03*
%TO.P,BB2,10*%
%TO.N,unconnected-(BB2-Pad10)*%
X215998000Y12398000D03*
X226158000Y12398000D03*
X228698000Y12398000D03*
X223618000Y12398000D03*
X221078000Y12398000D03*
X231238000Y12398000D03*
%TO.P,BB2,11*%
%TO.N,unconnected-(BB2-Pad11)*%
X231238000Y14938000D03*
X215998000Y14938000D03*
X226158000Y14938000D03*
X228698000Y14938000D03*
X221078000Y14938000D03*
X223618000Y14938000D03*
%TO.P,BB2,12*%
%TO.N,unconnected-(BB2-Pad12)*%
X215998000Y17478000D03*
X231238000Y17478000D03*
X221078000Y17478000D03*
X226158000Y17478000D03*
X228698000Y17478000D03*
X223618000Y17478000D03*
%TO.P,BB2,13*%
%TO.N,unconnected-(BB2-Pad13)*%
X231238000Y20018000D03*
X228698000Y20018000D03*
X215998000Y20018000D03*
X223618000Y20018000D03*
X226158000Y20018000D03*
X221078000Y20018000D03*
%TO.P,BB2,14*%
%TO.N,unconnected-(BB2-Pad14)*%
X221078000Y22558000D03*
X221078000Y22558000D03*
X231238000Y22558000D03*
X223618000Y22558000D03*
X228698000Y22558000D03*
X215998000Y22558000D03*
X226158000Y22558000D03*
%TO.P,BB2,15*%
%TO.N,unconnected-(BB2-Pad15)*%
X228698000Y25098000D03*
X226158000Y25098000D03*
X231238000Y25098000D03*
X226158000Y25098000D03*
X221078000Y25098000D03*
X231238000Y25098000D03*
X221078000Y25098000D03*
X215998000Y25098000D03*
X223618000Y25098000D03*
X223618000Y25098000D03*
X228698000Y25098000D03*
%TO.P,BB2,16*%
%TO.N,unconnected-(BB2-Pad16)*%
X231238000Y27638000D03*
X215998000Y27638000D03*
X223618000Y27638000D03*
X221078000Y27638000D03*
X228698000Y27638000D03*
X226158000Y27638000D03*
%TD*%
D12*
%TO.P,CP64,1,1*%
%TO.N,Net-(CP64-Pad1)*%
X179019200Y126492000D03*
%TD*%
%TO.P,CP19,1,1*%
%TO.N,Net-(CP19-Pad1)*%
X60672000Y157226000D03*
%TD*%
%TO.P,CP25,1,1*%
%TO.N,/INSTR+*%
X78486000Y152146000D03*
%TD*%
%TO.P,DD2,1,SDA*%
%TO.N,Net-(DD2-Pad1)*%
X67056000Y32258000D03*
D22*
%TO.P,DD2,2,SCL*%
%TO.N,Net-(DD2-Pad2)*%
X69596000Y32258000D03*
%TO.P,DD2,3,VCC*%
%TO.N,/MCU+*%
X72136000Y32258000D03*
%TO.P,DD2,4,GND*%
%TO.N,/MCU_GND*%
X74676000Y32258000D03*
%TD*%
D12*
%TO.P,CP73,1,1*%
%TO.N,/INSTR+*%
X225806000Y152146000D03*
%TD*%
%TO.P,CP79,1,1*%
%TO.N,Net-(CP79-Pad1)*%
X225804000Y111496000D03*
%TD*%
%TO.P,CP63,1,1*%
%TO.N,Net-(CP63-Pad1)*%
X172415200Y111506000D03*
%TD*%
%TO.P,CP37,1,1*%
%TO.N,/INSTR+*%
X116586000Y106416000D03*
%TD*%
%TO.P,CP99,1,1*%
%TO.N,Net-(CP99-Pad1)*%
X12954000Y116078000D03*
%TD*%
%TO.P,CP39,1,1*%
%TO.N,Net-(CP39-Pad1)*%
X116586000Y111496000D03*
%TD*%
D21*
%TO.P,S4,1,1*%
%TO.N,Net-(DD1-Pad8)*%
X86832000Y65480000D03*
X86832000Y58980000D03*
%TO.P,S4,2,2*%
%TO.N,Net-(DD2-Pad1)*%
X82332000Y65480000D03*
X82332000Y58980000D03*
%TD*%
D12*
%TO.P,CP90,1,1*%
%TO.N,/CTRL23*%
X261239000Y154686000D03*
%TD*%
%TO.P,CP93,1,1*%
%TO.N,/INSTR+*%
X261366000Y106416000D03*
%TD*%
%TO.P,CP36,1,1*%
%TO.N,Net-(CP36-Pad1)*%
X123190000Y172212000D03*
%TD*%
%TO.P,CP3,1,1*%
%TO.N,Net-(CP3-Pad1)*%
X25146000Y157226000D03*
%TD*%
%TO.P,CP71,1,1*%
%TO.N,Net-(CP71-Pad1)*%
X208002000Y111496000D03*
%TD*%
%TO.P,CP80,1,1*%
%TO.N,Net-(CP80-Pad1)*%
X232408000Y126482000D03*
%TD*%
%TO.P,CP56,1,1*%
%TO.N,Net-(CP56-Pad1)*%
X158699000Y126482000D03*
%TD*%
%TO.P,CP40,1,1*%
%TO.N,Net-(CP40-Pad1)*%
X123190000Y126482000D03*
%TD*%
D15*
%TO.P,BB5,1*%
%TO.N,unconnected-(BB5-Pad1)*%
X284226000Y128778000D03*
X284226000Y113538000D03*
X284226000Y123698000D03*
X284226000Y121158000D03*
X284226000Y118618000D03*
X284226000Y116078000D03*
D16*
%TO.P,BB5,2*%
%TO.N,unconnected-(BB5-Pad2)*%
X286766000Y121158000D03*
X286766000Y116078000D03*
X286766000Y128778000D03*
X286766000Y113538000D03*
X286766000Y118618000D03*
X286766000Y123698000D03*
%TO.P,BB5,3*%
%TO.N,unconnected-(BB5-Pad3)*%
X289306000Y116078000D03*
X289306000Y123698000D03*
X289306000Y128778000D03*
X289306000Y113538000D03*
X289306000Y121158000D03*
X289306000Y118618000D03*
%TO.P,BB5,4*%
%TO.N,unconnected-(BB5-Pad4)*%
X291846000Y128778000D03*
X291846000Y116078000D03*
X291846000Y118618000D03*
X291846000Y123698000D03*
X291846000Y113538000D03*
X291846000Y121158000D03*
%TO.P,BB5,5*%
%TO.N,unconnected-(BB5-Pad5)*%
X294386000Y113538000D03*
X294386000Y121158000D03*
X294386000Y118618000D03*
X294386000Y123698000D03*
X294386000Y128778000D03*
X294386000Y116078000D03*
%TO.P,BB5,6*%
%TO.N,unconnected-(BB5-Pad6)*%
X296926000Y113538000D03*
X296926000Y118618000D03*
X296926000Y128778000D03*
X296926000Y116078000D03*
X296926000Y121158000D03*
X296926000Y123698000D03*
%TO.P,BB5,7*%
%TO.N,unconnected-(BB5-Pad7)*%
X299466000Y121158000D03*
X299466000Y123698000D03*
X299466000Y113538000D03*
X299466000Y116078000D03*
X299466000Y118618000D03*
X299466000Y128778000D03*
%TO.P,BB5,8*%
%TO.N,unconnected-(BB5-Pad8)*%
X302006000Y121158000D03*
X302006000Y123698000D03*
X302006000Y113538000D03*
X302006000Y128778000D03*
X302006000Y116078000D03*
X302006000Y118618000D03*
%TO.P,BB5,9*%
%TO.N,unconnected-(BB5-Pad9)*%
X302006000Y144018000D03*
X302006000Y141478000D03*
X302006000Y151638000D03*
X302006000Y149098000D03*
X302006000Y146558000D03*
X302006000Y136398000D03*
%TO.P,BB5,10*%
%TO.N,unconnected-(BB5-Pad10)*%
X299466000Y141478000D03*
X299466000Y136398000D03*
X299466000Y151638000D03*
X299466000Y144018000D03*
X299466000Y146558000D03*
X299466000Y149098000D03*
%TO.P,BB5,11*%
%TO.N,unconnected-(BB5-Pad11)*%
X296926000Y144018000D03*
X296926000Y146558000D03*
X296926000Y151638000D03*
X296926000Y136398000D03*
X296926000Y141478000D03*
X296926000Y149098000D03*
%TO.P,BB5,12*%
%TO.N,unconnected-(BB5-Pad12)*%
X294386000Y151638000D03*
X294386000Y141478000D03*
X294386000Y149098000D03*
X294386000Y144018000D03*
X294386000Y146558000D03*
X294386000Y136398000D03*
%TO.P,BB5,13*%
%TO.N,unconnected-(BB5-Pad13)*%
X291846000Y141478000D03*
X291846000Y149098000D03*
X291846000Y151638000D03*
X291846000Y136398000D03*
X291846000Y146558000D03*
X291846000Y144018000D03*
%TO.P,BB5,14*%
%TO.N,unconnected-(BB5-Pad14)*%
X289306000Y149098000D03*
X289306000Y141478000D03*
X289306000Y141478000D03*
X289306000Y144018000D03*
X289306000Y151638000D03*
X289306000Y136398000D03*
X289306000Y146558000D03*
%TO.P,BB5,15*%
%TO.N,unconnected-(BB5-Pad15)*%
X286766000Y141478000D03*
X286766000Y151638000D03*
X286766000Y149098000D03*
X286766000Y141478000D03*
X286766000Y146558000D03*
X286766000Y151638000D03*
X286766000Y136398000D03*
X286766000Y149098000D03*
X286766000Y144018000D03*
X286766000Y144018000D03*
X286766000Y146558000D03*
%TO.P,BB5,16*%
%TO.N,unconnected-(BB5-Pad16)*%
X284226000Y144018000D03*
X284226000Y141478000D03*
X284226000Y151638000D03*
X284226000Y136398000D03*
X284226000Y146558000D03*
X284226000Y149098000D03*
%TD*%
D12*
%TO.P,CP29,1,1*%
%TO.N,/INSTR+*%
X78486000Y106416000D03*
%TD*%
%TO.P,CP72,1,1*%
%TO.N,Net-(CP72-Pad1)*%
X214606000Y126482000D03*
%TD*%
%TO.P,CP58,1,1*%
%TO.N,/CTRL15*%
X172415200Y154676000D03*
%TD*%
%TO.P,CP98,1,1*%
%TO.N,/MCU+*%
X17272000Y107950000D03*
%TD*%
%TO.P,CP48,1,1*%
%TO.N,Net-(CP48-Pad1)*%
X140920000Y126482000D03*
%TD*%
%TO.P,CP103,1,1*%
%TO.N,/2_MCU/SYNC OUT*%
X71120000Y15240000D03*
%TD*%
%TO.P,CP86,1,1*%
%TO.N,/CTRL22*%
X243539800Y108956000D03*
%TD*%
%TO.P,CP91,1,1*%
%TO.N,Net-(CP91-Pad1)*%
X261239000Y157226000D03*
%TD*%
%TO.P,CP14,1,1*%
%TO.N,/CTRL4*%
X43007000Y108956000D03*
%TD*%
%TO.P,CP87,1,1*%
%TO.N,Net-(CP87-Pad1)*%
X243539800Y111496000D03*
%TD*%
%TO.P,CP9,1,1*%
%TO.N,/INSTR+*%
X43007000Y152146000D03*
%TD*%
D13*
%TO.P,BB7,1*%
%TO.N,unconnected-(BB7-Pad1)*%
X151638000Y64928000D03*
X149098000Y64928000D03*
X141478000Y64928000D03*
X144018000Y64928000D03*
X156718000Y64928000D03*
X146558000Y64928000D03*
D14*
%TO.P,BB7,2*%
%TO.N,unconnected-(BB7-Pad2)*%
X144018000Y62388000D03*
X156718000Y62388000D03*
X149098000Y62388000D03*
X141478000Y62388000D03*
X151638000Y62388000D03*
X146558000Y62388000D03*
%TO.P,BB7,3*%
%TO.N,unconnected-(BB7-Pad3)*%
X151638000Y59848000D03*
X141478000Y59848000D03*
X144018000Y59848000D03*
X156718000Y59848000D03*
X146558000Y59848000D03*
X149098000Y59848000D03*
%TO.P,BB7,4*%
%TO.N,unconnected-(BB7-Pad4)*%
X151638000Y57308000D03*
X146558000Y57308000D03*
X149098000Y57308000D03*
X156718000Y57308000D03*
X144018000Y57308000D03*
X141478000Y57308000D03*
%TO.P,BB7,5*%
%TO.N,unconnected-(BB7-Pad5)*%
X141478000Y54768000D03*
X144018000Y54768000D03*
X149098000Y54768000D03*
X156718000Y54768000D03*
X151638000Y54768000D03*
X146558000Y54768000D03*
%TO.P,BB7,6*%
%TO.N,unconnected-(BB7-Pad6)*%
X141478000Y52228000D03*
X151638000Y52228000D03*
X144018000Y52228000D03*
X149098000Y52228000D03*
X156718000Y52228000D03*
X146558000Y52228000D03*
%TO.P,BB7,7*%
%TO.N,unconnected-(BB7-Pad7)*%
X141478000Y49688000D03*
X149098000Y49688000D03*
X151638000Y49688000D03*
X156718000Y49688000D03*
X146558000Y49688000D03*
X144018000Y49688000D03*
%TO.P,BB7,8*%
%TO.N,unconnected-(BB7-Pad8)*%
X151638000Y47148000D03*
X141478000Y47148000D03*
X146558000Y47148000D03*
X149098000Y47148000D03*
X156718000Y47148000D03*
X144018000Y47148000D03*
%TO.P,BB7,9*%
%TO.N,unconnected-(BB7-Pad9)*%
X164338000Y47148000D03*
X179578000Y47148000D03*
X169418000Y47148000D03*
X177038000Y47148000D03*
X171958000Y47148000D03*
X174498000Y47148000D03*
%TO.P,BB7,10*%
%TO.N,unconnected-(BB7-Pad10)*%
X169418000Y49688000D03*
X164338000Y49688000D03*
X171958000Y49688000D03*
X179578000Y49688000D03*
X174498000Y49688000D03*
X177038000Y49688000D03*
%TO.P,BB7,11*%
%TO.N,unconnected-(BB7-Pad11)*%
X171958000Y52228000D03*
X179578000Y52228000D03*
X169418000Y52228000D03*
X177038000Y52228000D03*
X174498000Y52228000D03*
X164338000Y52228000D03*
%TO.P,BB7,12*%
%TO.N,unconnected-(BB7-Pad12)*%
X169418000Y54768000D03*
X174498000Y54768000D03*
X164338000Y54768000D03*
X179578000Y54768000D03*
X171958000Y54768000D03*
X177038000Y54768000D03*
%TO.P,BB7,13*%
%TO.N,unconnected-(BB7-Pad13)*%
X171958000Y57308000D03*
X164338000Y57308000D03*
X174498000Y57308000D03*
X177038000Y57308000D03*
X169418000Y57308000D03*
X179578000Y57308000D03*
%TO.P,BB7,14*%
%TO.N,unconnected-(BB7-Pad14)*%
X169418000Y59848000D03*
X164338000Y59848000D03*
X169418000Y59848000D03*
X179578000Y59848000D03*
X177038000Y59848000D03*
X174498000Y59848000D03*
X171958000Y59848000D03*
%TO.P,BB7,15*%
%TO.N,unconnected-(BB7-Pad15)*%
X169418000Y62388000D03*
X164338000Y62388000D03*
X179578000Y62388000D03*
X177038000Y62388000D03*
X171958000Y62388000D03*
X174498000Y62388000D03*
X174498000Y62388000D03*
X177038000Y62388000D03*
X179578000Y62388000D03*
X169418000Y62388000D03*
X171958000Y62388000D03*
%TO.P,BB7,16*%
%TO.N,unconnected-(BB7-Pad16)*%
X169418000Y64928000D03*
X177038000Y64928000D03*
X174498000Y64928000D03*
X179578000Y64928000D03*
X164338000Y64928000D03*
X171958000Y64928000D03*
%TD*%
D12*
%TO.P,CP76,1,1*%
%TO.N,Net-(CP76-Pad1)*%
X232410000Y172212000D03*
%TD*%
%TO.P,CP15,1,1*%
%TO.N,Net-(CP15-Pad1)*%
X43007000Y111496000D03*
%TD*%
D17*
%TO.P,X4,1,1*%
%TO.N,/CTRL1*%
X45880000Y185166000D03*
D18*
%TO.P,X4,2,2*%
%TO.N,/CTRL2*%
X48380000Y185166000D03*
%TO.P,X4,3,3*%
%TO.N,/CTRL3*%
X50880000Y185166000D03*
%TO.P,X4,4,4*%
%TO.N,/CTRL4*%
X53380000Y185166000D03*
%TO.P,X4,5,5*%
%TO.N,/CTRL5*%
X55880000Y185166000D03*
%TO.P,X4,6,6*%
%TO.N,/CTRL6*%
X58380000Y185166000D03*
%TO.P,X4,7,7*%
%TO.N,/CTRL7*%
X60880000Y185166000D03*
%TO.P,X4,8,8*%
%TO.N,/CTRL8*%
X63380000Y185166000D03*
%TO.P,X4,9,9*%
%TO.N,N/C*%
X65880000Y185166000D03*
%TO.P,X4,10,10*%
%TO.N,GNDD*%
X68380000Y185166000D03*
%TD*%
D17*
%TO.P,X5,1,1*%
%TO.N,/CTRL9*%
X137340000Y185166000D03*
D18*
%TO.P,X5,2,2*%
%TO.N,/CTRL10*%
X139840000Y185166000D03*
%TO.P,X5,3,3*%
%TO.N,/CTRL11*%
X142340000Y185166000D03*
%TO.P,X5,4,4*%
%TO.N,/CTRL12*%
X144840000Y185166000D03*
%TO.P,X5,5,5*%
%TO.N,/CTRL13*%
X147340000Y185166000D03*
%TO.P,X5,6,6*%
%TO.N,/CTRL14*%
X149840000Y185166000D03*
%TO.P,X5,7,7*%
%TO.N,/CTRL15*%
X152340000Y185166000D03*
%TO.P,X5,8,8*%
%TO.N,/CTRL16*%
X154840000Y185166000D03*
%TO.P,X5,9,9*%
%TO.N,N/C*%
X157340000Y185166000D03*
%TO.P,X5,10,10*%
%TO.N,GNDD*%
X159840000Y185166000D03*
%TD*%
D12*
%TO.P,CP46,1,1*%
%TO.N,/CTRL12*%
X134316000Y108956000D03*
%TD*%
D17*
%TO.P,X2,1,1*%
%TO.N,/INSTR+*%
X54436000Y6142000D03*
D18*
%TO.P,X2,2,2*%
%TO.N,/2_MCU/SYNC OUT*%
X56936000Y6142000D03*
%TO.P,X2,3,3*%
%TO.N,/2_MCU/SYNC IN*%
X59436000Y6142000D03*
%TO.P,X2,4,4*%
%TO.N,GNDD*%
X61936000Y6142000D03*
%TO.P,X2,5,5*%
X64436000Y6142000D03*
%TD*%
D12*
%TO.P,CP24,1,1*%
%TO.N,Net-(CP24-Pad1)*%
X67276000Y126482000D03*
%TD*%
%TO.P,CP78,1,1*%
%TO.N,/CTRL20*%
X225804000Y108956000D03*
%TD*%
%TO.P,CP101,1,1*%
%TO.N,GNDD*%
X3940000Y105664000D03*
%TD*%
%TO.P,CP33,1,1*%
%TO.N,/INSTR+*%
X116586000Y152146000D03*
%TD*%
%TO.P,CP51,1,1*%
%TO.N,Net-(CP51-Pad1)*%
X152095000Y157226000D03*
%TD*%
%TO.P,DD1,1,D13/PB5(SCK)*%
%TO.N,/2_MCU/SCK*%
X95504000Y63500000D03*
D22*
%TO.P,DD1,2,+3v3*%
%TO.N,N/C*%
X95504000Y60960000D03*
%TO.P,DD1,3,AREF*%
X95504000Y58420000D03*
%TO.P,DD1,4,A0/PC0*%
X95504000Y55880000D03*
%TO.P,DD1,5,A1/PC1*%
X95504000Y53340000D03*
%TO.P,DD1,6,A2/PC2*%
X95504000Y50800000D03*
%TO.P,DD1,7,A3/PC3*%
X95504000Y48260000D03*
%TO.P,DD1,8,A4/PC4*%
%TO.N,Net-(DD1-Pad8)*%
X95504000Y45720000D03*
%TO.P,DD1,9,A5/PC5*%
%TO.N,Net-(DD1-Pad9)*%
X95504000Y43180000D03*
%TO.P,DD1,10,A6/ADC[6]*%
%TO.N,N/C*%
X95504000Y40640000D03*
%TO.P,DD1,11,A7/ADC[7]*%
X95504000Y38100000D03*
%TO.P,DD1,12,+5V*%
%TO.N,/MCU+*%
X95504000Y35560000D03*
%TO.P,DD1,13,RESET/PC6*%
%TO.N,N/C*%
X95504000Y33020000D03*
%TO.P,DD1,14,GND*%
%TO.N,/MCU_GND*%
X95504000Y30480000D03*
%TO.P,DD1,15,Vin*%
%TO.N,N/C*%
X95504000Y27940000D03*
%TO.P,DD1,16,TX1/PD1*%
X110744000Y27940000D03*
%TO.P,DD1,17,RX0/PD0*%
X110744000Y30480000D03*
%TO.P,DD1,18,PC6/RESET*%
X110744000Y33020000D03*
%TO.P,DD1,19,GND*%
%TO.N,/MCU_GND*%
X110744000Y35560000D03*
%TO.P,DD1,20,D2/PD2*%
%TO.N,Net-(DD1-Pad20)*%
X110744000Y38100000D03*
%TO.P,DD1,21,D3/PD3*%
%TO.N,Net-(DD1-Pad21)*%
X110744000Y40640000D03*
%TO.P,DD1,22,D4/PD4*%
%TO.N,/2_MCU/SYNC IN*%
X110744000Y43180000D03*
%TO.P,DD1,23,D5/PD5*%
%TO.N,/2_MCU/SYNC OUT*%
X110744000Y45720000D03*
%TO.P,DD1,24,D6/PD6*%
%TO.N,N/C*%
X110744000Y48260000D03*
%TO.P,DD1,25,D7/PD7*%
%TO.N,Net-(DD1-Pad25)*%
X110744000Y50800000D03*
%TO.P,DD1,26,D8/PB0*%
%TO.N,N/C*%
X110744000Y53340000D03*
%TO.P,DD1,27,D9/PB1*%
%TO.N,Net-(DD1-Pad27)*%
X110744000Y55880000D03*
%TO.P,DD1,28,D10/PB2(CS/SS)*%
%TO.N,/2_MCU/CS{slash}SS*%
X110744000Y58420000D03*
%TO.P,DD1,29,D11/PB3(MOSI)*%
%TO.N,/2_MCU/MOSI*%
X110744000Y60960000D03*
D23*
%TO.P,DD1,30,D12/PB4(MISO)*%
%TO.N,N/C*%
X110744000Y63500000D03*
%TD*%
D12*
%TO.P,CP65,1,1*%
%TO.N,/INSTR+*%
X208026000Y152146000D03*
%TD*%
%TO.P,CP75,1,1*%
%TO.N,Net-(CP75-Pad1)*%
X225806000Y157226000D03*
%TD*%
%TO.P,CP67,1,1*%
%TO.N,Net-(CP67-Pad1)*%
X208026000Y157226000D03*
%TD*%
%TO.P,CP23,1,1*%
%TO.N,Net-(CP23-Pad1)*%
X60672000Y111496000D03*
%TD*%
%TO.P,CP66,1,1*%
%TO.N,/CTRL17*%
X208026000Y154686000D03*
%TD*%
%TO.P,CP53,1,1*%
%TO.N,/INSTR+*%
X152095000Y106416000D03*
%TD*%
D15*
%TO.P,BB1,1*%
%TO.N,unconnected-(BB1-Pad1)*%
X5832000Y33528000D03*
X5832000Y23368000D03*
X5832000Y38608000D03*
X5832000Y28448000D03*
X5832000Y25908000D03*
X5832000Y30988000D03*
D16*
%TO.P,BB1,2*%
%TO.N,unconnected-(BB1-Pad2)*%
X8372000Y25908000D03*
X8372000Y23368000D03*
X8372000Y38608000D03*
X8372000Y28448000D03*
X8372000Y33528000D03*
X8372000Y30988000D03*
%TO.P,BB1,3*%
%TO.N,unconnected-(BB1-Pad3)*%
X10912000Y28448000D03*
X10912000Y38608000D03*
X10912000Y33528000D03*
X10912000Y23368000D03*
X10912000Y30988000D03*
X10912000Y25908000D03*
%TO.P,BB1,4*%
%TO.N,unconnected-(BB1-Pad4)*%
X13452000Y28448000D03*
X13452000Y38608000D03*
X13452000Y25908000D03*
X13452000Y33528000D03*
X13452000Y23368000D03*
X13452000Y30988000D03*
%TO.P,BB1,5*%
%TO.N,unconnected-(BB1-Pad5)*%
X15992000Y25908000D03*
X15992000Y38608000D03*
X15992000Y28448000D03*
X15992000Y23368000D03*
X15992000Y30988000D03*
X15992000Y33528000D03*
%TO.P,BB1,6*%
%TO.N,unconnected-(BB1-Pad6)*%
X18532000Y38608000D03*
X18532000Y28448000D03*
X18532000Y23368000D03*
X18532000Y30988000D03*
X18532000Y33528000D03*
X18532000Y25908000D03*
%TO.P,BB1,7*%
%TO.N,unconnected-(BB1-Pad7)*%
X21072000Y25908000D03*
X21072000Y33528000D03*
X21072000Y30988000D03*
X21072000Y28448000D03*
X21072000Y38608000D03*
X21072000Y23368000D03*
%TO.P,BB1,8*%
%TO.N,unconnected-(BB1-Pad8)*%
X23612000Y30988000D03*
X23612000Y38608000D03*
X23612000Y23368000D03*
X23612000Y25908000D03*
X23612000Y28448000D03*
X23612000Y33528000D03*
%TO.P,BB1,9*%
%TO.N,unconnected-(BB1-Pad9)*%
X23612000Y51308000D03*
X23612000Y53848000D03*
X23612000Y46228000D03*
X23612000Y56388000D03*
X23612000Y58928000D03*
X23612000Y61468000D03*
%TO.P,BB1,10*%
%TO.N,unconnected-(BB1-Pad10)*%
X21072000Y58928000D03*
X21072000Y56388000D03*
X21072000Y51308000D03*
X21072000Y53848000D03*
X21072000Y61468000D03*
X21072000Y46228000D03*
%TO.P,BB1,11*%
%TO.N,unconnected-(BB1-Pad11)*%
X18532000Y51308000D03*
X18532000Y46228000D03*
X18532000Y56388000D03*
X18532000Y61468000D03*
X18532000Y53848000D03*
X18532000Y58928000D03*
%TO.P,BB1,12*%
%TO.N,unconnected-(BB1-Pad12)*%
X15992000Y58928000D03*
X15992000Y51308000D03*
X15992000Y53848000D03*
X15992000Y61468000D03*
X15992000Y46228000D03*
X15992000Y56388000D03*
%TO.P,BB1,13*%
%TO.N,unconnected-(BB1-Pad13)*%
X13452000Y61468000D03*
X13452000Y56388000D03*
X13452000Y51308000D03*
X13452000Y46228000D03*
X13452000Y53848000D03*
X13452000Y58928000D03*
%TO.P,BB1,14*%
%TO.N,unconnected-(BB1-Pad14)*%
X10912000Y51308000D03*
X10912000Y51308000D03*
X10912000Y61468000D03*
X10912000Y58928000D03*
X10912000Y53848000D03*
X10912000Y56388000D03*
X10912000Y46228000D03*
%TO.P,BB1,15*%
%TO.N,unconnected-(BB1-Pad15)*%
X8372000Y51308000D03*
X8372000Y61468000D03*
X8372000Y61468000D03*
X8372000Y53848000D03*
X8372000Y58928000D03*
X8372000Y58928000D03*
X8372000Y56388000D03*
X8372000Y46228000D03*
X8372000Y53848000D03*
X8372000Y56388000D03*
X8372000Y51308000D03*
%TO.P,BB1,16*%
%TO.N,unconnected-(BB1-Pad16)*%
X5832000Y51308000D03*
X5832000Y56388000D03*
X5832000Y46228000D03*
X5832000Y53848000D03*
X5832000Y61468000D03*
X5832000Y58928000D03*
%TD*%
D12*
%TO.P,CP97,1,1*%
%TO.N,+5V*%
X7874000Y122428000D03*
%TD*%
%TO.P,CP44,1,1*%
%TO.N,Net-(CP44-Pad1)*%
X140920000Y172212000D03*
%TD*%
%TO.P,CP38,1,1*%
%TO.N,/CTRL10*%
X116586000Y108956000D03*
%TD*%
%TO.P,CP4,1,1*%
%TO.N,Net-(CP4-Pad1)*%
X31750000Y172212000D03*
%TD*%
%TO.P,CP7,1,1*%
%TO.N,Net-(CP7-Pad1)*%
X25146000Y111496000D03*
%TD*%
%TO.P,CP81,1,1*%
%TO.N,/INSTR+*%
X243459000Y152146000D03*
%TD*%
%TO.P,CP62,1,1*%
%TO.N,/CTRL16*%
X172415200Y108966000D03*
%TD*%
%TO.P,CP54,1,1*%
%TO.N,/CTRL14*%
X152095000Y108956000D03*
%TD*%
%TO.P,CP100,1,1*%
%TO.N,Net-(CP100-Pad1)*%
X7874000Y96266000D03*
%TD*%
%TO.P,CP77,1,1*%
%TO.N,/INSTR+*%
X225804000Y106416000D03*
%TD*%
%TO.P,CP35,1,1*%
%TO.N,Net-(CP35-Pad1)*%
X116586000Y157226000D03*
%TD*%
%TO.P,CP11,1,1*%
%TO.N,Net-(CP11-Pad1)*%
X43007000Y157226000D03*
%TD*%
%TO.P,CP68,1,1*%
%TO.N,Net-(CP68-Pad1)*%
X214630000Y172212000D03*
%TD*%
%TO.P,CP92,1,1*%
%TO.N,Net-(CP92-Pad1)*%
X267843000Y172212000D03*
%TD*%
%TO.P,CP52,1,1*%
%TO.N,Net-(CP52-Pad1)*%
X158699000Y172212000D03*
%TD*%
%TO.P,CP74,1,1*%
%TO.N,/CTRL19*%
X225806000Y154686000D03*
%TD*%
D15*
%TO.P,DD5,1,QB*%
%TO.N,/RL18*%
X230124000Y88890000D03*
D16*
%TO.P,DD5,2,QC*%
%TO.N,/RL19*%
X232664000Y88890000D03*
%TO.P,DD5,3,QD*%
%TO.N,/RL20*%
X235204000Y88890000D03*
%TO.P,DD5,4,QE*%
%TO.N,/RL21*%
X237744000Y88890000D03*
%TO.P,DD5,5,QF*%
%TO.N,/RL22*%
X240284000Y88890000D03*
%TO.P,DD5,6,QG*%
%TO.N,/RL23*%
X242824000Y88890000D03*
%TO.P,DD5,7,QH*%
%TO.N,/RL24*%
X245364000Y88890000D03*
%TO.P,DD5,8,GND*%
%TO.N,GNDD*%
X247904000Y88890000D03*
%TO.P,DD5,9,QH'*%
%TO.N,N/C*%
X247904000Y81270000D03*
%TO.P,DD5,10,~SRCLR*%
X245364000Y81270000D03*
%TO.P,DD5,11,SRCLK*%
%TO.N,/2_MCU/SCK*%
X242824000Y81270000D03*
%TO.P,DD5,12,RCLK*%
%TO.N,/2_MCU/CS{slash}SS*%
X240284000Y81270000D03*
%TO.P,DD5,13,~OE*%
%TO.N,GNDD*%
X237744000Y81270000D03*
%TO.P,DD5,14,SER*%
%TO.N,Net-(DD4-Pad9)*%
X235204000Y81270000D03*
%TO.P,DD5,15,QA*%
%TO.N,/RL17*%
X232664000Y81270000D03*
%TO.P,DD5,16,VCC*%
%TO.N,+5V*%
X230124000Y81270000D03*
%TD*%
D15*
%TO.P,DD3,1,QB*%
%TO.N,/RL2*%
X44948000Y88890000D03*
D16*
%TO.P,DD3,2,QC*%
%TO.N,/RL3*%
X47488000Y88890000D03*
%TO.P,DD3,3,QD*%
%TO.N,/RL4*%
X50028000Y88890000D03*
%TO.P,DD3,4,QE*%
%TO.N,/RL5*%
X52568000Y88890000D03*
%TO.P,DD3,5,QF*%
%TO.N,/RL6*%
X55108000Y88890000D03*
%TO.P,DD3,6,QG*%
%TO.N,/RL7*%
X57648000Y88890000D03*
%TO.P,DD3,7,QH*%
%TO.N,/RL8*%
X60188000Y88890000D03*
%TO.P,DD3,8,GND*%
%TO.N,GNDD*%
X62728000Y88890000D03*
%TO.P,DD3,9,QH'*%
%TO.N,Net-(DD3-Pad9)*%
X62728000Y81270000D03*
%TO.P,DD3,10,~SRCLR*%
%TO.N,N/C*%
X60188000Y81270000D03*
%TO.P,DD3,11,SRCLK*%
%TO.N,/2_MCU/SCK*%
X57648000Y81270000D03*
%TO.P,DD3,12,RCLK*%
%TO.N,/2_MCU/CS{slash}SS*%
X55108000Y81270000D03*
%TO.P,DD3,13,~OE*%
%TO.N,GNDD*%
X52568000Y81270000D03*
%TO.P,DD3,14,SER*%
%TO.N,/2_MCU/MOSI*%
X50028000Y81270000D03*
%TO.P,DD3,15,QA*%
%TO.N,/RL1*%
X47488000Y81270000D03*
%TO.P,DD3,16,VCC*%
%TO.N,+5V*%
X44948000Y81270000D03*
%TD*%
D15*
%TO.P,DD4,1,QB*%
%TO.N,/RL10*%
X137150000Y88890000D03*
D16*
%TO.P,DD4,2,QC*%
%TO.N,/RL11*%
X139690000Y88890000D03*
%TO.P,DD4,3,QD*%
%TO.N,/RL12*%
X142230000Y88890000D03*
%TO.P,DD4,4,QE*%
%TO.N,/RL13*%
X144770000Y88890000D03*
%TO.P,DD4,5,QF*%
%TO.N,/RL14*%
X147310000Y88890000D03*
%TO.P,DD4,6,QG*%
%TO.N,/RL15*%
X149850000Y88890000D03*
%TO.P,DD4,7,QH*%
%TO.N,/RL16*%
X152390000Y88890000D03*
%TO.P,DD4,8,GND*%
%TO.N,GNDD*%
X154930000Y88890000D03*
%TO.P,DD4,9,QH'*%
%TO.N,Net-(DD4-Pad9)*%
X154930000Y81270000D03*
%TO.P,DD4,10,~SRCLR*%
%TO.N,N/C*%
X152390000Y81270000D03*
%TO.P,DD4,11,SRCLK*%
%TO.N,/2_MCU/SCK*%
X149850000Y81270000D03*
%TO.P,DD4,12,RCLK*%
%TO.N,/2_MCU/CS{slash}SS*%
X147310000Y81270000D03*
%TO.P,DD4,13,~OE*%
%TO.N,GNDD*%
X144770000Y81270000D03*
%TO.P,DD4,14,SER*%
%TO.N,Net-(DD3-Pad9)*%
X142230000Y81270000D03*
%TO.P,DD4,15,QA*%
%TO.N,/RL9*%
X139690000Y81270000D03*
%TO.P,DD4,16,VCC*%
%TO.N,+5V*%
X137150000Y81270000D03*
%TD*%
D24*
%TO.N,/INSTR+*%
X194310000Y152146000D03*
X194310000Y106426000D03*
X170129200Y106426000D03*
%TO.N,+5V*%
X135636000Y122428000D03*
X209296000Y122428000D03*
X153416000Y122428000D03*
X262636000Y122428000D03*
X263398000Y168148000D03*
X173482000Y168148000D03*
X58420000Y122428000D03*
X76200000Y122428000D03*
X44196000Y168148000D03*
X118110000Y122428000D03*
X40386000Y122428000D03*
X209550000Y168148000D03*
X118110000Y168148000D03*
X198120000Y122428000D03*
X109728000Y122428000D03*
X26670000Y168148000D03*
X227330000Y168148000D03*
X244856000Y168148000D03*
X244856000Y122428000D03*
X80010000Y168148000D03*
X22860000Y122428000D03*
X173990000Y122428000D03*
X135636000Y168148000D03*
X61722000Y168148000D03*
X153416000Y168148000D03*
X198120000Y168148000D03*
X227330000Y122428000D03*
%TO.N,/MCU+*%
X97536000Y12954000D03*
X97536000Y7112000D03*
%TO.N,GNDD*%
X233330511Y110236000D03*
X196596000Y110236000D03*
X123856511Y110140511D03*
X33168511Y110130511D03*
X70358000Y155956000D03*
X196639306Y155999306D03*
X5842000Y110236000D03*
X250654694Y155999306D03*
X159468694Y155999306D03*
X68072000Y110236000D03*
X250698000Y110236000D03*
X50546000Y155956000D03*
X141890511Y110140511D03*
X268732000Y109982000D03*
X141688694Y155999306D03*
X269240000Y155956000D03*
X32512000Y155702000D03*
X232707306Y155999306D03*
X50292000Y110236000D03*
X123654694Y155999306D03*
X159416511Y110140511D03*
X215138000Y155956000D03*
X215042511Y110140511D03*
X86360000Y155956000D03*
X86000511Y110130511D03*
X179673489Y110140511D03*
X179788694Y155999306D03*
%TO.N,/MCU_GND*%
X99822000Y20574000D03*
X121666000Y20574000D03*
%TO.N,/2_MCU/CS{slash}SS*%
X117602000Y75184000D03*
%TO.N,/RL5*%
X56896000Y146050000D03*
X52832000Y146050000D03*
%TO.N,/RL13*%
X149352000Y145796000D03*
X144907000Y145669000D03*
%TO.N,/RL21*%
X237744000Y144780000D03*
X241046000Y144780000D03*
%TD*%
D25*
%TO.N,/INSTR+*%
X60672000Y106416000D02*
X78486000Y106416000D01*
X54436000Y6142000D02*
X50754000Y6142000D01*
X25146000Y106416000D02*
X27422000Y106416000D01*
X194310000Y152146000D02*
X261239000Y152146000D01*
X100584000Y106426000D02*
X172415200Y106426000D01*
X36078000Y106416000D02*
X60672000Y106416000D01*
X27432000Y106426000D02*
X30988000Y106426000D01*
X30988000Y106426000D02*
X30998000Y106416000D01*
X172415200Y106426000D02*
X261356000Y106426000D01*
X30998000Y106416000D02*
X36078000Y106416000D01*
X50754000Y6142000D02*
X36078000Y20818000D01*
X78486000Y106416000D02*
X100574000Y106416000D01*
X25146000Y152146000D02*
X43007000Y152146000D01*
X60672000Y152146000D02*
X78486000Y152146000D01*
X100574000Y106416000D02*
X100584000Y106426000D01*
X43007000Y152146000D02*
X60672000Y152146000D01*
X36078000Y20818000D02*
X36078000Y106416000D01*
X27422000Y106416000D02*
X27432000Y106426000D01*
X78486000Y152146000D02*
X194310000Y152146000D01*
%TO.N,+5V*%
X22860000Y122428000D02*
X40132000Y122428000D01*
X26670000Y168148000D02*
X263398000Y168148000D01*
X40132000Y122428000D02*
X262636000Y122428000D01*
X22860000Y122428000D02*
X7874000Y122428000D01*
%TO.N,/MCU+*%
X97536000Y12954000D02*
X97536000Y7366000D01*
X97536000Y7366000D02*
X97536000Y7112000D01*
%TO.N,GNDD*%
X52568000Y67574000D02*
X52568000Y81270000D01*
X144770000Y81270000D02*
X144770000Y83810000D01*
X52568000Y81270000D02*
X52568000Y83302000D01*
X145288000Y84328000D02*
X154686000Y84328000D01*
X54356000Y85090000D02*
X61722000Y85090000D01*
X5947489Y110130511D02*
X87735489Y110130511D01*
X275082000Y155956000D02*
X275844000Y156718000D01*
X274066000Y182372000D02*
X274828000Y183134000D01*
X62738000Y86106000D02*
X62728000Y86116000D01*
X144770000Y83810000D02*
X145288000Y84328000D01*
X274828000Y183134000D02*
X274654000Y183308000D01*
X32512000Y155702000D02*
X32809306Y155999306D01*
X154930000Y84572000D02*
X154930000Y88890000D01*
X215435306Y155999306D02*
X269196694Y155999306D01*
X247904000Y84582000D02*
X247904000Y88890000D01*
X275844000Y164846000D02*
X274066000Y166624000D01*
X275844000Y156718000D02*
X275844000Y164846000D01*
X61936000Y6142000D02*
X64436000Y6142000D01*
X5842000Y110236000D02*
X5947489Y110130511D01*
X215094694Y155999306D02*
X215138000Y155956000D01*
X62728000Y86116000D02*
X62728000Y88890000D01*
X87735489Y110130511D02*
X87840978Y110236000D01*
X274066000Y166624000D02*
X274066000Y182372000D01*
X61722000Y85090000D02*
X62738000Y86106000D01*
X274654000Y183308000D02*
X274654000Y185212000D01*
X237998000Y84074000D02*
X247396000Y84074000D01*
X268478000Y110236000D02*
X268732000Y109982000D01*
X269240000Y155956000D02*
X275082000Y155956000D01*
X61936000Y58206000D02*
X52568000Y67574000D01*
X274654000Y185212000D02*
X251326000Y185212000D01*
X269196694Y155999306D02*
X269240000Y155956000D01*
X154686000Y84328000D02*
X154930000Y84572000D01*
X61936000Y6142000D02*
X61936000Y58206000D01*
X52568000Y83302000D02*
X54356000Y85090000D01*
X237744000Y81270000D02*
X237744000Y83820000D01*
X237744000Y83820000D02*
X237998000Y84074000D01*
X32809306Y155999306D02*
X215094694Y155999306D01*
X247396000Y84074000D02*
X247904000Y84582000D01*
X87840978Y110236000D02*
X268478000Y110236000D01*
%TO.N,/MCU_GND*%
X99822000Y20574000D02*
X121666000Y20574000D01*
X99568000Y20828000D02*
X99822000Y20574000D01*
X95504000Y30480000D02*
X99568000Y30480000D01*
X99568000Y30480000D02*
X99568000Y20828000D01*
X99568000Y30480000D02*
X99568000Y34290000D01*
X92964000Y30480000D02*
X95504000Y30480000D01*
X91226000Y32218000D02*
X92964000Y30480000D01*
X88692000Y32218000D02*
X74716000Y32218000D01*
X99568000Y34290000D02*
X100838000Y35560000D01*
X100838000Y35560000D02*
X110744000Y35560000D01*
X88691999Y32217995D02*
X91226005Y32217995D01*
%TO.N,Net-(DD1-Pad8)*%
X90424000Y47244000D02*
X90424000Y57912000D01*
X91948000Y45720000D02*
X90424000Y47244000D01*
X90424000Y57912000D02*
X89356000Y58980000D01*
X89356000Y58980000D02*
X86832000Y58980000D01*
X95504000Y45720000D02*
X91948000Y45720000D01*
%TO.N,Net-(DD1-Pad9)*%
X95504000Y43180000D02*
X77574000Y43180000D01*
X77574000Y43180000D02*
X77470000Y43284000D01*
%TO.N,/2_MCU/CS{slash}SS*%
X117602000Y75184000D02*
X146812000Y75184000D01*
X147310000Y75702000D02*
X147828000Y75184000D01*
X238760000Y75184000D02*
X240284000Y76708000D01*
X240284000Y76708000D02*
X240284000Y81270000D01*
X146812000Y75184000D02*
X147320000Y75692000D01*
X147310000Y75702000D02*
X147310000Y81270000D01*
X147828000Y75184000D02*
X238760000Y75184000D01*
%TO.N,/RL5*%
X52832000Y146050000D02*
X57150000Y146050000D01*
%TO.N,/RL13*%
X145034000Y145796000D02*
X149352000Y145796000D01*
X144907000Y145669000D02*
X145034000Y145796000D01*
%TO.N,/RL21*%
X237744000Y144780000D02*
X241046000Y144780000D01*
%TO.N,Net-(DD2-Pad1)*%
X67056000Y58166000D02*
X67870000Y58980000D01*
X67056000Y32258000D02*
X67056000Y58166000D01*
X67870000Y58980000D02*
X82332000Y58980000D01*
%TO.N,Net-(DD2-Pad2)*%
X69596000Y32258000D02*
X69596000Y41910000D01*
X69596000Y41910000D02*
X70970000Y43284000D01*
X70970000Y43284000D02*
X72970000Y43284000D01*
%TD*%
M02*
